<svg xmlns="http://www.w3.org/2000/svg" width="16.029" height="16" viewBox="0 0 16.029 16">
  <g id="phone-call" transform="translate(-0.934 -1)">
    <path id="Path_124234" data-name="Path 124234" d="M12.938,13.423a1.6,1.6,0,0,0-2.266,0L9.9,14.2a13.936,13.936,0,0,1-2.4-1.93,13.936,13.936,0,0,1-1.93-2.4l.773-.773a1.6,1.6,0,0,0,0-2.266l-1.509-1.5A1.562,1.562,0,0,0,3.7,4.85a1.6,1.6,0,0,0-1.136.469l-.725.72a3.4,3.4,0,0,0-.874,2.8,11.3,11.3,0,0,0,3.5,6.43,11.472,11.472,0,0,0,6.451,3.524,4.2,4.2,0,0,0,.448,0,3.236,3.236,0,0,0,2.351-.874l.72-.725a1.6,1.6,0,0,0,.469-1.136,1.562,1.562,0,0,0-.469-1.125Z" transform="translate(0 -1.797)"/>
    <path id="Path_124235" data-name="Path 124235" d="M21.184,3.34A7.954,7.954,0,0,0,15.533,1a.533.533,0,1,0,0,1.066,6.931,6.931,0,0,1,6.931,6.989.533.533,0,1,0,1.066,0A7.949,7.949,0,0,0,21.184,3.34Z" transform="translate(-6.567 0)"/>
    <path id="Path_124236" data-name="Path 124236" d="M18.468,9.341a3.2,3.2,0,0,1,.944,2.3.533.533,0,1,0,1.066,0A4.265,4.265,0,0,0,16.213,7.32a.533.533,0,0,0,0,1.066,3.2,3.2,0,0,1,2.255.954Z" transform="translate(-6.884 -2.951)"/>
  </g>
</svg>
