<svg xmlns="http://www.w3.org/2000/svg" width="24.999" height="25" viewBox="0 0 24.999 25">
  <g id="telephone_2_" data-name="telephone (2)" transform="translate(-0.006)">
    <g id="Group_47282" data-name="Group 47282" transform="translate(0.006)">
      <path id="Path_123998" data-name="Path 123998" d="M19.012,60.275a1.752,1.752,0,0,0-2.648,0c-.619.614-1.238,1.228-1.847,1.852a.365.365,0,0,1-.51.094c-.4-.218-.827-.4-1.212-.635a19.2,19.2,0,0,1-4.63-4.214,10.969,10.969,0,0,1-1.66-2.658.381.381,0,0,1,.094-.489c.619-.6,1.223-1.212,1.831-1.826a1.758,1.758,0,0,0-.005-2.71c-.484-.489-.968-.968-1.451-1.457-.5-.5-.994-1-1.5-1.5a1.763,1.763,0,0,0-2.648.005c-.624.614-1.223,1.243-1.857,1.847A3.015,3.015,0,0,0,.024,50.62,8.618,8.618,0,0,0,.69,54.329a22.539,22.539,0,0,0,4,6.664,24.756,24.756,0,0,0,8.2,6.414,11.857,11.857,0,0,0,4.542,1.321,3.328,3.328,0,0,0,2.856-1.087c.531-.593,1.129-1.134,1.691-1.7a1.77,1.77,0,0,0,.01-2.695Q20.505,61.755,19.012,60.275Z" transform="translate(-0.006 -43.737)" fill="#40bee2"/>
      <path id="Path_123999" data-name="Path 123999" d="M243.493,103.4l1.92-.328A8.617,8.617,0,0,0,238.124,96l-.271,1.93a6.659,6.659,0,0,1,5.639,5.468Z" transform="translate(-225.48 -91.006)" fill="#40bee2"/>
      <path id="Path_124000" data-name="Path 124000" d="M251.14,4.047A14.155,14.155,0,0,0,243.025,0l-.271,1.93a12.351,12.351,0,0,1,10.451,10.129l1.92-.328A14.258,14.258,0,0,0,251.14,4.047Z" transform="translate(-230.126)" fill="#40bee2"/>
    </g>
  </g>
</svg>
