<svg xmlns="http://www.w3.org/2000/svg" width="50" height="20.119" viewBox="0 0 50 20.119">
  <g id="nook_logo" data-name="nook logo" transform="translate(-55.93 -116.17)">
    <path id="Path_126734" data-name="Path 126734" d="M164.921,175.775a.413.413,0,0,1,.4-.384.384.384,0,0,1,.381.384Zm1,.1a.621.621,0,0,0-.595-.672.636.636,0,0,0-.624.7.663.663,0,0,0,.678.711.841.841,0,0,0,.526-.164v-.211a.776.776,0,0,1-.5.19.476.476,0,0,1-.488-.508h1.008v-.048Zm-1.558-1.35h-.208v2.064h.208Zm-1.573,1.062a.55.55,0,0,1,.387-.2.467.467,0,0,1,.425.508.506.506,0,0,1-.5.535.96.96,0,0,1-.312-.054Zm-.208.928a1.293,1.293,0,0,0,.5.1.687.687,0,0,0,.734-.737.621.621,0,0,0-.595-.675.663.663,0,0,0-.428.172v-.85h-.208Zm-1.041-1.127a.523.523,0,1,1-.484.522.523.523,0,0,1,.484-.522m0-.184a.7.7,0,1,0,.5.2.708.708,0,0,0-.5-.2m-1.088-.678h-.22v1.7l-1.487-1.7h-.193v2.064h.22v-1.7l1.487,1.7h.193Zm-3.622,1.6a.708.708,0,0,1-.506.277.3.3,0,0,1-.318-.3c0-.1,0-.2.392-.443Zm-.375-.729a.6.6,0,0,1-.223-.387.28.28,0,0,1,.556,0c0,.19-.181.3-.333.378m.666.729a1.968,1.968,0,0,0,.3-.565h-.232a1.621,1.621,0,0,1-.226.4l-.369-.4a.687.687,0,0,0,.4-.544.449.449,0,0,0-.479-.443.464.464,0,0,0-.5.461.7.7,0,0,0,.244.482.755.755,0,0,0-.5.616.508.508,0,0,0,.523.494.946.946,0,0,0,.687-.33l.277.3h.3Zm-2.379-.806a.722.722,0,0,0-.387-.116.39.39,0,0,0-.434.366c0,.226.19.324.354.4s.3.149.3.28-.122.181-.229.181a.853.853,0,0,1-.44-.155v.217a.913.913,0,0,0,.437.122.379.379,0,0,0,.2-.729c-.324-.169-.416-.214-.416-.324s.089-.175.229-.175a.723.723,0,0,1,.384.14Zm-2.081.452a.413.413,0,0,1,.4-.384.381.381,0,0,1,.378.384Zm1,.1a.621.621,0,0,0-.595-.672.636.636,0,0,0-.624.7.663.663,0,0,0,.678.711.824.824,0,0,0,.523-.164v-.211a.758.758,0,0,1-.5.19.476.476,0,0,1-.488-.508h1.008Zm-2.676-.645v1.359h.208v-.963a.434.434,0,0,1,.378-.238c.241,0,.327.178.327.407v.794h.208v-.812c0-.351-.181-.574-.485-.574a.523.523,0,0,0-.428.232v-.205Zm-1.16,0v1.359h.208v-.595a.821.821,0,0,1,.051-.327.413.413,0,0,1,.333-.259.434.434,0,0,1,.262.128l.113-.181a.6.6,0,0,0-.324-.161.41.41,0,0,0-.205.074.93.93,0,0,0-.229.253v-.3Zm-.663,1.088a.452.452,0,0,1-.3.146.214.214,0,0,1-.229-.208c0-.169.187-.3.535-.351Zm.419.033a.381.381,0,0,1-.172.1c-.033,0-.039,0-.039-.071v-.749a.4.4,0,0,0-.458-.422.684.684,0,0,0-.443.167v.214a.615.615,0,0,1,.422-.2c.256,0,.271.172.271.262v.119c-.562.1-.743.28-.743.5a.345.345,0,0,0,.351.345.6.6,0,0,0,.4-.155.144.144,0,0,0,.149.155c.036,0,.1,0,.268-.122Zm-2.174-.708c.41,0,.526.2.526.375s-.077.372-.52.372h-.369v-.746Zm-.137-.919c.333,0,.479.1.479.354s-.134.366-.479.366h-.226v-.72Zm-.452-.2v2.064h.749a.568.568,0,0,0,.595-.553.529.529,0,0,0-.488-.529.47.47,0,0,0,.3-.446c0-.416-.351-.535-.657-.535Zm-1.017.714h-.226l-.41.856-.431-.856H144.5l.55,1.082-.446.972h.223Zm-2.415.357a.55.55,0,0,1,.387-.2.464.464,0,0,1,.425.508.506.506,0,0,1-.479.547.96.96,0,0,1-.312-.053Zm-.211.928a1.317,1.317,0,0,0,.5.1.687.687,0,0,0,.734-.737.621.621,0,0,0-.595-.675.663.663,0,0,0-.428.172v-.85h-.211Z" transform="translate(-61.299 -40.999)"/>
    <rect id="Rectangle_14285" data-name="Rectangle 14285" width="2.147" height="15.703" transform="translate(93.504 116.17)"/>
    <path id="Path_126735" data-name="Path 126735" d="M197.23,143.608l-4.921-4.981,4.615-5.284-2.578,0-4.826,5.308,5.21,5.29h2.828Z" transform="translate(-93.867 -12.064)"/>
    <path id="Path_126736" data-name="Path 126736" d="M145.124,132.64h0a5.5,5.5,0,1,0,5.5,5.507,5.5,5.5,0,0,0-5.5-5.507m0,8.861a3.357,3.357,0,1,1,3.354-3.354,3.357,3.357,0,0,1-3.354,3.354" transform="translate(-58.804 -11.573)"/>
    <path id="Path_126737" data-name="Path 126737" d="M104.194,133a5.5,5.5,0,1,0,5.5,5.5,5.5,5.5,0,0,0-5.5-5.5m-3.354,5.5a3.357,3.357,0,1,1,3.354,3.354,3.357,3.357,0,0,1-3.354-3.354" transform="translate(-30.045 -11.826)"/>
    <path id="Path_126738" data-name="Path 126738" d="M64.791,138.149a3.271,3.271,0,0,0-3.357-3.271,3.321,3.321,0,0,0-3.357,3.256v5.352H55.93v-5.442a5.508,5.508,0,0,1,11.008,0v5.477H64.791Z" transform="translate(0 -11.643)"/>
    <path id="Path_126739" data-name="Path 126739" d="M217.071,134.523v-.934h-.351v-.2h.919v.2H217.3v.934Zm.7,0V133.39h.36l.211.782.2-.782h.36v1.133h-.22v-.892l-.244.892h-.205l-.247-.892v.892Z" transform="translate(-112.979 -12.1)"/>
  </g>
</svg>
