<svg xmlns="http://www.w3.org/2000/svg" xmlns:xlink="http://www.w3.org/1999/xlink" width="40" height="40" viewBox="0 0 40 40">
  <defs>
    <clipPath id="clip-path">
      <path id="path6287" d="M0-682.665H40v40H0Z" transform="translate(0 682.665)"/>
    </clipPath>
  </defs>
  <g id="g6261" transform="translate(0 682.665)">
    <g id="g6263" transform="translate(8.839 -667.513)">
      <path id="path6265" d="M-1.364-8.828h-8.05A.586.586,0,0,1-10-9.414.586.586,0,0,1-9.414-10h8.05a.586.586,0,0,1,.586.586A.586.586,0,0,1-1.364-8.828Z" transform="translate(10 10)"/>
    </g>
    <g id="g6267" transform="translate(8.839 -664.987)">
      <path id="path6269" d="M-1.364-8.828h-8.05A.586.586,0,0,1-10-9.414.586.586,0,0,1-9.414-10h8.05a.586.586,0,0,1,.586.586A.586.586,0,0,1-1.364-8.828Z" transform="translate(10 10)"/>
    </g>
    <g id="g6271" transform="translate(8.839 -662.462)">
      <path id="path6273" d="M-1.364-8.828h-8.05A.586.586,0,0,1-10-9.414.586.586,0,0,1-9.414-10h8.05a.586.586,0,0,1,.586.586A.586.586,0,0,1-1.364-8.828Z" transform="translate(10 10)"/>
    </g>
    <g id="g6275" transform="translate(8.839 -659.936)">
      <path id="path6277" d="M-1.364-8.828h-8.05A.586.586,0,0,1-10-9.414.586.586,0,0,1-9.414-10h8.05a.586.586,0,0,1,.586.586A.586.586,0,0,1-1.364-8.828Z" transform="translate(10 10)"/>
    </g>
    <g id="g6279" transform="translate(8.839 -657.411)">
      <path id="path6281" d="M-3.732-8.828H-9.414A.586.586,0,0,1-10-9.414.586.586,0,0,1-9.414-10h5.682a.586.586,0,0,1,.586.586A.586.586,0,0,1-3.732-8.828Z" transform="translate(10 10)"/>
    </g>
    <g id="g6283" transform="translate(0 -682.665)">
      <g id="g6285" clip-path="url(#clip-path)">
        <g id="g6291" transform="translate(0 6.471)">
          <path id="path6293" d="M-61.181-528.682a3.681,3.681,0,0,1-2.592-1.071,3.855,3.855,0,0,1-1.152-2.734v-27.559a2.167,2.167,0,0,1,2.164-2.164.586.586,0,0,1,.586.586.586.586,0,0,1-.586.586.994.994,0,0,0-.992.992v27.559a2.676,2.676,0,0,0,.8,1.9,2.517,2.517,0,0,0,1.821.735.586.586,0,0,1,.6.575.586.586,0,0,1-.575.6Z" transform="translate(64.925 562.211)"/>
        </g>
        <g id="g6295" transform="translate(3.157 27.988)">
          <path id="path6297" d="M-6.258-3.828H-9.414A.586.586,0,0,1-10-4.414v-5A.586.586,0,0,1-9.414-10a.586.586,0,0,1,.586.586V-5h2.57a.586.586,0,0,1,.586.586A.586.586,0,0,1-6.258-3.828Z" transform="translate(10 10)"/>
        </g>
        <g id="g6299" transform="translate(1.578 6.471)">
          <path id="path6301" d="M-34.782-310.6a.586.586,0,0,1-.586-.586v-17.2a.994.994,0,0,0-.993-.993.586.586,0,0,1-.586-.586.586.586,0,0,1,.586-.586h4.735a.586.586,0,0,1,.586.586.586.586,0,0,1-.586.586h-2.812a2.152,2.152,0,0,1,.241.993v17.2A.586.586,0,0,1-34.782-310.6Z" transform="translate(36.947 330.559)"/>
        </g>
        <g id="g6303" transform="translate(6.313 0)">
          <path id="path6305" d="M-9.414-230.309a.586.586,0,0,1-.586-.586V-244.68a.586.586,0,0,1,.586-.586H15.841a.586.586,0,0,1,.586.586v2.526a.586.586,0,0,1-.586.586.586.586,0,0,1-.586-.586v-1.94H-8.828v13.2A.586.586,0,0,1-9.414-230.309Z" transform="translate(10 245.266)"/>
        </g>
        <g id="g6307" transform="translate(3.157 16.52)">
          <path id="path6309" d="M-469.039-156.252h-25.254a.586.586,0,0,1-.586-.586.586.586,0,0,1,.586-.586,2.574,2.574,0,0,0,2.57-2.571v-19.152a.586.586,0,0,1,.586-.586.586.586,0,0,1,.586.586V-160a3.73,3.73,0,0,1-1.025,2.571h22.537A2.574,2.574,0,0,0-466.468-160V-169.2a.586.586,0,0,1,.586-.586.586.586,0,0,1,.586.586V-160A3.747,3.747,0,0,1-469.039-156.252Z" transform="translate(494.879 179.733)"/>
        </g>
        <g id="g6311" transform="translate(31.568 21.15)">
          <path id="path6313" d="M-9.414-50.288A.586.586,0,0,1-10-50.873v-2.58a.586.586,0,0,1,.586-.586.586.586,0,0,1,.586.586v2.58A.586.586,0,0,1-9.414-50.288Z" transform="translate(10 54.04)"/>
        </g>
        <g id="g6315" transform="translate(19.414 2.525)">
          <path id="path6317" d="M-312.231-10h16.257a2.167,2.167,0,0,1,2.164,2.164V7.632A2.167,2.167,0,0,1-295.974,9.8H-306.5l-4.26,3.347a.586.586,0,0,1-.618.066.586.586,0,0,1-.33-.527V9.8h-.519A2.167,2.167,0,0,1-314.4,7.632V-7.836A2.167,2.167,0,0,1-312.231-10Zm16.257,18.625a.994.994,0,0,0,.992-.992V-7.836a.994.994,0,0,0-.992-.992h-16.257a.994.994,0,0,0-.992.992V7.632a.994.994,0,0,0,.992.992h1.1a.586.586,0,0,1,.586.586v2.267l3.472-2.728a.586.586,0,0,1,.362-.125Z" transform="translate(314.395 10)"/>
        </g>
        <g id="g6319" transform="translate(21.939 7.418)">
          <path id="path6321" d="M-60.133-110.265h-1.894a1.851,1.851,0,0,1-1.849-1.849V-115.9a1.851,1.851,0,0,1,1.849-1.849h1.894a.586.586,0,0,1,.586.586v6.314A.586.586,0,0,1-60.133-110.265Zm-1.894-6.314a.678.678,0,0,0-.677.677v3.788a.678.678,0,0,0,.677.677h1.308v-5.142Z" transform="translate(63.876 117.75)"/>
        </g>
        <g id="g6323" transform="translate(23.202 13.732)">
          <path id="path6325" d="M-50.4-7.048h-1.107a1.381,1.381,0,0,1-1.346-1.093l-.894-4.265A.586.586,0,0,1-53.3-13.1a.586.586,0,0,1,.694.453l.894,4.266a.2.2,0,0,0,.2.162H-50.4l.618-.175-.573.12-.828-3.95a.586.586,0,0,1,.453-.694.586.586,0,0,1,.694.453l.828,3.95A1.213,1.213,0,0,1-49.457-7.5,1.212,1.212,0,0,1-50.4-7.048Z" transform="translate(53.762 13.113)"/>
        </g>
        <g id="g6327" transform="translate(25.096 5.051)">
          <path id="path6329" d="M-.733-50.407a.586.586,0,0,1,.356.12.586.586,0,0,1,.23.466v11.049a.586.586,0,0,1-.23.466.586.586,0,0,1-.51.1l-8.681-2.368A.586.586,0,0,1-10-41.14v-6.314a.586.586,0,0,1,.432-.565l8.681-2.368A.586.586,0,0,1-.733-50.407Zm-.586,10.867v-9.514l-7.509,2.048v5.418Z" transform="translate(10 50.407)"/>
        </g>
        <g id="g6331" transform="translate(33.777 8.208)">
          <path id="path6333" d="M-52.514-71.438a.586.586,0,0,1-.347-.114.586.586,0,0,1-.239-.472v-4.735a.586.586,0,0,1,.239-.472.586.586,0,0,1,.522-.087l2.525.789a.586.586,0,0,1,.411.559v3.157a.586.586,0,0,1-.411.559l-2.525.789A.585.585,0,0,1-52.514-71.438Zm.586-4.524v3.141l1.354-.423v-2.3Z" transform="translate(53.1 77.345)"/>
        </g>
        <g id="g6335" transform="translate(8.839 27.779)">
          <path id="path6337" d="M-339.957-10h18.625a1.377,1.377,0,0,1,1.375,1.375V-1.68A1.377,1.377,0,0,1-321.333-.3h-18.625a1.377,1.377,0,0,1-1.375-1.375V-8.625A1.377,1.377,0,0,1-339.957-10Zm18.625,8.523a.2.2,0,0,0,.2-.2V-8.625a.2.2,0,0,0-.2-.2h-18.625a.2.2,0,0,0-.2.2V-1.68a.2.2,0,0,0,.2.2Z" transform="translate(341.333 10)"/>
        </g>
        <g id="g6339" transform="translate(8.839 2.525)">
          <path id="path6341" d="M-126.067-171.127h-6.471a1.377,1.377,0,0,1-1.375-1.375v-8.523a1.377,1.377,0,0,1,1.375-1.375h6.471a1.377,1.377,0,0,1,1.375,1.375v8.523A1.377,1.377,0,0,1-126.067-171.127Zm-6.471-10.1a.2.2,0,0,0-.2.2v8.523a.2.2,0,0,0,.2.2h6.471a.2.2,0,0,0,.2-.2v-8.523a.2.2,0,0,0-.2-.2Z" transform="translate(133.913 182.401)"/>
        </g>
      </g>
    </g>
  </g>
</svg>
