<svg xmlns="http://www.w3.org/2000/svg" width="39.989" height="40" viewBox="0 0 39.989 40">
  <g id="social-media_3_" data-name="social-media (3)" transform="translate(-0.5)">
    <path id="Path_126716" data-name="Path 126716" d="M35.408,24.826a15.736,15.736,0,0,0,0-9.649A7.84,7.84,0,0,0,32.425,0a7.854,7.854,0,0,0-7.115,5.071,15.741,15.741,0,0,0-9.637,0,7.838,7.838,0,1,0-10.1,10.1,15.74,15.74,0,0,0,0,9.653A7.851,7.851,0,0,0,.5,32.162a7.767,7.767,0,0,0,.76,3.371.586.586,0,0,0,1.058-.5,6.6,6.6,0,0,1-.646-2.867,6.667,6.667,0,1,1,2.155,4.907.586.586,0,0,0-.793.862,7.838,7.838,0,0,0,12.646-3.02,15.743,15.743,0,0,0,9.631,0,7.838,7.838,0,1,0,10.1-10.086ZM27.8,3.261a6.623,6.623,0,0,1,4.656-2.086l.193,0A6.666,6.666,0,0,1,32.841,14.5l-.193,0A6.666,6.666,0,0,1,27.8,3.261ZM24.981,33.786a14.57,14.57,0,0,1-8.973,0A7.841,7.841,0,0,0,6.7,24.5a14.565,14.565,0,0,1,0-8.992,7.849,7.849,0,0,0,5.469-.826.586.586,0,0,0-.574-1.022,6.671,6.671,0,1,1,1.9-1.592.586.586,0,0,0,.906.743A7.841,7.841,0,0,0,16,6.2a14.568,14.568,0,0,1,8.977,0,7.848,7.848,0,0,0,7.665,9.476c.075,0,.151,0,.227,0a7.924,7.924,0,0,0,1.413-.168,14.564,14.564,0,0,1,0,8.991,7.841,7.841,0,0,0-9.3,9.29Zm7.669,5.042a6.666,6.666,0,1,1,6.667-6.666A6.674,6.674,0,0,1,32.65,38.828Zm0,0"/>
    <path id="Path_126717" data-name="Path 126717" d="M48.837,54.827a.586.586,0,0,0-.667.006,3.3,3.3,0,0,1-.638.351,2.178,2.178,0,0,0-3.506,1.473,3.194,3.194,0,0,1-2.146-1.327.586.586,0,0,0-1.015.1A4.958,4.958,0,0,0,40.5,57.47a3.579,3.579,0,0,0,1.441,2.771,3.557,3.557,0,0,1-1.232.17.586.586,0,0,0-.308,1.1,5.909,5.909,0,0,0,2.866.766,5.167,5.167,0,0,0,2.632-.709,4.9,4.9,0,0,0,2.138-2.61.608.608,0,0,0,.031-.088,6.088,6.088,0,0,0,.312-1.961c0-.031,0-.061,0-.092a3.333,3.333,0,0,0,.7-1.367.587.587,0,0,0-.24-.623Zm-1.644,1.9a1,1,0,0,1,.018.185,4.937,4.937,0,0,1-.248,1.587.559.559,0,0,0-.022.068,3.712,3.712,0,0,1-1.632,1.991,4.029,4.029,0,0,1-2.351.535,4.667,4.667,0,0,0,.549-.32.586.586,0,0,0-.091-1.021,2.6,2.6,0,0,1-1.739-2.3,3.387,3.387,0,0,1,.021-.6,4.367,4.367,0,0,0,2.916,1.013.586.586,0,0,0,.571-.586v-.363a1.006,1.006,0,0,1,1.765-.674.585.585,0,0,0,.269.175.588.588,0,0,0-.025.311Zm0,0" transform="translate(-36.509 -50.448)"/>
    <path id="Path_126718" data-name="Path 126718" d="M380.426,47.2h.831v3.494a.586.586,0,0,0,1.172,0V47.2h.9a.586.586,0,0,0,0-1.172h-.9V44.384a1.022,1.022,0,0,1,1.021-1.021h.759a.586.586,0,0,0,0-1.172h-.759a2.2,2.2,0,0,0-2.193,2.193v1.639h-.831a.586.586,0,0,0,0,1.172Zm0,0" transform="translate(-349.704 -38.895)"/>
    <path id="Path_126719" data-name="Path 126719" d="M74.3,377.074a.806.806,0,0,0,.4-.108l3.988-2.3a.806.806,0,0,0,0-1.4l-3.988-2.3a.806.806,0,0,0-1.209.7v4.607a.806.806,0,0,0,.806.806Zm.366-4.78,2.892,1.67-2.892,1.67Zm0,0" transform="translate(-67.293 -341.881)"/>
    <path id="Path_126720" data-name="Path 126720" d="M365.594,358.555H360.5a1.606,1.606,0,0,0-1.6,1.6v5.091a1.606,1.606,0,0,0,1.6,1.6h5.092a1.606,1.606,0,0,0,1.6-1.6v-5.091A1.606,1.606,0,0,0,365.594,358.555Zm.432,6.7a.433.433,0,0,1-.432.432H360.5a.433.433,0,0,1-.432-.432v-5.091a.433.433,0,0,1,.432-.432h5.092a.433.433,0,0,1,.432.432Zm0,0" transform="translate(-330.398 -330.543)"/>
    <path id="Path_126721" data-name="Path 126721" d="M391.119,389a1.771,1.771,0,1,0,1.771,1.771A1.773,1.773,0,0,0,391.119,389Zm0,2.37a.6.6,0,1,1,.6-.6A.6.6,0,0,1,391.119,391.374Zm0,0" transform="translate(-358.469 -358.613)"/>
    <path id="Path_126722" data-name="Path 126722" d="M196.909,178.094a.586.586,0,0,0-.586.586v.263a17.357,17.357,0,0,1-4.786,1.934.676.676,0,0,0-.413-.142h-2.683a1.177,1.177,0,0,0-1.175,1.175v3.077a1.176,1.176,0,0,0,1.175,1.175h.536l.2,3.907a.586.586,0,0,0,.585.555h.031a.586.586,0,0,0,.555-.616l-.2-3.846h.973a.675.675,0,0,0,.413-.141c.475.115.948.25,1.411.4a.586.586,0,0,0,.369-1.112c-.5-.165-1-.31-1.515-.433v-2.86a18.581,18.581,0,0,0,4.522-1.73v6.321q-.386-.209-.78-.4a.586.586,0,0,0-.508,1.056c.436.21.868.441,1.288.688v.262a.586.586,0,0,0,1.172,0V178.68A.586.586,0,0,0,196.909,178.094Zm-6.28,6.9-2.192,0,0-3.08h2.189Zm0,0" transform="translate(-172.175 -164.18)"/>
  </g>
</svg>
