<svg xmlns="http://www.w3.org/2000/svg" width="39.74" height="40" viewBox="0 0 39.74 40">
  <g id="Outline" transform="translate(-97 -81.4)">
    <path id="Path_126707" data-name="Path 126707" d="M431.24,176.713a9.709,9.709,0,0,0-2.659-6.776.81.81,0,0,0-1.167,1.124,8.371,8.371,0,0,1,0,11.3.81.81,0,0,0,1.167,1.124A9.728,9.728,0,0,0,431.24,176.713Z" transform="translate(-294.5 -78.744)"/>
    <path id="Path_126708" data-name="Path 126708" d="M408.924,199.065a.806.806,0,0,0,1.146-.011,6.686,6.686,0,0,0,0-9.23.81.81,0,1,0-1.178,1.113l.022.022a5.07,5.07,0,0,1,0,6.949A.819.819,0,0,0,408.924,199.065Z" transform="translate(-277.988 -96.481)"/>
    <path id="Path_126709" data-name="Path 126709" d="M258.782,129.733h-3.415A3.164,3.164,0,0,0,252.2,132.9v4.334a3.164,3.164,0,0,0,3.167,3.167h3.415l8.171,6.56a.807.807,0,0,0,1.135-.119.793.793,0,0,0,.184-.508V123.811a.816.816,0,0,0-.811-.811.872.872,0,0,0-.508.173Zm-.53,9.046h-2.886a1.545,1.545,0,0,1-1.546-1.546V132.9a1.545,1.545,0,0,1,1.546-1.546h2.886Zm8.4,5.858-6.776-5.436v-8.268l6.776-5.436Z" transform="translate(-138.426 -37.104)"/>
    <path id="Path_126710" data-name="Path 126710" d="M124.679,120.935a.814.814,0,0,0-.13-.865c-1.546-1.751-1.535-3.48.043-5.588a.913.913,0,0,0,.162-.411v-4.853a.811.811,0,1,0-1.621,0v3.966H101.107a4.062,4.062,0,0,0-2.486.843V84.383a1.356,1.356,0,0,1,1.362-1.362h21.378a1.356,1.356,0,0,1,1.362,1.362v2.983a.811.811,0,0,0,1.621,0V84.383a2.989,2.989,0,0,0-2.983-2.983H99.983A2.982,2.982,0,0,0,97,84.383v32.91a4.105,4.105,0,0,0,4.107,4.107h22.837A.778.778,0,0,0,124.679,120.935Zm-2.291-1.146h-21.28a2.491,2.491,0,1,1,0-4.982h21.367A5.088,5.088,0,0,0,122.387,119.789Z"/>
  </g>
</svg>
