<svg xmlns="http://www.w3.org/2000/svg" width="40" height="40" viewBox="0 0 40 40">
  <g id="travel-agency" transform="translate(0.006 0.006)">
    <path id="_x35_" d="M77.673,13.584a13.642,13.642,0,0,1-2.347,1.524,22.684,22.684,0,0,1,1.063,6.448H81.3a11.924,11.924,0,0,0-3.49-7.83ZM81.3,22.805H76.389a22.415,22.415,0,0,1-1,6.235,2.073,2.073,0,0,1-.071.213,13.375,13.375,0,0,1,2.356,1.524A11.977,11.977,0,0,0,81.3,22.805Zm-4.588,8.8a12.512,12.512,0,0,0-1.833-1.187,10.494,10.494,0,0,1-2.3,3.534.618.618,0,0,1-.877-.018.628.628,0,0,1,.018-.886,9.193,9.193,0,0,0,2.029-3.144,1.2,1.2,0,0,1-.159-.062,11.829,11.829,0,0,0-3.6-.744v.168a.624.624,0,0,1-.62.629.632.632,0,0,1-.629-.629V22.805H65.8a.624.624,0,0,1-.62-.629.616.616,0,0,1,.62-.62h2.932v-5.04a13.367,13.367,0,0,1-2.87-.461,12.552,12.552,0,0,1-1.311-.434,21.252,21.252,0,0,0-.974,6.555.625.625,0,1,1-1.249,0A22.788,22.788,0,0,1,63.4,15.108c-.266-.142-.522-.283-.779-.434a.621.621,0,0,1,.629-1.072c.195.115.389.23.593.328.133-.319.275-.629.434-.93a9.853,9.853,0,0,1,1.505-2.232,12.111,12.111,0,0,0-2.905,1.364.625.625,0,0,1-.673-1.054,13.1,13.1,0,0,1,7.157-2.1,13.2,13.2,0,0,1,6.156,24.88.616.616,0,0,1-.841-.257.625.625,0,0,1,.257-.841,17.229,17.229,0,0,0,1.78-1.151ZM72.943,10.768A10.108,10.108,0,0,1,74.449,13c.151.3.292.611.435.93a12.41,12.41,0,0,0,1.833-1.178A12.033,12.033,0,0,0,72.943,10.768Zm1.232,17.972.026-.071A21.076,21.076,0,0,0,75.14,22.8H69.985v5.04a13.349,13.349,0,0,1,4.047.841C74.086,28.7,74.13,28.721,74.175,28.739Zm.966-7.183a20.836,20.836,0,0,0-.966-5.934c-.045.018-.1.035-.142.053a13.33,13.33,0,0,1-4.047.841v5.04ZM69.985,10.3v4.96a11.834,11.834,0,0,0,3.6-.753c.053-.018.106-.035.15-.053-.124-.31-.257-.6-.4-.886C72.429,11.786,71.261,10.6,69.985,10.3Zm-1.249,4.96V10.3c-1.276.3-2.444,1.488-3.348,3.268-.142.283-.275.576-.407.886a11.475,11.475,0,0,0,1.213.4,11.436,11.436,0,0,0,2.542.407Z" transform="translate(-42.577 -6.177)"/>
    <path id="_x34_" d="M7.709,52.313l1.258,3.959,2.409-1.754-2.7-3.038ZM9.214,50.2,12.3,53.677,15.37,50.2l.009-.009a.611.611,0,0,1,.877-.062l1.674,1.444,4.012,1.754a4.328,4.328,0,0,1,1.94,1.647,4.6,4.6,0,0,1,.709,2.48v2.276a.624.624,0,1,1-1.249,0V57.459a3.336,3.336,0,0,0-.5-1.807,3.192,3.192,0,0,0-1.391-1.178L17.975,52.96,16.54,57.477a.618.618,0,0,1-.957.31l-2.666-1.94V60.2a.624.624,0,0,1-.62.629.631.631,0,0,1-.629-.629V55.847l-2.657,1.94a1.875,1.875,0,0,1-.186.088.616.616,0,0,1-.78-.4L6.611,52.96,3.138,54.475a3.118,3.118,0,0,0-1.382,1.178,3.269,3.269,0,0,0-.514,1.807V67.77a.624.624,0,0,1-.62.629.632.632,0,0,1-.629-.629V57.459A4.6,4.6,0,0,1,.7,54.979a4.376,4.376,0,0,1,1.94-1.647l4.012-1.754,1.674-1.444a.612.612,0,0,1,.877.062ZM4.821,62.269a.624.624,0,0,1,1.249,0v5.5a.624.624,0,1,1-1.249,0ZM15.911,51.48l-2.7,3.038,2.409,1.754,1.258-3.959Z" transform="translate(0 -34.365)"/>
    <path id="_x33_" d="M43.731,83.306H29.878a1.225,1.225,0,0,0-1.134.974l-1.754,9.974a.728.728,0,0,0,.744.912H41.277a1.423,1.423,0,0,0,1.32-1.134l1.745-9.965a.816.816,0,0,0,.018-.151.591.591,0,0,0-.629-.611Zm-7.325,5.27a.632.632,0,0,1,.629.629.624.624,0,0,1-.629.62.616.616,0,0,1-.62-.62A.624.624,0,0,1,36.406,88.576Zm-6.528-6.519H43.731a1.525,1.525,0,0,1,.345.035,1.822,1.822,0,0,1,1.532,1.825,2.546,2.546,0,0,1-.035.363l-1.745,9.974a2.692,2.692,0,0,1-2.551,2.161H27.735a1.959,1.959,0,0,1-2-1.993,3.07,3.07,0,0,1,.027-.39l1.754-9.965A2.492,2.492,0,0,1,29.878,82.057Z" transform="translate(-17.696 -56.421)"/>
    <path id="_x32_" d="M12.78,114.031a.624.624,0,0,1,.629.62.668.668,0,0,1-.018.133l-.257,1.453a1.083,1.083,0,0,0-.009.168.735.735,0,0,0,.159.487.7.7,0,0,0,.434.239c.044.009.1.009.151.018l.009,1.249H8.024a2.136,2.136,0,0,1-1.16-.337,1.606,1.606,0,0,1-.7-.966L5.6,114.8a.622.622,0,0,1,.461-.753.412.412,0,0,1,.15-.018Zm-.744,1.249H7l.381,1.523a.33.33,0,0,0,.168.213.863.863,0,0,0,.478.133H12.01a2.049,2.049,0,0,1-.133-.744,3.07,3.07,0,0,1,.027-.39Z" transform="translate(-3.84 -78.404)"/>
    <path id="_x31_" d="M23.834,14.706l-.212,1.612a.626.626,0,1,1-1.24-.168l.328-2.391-.159-.142a5.152,5.152,0,0,1-1.346-1.86,5.745,5.745,0,0,1-.461-2.321V5.654a5.571,5.571,0,0,1,1.612-4.1A5.894,5.894,0,0,1,26.562-.006a5.888,5.888,0,0,1,4.2,1.559,5.571,5.571,0,0,1,1.612,4.1V9.436a5.808,5.808,0,0,1-.461,2.321,5.149,5.149,0,0,1-1.346,1.86l-.159.142.328,2.391a.635.635,0,0,1-.532.709.621.621,0,0,1-.7-.54l-.221-1.612a4.1,4.1,0,0,1-.868.461,5.782,5.782,0,0,1-3.711,0A4.082,4.082,0,0,1,23.834,14.706ZM22.01,5.246a2.066,2.066,0,0,0,2.755-1.355.622.622,0,0,1,.815-.337.608.608,0,0,1,.345.363c.009.009,1.143,3.26,5.2,2.241v-.5a4.338,4.338,0,0,0-1.231-3.207,4.655,4.655,0,0,0-3.33-1.2,4.664,4.664,0,0,0-3.339,1.2,4.222,4.222,0,0,0-1.213,2.8Zm9.114,2.2a5.209,5.209,0,0,1-5.793-2.028,3.034,3.034,0,0,1-3.339,1.116V9.436a4.656,4.656,0,0,0,.354,1.825,3.89,3.89,0,0,0,1.036,1.426l.753.673a3.382,3.382,0,0,0,1.027.647,4.546,4.546,0,0,0,2.79,0,3.534,3.534,0,0,0,1.036-.647l.753-.673a3.717,3.717,0,0,0,1-1.373,4.569,4.569,0,0,0,.381-1.878V7.443Z" transform="translate(-14.266)"/>
  </g>
</svg>
