<svg xmlns="http://www.w3.org/2000/svg" width="40.001" height="40" viewBox="0 0 40.001 40">
  <g id="layer1" transform="translate(-0.53 -280.595)">
    <path id="path12772" d="M2.527,280.6a2.012,2.012,0,0,0-2,2v36a2.006,2.006,0,0,0,2,2H27.862a2.007,2.007,0,0,0,2-2v-3.332a.667.667,0,0,0-1.335,0V318.6a.647.647,0,0,1-.664.664H2.527a.647.647,0,0,1-.664-.664v-36a.651.651,0,0,1,.664-.669H23.2v3.336a2.008,2.008,0,0,0,2,2h3.331v13.331a.667.667,0,1,0,1.335,0V286.6a.668.668,0,0,0-.193-.473l-5.335-5.335a.667.667,0,0,0-.473-.2Zm22,2.281,3.052,3.055H25.2a.648.648,0,0,1-.664-.665ZM9.86,285.931a.667.667,0,1,0,0,1.333h10a.667.667,0,1,0,0-1.333ZM5.2,291.264H19.86a.667.667,0,1,0,0-1.333H5.163a.667.667,0,0,0,.032,1.333Zm17.332,0H25.2a.667.667,0,1,0,0-1.333H22.5a.667.667,0,0,0,.032,1.333Zm-17.332,4h20a.667.667,0,1,0,0-1.333H5.163a.667.667,0,0,0,.032,1.333ZM37.507,296.6a3.006,3.006,0,0,0-2.135.88L22.054,310.793a.667.667,0,0,0-.167.29l-1.333,4.665a.667.667,0,0,0,.822.822l4.671-1.333a.668.668,0,0,0,.285-.168l13.316-13.312a3.018,3.018,0,0,0-2.141-5.156Zm0,1.318a1.7,1.7,0,0,1,1.2,2.895l-.509.509L35.8,298.93l.509-.509a1.684,1.684,0,0,1,1.2-.5Zm-32.344.015a.665.665,0,0,0,.032,1.328H7.862a.666.666,0,1,0,.037-1.329Zm5.367,1.328H25.195a.667.667,0,1,0,.073-1.331.675.675,0,0,0-.073,0H10.5a.665.665,0,0,0,.034,1.328Zm24.331.611.725.725L24.2,311.988l-.724-.723Zm1.668,1.668.724.725L25.864,313.656l-.725-.725Zm-31.333.389a.667.667,0,1,0,0,1.333h20a.667.667,0,1,0,0-1.333Zm0,4a.667.667,0,1,0,0,1.333h12a.667.667,0,1,0,0-1.333Zm14.665,0a.667.667,0,1,0,0,1.333h2.667a.667.667,0,1,0,0-1.333ZM5.195,311.264H18.526a.667.667,0,1,0,0-1.333H5.163a.667.667,0,0,0,.032,1.333Zm17.661,1.273,1.734,1.732-2.423.691ZM5.195,315.265H7.862a.667.667,0,1,0,0-1.333h-2.7a.667.667,0,0,0,.032,1.333Zm5.335,0h6.663a.667.667,0,1,0,0-1.333H10.5a.667.667,0,0,0,.034,1.333Z" transform="translate(0 0)"/>
  </g>
</svg>
