<svg xmlns="http://www.w3.org/2000/svg" width="31.631" height="33" viewBox="0 0 31.631 33">
  <g id="Group_54234" data-name="Group 54234" transform="translate(365.896 -32.199)">
    <path id="Path_126752" data-name="Path 126752" d="M-351.039,65.2c-.6-.084-1.211-.148-1.811-.255a15.676,15.676,0,0,1-7.133-3.238c-.337-.27-.386-.622-.114-.837s.5-.1.724.086a14.656,14.656,0,0,0,3.616,2.141,15.083,15.083,0,0,0,5.483,1.138c.25.005.306-.023.212-.288a1.872,1.872,0,0,1,.651-2.346,1.5,1.5,0,0,0,.129-1.906c-.2-.236-.422-.458-.635-.685a1.925,1.925,0,0,1-.224-2.63,2.5,2.5,0,0,0,.2-.329.936.936,0,0,0-.575-1.3q-1.017-.357-2.046-.677a1.549,1.549,0,0,1-.927-.745c-.445-.784-.9-1.561-1.358-2.338-.25-.427-.533-.43-.8-.014-.1.154-.189.313-.291.464a1.337,1.337,0,0,1-1.667.515,1.327,1.327,0,0,1-.766-1.541c.247-1.01.519-2.015.789-3.019a1.3,1.3,0,0,1,.7-.84q.716-.366,1.429-.74c.334-.175.393-.339.248-.678a1.13,1.13,0,0,0-.835-.689c-.251-.055-.506-.094-.76-.134a4.189,4.189,0,0,1-1.623-.583c-.644-.408-1.294-.806-1.952-1.189a3.14,3.14,0,0,1-1.514-1.881,1.49,1.49,0,0,0-.079-.172,13.127,13.127,0,0,0-1.252,1.97,14.846,14.846,0,0,0,2.072,16.811c.086.1.174.19.257.289a.482.482,0,0,1,0,.716.483.483,0,0,1-.714-.073,15.41,15.41,0,0,1-1.852-2.39,15.312,15.312,0,0,1-2.381-9.613,15.544,15.544,0,0,1,7.094-12.048.776.776,0,0,0,.4-.591,3.784,3.784,0,0,1,3.908-3.36,3.54,3.54,0,0,1,2.523,1.124.825.825,0,0,0,.753.282,15.365,15.365,0,0,1,7.207,1.172c.487.2.639.429.51.743s-.4.352-.888.148a14.832,14.832,0,0,0-6.317-1.142c-.415.014-.411.017-.3.4a5.282,5.282,0,0,1-.437,3.63,10.156,10.156,0,0,1-1.9,2.816,1.719,1.719,0,0,1-2.552.04,9.225,9.225,0,0,1-2.386-4.135c-.062-.245-.117-.242-.3-.115a15.619,15.619,0,0,0-2.517,2.2.4.4,0,0,0-.1.4,2.849,2.849,0,0,0,1.612,2.154,6.172,6.172,0,0,1,.909.549,5.69,5.69,0,0,0,2.673,1.015,2.078,2.078,0,0,1,1.77,1.645,1.334,1.334,0,0,1-.7,1.487c-.462.251-.929.492-1.4.72a.7.7,0,0,0-.407.5c-.222.884-.455,1.765-.686,2.647-.061.234-.086.467.18.579s.422-.05.545-.265c.091-.158.186-.314.288-.465a1.329,1.329,0,0,1,2.282.037c.482.787.937,1.59,1.392,2.393a.857.857,0,0,0,.53.427c.625.192,1.246.4,1.866.606a1.926,1.926,0,0,1,1.038,3.027,1.05,1.05,0,0,0,.147,1.619c.133.141.258.289.4.421a2.475,2.475,0,0,1,.6,2.445,1.816,1.816,0,0,1-.715,1.077,1.242,1.242,0,0,0-.1,1.729c.124.128.288.052.429.036a14.683,14.683,0,0,0,4.925-1.408,14.871,14.871,0,0,0,6.583-6.28c.127-.228.1-.337-.109-.486-.565-.41-1.113-.842-1.661-1.274-.152-.12-.222-.148-.305.073a9.989,9.989,0,0,1-2,3.132,1.743,1.743,0,0,1-2.708.016,9.162,9.162,0,0,1-2.316-4.138,6.437,6.437,0,0,1-.112-.8c-.016-.171-.044-.243-.251-.192a1.408,1.408,0,0,1-1.245-.269c-.333-.254-.681-.488-1.016-.739a1.383,1.383,0,0,1-.3-2.015c.264-.365.517-.742.815-1.08a4.686,4.686,0,0,0,1.054-2.374,3.208,3.208,0,0,1,2.52-2.739,2.741,2.741,0,0,1,.99-.071,1.17,1.17,0,0,0,1.453-.763c.152-.284.3-.57.461-.848a1.847,1.847,0,0,1,1.436-.978,1.286,1.286,0,0,0,1.064-.768c.322-.61.326-.6-.158-1.1a15.088,15.088,0,0,0-2.8-2.266c-.045-.029-.092-.055-.136-.087a.479.479,0,0,1-.162-.7.48.48,0,0,1,.685-.112,13.762,13.762,0,0,1,1.979,1.436,15.563,15.563,0,0,1,5.52,13.258,15.616,15.616,0,0,1-11.083,13.895,15.48,15.48,0,0,1-3.4.67,1.957,1.957,0,0,0-.249.051Zm12.83-24.814a.611.611,0,0,0-.085.072,1.461,1.461,0,0,0-.1.163,2.093,2.093,0,0,1-1.776,1.256.944.944,0,0,0-.751.546c-.2.378-.4.759-.617,1.13a1.789,1.789,0,0,1-1.37.909,3.847,3.847,0,0,1-.835.008,2.29,2.29,0,0,0-2.289,1.4,3.849,3.849,0,0,0-.237.9,4.557,4.557,0,0,1-1.012,2.3c-.339.4-.639.836-.949,1.261a.431.431,0,0,0,.089.694c.343.258.688.514,1.043.755a.768.768,0,0,0,1.071-.359,3.774,3.774,0,0,1,4.312-2.543,3.828,3.828,0,0,1,3.029,4.385c-.018.123-.077.245.061.35.725.552,1.445,1.109,2.213,1.7A15.091,15.091,0,0,0-338.209,40.385Zm-16.377-7.222a2.9,2.9,0,0,0-2.805,3.412,8.1,8.1,0,0,0,2.231,4.164.756.756,0,0,0,1.145-.017,9.445,9.445,0,0,0,.7-.841,6.984,6.984,0,0,0,1.542-3.653A2.85,2.85,0,0,0-354.586,33.164Zm9.321,19.591c.006.089.015.239.028.389.007.074.021.148.035.222a8.184,8.184,0,0,0,2.2,3.974.744.744,0,0,0,1.142-.012,8.744,8.744,0,0,0,2.062-3.449,3.806,3.806,0,0,0,.134-1.813,2.816,2.816,0,0,0-3.146-2.273A2.9,2.9,0,0,0-345.264,52.754Z" fill="#fff"/>
    <path id="Path_126753" data-name="Path 126753" d="M-252.72,60.034a1.689,1.689,0,0,1-1.669-1.692,1.686,1.686,0,0,1,1.706-1.687A1.68,1.68,0,0,1-251,58.362,1.685,1.685,0,0,1-252.72,60.034Zm.75-1.7a.717.717,0,0,0-.747-.714.712.712,0,0,0-.7.727.715.715,0,0,0,.714.715A.718.718,0,0,0-251.969,58.338Z" transform="translate(-101.904 -22.349)" fill="#fff"/>
    <path id="Path_126754" data-name="Path 126754" d="M-113.243,251.029a1.71,1.71,0,0,1,1.692-1.713,1.718,1.718,0,0,1,1.706,1.7,1.719,1.719,0,0,1-1.679,1.7A1.713,1.713,0,0,1-113.243,251.029Zm1.707-.745a.744.744,0,0,0-.738.705.745.745,0,0,0,.718.758.75.75,0,0,0,.741-.738A.75.75,0,0,0-111.537,250.284Z" transform="translate(-230.895 -198.42)" fill="#fff"/>
  </g>
</svg>
