<svg xmlns="http://www.w3.org/2000/svg" width="28.247" height="29.802" viewBox="0 0 28.247 29.802">
  <g id="Group_54233" data-name="Group 54233" transform="translate(1520.146 253.76)">
    <path id="Path_126740" data-name="Path 126740" d="M-1341.694,39.539h-8.556a.522.522,0,0,1-.58-.641c.009-.087.013-.175.02-.263q.157-1.964.315-3.927c.036-.452.064-.906.114-1.357a1.656,1.656,0,0,1,.51-.952,2.45,2.45,0,0,1,1.233-.667q1.779-.431,3.559-.853a.222.222,0,0,0,.192-.2c.139-.619.286-1.236.434-1.853a.2.2,0,0,0-.038-.187,5.922,5.922,0,0,1-1.291-3.107.712.712,0,0,0-.075-.205,7.34,7.34,0,0,1-.662-2.995,3.87,3.87,0,0,1,1.527-3.152,6.414,6.414,0,0,1,2.469-1.3,5.7,5.7,0,0,1,3.234.1,3.065,3.065,0,0,1,1.481,1.055,2.93,2.93,0,0,1,.408.855,2.881,2.881,0,0,0,.5.919,2.247,2.247,0,0,1,.423,1.745,7.462,7.462,0,0,1-.645,2.121c-.019.045-.039.09-.059.134a6.018,6.018,0,0,0-.479,1.389,5.6,5.6,0,0,1-1.182,2.41.261.261,0,0,0-.058.251q.224.917.433,1.838a.2.2,0,0,0,.176.176q1.781.423,3.559.854a2.377,2.377,0,0,1,1.512,1,1.765,1.765,0,0,1,.266.856c.141,1.8.289,3.591.433,5.387a.509.509,0,0,1-.474.562c-.053.005-.107,0-.161,0h-8.541Zm.015-1.013q2.322,0,4.644,0c.13,0,.174-.027.173-.167-.007-.737,0-1.475,0-2.212a1.007,1.007,0,0,1,.018-.218.5.5,0,0,1,.474-.389.5.5,0,0,1,.5.361.952.952,0,0,1,.022.349c-.005.085.017.119.112.119q.937-.007,1.875,0c.1,0,.123-.025.114-.126-.073-.851-.15-1.7-.2-2.555a.921.921,0,0,0-.438-.733,1.678,1.678,0,0,0-.591-.247q-1.8-.433-3.6-.868a.275.275,0,0,0-.266.056q-1.226.965-2.458,1.922a.521.521,0,0,1-.741,0l-2.471-1.929a.209.209,0,0,0-.2-.057c-1.242.3-2.486.6-3.729.9a1.4,1.4,0,0,0-.759.444.717.717,0,0,0-.186.449c-.013.3-.047.594-.07.891-.046.579-.09,1.159-.14,1.737-.008.091.014.126.106.119.073-.006.146,0,.22,0,.547,0,1.094,0,1.641,0,.1,0,.14-.03.131-.132a1.328,1.328,0,0,1,0-.234.508.508,0,0,1,.473-.46.5.5,0,0,1,.523.4,1.042,1.042,0,0,1,.016.2c0,.737,0,1.475,0,2.212,0,.136.037.169.171.169C-1344.776,38.524-1343.227,38.526-1341.679,38.526Zm0-9.408a2.3,2.3,0,0,0,1.291-.457,4.428,4.428,0,0,0,1.707-2.5,1.488,1.488,0,0,0,.108-.66,7.564,7.564,0,0,0-.693-2.349,2.487,2.487,0,0,0-.642-.845.56.56,0,0,0-.838.019,5.2,5.2,0,0,1-.526.421,2.248,2.248,0,0,1-1.532.427,2.748,2.748,0,0,1-.755-.225c-.095-.039-.143-.023-.17.076-.035.127-.078.251-.114.378a7.116,7.116,0,0,1-.832,1.992.419.419,0,0,0-.062.329,5.151,5.151,0,0,0,.568,1.592,3.577,3.577,0,0,0,1.818,1.669A1.736,1.736,0,0,0-1341.684,29.118Zm-3.515-4.95a.3.3,0,0,0,.085-.15,9.609,9.609,0,0,0,.331-1.031,2.246,2.246,0,0,1,.294-.7.873.873,0,0,1,.993-.385,2.978,2.978,0,0,1,.481.173,1.094,1.094,0,0,0,1.05-.088,4,4,0,0,0,.565-.44,1.544,1.544,0,0,1,2.028-.1,2.874,2.874,0,0,1,.6.613,5.986,5.986,0,0,1,.831,1.7c.011.033,0,.082.063.095a5.661,5.661,0,0,0,.4-1.418,1.4,1.4,0,0,0-.331-1.157,2.239,2.239,0,0,1-.354-.587c-.1-.223-.174-.456-.261-.683a1.649,1.649,0,0,0-.561-.735,2.493,2.493,0,0,0-.866-.415,4.874,4.874,0,0,0-2.463.018,5.517,5.517,0,0,0-2.238,1.261,2.594,2.594,0,0,0-.848,1.406,4.477,4.477,0,0,0,.046,2.074A3.581,3.581,0,0,0-1345.2,24.168Zm1.275,6.833c-.022.07.034.1.075.127q1.038.811,2.076,1.623a.125.125,0,0,0,.187,0q1.035-.815,2.077-1.622a.153.153,0,0,0,.065-.184c-.108-.436-.207-.873-.309-1.31-.037-.156-.038-.157-.177-.068a3,3,0,0,1-3.418.048c-.217-.133-.218-.132-.277.116Q-1343.776,30.367-1343.924,31Zm-4.723,7.525c.341,0,.682,0,1.024,0,.088,0,.12-.025.118-.115,0-.307,0-.614,0-.921,0-.082-.027-.11-.109-.109q-.987,0-1.974,0c-.082,0-.11.03-.116.109-.021.306-.041.613-.073.918-.011.109.033.12.121.119C-1349.32,38.524-1348.983,38.526-1348.647,38.526Zm13.937,0c.341,0,.683,0,1.024,0,.076,0,.116-.01.107-.1-.03-.31-.052-.622-.073-.933-.005-.079-.034-.109-.116-.109q-.987,0-1.974,0c-.083,0-.11.028-.109.11,0,.307,0,.614,0,.921,0,.092.031.116.119.115C-1335.392,38.523-1335.051,38.526-1334.71,38.526Z" transform="translate(-164.344 -263.498)" fill="#fff"/>
    <path id="Path_126741" data-name="Path 126741" d="M-862.4-245.687c.058-.434.121-.908.184-1.382.043-.319.085-.639.133-.957a.25.25,0,0,0-.078-.234c-.529-.548-1.052-1.1-1.582-1.649a.525.525,0,0,1-.163-.557.52.52,0,0,1,.454-.359c.731-.128,1.459-.267,2.19-.393a.367.367,0,0,0,.3-.212c.342-.653.7-1.3,1.042-1.95a.533.533,0,0,1,.487-.338.531.531,0,0,1,.489.335c.354.668.717,1.332,1.071,2a.263.263,0,0,0,.209.152c.735.129,1.47.265,2.2.4a.613.613,0,0,1,.42.21.512.512,0,0,1-.07.7q-.789.827-1.581,1.649a.275.275,0,0,0-.089.257c.107.759.205,1.519.312,2.277a.513.513,0,0,1-.2.529.5.5,0,0,1-.553.031c-.694-.336-1.39-.668-2.083-1.007a.261.261,0,0,0-.258,0q-1.046.51-2.1,1.011A.507.507,0,0,1-862.4-245.687Zm5.938-4.288c-.068-.017-.11-.03-.152-.038-.518-.1-1.036-.2-1.556-.284a.572.572,0,0,1-.44-.321c-.23-.436-.465-.87-.7-1.3a.648.648,0,0,0-.12-.2.331.331,0,0,0-.09.135c-.244.451-.49.9-.727,1.355a.6.6,0,0,1-.464.337c-.241.038-.481.085-.721.128l-.948.174a.292.292,0,0,0,.1.139q.546.573,1.093,1.144a.513.513,0,0,1,.156.439c-.04.3-.087.609-.128.914-.038.279-.071.559-.109.86.065-.029.11-.047.153-.067.467-.223.936-.442,1.4-.672a.617.617,0,0,1,.588.006c.451.223.9.439,1.358.656a.305.305,0,0,0,.164.058.667.667,0,0,0,0-.088c-.068-.5-.126-1.008-.209-1.509a.718.718,0,0,1,.218-.687C-857.212-249.171-856.848-249.566-856.457-249.975Z" transform="translate(-636.972 -0.042)" fill="#fff"/>
    <path id="Path_126742" data-name="Path 126742" d="M-1515.646-253.76a.5.5,0,0,1,.459.286c.358.667.721,1.33,1.072,2a.368.368,0,0,0,.3.215c.745.13,1.488.272,2.232.4a.488.488,0,0,1,.414.345.493.493,0,0,1-.13.525c-.537.56-1.072,1.123-1.611,1.681a.265.265,0,0,0-.078.247c.106.754.207,1.508.312,2.263a.526.526,0,0,1-.2.544.515.515,0,0,1-.567.021c-.689-.335-1.381-.664-2.07-1a.249.249,0,0,0-.245,0c-.689.335-1.381.663-2.071,1a.513.513,0,0,1-.579-.025.532.532,0,0,1-.189-.548c.108-.754.2-1.509.31-2.263a.251.251,0,0,0-.078-.233c-.522-.541-1.038-1.088-1.561-1.628a.542.542,0,0,1-.183-.578.554.554,0,0,1,.5-.368c.731-.127,1.46-.265,2.191-.391a.3.3,0,0,0,.239-.179c.356-.673.721-1.341,1.079-2.013A.513.513,0,0,1-1515.646-253.76Zm2.97,3.74c-.063-.015-.1-.024-.129-.03-.5-.091-1.007-.189-1.513-.27a.666.666,0,0,1-.531-.382c-.231-.452-.478-.9-.72-1.342-.022-.04-.029-.093-.089-.112-.02.034-.04.067-.058.1-.245.456-.5.909-.733,1.368a.627.627,0,0,1-.5.362c-.289.044-.577.1-.865.153l-.8.149c.052.058.083.095.116.129.354.371.706.744,1.065,1.11a.6.6,0,0,1,.183.544c-.049.318-.09.638-.133.957-.033.243-.064.486-.1.75.074-.033.123-.053.171-.076.458-.22.916-.438,1.372-.662a.6.6,0,0,1,.574,0c.318.161.641.312.962.466.19.091.382.177.588.273,0-.056,0-.085-.006-.114-.071-.537-.139-1.075-.218-1.611a.548.548,0,0,1,.155-.494q.424-.436.843-.876C-1512.923-249.752-1512.809-249.878-1512.676-250.02Z" transform="translate(0 0)" fill="#fff"/>
    <path id="Path_126743" data-name="Path 126743" d="M-1159.418-247.423c.06-.441.1-.92.2-1.387a.767.767,0,0,0-.259-.819c-.331-.295-.618-.638-.928-.956a.517.517,0,0,1-.159-.545.515.515,0,0,1,.451-.363c.553-.1,1.1-.2,1.657-.3a.221.221,0,0,0,.176-.129c.259-.487.524-.971.781-1.459a.533.533,0,0,1,.489-.337.531.531,0,0,1,.489.336c.257.488.522.972.781,1.459a.221.221,0,0,0,.175.13c.563.1,1.123.2,1.686.305a.5.5,0,0,1,.423.356.5.5,0,0,1-.137.523c-.392.409-.782.82-1.176,1.226a.235.235,0,0,0-.073.22c.078.546.147,1.093.226,1.639a.534.534,0,0,1-.2.559.522.522,0,0,1-.58.018c-.495-.243-.994-.478-1.489-.722a.25.25,0,0,0-.246,0q-.769.378-1.543.745A.51.51,0,0,1-1159.418-247.423Zm3.655-.822a1.182,1.182,0,0,0,0-.132c-.041-.3-.076-.61-.127-.913a.605.605,0,0,1,.195-.595c.069-.062.129-.133.193-.2l.539-.566-.2-.038c-.307-.056-.614-.114-.921-.168a.529.529,0,0,1-.4-.289c-.112-.211-.226-.421-.339-.632-.061-.114-.124-.227-.2-.365-.171.316-.338.6-.481.9a.683.683,0,0,1-.573.413c-.326.044-.647.115-1,.179.266.278.507.539.757.79a.594.594,0,0,1,.175.546c-.05.318-.087.638-.133.956-.013.092,0,.116.1.071.271-.134.549-.254.815-.4a.674.674,0,0,1,.693,0C-1156.376-248.527-1156.073-248.394-1155.763-248.245Z" transform="translate(-349.007 -0.042)" fill="#fff"/>
    <path id="Path_126744" data-name="Path 126744" d="M-1393.182,241.225c-.024,0-.081-.014-.137-.029q-1.117-.3-2.233-.6a.508.508,0,0,1-.406-.535.509.509,0,0,1,.451-.466.548.548,0,0,1,.217.022c.754.2,1.508.4,2.26.608a.5.5,0,0,1,.335.725A.519.519,0,0,1-1393.182,241.225Z" transform="translate(-120.543 -478.884)" fill="#fff"/>
    <path id="Path_126745" data-name="Path 126745" d="M-794.061,241.48a.51.51,0,0,1-.516-.43.5.5,0,0,1,.364-.562c.413-.116.829-.222,1.243-.333.339-.091.678-.184,1.017-.274a.512.512,0,0,1,.673.342.51.51,0,0,1-.408.636l-2.19.587A.588.588,0,0,1-794.061,241.48Z" transform="translate(-704.282 -479.138)" fill="#fff"/>
    <path id="Path_126746" data-name="Path 126746" d="M-796.359,417.032a.832.832,0,0,1,.108.017c.768.205,1.537.407,2.3.619a.5.5,0,0,1,.3.759.512.512,0,0,1-.6.2q-.99-.263-1.978-.53c-.113-.03-.228-.055-.337-.1a.5.5,0,0,1-.314-.565A.516.516,0,0,1-796.359,417.032Z" transform="translate(-702.039 -651.118)" fill="#fff"/>
    <path id="Path_126747" data-name="Path 126747" d="M-1393.558,418.355a.509.509,0,0,1,.416-.5q1.045-.281,2.092-.559l.127-.033a.51.51,0,0,1,.668.35.507.507,0,0,1-.4.625c-.508.138-1.017.273-1.526.409-.259.069-.516.147-.778.2A.5.5,0,0,1-1393.558,418.355Z" transform="translate(-122.875 -651.321)" fill="#fff"/>
    <path id="Path_126748" data-name="Path 126748" d="M-1406.12,340.009c-.38,0-.761,0-1.141,0a.509.509,0,0,1-.556-.508.512.512,0,0,1,.563-.5q1.141,0,2.282,0a.513.513,0,0,1,.558.509.513.513,0,0,1-.565.5Z" transform="translate(-109.033 -575.372)" fill="#fff"/>
    <path id="Path_126749" data-name="Path 126749" d="M-783.783,339c.385,0,.771,0,1.156,0a.5.5,0,0,1,.543.506.5.5,0,0,1-.544.5q-1.156,0-2.312,0a.511.511,0,0,1-.547-.505.513.513,0,0,1,.548-.5c.385,0,.771,0,1.156,0Z" transform="translate(-713.112 -575.371)" fill="#fff"/>
    <path id="Path_126750" data-name="Path 126750" d="M-1053.619,662.137c0,.073,0,.147,0,.22a.507.507,0,0,1-.508.486.5.5,0,0,1-.505-.487c-.007-.141-.008-.283,0-.425a.5.5,0,0,1,.515-.493.508.508,0,0,1,.5.509C-1053.616,662.01-1053.619,662.074-1053.619,662.137Z" transform="translate(-451.854 -888.355)" fill="#fff"/>
    <path id="Path_126751" data-name="Path 126751" d="M-1053.649,597.5c0,.068,0,.137,0,.205a.51.51,0,0,1-.491.489.5.5,0,0,1-.518-.458,2.98,2.98,0,0,1,0-.483.5.5,0,0,1,.51-.466.505.505,0,0,1,.5.493C-1053.646,597.352-1053.649,597.426-1053.649,597.5Z" transform="translate(-451.824 -825.6)" fill="#fff"/>
  </g>
</svg>
