<svg xmlns="http://www.w3.org/2000/svg" width="30.774" height="28.001" viewBox="0 0 30.774 28.001">
  <path id="Path_126755" data-name="Path 126755" d="M35.432,36.366H33.356V31.538a.342.342,0,1,0-.684,0v4.828H29.2V18.65h3.474v8.685a.342.342,0,1,0,.684,0V18.308a.342.342,0,0,0-.342-.342H28.857a.342.342,0,0,0-.342.342V36.366h-2.25V21.8a.342.342,0,0,0-.342-.342H21.755a.342.342,0,0,0-.342.342V34.978a.342.342,0,0,0,.684,0V22.145h3.484V36.366H19.173V25.188a.342.342,0,0,0-.342-.342H14.673a.342.342,0,0,0-.342.342V36.366H12.078V27.725a.342.342,0,0,0-.342-.342H7.582a.342.342,0,0,0-.342.342v8.641h-1.9a.342.342,0,1,0,0,.684h30.09a.342.342,0,1,0,0-.684Zm-27.508,0v-8.3h3.471v8.3Zm7.092,0V25.53h3.474V36.366Zm18.242-7.352a.342.342,0,0,1,.1.243.412.412,0,0,1,0,.065.24.24,0,0,1-.021.065.19.19,0,0,1-.031.058.642.642,0,0,1-.041.051.342.342,0,0,1-.373.075.286.286,0,0,1-.113-.075.342.342,0,0,1,.373-.557A.412.412,0,0,1,33.257,29.014ZM22.743,14.462a1.624,1.624,0,0,0,.9-.274h0a1.634,1.634,0,1,0-.9.274Zm-.53-2.417a.933.933,0,0,1,.523-.161,1.121,1.121,0,0,1,.188.017.947.947,0,0,1,.342,1.71h0a.947.947,0,0,1-1.053-1.573ZM12.1,17.635a.342.342,0,0,1,.094-.474h0l1.1-.732a.342.342,0,0,1,.475.092h0a.342.342,0,0,1-.094.474h0l-1.1.732a.343.343,0,0,1-.475-.092ZM8.341,22.111a.347.347,0,0,0,.472.106l8.258-5.2.684,1.026-2.93,1.966a.343.343,0,0,0,.38.571l3.221-2.151.8-.537-.595,2.318a.341.341,0,0,0,.52.369l2.13-1.426a4.126,4.126,0,0,0,1.71-2.253l.168-.6a9.178,9.178,0,0,0,1-.6c2.735-1.833,3.891-5.963,3.939-6.138a.342.342,0,0,0-.287-.427c-.181-.024-4.445-.544-7.181,1.286-.342.219-.643.455-.937.684l-.619-.075a4.139,4.139,0,0,0-2.735.715l-2.13,1.422a.341.341,0,0,0,.144.622l2.37.342-.8.544h0l-1.648,1.1a.342.342,0,0,0,.191.626.321.321,0,0,0,.188-.058l1.368-.91.684,1.026-8.258,5.18a.342.342,0,0,0-.106.472h0Zm13.992-5.4a3.418,3.418,0,0,1-1.429,1.87l-1.388.927.557-2.164a8.36,8.36,0,0,0,2.267-.653Zm4.982-6.941a15.5,15.5,0,0,1-.975,2.277L24.832,9.8A15.352,15.352,0,0,1,27.314,9.774Zm-6.3,1.214A7.758,7.758,0,0,1,24.09,9.9l1.884,2.821a7.7,7.7,0,0,1-2.182,2.394,9.423,9.423,0,0,1-3.645,1.522l-1.918-2.876A9.43,9.43,0,0,1,21.013,10.988Zm-4.295,1.334a3.449,3.449,0,0,1,2.277-.6h.024a8.521,8.521,0,0,0-1.47,1.846l-2.212-.318Zm1.026,1.963L19.477,16.9l-1.142.773-1.747-2.616Z" transform="translate(-5 -9.048)" fill="#fff"/>
</svg>
