<svg xmlns="http://www.w3.org/2000/svg" width="41.199" height="41.2" viewBox="0 0 41.199 41.2">
  <g id="apple-books-seeklogo" transform="translate(505.1 259.1)">
    <g id="RGB_x5F_Icon_78_" transform="translate(-504.5 -258.5)">
      <g id="_x38_x_x5F_iOS11-iBooks-Icon_x5F_US-EN_x5F_00-0013-932_x5F_v1_x5F_w_x5F_RGB_x5F_R3_1_" transform="translate(0 0)">
        <path id="Path_126732" data-name="Path 126732" d="M-464.5-246.006V-248.6a16.189,16.189,0,0,0-.221-2.66,10.011,10.011,0,0,0-.811-2.512,7.13,7.13,0,0,0-1.554-2.144,14.4,14.4,0,0,0-2.144-1.554,7.718,7.718,0,0,0-2.512-.811,16.192,16.192,0,0,0-2.66-.221h-20.2a16.192,16.192,0,0,0-2.66.221,10.012,10.012,0,0,0-2.512.811,7.13,7.13,0,0,0-2.144,1.554,9.422,9.422,0,0,0-1.554,2.144,7.718,7.718,0,0,0-.811,2.512,16.192,16.192,0,0,0-.221,2.66v20.2a16.192,16.192,0,0,0,.221,2.66,10.011,10.011,0,0,0,.811,2.512,7.13,7.13,0,0,0,1.554,2.144,7.626,7.626,0,0,0,2.144,1.554,7.718,7.718,0,0,0,2.512.811,16.19,16.19,0,0,0,2.66.221h20.191a16.19,16.19,0,0,0,2.66-.221,10.012,10.012,0,0,0,2.512-.811,7.13,7.13,0,0,0,2.144-1.554,9.423,9.423,0,0,0,1.554-2.144,7.719,7.719,0,0,0,.811-2.512,16.192,16.192,0,0,0,.221-2.66v-17.605Z" transform="translate(504.5 258.5)" fill="none" stroke="#000" stroke-width="1.2"/>
        <path id="Path_126733" data-name="Path 126733" d="M-397.548-123.539c.663,1.038,1.038,1.333,1.038,4.214v16.2a6.558,6.558,0,0,0-2.291-3.329c-2.365-1.849-6.438-2-9.761.442-.59.442-1.038.368-1.038-.295v-15.756a2.373,2.373,0,0,1,1.038-2.144C-405.246-126.5-400.141-126.573-397.548-123.539Zm16.086,1.554a2.373,2.373,0,0,0-1.038-2.144c-3.329-2.438-8.434-2.438-11.02.59-.663,1.038-1.038,1.333-1.038,4.214v16.2a6.558,6.558,0,0,1,2.291-3.329c2.365-1.849,6.438-2,9.761.442.59.442,1.038.368,1.038-.295C-381.462-109.852-381.462-118.36-381.462-121.984Z" transform="translate(415.531 134.773)" fill="none" stroke="#000" stroke-width="1.2"/>
      </g>
    </g>
  </g>
</svg>
