<svg xmlns="http://www.w3.org/2000/svg" width="44.945" height="41" viewBox="0 0 44.945 41">
  <g id="amazon-logo-svgrepo-com" transform="translate(0.536 -1.077)">
    <path id="Path_126731" data-name="Path 126731" d="M25.97,11.884c-1.062.084-2.29.169-3.517.333a18.021,18.021,0,0,0-5.311,1.305,7.875,7.875,0,0,0-5.068,7.7c0,4.832,3.107,7.283,7.028,7.283a13.332,13.332,0,0,0,3.351-.407,10.207,10.207,0,0,0,4.416-3.026,12.834,12.834,0,0,0,2.7,3.11,1.129,1.129,0,0,0,1.143-.082c.981-.817,2.7-2.291,3.6-3.109a.9.9,0,0,0,.082-1.23,6.1,6.1,0,0,1-1.8-4.337V12.056c0-3.115.242-5.978-2.042-8.1a10.948,10.948,0,0,0-7.11-2.375h-.982c-4.168.244-8.58,2.042-9.563,7.2a.775.775,0,0,0,.657.983l4.576.575a1.045,1.045,0,0,0,.816-.905,3.746,3.746,0,0,1,3.516-2.863h.329A3.232,3.232,0,0,1,25.4,7.8a6.217,6.217,0,0,1,.572,3.44l0,.648Zm-.9,9.742a3.946,3.946,0,0,1-2.616,2.13c-.162,0-.405.084-.652.084-1.8,0-2.864-1.392-2.864-3.44,0-2.616,1.555-3.848,3.516-4.42a16.12,16.12,0,0,1,3.516-.329v.983C25.97,18.519,26.047,19.991,25.071,21.626ZM43.909,32.993v.267a9.576,9.576,0,0,1-2.886,6.361c-.4.31-.8.133-.624-.315.581-1.419,1.91-4.715,1.289-5.47-.44-.576-2.264-.533-3.817-.4-.709.089-1.333.13-1.821.227-.443.041-.534-.356-.088-.666a7.1,7.1,0,0,1,1.91-.937c2.528-.754,5.462-.31,5.863.181A1.419,1.419,0,0,1,43.909,32.993ZM39.691,36.1a17,17,0,0,1-1.82,1.206,32.3,32.3,0,0,1-15.938,4.266A31.994,31.994,0,0,1,.221,33.26c-.491-.4-.091-.978.487-.668a43.562,43.562,0,0,0,21.711,5.785A42.749,42.749,0,0,0,37.87,35.437c.353-.129.754-.312,1.11-.441C39.779,34.634,40.491,35.531,39.691,36.1Z" transform="translate(0 0)" fill="none" stroke="#000" stroke-width="1"/>
  </g>
</svg>
