<svg id="marketing" xmlns="http://www.w3.org/2000/svg" width="40.003" height="40" viewBox="0 0 40.003 40">
  <path id="Path_126723" data-name="Path 126723" d="M37.333,0h-16a2.667,2.667,0,0,0-2.667,2.667v3.85a8.653,8.653,0,0,0-14,6.817v4A2,2,0,0,0,6.11,19.255a23.1,23.1,0,0,0,.673,2.3,7.175,7.175,0,0,0,3.108,3.258l-2.17.434A9.633,9.633,0,0,0,0,34.667V38a2,2,0,0,0,2,2H26a1.333,1.333,0,0,0,1.333-1.333V38H28.44a1.559,1.559,0,0,0,1.551-1.467l3.388,1.883A2,2,0,0,0,37.333,38V33.933a3.333,3.333,0,0,0,0-6.533V23.333a2,2,0,0,0-3.955-.417L27.827,26H23.333a1.981,1.981,0,0,0-1.276.473,9.633,9.633,0,0,0-3.114-1.233l-2.167-.431a7.161,7.161,0,0,0,3.107-3.257,23.1,23.1,0,0,0,.673-2.3,2,2,0,0,0,.925-.588h1.185v1.72a1.612,1.612,0,0,0,2.384,1.419l5.785-3.139h6.5A2.667,2.667,0,0,0,40,16V2.667A2.667,2.667,0,0,0,37.333,0Zm-24,6a7.342,7.342,0,0,1,7.333,7.333v2.122c-.055-.02-.108-.043-.165-.058l-.082-.246A2.836,2.836,0,0,0,18.1,13.237a8.619,8.619,0,0,1-3.8-1.291l-.009-.007a1.667,1.667,0,0,0-1.933.007,8.637,8.637,0,0,1-3.8,1.292,2.832,2.832,0,0,0-2.313,1.911l-.083.248c-.057.015-.11.038-.165.058V13.333A7.342,7.342,0,0,1,13.333,6ZM24.667,38.667h-.089L24.1,35.333H26v3.333Zm4-2.227a.227.227,0,0,1-.227.227H27.333V35.333h.494l.839.467Zm0-9.381,4.667-2.592v12.4l-4.667-2.593Zm10,3.608a2,2,0,0,1-1.333,1.877V28.789a2,2,0,0,1,1.333,1.877Zm-4-7.333a.667.667,0,1,1,1.333,0V38a.667.667,0,1,1-1.333,0Zm-11.333,4h4V34h-4a.667.667,0,0,1-.667-.667V28A.667.667,0,0,1,23.333,27.333Zm-2.667,5.333A.667.667,0,0,1,20,32V29.333a.667.667,0,0,1,.667-.667h.667v4Zm.214-5.333h-.214a2,2,0,0,0-2,2V32a2,2,0,0,0,2,2h.789a1.994,1.994,0,0,0,1.285,1.233l.49,3.433H2A.667.667,0,0,1,1.333,38V34.667a8.3,8.3,0,0,1,6.65-8.117l2.123-.425a3.3,3.3,0,0,0,3.227,2.541,3.333,3.333,0,0,0,3.228-2.542l2.119.422a8.338,8.338,0,0,1,2.2.787Zm-9.527-1.791A5.6,5.6,0,0,0,13.333,26a5.577,5.577,0,0,0,1.979-.458,1.988,1.988,0,0,1-3.958,0ZM20,18a.667.667,0,0,0-.657.551,18.866,18.866,0,0,1-.72,2.565c-.516,1.493-3.581,3.551-5.29,3.551s-4.774-2.057-5.29-3.551a18.845,18.845,0,0,1-.72-2.564A.667.667,0,0,0,6.667,18a.667.667,0,1,1,0-1.333.667.667,0,0,0,.632-.456l.215-.641a1.491,1.491,0,0,1,1.213-1.007,9.739,9.739,0,0,0,4.407-1.528.333.333,0,0,1,.394,0,9.74,9.74,0,0,0,4.406,1.527,1.5,1.5,0,0,1,1.22,1.01l.214.64a.667.667,0,0,0,.633.456A.667.667,0,1,1,20,18Zm18.667-2a1.333,1.333,0,0,1-1.333,1.333H30.667a.671.671,0,0,0-.318.081l-5.933,3.22a.275.275,0,0,1-.278-.007.27.27,0,0,1-.137-.24V18a.667.667,0,0,0-.667-.667H22v-4A8.625,8.625,0,0,0,20,7.8V2.667a1.333,1.333,0,0,1,1.333-1.333h16a1.333,1.333,0,0,1,1.333,1.333Z"/>
  <path id="Path_126724" data-name="Path 126724" d="M48,13H34.667a.667.667,0,1,0,0,1.333H48A.667.667,0,1,0,48,13Z" transform="translate(-11.333 -4.333)"/>
  <path id="Path_126725" data-name="Path 126725" d="M42.667,9.667A.667.667,0,0,0,42,9H32.667a.667.667,0,1,0,0,1.333H42A.667.667,0,0,0,42.667,9.667Z" transform="translate(-10.667 -3)"/>
  <path id="Path_126726" data-name="Path 126726" d="M53.333,9H50.667a.667.667,0,0,0,0,1.333h2.667a.667.667,0,0,0,0-1.333Z" transform="translate(-16.667 -3)"/>
  <path id="Path_126727" data-name="Path 126727" d="M41.667,21h-6a.667.667,0,1,0,0,1.333h6a.667.667,0,1,0,0-1.333Z" transform="translate(-11.667 -7)"/>
  <path id="Path_126728" data-name="Path 126728" d="M35.667,18.333H37A.667.667,0,1,0,37,17H35.667a.667.667,0,1,0,0,1.333Z" transform="translate(-11.667 -5.667)"/>
  <path id="Path_126729" data-name="Path 126729" d="M50.333,17H41.667a.667.667,0,1,0,0,1.333h8.667a.667.667,0,1,0,0-1.333Z" transform="translate(-13.667 -5.667)"/>
  <path id="Path_126730" data-name="Path 126730" d="M47.333,5H32.667a.667.667,0,1,0,0,1.333H47.333a.667.667,0,1,0,0-1.333Z" transform="translate(-10.667 -1.667)"/>
</svg>
