<svg xmlns="http://www.w3.org/2000/svg" width="26.04" height="40" viewBox="0 0 26.04 40">
  <g id="id-card" transform="translate(-12.47 -2)">
    <path id="Path_126703" data-name="Path 126703" d="M37.843,7.493H29.686V2.667A.667.667,0,0,0,29.019,2H21.961a.667.667,0,0,0-.667.667V7.493H13.137a.667.667,0,0,0-.667.667V41.333a.667.667,0,0,0,.667.667H37.843a.667.667,0,0,0,.667-.667V8.16a.667.667,0,0,0-.667-.667Zm-9.491-4.16V8.149s0,.007,0,.011,0,.007,0,.011v2.853H22.628V8.171s0-.007,0-.011,0-.007,0-.011V3.333Zm8.824,37.333H13.8V8.827h7.491v2.2H19.213a.667.667,0,0,0,0,1.333H31.766a.667.667,0,1,0,0-1.333H29.685v-2.2h7.491v31.84Z" transform="translate(0)"/>
    <path id="Path_126704" data-name="Path 126704" d="M19.449,21.926V37.037a.667.667,0,0,0,.667.667h15.4a.667.667,0,0,0,.667-.667V21.926a.667.667,0,0,0-.667-.667h-15.4a.667.667,0,0,0-.667.667ZM23.061,36.37V35.289a3.1,3.1,0,0,1,.349-1.449A3.17,3.17,0,0,1,26.242,32.1h3.151a3.187,3.187,0,0,1,3.181,3.185V36.37H23.062Zm4.755-5.6a2.564,2.564,0,1,1,2.562-2.562,2.565,2.565,0,0,1-2.562,2.562Zm-7.034-8.179H34.851V36.37h-.945V35.289a4.522,4.522,0,0,0-3.314-4.351,3.9,3.9,0,1,0-5.553,0,4.494,4.494,0,0,0-2.813,2.294,4.421,4.421,0,0,0-.5,2.06v1.081h-.945V22.592Z" transform="translate(-2.326 -6.42)"/>
    <path id="Path_126705" data-name="Path 126705" d="M34.988,49H21.7a.667.667,0,0,0,0,1.333H34.988a.667.667,0,1,0,0-1.333Z" transform="translate(-2.856 -15.667)"/>
    <path id="Path_126706" data-name="Path 126706" d="M34.08,52.889H24.428a.667.667,0,0,0,0,1.333H34.08a.667.667,0,1,0,0-1.333Z" transform="translate(-3.764 -16.963)"/>
  </g>
</svg>
