<svg xmlns="http://www.w3.org/2000/svg" width="33.684" height="40" viewBox="0 0 33.684 40">
  <path id="call-center" d="M33.017,8a11.737,11.737,0,0,0-8.223,2.874,8.883,8.883,0,0,0-2.834,6.53v1.945h-.254a3.255,3.255,0,0,0-3.251,3.259v1.758a3.255,3.255,0,0,0,3.251,3.259h.956a.7.7,0,0,0,.7-.7V17.4a7.479,7.479,0,0,1,2.389-5.5,10.346,10.346,0,0,1,7.265-2.5,10.346,10.346,0,0,1,7.265,2.5,7.479,7.479,0,0,1,2.389,5.5V27.563a8.252,8.252,0,0,1-4.608,7.412l-.006-2.5a8.037,8.037,0,0,0,1.11-1.163,10.707,10.707,0,0,0,2.1-6.568V21.553a2.187,2.187,0,0,0-.529-1.3,5.105,5.105,0,0,0-1.31-1.136A9.649,9.649,0,0,0,34.611,17.8h-.023a5.976,5.976,0,0,1-4.714-1.986,4.133,4.133,0,0,1-.794-1.652.7.7,0,0,0-1.367.318,5.579,5.579,0,0,0,.555,1.449,7.335,7.335,0,0,0-2.521,2.185,6.193,6.193,0,0,0-1.326,3.445V24.74a10.707,10.707,0,0,0,2.1,6.568,8.04,8.04,0,0,0,1.11,1.163l-.006,2.594a2.1,2.1,0,0,1-.989,1.509,4.941,4.941,0,0,1-2.126.931l-.023,0-2.871.523-.039.008a6.283,6.283,0,0,0-2.889,1.914,8.636,8.636,0,0,0-2.017,3.607c0,.016-.008.033-.011.05l-.646,3.562a.7.7,0,0,0,1.381.251l.641-3.537A7.248,7.248,0,0,1,19.717,40.9a4.985,4.985,0,0,1,2.168-1.5l2.494-.454,4.261,4.16a.7.7,0,0,0,.986-.006l.822-.821.244,2.227a.7.7,0,0,0,.7.625h3.067a.7.7,0,0,0,.7-.64l.195-2.223.88.843a.7.7,0,0,0,.985-.014l4.1-4.15,2.486.453a4.985,4.985,0,0,1,2.168,1.5,7.246,7.246,0,0,1,1.684,2.982l.641,3.537a.7.7,0,0,0,1.381-.251l-.646-3.562c0-.017-.007-.033-.011-.05A8.637,8.637,0,0,0,47,39.954,6.283,6.283,0,0,0,44.11,38.04l-.039-.008L41.2,37.508l-.023,0a4.941,4.941,0,0,1-2.126-.931,3.848,3.848,0,0,1-.382-.332,9.657,9.657,0,0,0,5.4-8.616h.254a3.255,3.255,0,0,0,3.251-3.259V22.608a3.255,3.255,0,0,0-3.251-3.259h-.254V17.4a8.883,8.883,0,0,0-2.834-6.53A11.737,11.737,0,0,0,33.017,8ZM36.7,35.5a8.169,8.169,0,0,1-1.643.29,1.658,1.658,0,0,0-1.56-1.1H31.9a1.659,1.659,0,0,0-1.658,1.661v.16A1.659,1.659,0,0,0,31.9,38.175H33.5a1.657,1.657,0,0,0,1.51-.975,9.565,9.565,0,0,0,2.283-.411,4.8,4.8,0,0,0,.911.9,6.516,6.516,0,0,0,1.538.863L36.7,41.627l-3.375-3.233a.7.7,0,0,0-.982.01l-3.222,3.222-3.156-3.082a6.513,6.513,0,0,0,1.516-.854,3.456,3.456,0,0,0,1.541-2.624V33.418a8.567,8.567,0,0,0,7.635,0v1.647a2.485,2.485,0,0,0,.038.435ZM21.707,20.752h.254v5.47h-.254a1.851,1.851,0,0,1-1.847-1.856V22.608A1.851,1.851,0,0,1,21.707,20.752Zm22.621,5.47h-.254v-5.47h.254a1.851,1.851,0,0,1,1.847,1.856v1.758A1.851,1.851,0,0,1,44.328,26.222ZM31.648,36.355A.256.256,0,0,1,31.9,36.1H33.5a.256.256,0,0,1,.254.257v.16a.256.256,0,0,1-.254.257H31.9a.256.256,0,0,1-.254-.257ZM29.117,17.074a5.8,5.8,0,0,0-2.241,1.869,4.839,4.839,0,0,0-1.051,2.61V24.74a9.31,9.31,0,0,0,1.8,5.7,6.361,6.361,0,0,0,5.22,2.468,6.361,6.361,0,0,0,5.22-2.468,9.31,9.31,0,0,0,1.8-5.7V21.553c0-.395-.736-.968-1.181-1.247a8.255,8.255,0,0,0-4.1-1.107A7.55,7.55,0,0,1,29.117,17.074Zm2.6,23.941.3,2.721h1.795l.237-2.7-1.2-1.148Z" transform="translate(-16 -8)" fill-rule="evenodd"/>
</svg>
