<svg xmlns="http://www.w3.org/2000/svg" xmlns:xlink="http://www.w3.org/1999/xlink" width="40" height="40" viewBox="0 0 40 40">
  <defs>
    <clipPath id="clip-path">
      <path id="path417" d="M0-682.665H40v40H0Z" transform="translate(0 682.665)"/>
    </clipPath>
  </defs>
  <g id="g411" transform="translate(0 682.665)">
    <g id="g413" transform="translate(0 -682.665)">
      <g id="g415" clip-path="url(#clip-path)">
        <g id="g421" transform="translate(16.381 0)">
          <path id="path423" d="M-214.506,1.992a.586.586,0,0,1-.586-.586V-5.619A4.392,4.392,0,0,1-210.7-10h8.211a.586.586,0,0,1,.586.586.586.586,0,0,1-.586.586H-210.7a3.218,3.218,0,0,0-3.221,3.209V1.406A.586.586,0,0,1-214.506,1.992Z" transform="translate(215.091 10)"/>
        </g>
        <g id="g425" transform="translate(17.956 0)">
          <path id="path427" d="M-.052-332.887a.585.585,0,0,1-.259-.061.586.586,0,0,1-.326-.525v-2.872H-7.183a4.369,4.369,0,0,1-2.575-.831.586.586,0,0,1-.132-.818.586.586,0,0,1,.818-.132,3.2,3.2,0,0,0,1.889.609H-.052a.586.586,0,0,1,.586.586v2.272L4.113-337.4a.586.586,0,0,1,.356-.121h1.95a3.218,3.218,0,0,0,3.221-3.209v-13.56A3.218,3.218,0,0,0,6.419-357.5H4.7a.586.586,0,0,1-.586-.586.586.586,0,0,1,.586-.586h1.72a4.392,4.392,0,0,1,4.392,4.381v13.56a4.392,4.392,0,0,1-4.392,4.381H4.667L.3-333.008A.586.586,0,0,1-.052-332.887Z" transform="translate(10.001 358.667)"/>
        </g>
        <g id="g429" transform="translate(24.056 4.291)">
          <path id="path431" d="M-1.254-189.232h-5.57a4.092,4.092,0,0,1-2.567-.909l-.392-.318a.586.586,0,0,1-.087-.824.586.586,0,0,1,.824-.087l.392.318a2.917,2.917,0,0,0,1.83.648h5.57a.34.34,0,0,0,.248-.106.342.342,0,0,0,.094-.254c-.017-.357-.011-2.5,0-4.766l0-.825a.344.344,0,0,0-.343-.343l-3.779-.011a.586.586,0,0,1-.487-.263.586.586,0,0,1-.051-.551l.462-1.1a3.4,3.4,0,0,0-.179-2.989l-.06.016A4.614,4.614,0,0,1-6.5-198.537l-2.409,2.725a.586.586,0,0,1-.827.051.586.586,0,0,1-.051-.827l2.408-2.725a3.442,3.442,0,0,0,.861-2.279,1.212,1.212,0,0,1,.573-1.026,1.194,1.194,0,0,1,.929-.141,1.194,1.194,0,0,1,.747.569,4.575,4.575,0,0,1,.241,4.026l-.12.284,2.9.009a1.516,1.516,0,0,1,1.513,1.515l0,.829c-.005,1.406-.017,4.331,0,4.707A1.5,1.5,0,0,1-.158-189.7,1.522,1.522,0,0,1-1.254-189.232Z" transform="translate(10 202.797)"/>
        </g>
        <path id="path433" d="M359.278-515.089h-3.152a.586.586,0,0,1-.586-.586v-7.091a.586.586,0,0,1,.586-.586h3.152a.586.586,0,0,1,.586.586v7.091A.586.586,0,0,1,359.278-515.089Zm-2.566-1.172h1.98v-5.919h-1.98Z" transform="translate(-334.708 532.687)"/>
        <g id="g435" transform="translate(1.232 18.32)">
          <path id="path437" d="M-.52,2.829a.585.585,0,0,1-.258-.06.586.586,0,0,1-.328-.526V.077H-6.412A3.587,3.587,0,0,1-10-3.5V-9.414A.586.586,0,0,1-9.414-10a.586.586,0,0,1,.586.586V-3.5A2.414,2.414,0,0,0-6.412-1.095H-.52a.586.586,0,0,1,.586.586v1.56L2.687-.973a.586.586,0,0,1,.822.106A.586.586,0,0,1,3.4-.045L-.162,2.707A.586.586,0,0,1-.52,2.829Z" transform="translate(10 10)"/>
        </g>
        <g id="g439" transform="translate(1.232 10.547)">
          <path id="path441" d="M-276.768-240.413a.587.587,0,0,1-.143-.018.586.586,0,0,1-.426-.711,2.41,2.41,0,0,0,.072-.585v-10.694a2.414,2.414,0,0,0-2.416-2.407h-10.726a2.414,2.414,0,0,0-2.416,2.407v1.265a.586.586,0,0,1-.586.586.586.586,0,0,1-.586-.586v-1.265A3.587,3.587,0,0,1-290.408-256h10.726a3.587,3.587,0,0,1,3.588,3.579v10.694a3.581,3.581,0,0,1-.107.87A.586.586,0,0,1-276.768-240.413Z" transform="translate(293.995 255.999)"/>
        </g>
        <g id="g443" transform="translate(5.663 17.75)">
          <path id="path445" d="M-1.547-8.828H-9.414A.586.586,0,0,1-10-9.414.586.586,0,0,1-9.414-10h7.867a.586.586,0,0,1,.586.586A.586.586,0,0,1-1.547-8.828Z" transform="translate(10 10)"/>
        </g>
        <g id="g447" transform="translate(5.663 20.351)">
          <path id="path449" d="M-1.547-8.828H-9.414A.586.586,0,0,1-10-9.414.586.586,0,0,1-9.414-10h7.867a.586.586,0,0,1,.586.586A.586.586,0,0,1-1.547-8.828Z" transform="translate(10 10)"/>
        </g>
        <g id="g451" transform="translate(10.247 15.117)">
          <path id="path453" d="M-31.612-.962a.59.59,0,0,1-.1-.008.586.586,0,0,1-.483-.674l1.3-7.867a.586.586,0,0,1,.674-.483.586.586,0,0,1,.483.674l-1.3,7.867A.586.586,0,0,1-31.612-.962Z" transform="translate(32.199 10.002)"/>
        </g>
        <g id="g455" transform="translate(7.646 15.117)">
          <path id="path457" d="M-31.612-.962a.59.59,0,0,1-.1-.008.586.586,0,0,1-.483-.674l1.3-7.867a.586.586,0,0,1,.674-.483.586.586,0,0,1,.483.674l-1.3,7.867A.586.586,0,0,1-31.612-.962Z" transform="translate(32.199 10.002)"/>
        </g>
        <g id="g459" transform="translate(14.026 25.039)">
          <path id="path461" d="M-205.722-80.375a.585.585,0,0,1-.258-.06.586.586,0,0,1-.328-.526v-1.367h-3.6a2.716,2.716,0,0,1-2.716-2.71v-7.589a2.716,2.716,0,0,1,2.716-2.71h7.612a2.716,2.716,0,0,1,2.716,2.71v2.876a.586.586,0,0,1-.586.586.586.586,0,0,1-.586-.586v-2.876a1.543,1.543,0,0,0-1.544-1.538H-209.9a1.543,1.543,0,0,0-1.544,1.538v7.589A1.543,1.543,0,0,0-209.9-83.5h4.182a.586.586,0,0,1,.586.586v.761l1.586-1.224a.586.586,0,0,1,.358-.122h.9a1.543,1.543,0,0,0,1.544-1.538v-1.04a.586.586,0,0,1,.586-.586.586.586,0,0,1,.586.586v1.04a2.716,2.716,0,0,1-2.716,2.71h-.7l-2.372,1.831A.586.586,0,0,1-205.722-80.375Z" transform="translate(212.619 95.336)"/>
        </g>
        <g id="g463" transform="translate(17.182 28.786)">
          <path id="path465" d="M-54.091-85.131a.586.586,0,0,1-.274-.068c-1.856-.984-3.092-1.972-3.092-3.595a2.138,2.138,0,0,1,2.109-2.258,1.948,1.948,0,0,1,1.251.446,1.921,1.921,0,0,1,1.232-.427,2.144,2.144,0,0,1,2.142,2.239c0,1.623-1.236,2.611-3.092,3.595A.586.586,0,0,1-54.091-85.131Zm-1.257-4.749a.983.983,0,0,0-.937,1.086c0,.875.581,1.523,2.195,2.411,1.614-.889,2.195-1.536,2.195-2.411a.987.987,0,0,0-.97-1.067.731.731,0,0,0-.694.432.586.586,0,0,1-.519.338.586.586,0,0,1-.532-.317A.8.8,0,0,0-55.348-89.88Z" transform="translate(57.457 91.052)"/>
        </g>
      </g>
    </g>
  </g>
</svg>
