<svg xmlns="http://www.w3.org/2000/svg" width="28.951" height="40" viewBox="0 0 28.951 40">
  <g id="Group_53921" data-name="Group 53921" transform="translate(-952.025 -2131.869)">
    <g id="Group_53920" data-name="Group 53920" transform="translate(960.936 2143.071)">
      <path id="Path_126701" data-name="Path 126701" d="M144.288,138.874a.719.719,0,0,0-.132-.073,1.467,1.467,0,0,0-1.188-.968l-2.376-.352-1.071-2.156a1.54,1.54,0,0,0-1.232-.924,1.467,1.467,0,0,0-1.305.851l-1.041,2.127-2.391.352a1.467,1.467,0,0,0-.851,2.538l1.731,1.643-.425,2.347a1.569,1.569,0,0,0,.616,1.467,1.466,1.466,0,0,0,.821.235,1.952,1.952,0,0,0,.719-.147l2.127-1.041,2.127,1.115.279.088a2.1,2.1,0,0,0,1.261-.205,1.467,1.467,0,0,0,.587-1.467l-.381-2.362,1.643-1.6A1.466,1.466,0,0,0,144.288,138.874Zm-3.52,2.347a.733.733,0,0,0-.22.645l.455,2.758h-.1l-2.376-1.261a.733.733,0,0,0-.689,0l-2.464,1.276.5-2.743a.733.733,0,0,0-.22-.66l-1.907-2.009,2.758-.425a.733.733,0,0,0,.557-.4l1.232-2.45,1.232,2.479a.733.733,0,0,0,.557.4l2.743.4Z" transform="translate(-132.228 -134.4)"/>
    </g>
    <path id="Path_126702" data-name="Path 126702" d="M36.881,2.75H13.729a2.9,2.9,0,0,0-2.9,2.906V39.844a2.9,2.9,0,0,0,4.848,2.147l8.827-8.007a1.19,1.19,0,0,1,1.6,0L34.933,42a2.906,2.906,0,0,0,1.935.752,2.954,2.954,0,0,0,1.19-.253,2.865,2.865,0,0,0,1.723-2.653V5.656a2.9,2.9,0,0,0-2.9-2.906Zm1.19,37.094a1.19,1.19,0,0,1-1.99.875l-8.827-8a2.885,2.885,0,0,0-3.9,0l-8.827,8.007a1.19,1.19,0,0,1-1.99-.882V5.656a1.19,1.19,0,0,1,1.19-1.19H36.881a1.19,1.19,0,0,1,1.19,1.19Z" transform="translate(941.195 2129.119)"/>
  </g>
</svg>
