<svg width="32" height="33" viewBox="0 0 32 33" fill="none" xmlns="http://www.w3.org/2000/svg">
<path d="M23.4933 14.8436C22.92 14.8436 22.4667 14.3769 22.4667 13.8169C22.4667 13.3236 21.9733 12.2969 21.1467 11.4036C20.3333 10.5369 19.44 10.0303 18.6933 10.0303C18.12 10.0303 17.6667 9.5636 17.6667 9.0036C17.6667 8.4436 18.1333 7.97693 18.6933 7.97693C20.0267 7.97693 21.4267 8.69693 22.6533 9.99026C23.8 11.2036 24.5333 12.7103 24.5333 13.8036C24.5333 14.3769 24.0667 14.8436 23.4933 14.8436Z" fill="#65C7E4"/>
<path d="M28.3067 14.8436C27.7333 14.8436 27.28 14.3769 27.28 13.8169C27.28 9.08361 23.4267 5.24361 18.7067 5.24361C18.1333 5.24361 17.68 4.77694 17.68 4.21694C17.68 3.65694 18.1333 3.17694 18.6933 3.17694C24.56 3.17694 29.3333 7.95027 29.3333 13.8169C29.3333 14.3769 28.8667 14.8436 28.3067 14.8436Z" fill="#65C7E4"/>
<path d="M14.7333 20.4436L12.2667 22.9103C11.7467 23.4303 10.92 23.4303 10.3867 22.9236C10.24 22.7769 10.0933 22.6436 9.94666 22.4969C8.57332 21.1103 7.33332 19.6569 6.22666 18.1369C5.13332 16.6169 4.25332 15.0969 3.61332 13.5903C2.98666 12.0703 2.66666 10.6169 2.66666 9.23027C2.66666 8.32361 2.82666 7.45694 3.14666 6.65694C3.46666 5.84361 3.97332 5.09694 4.67999 4.43027C5.53332 3.59027 6.46666 3.17694 7.45332 3.17694C7.82666 3.17694 8.19999 3.25694 8.53332 3.41694C8.87999 3.57694 9.18666 3.81694 9.42666 4.16361L12.52 8.52361C12.76 8.85694 12.9333 9.16361 13.0533 9.45694C13.1733 9.73694 13.24 10.0169 13.24 10.2703C13.24 10.5903 13.1467 10.9103 12.96 11.2169C12.7867 11.5236 12.5333 11.8436 12.2133 12.1636L11.2 13.2169C11.0533 13.3636 10.9867 13.5369 10.9867 13.7503C10.9867 13.8569 11 13.9503 11.0267 14.0569C11.0667 14.1636 11.1067 14.2436 11.1333 14.3236C11.3733 14.7636 11.7867 15.3369 12.3733 16.0303C12.9733 16.7236 13.6133 17.4303 14.3067 18.1369C14.44 18.2703 14.5867 18.4036 14.72 18.5369C15.2533 19.0569 15.2667 19.9103 14.7333 20.4436Z" fill="#65C7E4"/>
<path d="M29.2933 24.9502C29.2933 25.3236 29.2267 25.7102 29.0933 26.0836C29.0533 26.1902 29.0133 26.2969 28.96 26.4036C28.7333 26.8836 28.44 27.3369 28.0533 27.7636C27.4 28.4836 26.68 29.0036 25.8667 29.3369C25.8533 29.3369 25.84 29.3502 25.8267 29.3502C25.04 29.6702 24.1867 29.8436 23.2667 29.8436C21.9067 29.8436 20.4533 29.5236 18.92 28.8702C17.3867 28.2169 15.8533 27.3369 14.3333 26.2302C13.8133 25.8436 13.2933 25.4569 12.8 25.0436L17.16 20.6836C17.5333 20.9636 17.8667 21.1769 18.1467 21.3236C18.2133 21.3502 18.2933 21.3902 18.3867 21.4302C18.4933 21.4702 18.6 21.4836 18.72 21.4836C18.9467 21.4836 19.12 21.4036 19.2667 21.2569L20.28 20.2569C20.6133 19.9236 20.9333 19.6702 21.24 19.5102C21.5467 19.3236 21.8533 19.2302 22.1867 19.2302C22.44 19.2302 22.7067 19.2836 23 19.4036C23.2933 19.5236 23.6 19.6969 23.9333 19.9236L28.3467 23.0569C28.6933 23.2969 28.9333 23.5769 29.08 23.9102C29.2133 24.2436 29.2933 24.5769 29.2933 24.9502Z" fill="#65C7E4"/>
</svg>
