<svg xmlns="http://www.w3.org/2000/svg" xmlns:xlink="http://www.w3.org/1999/xlink" width="63.077" height="22.077" viewBox="0 0 63.077 22.077">
  <defs>
    <linearGradient id="linear-gradient" x1="0.554" y1="0.957" x2="-0.016" y2="0.037" gradientUnits="objectBoundingBox">
      <stop offset="0" stop-color="#000083"/>
      <stop offset="1" stop-color="#22b5f0"/>
    </linearGradient>
    <linearGradient id="linear-gradient-2" x1="0.766" y1="1.046" x2="0" y2="0.013" gradientUnits="objectBoundingBox">
      <stop offset="0" stop-color="#000083"/>
      <stop offset="0.084" stop-color="#091c95"/>
      <stop offset="0.255" stop-color="#1850b5"/>
      <stop offset="0.423" stop-color="#267bcf"/>
      <stop offset="0.585" stop-color="#309de4"/>
      <stop offset="0.738" stop-color="#37b5f3"/>
      <stop offset="0.88" stop-color="#3bc3fc"/>
      <stop offset="1" stop-color="#3dc8ff"/>
    </linearGradient>
    <linearGradient id="linear-gradient-3" x1="1.372" y1="0.859" x2="-0.176" y2="0.064" gradientUnits="objectBoundingBox">
      <stop offset="0" stop-color="#2083e6"/>
      <stop offset="0.038" stop-color="#2488e8"/>
      <stop offset="0.388" stop-color="#44b0f4"/>
      <stop offset="0.666" stop-color="#58c9fc"/>
      <stop offset="0.835" stop-color="#5fd2ff"/>
    </linearGradient>
    <linearGradient id="linear-gradient-4" x1="1" y1="0.5" x2="0" y2="0.5" gradientUnits="objectBoundingBox">
      <stop offset="0" stop-color="#099cd6"/>
      <stop offset="0.046" stop-color="#0ea1db"/>
      <stop offset="0.205" stop-color="#19ace7"/>
      <stop offset="0.425" stop-color="#20b3ee"/>
      <stop offset="1" stop-color="#22b5f0"/>
    </linearGradient>
    <linearGradient id="linear-gradient-5" y1="0.5" x2="1" y2="0.5" gradientUnits="objectBoundingBox">
      <stop offset="0" stop-color="#3dc8ff"/>
      <stop offset="0.397" stop-color="#36c3fb"/>
      <stop offset="0.963" stop-color="#23b6f1"/>
      <stop offset="1" stop-color="#22b5f0"/>
    </linearGradient>
  </defs>
  <g id="logo8" transform="translate(0 -53.095)">
    <g id="Group_53131" data-name="Group 53131" transform="translate(0 53.095)">
      <path id="Path_124072" data-name="Path 124072" d="M138.076,67.273l1.9-12.65a.534.534,0,0,1,.379-.433l3.8-1.1a.356.356,0,0,1,.451.395l-1.9,12.688c-.074.613.172.858.76.858a3.474,3.474,0,0,0,.576-.052.382.382,0,0,1,.444.432l-.393,2.605a.632.632,0,0,1-.484.522,8.206,8.206,0,0,1-1.982.244C138.983,70.778,137.733,69.553,138.076,67.273Zm23.275,0,1.9-12.65a.534.534,0,0,1,.379-.433l3.8-1.1a.356.356,0,0,1,.451.395l-1.9,12.688c-.074.613.172.858.76.858a3.474,3.474,0,0,0,.576-.052.382.382,0,0,1,.444.432l-.393,2.605a.632.632,0,0,1-.484.522,8.2,8.2,0,0,1-1.982.244C162.259,70.778,161.009,69.553,161.352,67.273Zm-.97.128L160,70.044a.581.581,0,0,1-.447.483,8.716,8.716,0,0,1-2.012.252c-1.716,0-2.795-.564-3.236-1.52a6.535,6.535,0,0,1-4.266,1.52c-3.187,0-4.952-2.133-4.486-5.271l1.03-6.979a.382.382,0,0,1,.378-.326h3.689a.382.382,0,0,1,.378.438l-.891,6.034c-.221,1.422.392,2.3,1.716,2.3a2.407,2.407,0,0,0,2.5-2.231l.932-6.22a.382.382,0,0,1,.378-.325h3.69a.382.382,0,0,1,.378.438l-1.112,7.53c-.1.588.147.858.76.858a2.907,2.907,0,0,0,.55-.056.383.383,0,0,1,.45.429Zm23.3,0-.4,2.777a.384.384,0,0,1-.294.318,8.984,8.984,0,0,1-2.145.282c-1.716,0-2.795-.564-3.236-1.52a6.535,6.535,0,0,1-4.266,1.52c-3.187,0-4.952-2.133-4.486-5.271l1.03-6.979a.382.382,0,0,1,.378-.326h3.689a.382.382,0,0,1,.378.438l-.891,6.034c-.221,1.422.392,2.3,1.716,2.3a2.407,2.407,0,0,0,2.5-2.231l.932-6.22a.382.382,0,0,1,.378-.325h3.69a.382.382,0,0,1,.378.438l-1.112,7.53c-.1.588.147.858.76.858a2.907,2.907,0,0,0,.55-.056.383.383,0,0,1,.45.429Z" transform="translate(-120.609 -48.701)"/>
      <path id="Path_124073" data-name="Path 124073" d="M12.431,70.3c-1.855-4.641-7.745-5.958-8.9-6.175a.208.208,0,0,1-.167-.235L5.035,52.8a20.176,20.176,0,0,0-2.81-.093.207.207,0,0,0-.193.177L0,66.353a.207.207,0,0,0,.21.238c1.47-.036,9.078-.038,11.291,3.652a.417.417,0,0,0,.474.19Z" transform="translate(0 -48.372)" fill="url(#linear-gradient)"/>
      <path id="Path_124074" data-name="Path 124074" d="M36.529,70.552c-.461-2.962-3.943-6.108-3.943-6.108-1.04-1.265-.169-3.023.256-3.723a.207.207,0,0,0-.161-.314,1.9,1.9,0,0,1-2-1.873,2.637,2.637,0,0,1,.033-.391l.628-4.177h0c-.649-.123-1.3-.224-1.922-.3h-.008c-.374-.048-.739-.088-1.091-.12h0L26.649,64.629a.208.208,0,0,0,.167.235c1.155.216,7.044,1.534,8.9,6.175l.519-.151a.415.415,0,0,0,.295-.337l.07-.463Z" transform="translate(-23.285 -49.111)" fill="url(#linear-gradient-2)"/>
      <path id="Path_124075" data-name="Path 124075" d="M41,35.733h.008c.625.08,1.273.181,1.922.3h0l.394-2.621a13.8,13.8,0,0,0-2.845-.393.207.207,0,0,0-.207.177l-.363,2.411h0C40.263,35.646,40.628,35.686,41,35.733Z" transform="translate(-34.875 -31.183)" fill="#22b5f0"/>
      <path id="Path_124076" data-name="Path 124076" d="M66.3,61.373c.367-2.343-3.338-3.762-7.014-4.461l-.628,4.177a2.637,2.637,0,0,0-.033.391,1.9,1.9,0,0,0,2,1.873.207.207,0,0,1,.161.314c-.425.7-1.3,2.458-.256,3.723,0,0,3.482,3.146,3.943,6.108,0,0,.888-5.827,1.948-12.925Z" transform="translate(-51.232 -52.057)" fill="url(#linear-gradient-3)"/>
      <path id="Path_124077" data-name="Path 124077" d="M73.731,26.94c.951-6.363-4.944-8.2-6.176-8.508a.207.207,0,0,0-.256.171L66.99,20.66C70.416,21.478,74.235,23.57,73.731,26.94Z" transform="translate(-58.538 -18.425)" fill="url(#linear-gradient-4)"/>
      <path id="Path_124078" data-name="Path 124078" d="M64.262,36.14l-.394,2.621h0c3.676.7,7.381,2.118,7.014,4.461l.121-.8C71.508,39.051,67.689,36.959,64.262,36.14Z" transform="translate(-55.811 -33.905)" fill="url(#linear-gradient-5)"/>
    </g>
  </g>
</svg>
