<svg id="logo2" xmlns="http://www.w3.org/2000/svg" width="92.074" height="22.077" viewBox="0 0 92.074 22.077">
  <g id="Walmart-Logo.wine" transform="translate(0 0)">
    <path id="Path_124079" data-name="Path 124079" d="M53.4,18.934c0-2.18-.933-4.107-4.09-4.107a7.448,7.448,0,0,0-3.6.866l.511,1.749a5.316,5.316,0,0,1,2.634-.735c1.6,0,1.86.9,1.86,1.483v.14c-3.488-.006-5.693,1.2-5.693,3.654A2.9,2.9,0,0,0,48.1,24.89,3.522,3.522,0,0,0,50.9,23.647h.059s.4,1.662,2.594,1.027a14.478,14.478,0,0,1-.153-2.321Zm-2.6,2.3a1.679,1.679,0,0,1-.067.516,1.822,1.822,0,0,1-1.756,1.233,1.191,1.191,0,0,1-1.3-1.275c0-1.32,1.458-1.684,3.121-1.675M0,11.861s2.278,9.321,2.641,10.831c.427,1.765,1.191,2.417,3.4,1.983l1.424-5.78c.36-1.432.6-2.459.837-3.918h.039A38.46,38.46,0,0,0,9.026,18.9s.581,2.626.883,4,1.119,2.243,3.283,1.774l3.39-12.814H13.844L12.681,17.4c-.308,1.606-.588,2.871-.806,4.342h-.039c-.2-1.456-.446-2.669-.766-4.242L9.864,11.861H7.009l-1.286,5.5c-.367,1.679-.71,3.025-.925,4.451H4.76c-.222-1.337-.524-3.04-.843-4.656,0,0-.764-3.937-1.034-5.294m21.324,7.073c0-2.18-.936-4.107-4.092-4.107a7.453,7.453,0,0,0-3.6.866l.511,1.749a5.3,5.3,0,0,1,2.634-.735c1.6,0,1.86.9,1.86,1.483v.14c-3.488-.006-5.7,1.2-5.7,3.654A2.9,2.9,0,0,0,18.9,24.89,3.51,3.51,0,0,0,21.7,23.647h.061s.4,1.662,2.594,1.027a14.37,14.37,0,0,1-.151-2.321Zm-2.6,2.3a1.752,1.752,0,0,1-.064.516,1.828,1.828,0,0,1-1.76,1.233,1.192,1.192,0,0,1-1.3-1.275c0-1.32,1.458-1.684,3.121-1.675m6.629,4.635V11.861h-2.6V24.67ZM61.4,11.861v9.451a3.947,3.947,0,0,0,.772,2.772,2.9,2.9,0,0,0,2.122.807,6.31,6.31,0,0,0,1.889-.279l-.032-2.035a4.171,4.171,0,0,1-.993.115c-.889,0-1.183-.563-1.183-1.734V17.339H66.24V14.892H63.972V11.861m-9.307,3.189v9.625h2.693V19.745a3.634,3.634,0,0,1,.059-.706,2.028,2.028,0,0,1,2.126-1.7,4.5,4.5,0,0,1,.772.072V14.89A2.763,2.763,0,0,0,57.1,16.868h-.067V15.049m-27.287,0v9.625h2.624V19.025a2.195,2.195,0,0,1,.123-.781,1.761,1.761,0,0,1,1.592-1.235c1.056,0,1.555.892,1.555,2.178v5.487h2.617V18.957a2.692,2.692,0,0,1,.108-.776,1.642,1.642,0,0,1,1.575-1.171c1.067,0,1.584.872,1.584,2.389v5.276h2.615V19c0-2.981-1.517-4.164-3.239-4.164a3.482,3.482,0,0,0-1.9.52,4.123,4.123,0,0,0-1.22,1.2h-.039a2.746,2.746,0,0,0-2.658-1.715,3.026,3.026,0,0,0-2.805,1.518h-.04v-1.3" transform="translate(0 -7.185)" fill="#46abff"/>
    <path id="Path_124080" data-name="Path 124080" d="M188.633,7.432a.953.953,0,0,0,1-.614l.51-5.778c0-.572-.674-1.04-1.514-1.04s-1.514.468-1.514,1.04l.515,5.778a.945.945,0,0,0,1,.614M185.5,9.24a.948.948,0,0,0-.035-1.176l-4.762-3.33c-.5-.289-1.237.055-1.661.784a1.348,1.348,0,0,0,.148,1.828l5.272,2.444a.943.943,0,0,0,1.038-.555m6.259,0A.969.969,0,0,0,192.8,9.8l5.272-2.451c.49-.289.563-1.1.149-1.826s-1.169-1.071-1.663-.788L191.8,8.059a.972.972,0,0,0-.028,1.18m-3.135,5.409a.953.953,0,0,1,1,.614l.51,5.778c0,.572-.674,1.036-1.514,1.036s-1.514-.464-1.514-1.036l.515-5.778a.945.945,0,0,1,1-.614m3.129-1.8c.27-.448.711-.687,1.039-.557l5.272,2.447c.49.283.563,1.1.149,1.828s-1.169,1.068-1.663.784L191.8,14.017a.957.957,0,0,1-.028-1.17m-6.264,0a.948.948,0,0,1-.035,1.176l-4.762,3.326c-.5.289-1.237-.056-1.661-.78a1.348,1.348,0,0,1,.148-1.828l5.272-2.447a.941.941,0,0,1,1.038.553m14.113,4h.065c.089,0,.125.028.135.1a.49.49,0,0,0,.048.155h.169a.308.308,0,0,1-.044-.159.18.18,0,0,0-.125-.151v-.016a.154.154,0,0,0,.135-.148.2.2,0,0,0-.059-.14.46.46,0,0,0-.23-.048,1.068,1.068,0,0,0-.246.024v.639h.15Zm0-.291.077-.01c.09,0,.139.042.139.1s-.065.1-.149.1h-.067Zm.1-.433a.648.648,0,1,0,.659.643.645.645,0,0,0-.659-.643m0,.13a.516.516,0,0,1,0,1.031.516.516,0,0,1,0-1.031" transform="translate(-108.302 0)" fill="#fcb61a"/>
  </g>
</svg>
