<svg id="logo1" xmlns="http://www.w3.org/2000/svg" width="105.029" height="22.077" viewBox="0 0 105.029 22.077">
  <g id="Amazon_Kindle" data-name="Amazon Kindle" transform="translate(0)">
    <path id="Path_123984" data-name="Path 123984" d="M128.784,229.342a22.244,22.244,0,0,1-12.535,3.826,22.632,22.632,0,0,1-15.326-5.851c-.315-.293-.045-.675.338-.45a30.446,30.446,0,0,0,27.028,1.688C128.874,228.307,129.347,228.914,128.784,229.342Z" transform="translate(-92.574 -211.091)" fill="#f49800" fill-rule="evenodd"/>
    <path id="Path_123985" data-name="Path 123985" d="M216.883,225.638c-.428-.563-2.858-.27-3.961-.135-.338.045-.383-.248-.09-.45,1.935-1.373,5.131-.968,5.491-.518.383.45-.09,3.646-1.913,5.176-.27.225-.54.113-.428-.2C216.41,228.5,217.31,226.2,216.883,225.638Z" transform="translate(-179.255 -209.007)" fill="#f49800" fill-rule="evenodd"/>
    <path id="Path_123986" data-name="Path 123986" d="M213.115,179.765v-1.328a.331.331,0,0,1,.338-.338h5.941a.331.331,0,0,1,.338.338v1.148a1.771,1.771,0,0,1-.45.833l-3.061,4.388a6.675,6.675,0,0,1,3.4.72.625.625,0,0,1,.315.518v1.418c0,.2-.2.428-.428.293a6.8,6.8,0,0,0-6.279.023c-.2.113-.428-.113-.428-.315v-1.35a1.479,1.479,0,0,1,.225-.9l3.556-5.109h-3.106A.351.351,0,0,1,213.115,179.765Z" transform="translate(-179.381 -173.352)" fill-rule="evenodd"/>
    <path id="Path_123987" data-name="Path 123987" d="M110.715,187.5h-1.8a.322.322,0,0,1-.315-.315v-9.272a.346.346,0,0,1,.338-.338h1.688a.342.342,0,0,1,.338.315v1.215h.045a2.487,2.487,0,0,1,4.726,0,2.557,2.557,0,0,1,2.5-1.71,2.585,2.585,0,0,1,2.093,1.013,5.007,5.007,0,0,1,.45,2.9v5.851a.346.346,0,0,1-.338.338h-1.8a.342.342,0,0,1-.315-.338v-4.906a14.725,14.725,0,0,0-.045-1.733.944.944,0,0,0-1.058-.81,1.2,1.2,0,0,0-1.08.765,5.763,5.763,0,0,0-.158,1.778v4.906a.346.346,0,0,1-.338.338h-1.8a.342.342,0,0,1-.315-.338v-4.906c0-1.035.158-2.566-1.1-2.566-1.305,0-1.238,1.485-1.238,2.566v4.906C111.053,187.347,110.9,187.5,110.715,187.5Z" transform="translate(-98.63 -172.809)" fill-rule="evenodd"/>
    <path id="Path_123988" data-name="Path 123988" d="M252.373,177.3c2.678,0,4.141,2.3,4.141,5.221,0,2.836-1.6,5.064-4.141,5.064-2.633,0-4.073-2.3-4.073-5.176C248.3,179.55,249.763,177.3,252.373,177.3Zm.023,1.89c-1.328,0-1.418,1.823-1.418,2.948s-.023,3.556,1.4,3.556c1.4,0,1.463-1.958,1.463-3.151a8.135,8.135,0,0,0-.27-2.453A1.143,1.143,0,0,0,252.4,179.19Z" transform="translate(-206.892 -172.732)" fill-rule="evenodd"/>
    <path id="Path_123989" data-name="Path 123989" d="M292.915,187.582h-1.8a.342.342,0,0,1-.315-.338v-9.272a.323.323,0,0,1,.338-.293H292.8a.315.315,0,0,1,.315.27v1.418h.045a2.451,2.451,0,0,1,2.453-1.868,2.38,2.38,0,0,1,2.115,1.1,5.865,5.865,0,0,1,.473,2.881v5.806a.341.341,0,0,1-.338.293h-1.8a.336.336,0,0,1-.315-.293v-5.041c0-1.013.113-2.5-1.125-2.5a1.18,1.18,0,0,0-1.035.743,4.182,4.182,0,0,0-.293,1.755v5A.389.389,0,0,1,292.915,187.582Z" transform="translate(-239.827 -172.887)" fill-rule="evenodd"/>
    <path id="Path_123990" data-name="Path 123990" d="M174.911,182.761a3.5,3.5,0,0,1-.338,1.913,1.47,1.47,0,0,1-1.26.833c-.7,0-1.1-.518-1.1-1.305,0-1.53,1.373-1.823,2.678-1.823v.383Zm1.823,4.411a.374.374,0,0,1-.428.045A4.143,4.143,0,0,1,175.271,186a3.552,3.552,0,0,1-2.971,1.305,2.56,2.56,0,0,1-2.7-2.813,3.036,3.036,0,0,1,1.935-2.948,12.421,12.421,0,0,1,3.4-.63v-.225a2.337,2.337,0,0,0-.225-1.305,1.215,1.215,0,0,0-1.013-.473,1.393,1.393,0,0,0-1.463,1.08.408.408,0,0,1-.315.338l-1.755-.18a.311.311,0,0,1-.27-.383c.405-2.115,2.318-2.768,4.051-2.768a4.061,4.061,0,0,1,2.723.9c.878.833.788,1.913.788,3.106v2.813a2.481,2.481,0,0,0,.675,1.665.346.346,0,0,1,0,.473c-.383.315-1.035.878-1.4,1.215Z" transform="translate(-145.903 -172.499)" fill-rule="evenodd"/>
    <path id="Path_123991" data-name="Path 123991" d="M69.611,182.761a3.5,3.5,0,0,1-.338,1.913,1.47,1.47,0,0,1-1.26.833c-.7,0-1.1-.518-1.1-1.305,0-1.53,1.373-1.823,2.678-1.823v.383Zm1.823,4.411a.374.374,0,0,1-.428.045A4.143,4.143,0,0,1,69.971,186,3.552,3.552,0,0,1,67,187.307a2.56,2.56,0,0,1-2.7-2.813,3.036,3.036,0,0,1,1.935-2.948,12.422,12.422,0,0,1,3.4-.63v-.225a2.158,2.158,0,0,0-.225-1.305,1.215,1.215,0,0,0-1.013-.473,1.393,1.393,0,0,0-1.463,1.08.408.408,0,0,1-.315.338l-1.755-.18a.311.311,0,0,1-.27-.383C65,177.653,66.911,177,68.643,177a4.061,4.061,0,0,1,2.723.9c.878.833.788,1.913.788,3.106v2.813a2.481,2.481,0,0,0,.675,1.665.346.346,0,0,1,0,.473c-.36.315-1.013.878-1.4,1.215Z" transform="translate(-64.3 -172.499)" fill-rule="evenodd"/>
    <path id="Path_123992" data-name="Path 123992" d="M341.139,171.7l-4.208-5.109h-.022V171.7H335.4V157h1.508v8.349h.022l3.6-3.466h1.98l-4.321,4.006,4.883,5.806Z" transform="translate(-274.39 -157)" fill="#f49800"/>
    <path id="Path_123993" data-name="Path 123993" d="M373.658,162.215a1.058,1.058,0,1,1,1.058-1.058A1.056,1.056,0,0,1,373.658,162.215Zm-.743,11.882v-9.812h1.508V174.1Z" transform="translate(-303.218 -159.402)" fill="#f49800"/>
    <path id="Path_123994" data-name="Path 123994" d="M397.056,187.66v-6.031c0-1.215-.2-2.588-1.71-2.588a5.13,5.13,0,0,0-3.038,1.485v7.134H390.8v-9.812h1.238l.2,1.193a5.611,5.611,0,0,1,3.511-1.44c1.418,0,2.813,1.013,2.813,3.466v6.594h-1.508Z" transform="translate(-317.323 -172.964)" fill="#f49800"/>
    <path id="Path_123995" data-name="Path 123995" d="M437.641,171.9c-2.746,0-5.041-1.6-5.041-4.974a5.056,5.056,0,0,1,5.064-5.289,7.162,7.162,0,0,1,1.6.158V157h1.508v14.2A6.828,6.828,0,0,1,437.641,171.9Zm1.62-8.687a3.992,3.992,0,0,0-1.508-.248,3.638,3.638,0,0,0-3.6,3.871,3.462,3.462,0,0,0,3.781,3.8,3.8,3.8,0,0,0,1.35-.248v-7.179Z" transform="translate(-349.716 -157)" fill="#f49800"/>
    <path id="Path_123996" data-name="Path 123996" d="M480.51,171.9a1.6,1.6,0,0,1-1.71-1.8V157h1.508v12.4c0,.923.225,1.125.81,1.125a1.768,1.768,0,0,0,.518-.068l.18,1.1A2.687,2.687,0,0,1,480.51,171.9Z" transform="translate(-385.519 -157)" fill="#f49800"/>
    <path id="Path_123997" data-name="Path 123997" d="M497.52,183c0,1.868,1.08,3.556,3.2,3.556a4.815,4.815,0,0,0,2.385-.72l.473,1.08a5.987,5.987,0,0,1-3.038.945c-3.128,0-4.636-2.521-4.636-5.311,0-2.836,1.62-4.951,3.983-4.951,2.521,0,3.916,2,3.916,5.064v.36H497.52Zm2.385-4.118c-1.463,0-2.363,1.283-2.363,2.836h4.636C502.156,180.346,501.391,178.883,499.906,178.883Z" transform="translate(-398.77 -172.964)" fill="#f49800"/>
  </g>
</svg>
