<svg xmlns="http://www.w3.org/2000/svg" width="87.891" height="35.334" viewBox="0 0 87.891 35.334">
  <path id="business-insider-1" d="M6.8,7.453a2.766,2.766,0,0,0-1.6-.462c-.347-.019-.539-.019-.828-.019-.077,0-.115.039-.115.135V11.67c0,1.271.058,1.6.674,1.848a3.466,3.466,0,0,0,1.405.231,2.242,2.242,0,0,0,2.33-2.465A4.585,4.585,0,0,0,6.8,7.453ZM4.255,5.913c0,.154.058.193.135.212a4.688,4.688,0,0,0,.9.058,1.957,1.957,0,0,0,1.386-.366A2.511,2.511,0,0,0,7.47,3.776C7.47,2.486,6.72.792,5.064.792A3.114,3.114,0,0,0,4.428.83c-.135.039-.173.116-.173.327V5.913ZM1.945,5.586c0-2.927,0-3.466-.039-4.082C1.868.849,1.714.541,1.078.406A3.965,3.965,0,0,0,.327.349C.116.349,0,.31,0,.175S.135,0,.424,0C1.444,0,2.657.06,3.042.06,3.986.06,4.737,0,5.391,0c3.485,0,4.1,1.867,4.1,2.888A4.19,4.19,0,0,1,7.528,6.26c1.579.539,3.5,1.906,3.5,4.159,0,2.06-1.6,4.2-5.141,4.2-.231,0-.789-.039-1.348-.058C3.966,14.519,3.389,14.5,3.1,14.5c-.212,0-.635,0-1.1.019-.443,0-.943.038-1.328.038-.25,0-.385-.058-.385-.193,0-.1.077-.154.308-.154a3.148,3.148,0,0,0,.693-.077c.385-.077.481-.5.558-1.059.1-.809.1-2.33.1-4.1V5.586M13.631,6.914c0-2.484.019-2.946-.019-3.466-.039-.578-.193-.732-.732-.886a3.039,3.039,0,0,0-.655-.058q-.289,0-.289-.173c0-.116.115-.154.366-.154.9,0,2.041.039,2.541.039.424,0,1.56-.039,2.176-.039.25,0,.366.039.366.154s-.1.173-.269.173a2.346,2.346,0,0,0-.5.058c-.443.077-.578.308-.616.886-.038.52-.038.982-.038,3.466V9.206c0,2.387.462,3.312,1.29,3.966a3.26,3.26,0,0,0,2.137.655,3.226,3.226,0,0,0,2.272-.866c.943-.886.982-2.31.982-3.986V6.914c0-2.484-.019-2.946-.039-3.466-.039-.558-.173-.732-.712-.886a2.905,2.905,0,0,0-.616-.058q-.289,0-.289-.173c0-.116.116-.154.347-.154.866,0,2,.039,2.022.039.193,0,1.329-.039,1.983-.039.231,0,.347.039.347.154s-.1.173-.289.173a2.349,2.349,0,0,0-.5.058c-.462.077-.577.308-.616.886-.019.52-.039.982-.039,3.466V8.666c0,1.829-.193,3.755-1.617,4.929a5.281,5.281,0,0,1-3.581,1.174,5.855,5.855,0,0,1-3.87-1.117c-.866-.751-1.54-1.964-1.54-4.332V6.914m13.631,7.432c-.27-.115-.327-.193-.327-.558,0-.886.077-1.906.1-2.176,0-.25.077-.424.212-.424.154,0,.173.154.173.27a3.047,3.047,0,0,0,.154.847,2.62,2.62,0,0,0,2.7,1.617,2.124,2.124,0,0,0,2.349-2.079c0-.712-.173-1.425-1.675-2.311l-.982-.578c-2-1.174-2.657-2.272-2.657-3.716,0-2,1.925-3.292,4.274-3.292a10.055,10.055,0,0,1,2.407.27c.154.038.231.1.231.212,0,.212-.058.674-.058,1.964,0,.347-.077.52-.212.52q-.173,0-.173-.289a1.85,1.85,0,0,0-.443-1.078,2.276,2.276,0,0,0-1.887-.77c-1.213,0-2.31.635-2.31,1.752,0,.732.27,1.309,1.791,2.156l.693.385C33.847,8.3,34.54,9.552,34.54,11.034A3.5,3.5,0,0,1,32.845,14.1a4.938,4.938,0,0,1-2.83.674,7.2,7.2,0,0,1-2.753-.423M37.389,6.914c0-2.484,0-2.946-.019-3.466-.039-.558-.212-.751-.578-.866a2.159,2.159,0,0,0-.616-.077c-.173,0-.27-.039-.27-.193,0-.1.135-.135.4-.135.635,0,1.791.039,2.272.039.424,0,1.521-.039,2.176-.039.212,0,.347.039.347.135,0,.154-.1.193-.27.193a2.342,2.342,0,0,0-.5.058c-.462.077-.6.308-.635.886-.038.52-.038.982-.038,3.466V9.8c0,1.579,0,2.888.077,3.581.058.443.173.693.674.77a6.311,6.311,0,0,0,.866.058c.193,0,.27.1.27.173,0,.115-.135.173-.327.173-1.117,0-2.272-.058-2.734-.058-.385,0-1.54.058-2.214.058-.212,0-.327-.058-.327-.173,0-.077.058-.173.27-.173a2.484,2.484,0,0,0,.6-.058c.347-.077.443-.308.5-.789.077-.674.077-1.983.077-3.562V6.914m8.087,5.41c.038,1.271.25,1.656.578,1.771a2.878,2.878,0,0,0,.886.115c.193,0,.289.077.289.173,0,.135-.154.173-.385.173-1.1,0-1.887-.058-2.2-.058-.154,0-.963.058-1.829.058-.231,0-.385-.019-.385-.173,0-.1.116-.173.27-.173a3.494,3.494,0,0,0,.77-.077c.443-.116.5-.558.52-1.983l.154-9.7c0-.327.115-.558.289-.558.212,0,.443.25.732.539.212.212,2.753,2.811,5.218,5.218,1.155,1.136,3.408,3.446,3.658,3.677h.077l-.174-7.278c-.019-1-.173-1.29-.577-1.444a2.845,2.845,0,0,0-.886-.1c-.212,0-.27-.077-.27-.173,0-.135.173-.154.424-.154.886,0,1.791.039,2.157.039.193,0,.828-.039,1.656-.039.231,0,.385.019.385.154,0,.1-.1.173-.289.173a1.719,1.719,0,0,0-.52.058c-.462.135-.6.424-.616,1.348l-.193,10.32c0,.366-.135.52-.27.52a1.007,1.007,0,0,1-.693-.347c-1.059-.982-3.177-3-4.948-4.717-1.848-1.771-3.639-3.755-3.967-4.043h-.058l.193,6.681M59.8,6.914c0-2.484,0-2.946-.019-3.466-.038-.558-.192-.732-.732-.886a3.109,3.109,0,0,0-.674-.058c-.173,0-.289-.058-.289-.173s.135-.154.385-.154c.886,0,1.964.039,2.445.039.539,0,4.293.019,4.621,0,.308-.019.578-.077.712-.1a1.983,1.983,0,0,1,.27-.077c.1,0,.116.077.116.154A7.272,7.272,0,0,0,66.5,3.256c-.019.173-.058.886-.1,1.078-.019.077-.058.27-.193.27-.116,0-.135-.077-.135-.212a1.538,1.538,0,0,0-.115-.6c-.135-.289-.27-.52-1.117-.6-.289-.039-2.31-.077-2.657-.077-.077,0-.116.058-.116.154V7.318c0,.1.019.173.116.173.385,0,2.58,0,2.965-.038.4-.039.655-.077.809-.25.135-.116.193-.212.27-.212a.156.156,0,0,1,.135.173c0,.1-.039.366-.135,1.194-.039.327-.077.982-.077,1.1,0,.135-.019.366-.173.366-.116,0-.154-.058-.154-.135-.019-.173-.019-.385-.058-.6-.1-.327-.308-.578-.943-.635-.308-.039-2.233-.077-2.657-.077-.077,0-.1.077-.1.173V9.86c0,.558-.019,1.945,0,2.426.039,1.117.558,1.367,2.291,1.367a4.572,4.572,0,0,0,1.6-.212c.423-.193.616-.539.731-1.213.039-.173.077-.25.193-.25.135,0,.154.212.154.385a11.068,11.068,0,0,1-.231,1.81c-.116.423-.269.423-.9.423-1.271,0-2.291-.019-3.119-.058-.828-.019-1.463-.039-1.964-.039-.193,0-.558.019-.963.019-.4.019-.828.038-1.175.038-.212,0-.327-.058-.327-.173,0-.077.058-.173.27-.173a2.485,2.485,0,0,0,.6-.058c.347-.077.443-.385.5-.866.077-.693.077-1.983.077-3.485V6.914m9.357,7.432c-.27-.115-.327-.193-.327-.558,0-.886.077-1.906.1-2.176,0-.25.077-.424.212-.424.154,0,.173.154.173.27a3.052,3.052,0,0,0,.154.847,2.62,2.62,0,0,0,2.7,1.617,2.124,2.124,0,0,0,2.349-2.079c0-.712-.173-1.425-1.675-2.311l-.982-.578c-2-1.174-2.657-2.272-2.657-3.716,0-2,1.925-3.292,4.274-3.292a10.054,10.054,0,0,1,2.407.27c.154.038.231.1.231.212,0,.212-.058.674-.058,1.964,0,.347-.077.52-.212.52q-.173,0-.173-.289a1.849,1.849,0,0,0-.443-1.078,2.276,2.276,0,0,0-1.887-.77c-1.213,0-2.311.635-2.311,1.752,0,.732.27,1.309,1.791,2.156l.693.385c2.234,1.232,2.927,2.484,2.927,3.966A3.5,3.5,0,0,1,74.74,14.1a4.938,4.938,0,0,1-2.83.674,7.2,7.2,0,0,1-2.753-.423m9.588,0c-.269-.115-.327-.193-.327-.558,0-.886.077-1.906.1-2.176,0-.25.077-.424.212-.424.154,0,.173.154.173.27a3.052,3.052,0,0,0,.154.847,2.62,2.62,0,0,0,2.7,1.617A2.124,2.124,0,0,0,84.1,11.843c0-.712-.173-1.425-1.675-2.311l-.982-.578c-2-1.174-2.657-2.272-2.657-3.716,0-2,1.925-3.292,4.274-3.292a10.058,10.058,0,0,1,2.407.27c.154.038.231.1.231.212,0,.212-.058.674-.058,1.964,0,.347-.077.52-.212.52q-.173,0-.173-.289a1.85,1.85,0,0,0-.443-1.078,2.276,2.276,0,0,0-1.887-.77c-1.213,0-2.31.635-2.31,1.752,0,.732.269,1.309,1.791,2.156l.693.385c2.233,1.232,2.927,2.484,2.927,3.966A3.5,3.5,0,0,1,84.328,14.1a4.938,4.938,0,0,1-2.83.674,7.2,7.2,0,0,1-2.753-.423M2.734,26.152c0-2.927,0-3.466-.039-4.082-.039-.655-.231-.982-.655-1.078a2.729,2.729,0,0,0-.693-.077c-.193,0-.308-.038-.308-.192,0-.116.154-.154.462-.154.732,0,1.945.058,2.5.058.481,0,1.617-.058,2.349-.058.25,0,.4.039.4.154,0,.154-.116.192-.308.192a3.232,3.232,0,0,0-.578.058c-.52.1-.674.423-.712,1.1-.039.616-.039,1.155-.039,4.082v3.388c0,1.868,0,3.389.077,4.217.058.52.193.866.77.943a8.125,8.125,0,0,0,.982.077c.212,0,.308.058.308.154,0,.135-.154.193-.366.193-1.271,0-2.484-.058-3-.058-.443,0-1.656.058-2.426.058-.25,0-.385-.058-.385-.193,0-.1.077-.154.308-.154a3.155,3.155,0,0,0,.693-.077c.385-.077.5-.4.558-.963.1-.808.1-2.33.1-4.2V26.152m9.8,6.739c.039,1.271.25,1.656.578,1.771a2.877,2.877,0,0,0,.886.115c.193,0,.289.077.289.173,0,.135-.154.173-.385.173-1.1,0-1.887-.058-2.2-.058-.154,0-.963.058-1.829.058-.231,0-.385-.019-.385-.173,0-.1.116-.173.27-.173a3.492,3.492,0,0,0,.77-.077c.443-.116.5-.558.52-1.983l.154-9.7c0-.327.115-.558.289-.558.212,0,.443.25.732.539.212.212,2.753,2.811,5.218,5.218,1.155,1.136,3.408,3.446,3.658,3.677h.077l-.173-7.278c-.019-1-.173-1.29-.578-1.444a2.85,2.85,0,0,0-.886-.1c-.212,0-.27-.077-.27-.173,0-.135.173-.154.424-.154.886,0,1.791.039,2.156.039.193,0,.828-.039,1.656-.039.231,0,.385.019.385.154,0,.1-.1.173-.289.173a1.722,1.722,0,0,0-.52.058c-.462.135-.6.424-.616,1.348L22.276,34.8c0,.366-.135.52-.269.52a1.006,1.006,0,0,1-.693-.347c-1.059-.982-3.177-3-4.948-4.717C14.517,28.482,12.726,26.5,12.4,26.21h-.058l.193,6.681m15.017,2.022c-.269-.116-.327-.193-.327-.558,0-.886.077-1.906.1-2.176,0-.25.077-.424.212-.424.154,0,.173.154.173.27a3.05,3.05,0,0,0,.154.847,2.62,2.62,0,0,0,2.7,1.617A2.124,2.124,0,0,0,32.9,32.41c0-.712-.173-1.425-1.675-2.31l-.982-.578c-2-1.175-2.657-2.272-2.657-3.716,0-2,1.925-3.292,4.274-3.292a10.041,10.041,0,0,1,2.407.27c.154.039.231.1.231.212,0,.212-.058.674-.058,1.964,0,.347-.077.52-.212.52q-.173,0-.173-.289a1.849,1.849,0,0,0-.443-1.078,2.276,2.276,0,0,0-1.887-.77c-1.213,0-2.31.635-2.31,1.752,0,.732.27,1.309,1.79,2.156l.693.385c2.233,1.232,2.926,2.484,2.926,3.966a3.5,3.5,0,0,1-1.694,3.061,4.939,4.939,0,0,1-2.83.674,7.2,7.2,0,0,1-2.753-.423M39.3,27.481c0-2.484,0-2.946-.019-3.466-.039-.558-.212-.751-.578-.866a2.163,2.163,0,0,0-.616-.077c-.173,0-.27-.039-.27-.193,0-.1.135-.135.4-.135.635,0,1.791.039,2.272.039.424,0,1.521-.039,2.176-.039.212,0,.347.039.347.135,0,.154-.1.193-.27.193a2.356,2.356,0,0,0-.5.058c-.462.077-.6.308-.635.886-.038.52-.038.982-.038,3.466v2.888c0,1.579,0,2.888.077,3.581.058.443.173.693.674.77a6.312,6.312,0,0,0,.866.058c.193,0,.269.1.269.173,0,.115-.135.173-.327.173-1.117,0-2.272-.058-2.734-.058-.385,0-1.54.058-2.214.058-.212,0-.327-.058-.327-.173,0-.077.058-.173.27-.173a2.485,2.485,0,0,0,.6-.058c.347-.077.443-.308.5-.789.077-.674.077-1.983.077-3.562V27.481m10.917,1.81c0,1.733.019,2.984.039,3.312a2.987,2.987,0,0,0,.193,1.155c.212.308.886.655,2.214.655a5.339,5.339,0,0,0,3.7-1.117c1.1-.9,1.444-2.368,1.444-4.062a5.327,5.327,0,0,0-1.579-4.082,6.834,6.834,0,0,0-4.736-1.56,3.594,3.594,0,0,0-1.04.115.288.288,0,0,0-.212.327c-.019.558-.019,1.906-.019,3.2v2.06Zm-2.272-1.81c0-2.484,0-2.946-.019-3.466-.039-.558-.193-.732-.732-.886a3.129,3.129,0,0,0-.674-.058c-.173,0-.289-.058-.289-.173s.135-.154.385-.154c.886,0,1.964.039,2.445.039.52,0,1.733-.039,2.753-.039,2.118,0,4.967,0,6.816,1.868a5.733,5.733,0,0,1,1.6,4.159,6.346,6.346,0,0,1-1.848,4.563,7.9,7.9,0,0,1-5.68,1.925c-.616,0-1.348-.058-2.021-.1-.674-.058-1.29-.1-1.714-.1-.193,0-.558.019-.963.019-.4.019-.828.038-1.175.038-.212,0-.327-.058-.327-.173,0-.077.058-.173.269-.173a2.487,2.487,0,0,0,.6-.058c.347-.077.443-.385.5-.866.077-.693.077-1.983.077-3.485V27.481m16.615,0c0-2.484,0-2.946-.019-3.466-.039-.558-.192-.732-.732-.886a3.127,3.127,0,0,0-.674-.058c-.173,0-.289-.058-.289-.173s.135-.154.385-.154c.886,0,1.964.039,2.445.039.539,0,4.293.019,4.621,0,.308-.019.578-.077.712-.1a1.954,1.954,0,0,1,.27-.077c.1,0,.116.077.116.154a7.272,7.272,0,0,0-.135,1.059c-.019.173-.058.886-.1,1.078-.019.077-.058.27-.193.27-.115,0-.135-.077-.135-.212a1.541,1.541,0,0,0-.115-.6c-.135-.289-.27-.52-1.117-.6-.289-.039-2.31-.077-2.657-.077-.077,0-.115.058-.115.154v4.043c0,.1.019.173.115.173.385,0,2.58,0,2.965-.038.4-.039.654-.077.809-.25.135-.116.193-.212.27-.212a.156.156,0,0,1,.135.173c0,.1-.039.366-.135,1.194-.039.327-.077.982-.077,1.1,0,.135-.019.366-.173.366-.116,0-.154-.058-.154-.135-.019-.173-.019-.385-.058-.6-.1-.327-.308-.578-.943-.635-.308-.039-2.233-.077-2.657-.077-.077,0-.1.077-.1.173v1.309c0,.558-.019,1.945,0,2.426.039,1.117.558,1.367,2.291,1.367a4.571,4.571,0,0,0,1.6-.212c.424-.192.616-.539.732-1.213.039-.173.077-.25.193-.25.135,0,.154.212.154.385a11.053,11.053,0,0,1-.231,1.81c-.115.424-.269.424-.9.424-1.271,0-2.291-.019-3.119-.058-.828-.019-1.464-.038-1.964-.038-.193,0-.558.019-.963.019-.4.019-.828.038-1.175.038-.212,0-.327-.058-.327-.173,0-.077.058-.173.269-.173a2.484,2.484,0,0,0,.6-.058c.347-.077.443-.385.5-.866.077-.693.077-1.983.077-3.485V27.481m13.67,1.271c0,.173.038.231.154.289a4.643,4.643,0,0,0,1.29.154,1.7,1.7,0,0,0,1.193-.27,2.768,2.768,0,0,0,1.1-2.426,2.573,2.573,0,0,0-2.58-2.907,6.117,6.117,0,0,0-1,.058c-.116.039-.154.1-.154.231v4.871Zm-2.156-1.271c0-2.484,0-2.946-.019-3.466-.039-.558-.193-.732-.732-.886a3.126,3.126,0,0,0-.674-.058c-.173,0-.289-.058-.289-.173s.135-.154.385-.154c.886,0,1.964.039,2.31.039.578,0,2.118-.039,2.638-.039a5.933,5.933,0,0,1,3.215.693A2.86,2.86,0,0,1,84.1,25.69c0,1.213-.693,2.291-2.349,3.62,1.5,1.848,2.7,3.331,3.716,4.351a3.177,3.177,0,0,0,1.81,1.078,1.58,1.58,0,0,0,.4.039.2.2,0,0,1,.212.173c0,.135-.116.173-.327.173H85.946A3.672,3.672,0,0,1,84.1,34.8a7.669,7.669,0,0,1-2.31-2.407c-.674-.886-1.386-1.983-1.6-2.234a.39.39,0,0,0-.308-.115L78.36,30a.122.122,0,0,0-.135.135v.231c0,1.521.019,2.792.1,3.485.058.481.135.789.655.866a6.4,6.4,0,0,0,.828.058.2.2,0,0,1,.212.173c0,.115-.135.173-.347.173-.982,0-2.388-.058-2.638-.058-.327,0-1.406.058-2.079.058-.212,0-.327-.058-.327-.173,0-.077.058-.173.27-.173a2.485,2.485,0,0,0,.6-.058c.347-.077.443-.385.5-.866.077-.693.077-1.983.077-3.485V27.481" transform="translate(0 -0.002)" fill="#19636a"/>
</svg>
