<svg id="marketwatch-logo" xmlns="http://www.w3.org/2000/svg" width="246.574" height="35.334" viewBox="0 0 246.574 35.334">
  <path id="Path_124037" data-name="Path 124037" d="M33.8,16.564a6.21,6.21,0,0,1-5.9,5.1,4.022,4.022,0,0,1-4.022-5.01,6.163,6.163,0,0,1,5.857-5.1,3.952,3.952,0,0,1,4.069,5.01m1.882-9.879-.423,2.07a5.339,5.339,0,0,0-5.386-2.728,12.56,12.56,0,0,0-11.9,10.585c-1.035,5.669,1.694,10.632,7.974,10.632a7.856,7.856,0,0,0,6.327-2.823L31.9,26.537h5.857L41.447,6.756H35.685Zm9.173.024h5.528l-.376,2.07A6.186,6.186,0,0,1,55.56,6.027l-1.082,5.951c-2.776,0-4.7.612-5.339,3.646L47.116,26.49H41.165Z" transform="translate(24.013 8.086)" fill="#363333"/>
  <path id="Path_124038" data-name="Path 124038" d="M0,0H246.574V35.282H0Z" fill="none"/>
  <path id="Path_124039" data-name="Path 124039" d="M38.454,2.99l-5.1,27.543H39.3l1.764-9.55h.094l3.81,9.55h6.7L46.5,19.431l9.056-8.679H48.568l-6.845,7.174h-.094L44.405,2.99Z" transform="translate(45.094 4.043)" fill="#363333"/>
  <path id="Path_124040" data-name="Path 124040" d="M48.055,14.374a5.551,5.551,0,0,1,5.151-3.387,3.434,3.434,0,0,1,3.834,3.387Zm6-8.374A13.29,13.29,0,0,0,41.728,16.679a8.491,8.491,0,0,0,8.538,10.491,11.079,11.079,0,0,0,5.951-1.788,14.936,14.936,0,0,0,4.963-5.057H55.135a5.128,5.128,0,0,1-3.975,1.835,3.528,3.528,0,0,1-3.928-3.74H62.074a7.057,7.057,0,0,0,.423-1.552C63.626,10.7,60.1,6,54.053,6" transform="translate(56.097 8.113)" fill="#363333"/>
  <path id="Path_124041" data-name="Path 124041" d="M0,0H246.574V35.282H0Z" fill="none"/>
  <path id="Path_124042" data-name="Path 124042" d="M34.106,2.99,23.662,18.679h-.094V2.99H18.511L0,30.533H7.174l10.4-15.689h.094V30.533h5.1l10.4-15.689h.094V30.533H39.21V2.99Zm99.519,7.762h-3.74L130.967,4.9h-5.2l-.423,2.352a4.093,4.093,0,0,1-4.257,3.6l-.894,4.375h2.94l-2.846,15.312h5.9l2.846-15.312h3.787Z" transform="translate(0 4.043)" fill="#363333"/>
  <path id="Path_124043" data-name="Path 124043" d="M152.756,7.056h5.9l-1.788,9.808a6.186,6.186,0,0,1,5.669-2.752,6.045,6.045,0,0,1,5.01,2.211c1.27,1.929,1.129,3.693.47,7.221L166,34.6h-5.9l1.976-10.773c.188-.941.753-4.163-2.352-4.163a4.163,4.163,0,0,0-4.116,3.857l-2.046,11.055h-5.81Zm-24.886,7.739h-3.646l1.011-5.857h-5.2l-.517,2.258a4.093,4.093,0,0,1-4.257,3.6l-.8,4.469h2.917l-2.823,15.312h5.9l2.823-15.312h3.787ZM99.386,29.754a6.21,6.21,0,0,0,6.021-5.1,3.952,3.952,0,0,0-4.069-5.01,6.163,6.163,0,0,0-5.857,5.1,4.022,4.022,0,0,0,4.022,5.01m9.973,4.7H103.5l.376-2.117a7.856,7.856,0,0,1-6.421,2.94c-6.28,0-9.032-4.963-7.974-10.632a12.56,12.56,0,0,1,11.878-10.538,5.339,5.339,0,0,1,5.292,2.776l.423-2.07h5.857ZM98.116,0,86.591,7.056H89.86L79.417,22.722V7.056h-5.2L63.775,22.722V7.056H57.73v27.52h5.151L73.325,18.817V34.576h5.1L96.987,7.056H99.9Zm49.066,27.073a13.407,13.407,0,0,1-11.9,8.209,8.515,8.515,0,0,1-8.7-10.679,13.078,13.078,0,0,1,12.49-10.491,8.374,8.374,0,0,1,8.915,8.327h-6a3.5,3.5,0,0,0-3.787-2.8,5.763,5.763,0,0,0-5.622,5.01,3.834,3.834,0,0,0,3.787,5.057,5.645,5.645,0,0,0,4.7-2.634h6.116Z" transform="translate(78.059)" fill="#4db84d"/>
</svg>
