<svg xmlns="http://www.w3.org/2000/svg" width="96.515" height="35.334" viewBox="0 0 96.515 35.334">
  <path id="Yahoo_Finance" data-name="Yahoo Finance" d="M53.6,42.133V52.766h5.235V44.341a2.748,2.748,0,0,1,.409-1.145A1.485,1.485,0,0,1,60.8,42.46,1.693,1.693,0,0,1,62.432,44.1v8.588h5.235V47.777a50.941,50.941,0,0,0-.082-5.4,5.2,5.2,0,0,0-1.554-3.435,4.682,4.682,0,0,0-2.7-1.309,7.1,7.1,0,0,0-1.881.082,4.272,4.272,0,0,0-2.372,1.309l-.409.327V31.5H53.435V42.133Zm55.619-10.469c-.164.327-5.48,13.169-5.48,13.169h6.216l2.781-6.625c1.554-3.681,2.781-6.707,2.781-6.707H109.3Zm-67.07,6.053A7.065,7.065,0,0,0,39.2,38.78a7.513,7.513,0,0,0-3.272,5.4,9.186,9.186,0,0,0,.164,3.353,7.283,7.283,0,0,0,4.58,5.235,5.811,5.811,0,0,0,2.127.327,4.052,4.052,0,0,0,1.227-.082A4.754,4.754,0,0,0,46.482,51.7l.327-.327v1.309h5.071V37.962H46.81V39.27l-.245-.245a4.45,4.45,0,0,0-2.454-1.309,4.026,4.026,0,0,0-1.145-.082A4.2,4.2,0,0,1,42.147,37.716Zm33.371,0a8.4,8.4,0,0,0-3.926,1.636,7.875,7.875,0,0,0-2.7,7.2,7.489,7.489,0,0,0,5.725,6.3,8.44,8.44,0,0,0,2.127.245,7.63,7.63,0,0,0,3.681-.818,7.311,7.311,0,0,0,4.09-5.725,10.709,10.709,0,0,0,0-2.29,7.468,7.468,0,0,0-1.39-3.435,11.843,11.843,0,0,0-1.39-1.472,7.638,7.638,0,0,0-3.926-1.636A10.719,10.719,0,0,0,75.519,37.716Zm16.686,0a7.374,7.374,0,0,0-3.844,1.636,7.837,7.837,0,0,0-1.39,1.472,8.472,8.472,0,0,0-1.39,3.435,10.715,10.715,0,0,0,0,2.29,7.645,7.645,0,0,0,6.134,6.462,5.844,5.844,0,0,0,1.718.164,7.322,7.322,0,0,0,3.762-.9,7.7,7.7,0,0,0,3.926-8.506,7.561,7.561,0,0,0-6.625-6.053A10.719,10.719,0,0,0,92.2,37.716ZM19,38.043s1.39,3.354,3.108,7.443,3.108,7.443,3.108,7.443-.491,1.227-1.145,2.7-1.145,2.617-1.145,2.7a26,26,0,0,0,2.781,0h2.781l4.171-10.06c2.29-5.562,4.171-10.061,4.171-10.142a20.368,20.368,0,0,0-2.781,0H31.269l-1.718,4.253c-.736,2.29-1.472,4.253-1.472,4.253s-.736-1.963-1.718-4.253l-1.636-4.253H21.863C20.309,38.043,19,38.043,19,38.043ZM44.683,42.46a3.055,3.055,0,0,1,2.208,2.127,4.952,4.952,0,0,1,0,1.554,2.823,2.823,0,0,1-2.127,2.127,4.952,4.952,0,0,1-1.554,0,3.1,3.1,0,0,1-2.045-1.718,3.215,3.215,0,0,1,.245-2.863A3.12,3.12,0,0,1,44.683,42.46Zm32.635.082a2.784,2.784,0,0,1,2.29,2.208,4.447,4.447,0,0,1,0,1.472,2.982,2.982,0,0,1-2.045,2.127,4.952,4.952,0,0,1-1.554,0A3.227,3.227,0,0,1,74.128,46.8a2.353,2.353,0,0,1-.245-1.309,2.613,2.613,0,0,1,.245-1.145,3.283,3.283,0,0,1,1.063-1.309A2.359,2.359,0,0,1,77.318,42.542Zm16.6,0a2.716,2.716,0,0,1,2.127,1.718,2.613,2.613,0,0,1,.245,1.145,3.391,3.391,0,0,1-.245,1.309,3,3,0,0,1-1.881,1.554,4.952,4.952,0,0,1-1.554,0,2.848,2.848,0,0,1-2.045-2.127,4.951,4.951,0,0,1,0-1.554,2.877,2.877,0,0,1,2.781-2.208C93.513,42.46,93.758,42.46,93.922,42.542Zm11.124,3.6a3.475,3.475,0,0,0-3.026,2.781,4.952,4.952,0,0,0,0,1.554,3.45,3.45,0,0,0,2.617,2.536c.164,0,.491.082.736.082a3.329,3.329,0,0,0,2.454-.982,3.15,3.15,0,0,0,.982-2.454,3.229,3.229,0,0,0-1.554-2.863A2.927,2.927,0,0,0,105.046,46.141Zm-43.1,8.016a1.669,1.669,0,0,0-.982,2.454,1.862,1.862,0,0,0,.736.654,1.614,1.614,0,0,0,.736.082,1.815,1.815,0,0,0,.736-.082,1.971,1.971,0,0,0,.818-.818,1.672,1.672,0,0,0-.818-2.208.881.881,0,0,0-.654-.164A1.051,1.051,0,0,0,61.941,54.157Zm-4.417.082a3.3,3.3,0,0,0-2.7,2.617,2.521,2.521,0,0,0-.082.818v.573H53.6V60.7h1.145v5.889h3.108V60.7h2.127V58.246H57.852V58c.082-.573.327-.982.818-1.063a1.841,1.841,0,0,1,1.145.082.633.633,0,0,0,.245.082V54.484l-.245-.082a3,3,0,0,0-1.309-.164A3.881,3.881,0,0,0,57.524,54.238Zm12.432,3.844a2.672,2.672,0,0,0-1.472.9l-.164.245v-.982H65.213v8.343h3.108V61.763a1.918,1.918,0,0,1,.409-.818,1.126,1.126,0,0,1,1.472.164c.245.327.245.327.245,2.945v2.454h3.108V63.726c0-2.945,0-3.272-.164-3.844a2.372,2.372,0,0,0-.736-1.227A2.026,2.026,0,0,0,71.511,58,9.392,9.392,0,0,0,69.957,58.083ZM77.727,58a4.056,4.056,0,0,0-1.636.654,4.5,4.5,0,0,0-1.718,2.863,7.242,7.242,0,0,0,0,1.881,4.748,4.748,0,0,0,.818,1.963,3.569,3.569,0,0,0,2.208,1.39,4,4,0,0,0,1.718-.082,3.559,3.559,0,0,0,1.227-.654l.327-.327v.818H83.78V58.164H80.672v.818l-.245-.082a2.844,2.844,0,0,0-1.636-.818A4.664,4.664,0,0,0,77.727,58Zm11.86.082a2.513,2.513,0,0,0-1.472.9l-.164.164v-.982H84.843v8.343h3.108V64.135c0-2.536,0-2.536.164-2.945a.9.9,0,0,1,.818-.491,1.142,1.142,0,0,1,.736.245c.327.327.327.245.327,3.026v2.454H93.1V63.4c0-3.026,0-3.026-.082-3.353a7.723,7.723,0,0,1-.245-.736,1.968,1.968,0,0,0-.491-.654,3.13,3.13,0,0,0-.9-.654A6.649,6.649,0,0,0,89.587,58.083Zm8.1,0a4.205,4.205,0,0,0-3.108,2.045c-.164.327-.327.736-.491,1.145A4.346,4.346,0,0,0,94,62.418a3.12,3.12,0,0,0,.245,1.554,4.259,4.259,0,0,0,3.19,2.781,3.4,3.4,0,0,0,1.063.082,3.581,3.581,0,0,0,1.718-.327l.327-.164V63.563l-.245.164a1.878,1.878,0,0,1-1.145.327,2.085,2.085,0,0,1-1.063-.164,1.605,1.605,0,0,1-.736-.736,1.406,1.406,0,0,1-.082-.654,1.594,1.594,0,0,1,.082-.654,1.745,1.745,0,0,1,1.636-1.063,2.813,2.813,0,0,1,1.636.409V58.41l-.245-.082A5.171,5.171,0,0,0,97.685,58.083Zm7.034,0a4.531,4.531,0,0,0-2.945,6.952,3.952,3.952,0,0,0,2.617,1.718,11.488,11.488,0,0,0,2.372,0,4.171,4.171,0,0,0,2.127-1.145,8.969,8.969,0,0,0,.654-.818s-.573-.245-1.309-.491l-1.309-.491-.164.164a1.328,1.328,0,0,1-.736.409,1.531,1.531,0,0,1-1.963-1.063v-.164h5.725v-.736a2.822,2.822,0,0,0-.082-.982,4.359,4.359,0,0,0-1.145-2.29,3.771,3.771,0,0,0-2.127-1.063A6.035,6.035,0,0,0,104.719,58.083ZM60.878,62.418v4.171h3.108V58.246H60.878Zm45.068-2.045a2.049,2.049,0,0,1,.573.327.828.828,0,0,1,.327.573v.164h-1.39c-1.554,0-1.472,0-1.309-.327A1.561,1.561,0,0,1,105.946,60.373Zm-26.419.409a1.669,1.669,0,0,1,.082,3.19,2.7,2.7,0,0,1-1.145,0A1.545,1.545,0,0,1,77.4,62.908a1.392,1.392,0,0,1-.082-.573.881.881,0,0,1,.164-.654A1.772,1.772,0,0,1,79.527,60.782Z" transform="translate(-19 -31.5)" fill="#5c02cb" fill-rule="evenodd"/>
</svg>
