<svg id="ELITE_DAILY" xmlns="http://www.w3.org/2000/svg" width="280.611" height="35.334" viewBox="0 0 280.611 35.334">
  <path id="E" d="M0,33.619c3.619-.161,4.424-1.153,4.424-3.163V4.075c0-1.957-.8-3.029-4.424-3.163V0H24.718l.214,10.777-1.019.054C21.5,4.075,20,1.26,14.8,1.26H9.973V16.166h1.9c3.271,0,4.826-.965,6.086-6.354h.965V23.753h-.965C16.7,18.364,15.147,17.4,11.876,17.4h-1.9V33.3h4.718c6.086,0,7.989-3.083,10.429-10.268l1.046.054-.241,11.5H0Z" transform="translate(0 0.751)" fill="#231f20"/>
  <path id="L" d="M110.4,33.619c3.619-.161,4.424-1.153,4.424-3.163V4.075c0-1.957-.8-3.029-4.424-3.163V0h14.289V.912c-3.78.161-4.316,1.153-4.316,3.163V33.324h3.056c5.925,0,7.962-2.306,10.724-10.375l1.046.107-.4,11.528H110.4Z" transform="translate(-80.803 0.751)" fill="#231f20"/>
  <path id="I" d="M212.627,33.619c3.726-.161,4.531-1.153,4.531-3.163V4.075c0-1.957-.8-3.029-4.531-3.163V0h14.5V.912c-3.726.134-4.5,1.206-4.5,3.163v26.38c0,2.011.751,3.029,4.477,3.163v.965H212.6v-.965Z" transform="translate(-155.604 0.751)" fill="#231f20"/>
  <path id="T" d="M288.71,33.619c3.834-.161,4.879-1.153,4.879-3.163V1.206h-1.5c-3.324,0-5.442,3.083-8.043,9.866L283,11.019,283.268,0H309.38l.295,11.019-1.046.054c-2.466-6.488-4.584-9.866-8.043-9.866h-1.5V30.455c0,2.011,1.046,3.029,4.879,3.163v.965H288.71Z" transform="translate(-207.13 0.751)" fill="#231f20"/>
  <path id="E_1_" d="M397,33.619c3.619-.161,4.423-1.153,4.423-3.163V4.075c0-1.957-.8-3.029-4.423-3.163V0h24.718l.214,10.777-1.019.054C418.5,4.075,417,1.26,411.8,1.26h-4.826V16.166h1.9c3.271,0,4.826-.965,6.086-6.354h.965V23.753h-.965c-1.26-5.389-2.815-6.354-6.086-6.354h-1.9V33.3h4.718c6.086,0,7.989-3.083,10.429-10.268l1.046.054-.241,11.474H397v-.938Z" transform="translate(-290.568 0.751)" fill="#231f20"/>
  <path id="D" d="M.1,183.219c3.619-.161,4.424-1.153,4.424-3.163v-26.38c0-1.957-.8-3.029-4.424-3.163V149.6H13.183c10.858,0,16.246,7.1,16.246,16.7,0,9.222-4.638,17.855-15.71,17.855H.1Zm12.52-.295c8.1,0,10.724-4.021,10.724-16.246,0-12.386-3.619-15.844-10.831-15.844H10.046v32.117H12.62Z" transform="translate(147.913 -148.849)" fill="#231f20"/>
  <path id="A" d="M123.252,169.293h-9.759l-1.448,4.584c-1.716,5.335-1.367,6.6,2.627,7.346v.912H104.7v-.912c2.976-.7,4.129-2.466,5.737-7.346l8.847-27.077h2.869l8.9,29.651c1.019,3.378,1.716,4.236,4.987,4.772v.911H121.751v-.911c4.021-.241,4.584-1.26,3.78-4.129Zm-.4-1.26L118.721,153.4h-.214L113.9,168.033Z" transform="translate(71.356 -146.8)" fill="#231f20"/>
  <path id="I_1_" d="M231.9,183.219c3.726-.161,4.531-1.153,4.531-3.163v-26.38c0-1.957-.8-3.029-4.531-3.163V149.6h14.5v.912c-3.726.161-4.477,1.206-4.477,3.163v26.38c0,2.011.751,3.029,4.477,3.163v.965H231.9Z" transform="translate(-21.743 -148.849)" fill="#231f20"/>
  <path id="L_1_" d="M304.7,183.219c3.619-.161,4.424-1.153,4.424-3.163v-26.38c0-1.957-.8-3.029-4.424-3.163V149.6h14.289v.912c-3.78.161-4.316,1.153-4.316,3.163v29.249h3.083c5.925,0,7.962-2.306,10.724-10.375l1.046.107-.4,11.528h-24.4v-.965Z" transform="translate(-75.026 -148.849)" fill="#231f20"/>
  <path id="Y" d="M404.83,156.544c2.011-4.129,1.823-5.335-2.064-6.086V149.6h10.107v.858c-2.815.617-4.075,1.662-6.3,6.086l-6.139,12.332v11.179c0,2.011.8,3.029,4.531,3.163v.965h-14.5v-.965c3.78-.161,4.531-1.153,4.531-3.163v-10.67l-7.4-15.147c-1.26-2.627-2.011-3.217-4.692-3.78V149.6h13.941v.858c-3.968.349-4.316,1.555-3.163,3.887l5.952,12.842Z" transform="translate(-132.261 -148.849)" fill="#231f20"/>
</svg>
