<svg xmlns="http://www.w3.org/2000/svg" xmlns:xlink="http://www.w3.org/1999/xlink" width="71.429" height="25" viewBox="0 0 71.429 25">
  <defs>
    <linearGradient id="linear-gradient" x1="0.554" y1="0.957" x2="-0.016" y2="0.037" gradientUnits="objectBoundingBox">
      <stop offset="0" stop-color="#000083"/>
      <stop offset="1" stop-color="#22b5f0"/>
    </linearGradient>
    <linearGradient id="linear-gradient-2" x1="0.766" y1="1.046" x2="0" y2="0.013" gradientUnits="objectBoundingBox">
      <stop offset="0" stop-color="#000083"/>
      <stop offset="0.084" stop-color="#091c95"/>
      <stop offset="0.255" stop-color="#1850b5"/>
      <stop offset="0.423" stop-color="#267bcf"/>
      <stop offset="0.585" stop-color="#309de4"/>
      <stop offset="0.738" stop-color="#37b5f3"/>
      <stop offset="0.88" stop-color="#3bc3fc"/>
      <stop offset="1" stop-color="#3dc8ff"/>
    </linearGradient>
    <linearGradient id="linear-gradient-3" x1="1.372" y1="0.859" x2="-0.176" y2="0.064" gradientUnits="objectBoundingBox">
      <stop offset="0" stop-color="#2083e6"/>
      <stop offset="0.038" stop-color="#2488e8"/>
      <stop offset="0.388" stop-color="#44b0f4"/>
      <stop offset="0.666" stop-color="#58c9fc"/>
      <stop offset="0.835" stop-color="#5fd2ff"/>
    </linearGradient>
    <linearGradient id="linear-gradient-4" x1="1" y1="0.5" x2="0" y2="0.5" gradientUnits="objectBoundingBox">
      <stop offset="0" stop-color="#099cd6"/>
      <stop offset="0.046" stop-color="#0ea1db"/>
      <stop offset="0.205" stop-color="#19ace7"/>
      <stop offset="0.425" stop-color="#20b3ee"/>
      <stop offset="1" stop-color="#22b5f0"/>
    </linearGradient>
    <linearGradient id="linear-gradient-5" y1="0.5" x2="1" y2="0.5" gradientUnits="objectBoundingBox">
      <stop offset="0" stop-color="#3dc8ff"/>
      <stop offset="0.397" stop-color="#36c3fb"/>
      <stop offset="0.963" stop-color="#23b6f1"/>
      <stop offset="1" stop-color="#22b5f0"/>
    </linearGradient>
  </defs>
  <g id="Group_53137" data-name="Group 53137" transform="translate(-3965 -7163.425)">
    <path id="Path_124072" data-name="Path 124072" d="M138.084,69.153l2.155-14.325a.6.6,0,0,1,.43-.491l4.307-1.249a.4.4,0,0,1,.511.447L143.331,67.9c-.083.694.194.972.861.972a3.933,3.933,0,0,0,.652-.059.433.433,0,0,1,.5.489l-.445,2.95a.716.716,0,0,1-.549.591,9.292,9.292,0,0,1-2.244.276C139.111,73.123,137.7,71.735,138.084,69.153Zm26.357,0L166.6,54.828a.6.6,0,0,1,.43-.491l4.307-1.249a.4.4,0,0,1,.511.447L169.688,67.9c-.083.694.194.972.861.972a3.933,3.933,0,0,0,.652-.059.433.433,0,0,1,.5.489l-.445,2.95a.716.716,0,0,1-.549.591,9.29,9.29,0,0,1-2.244.276C165.468,73.123,164.052,71.735,164.441,69.153Zm-1.1.145-.431,2.993a.657.657,0,0,1-.506.547,9.869,9.869,0,0,1-2.278.285c-1.943,0-3.165-.639-3.664-1.721a7.4,7.4,0,0,1-4.83,1.721c-3.609,0-5.607-2.415-5.08-5.969l1.167-7.9a.433.433,0,0,1,.428-.369h4.178a.433.433,0,0,1,.428.5l-1.009,6.833c-.25,1.61.444,2.61,1.943,2.61a2.726,2.726,0,0,0,2.832-2.526l1.055-7.044a.432.432,0,0,1,.428-.368h4.179a.432.432,0,0,1,.428.5L161.35,67.9c-.111.666.166.972.86.972a3.293,3.293,0,0,0,.623-.064.433.433,0,0,1,.51.486Zm26.385,0-.452,3.145a.435.435,0,0,1-.333.36,10.174,10.174,0,0,1-2.429.319c-1.943,0-3.165-.639-3.664-1.721a7.4,7.4,0,0,1-4.83,1.721c-3.609,0-5.608-2.415-5.08-5.969l1.167-7.9a.432.432,0,0,1,.428-.369h4.178a.433.433,0,0,1,.428.5l-1.009,6.833c-.25,1.61.444,2.61,1.943,2.61a2.726,2.726,0,0,0,2.832-2.526l1.055-7.044a.432.432,0,0,1,.428-.368h4.179a.432.432,0,0,1,.428.5L187.735,67.9c-.111.666.167.972.86.972a3.293,3.293,0,0,0,.623-.064.433.433,0,0,1,.51.486Z" transform="translate(3846.697 7115.302)"/>
    <path id="Path_124073" data-name="Path 124073" d="M14.077,72.631c-2.1-5.255-8.77-6.747-10.078-6.992a.235.235,0,0,1-.19-.266L5.7,52.816a22.848,22.848,0,0,0-3.182-.105.235.235,0,0,0-.219.2L0,68.161a.234.234,0,0,0,.237.27c1.664-.041,10.28-.043,12.786,4.135a.472.472,0,0,0,.536.215Z" transform="translate(3965 7115.625)" fill="url(#linear-gradient)"/>
    <path id="Path_124074" data-name="Path 124074" d="M37.837,72.8c-.522-3.354-4.465-6.916-4.465-6.916-1.177-1.433-.191-3.423.29-4.216a.234.234,0,0,0-.183-.355A2.148,2.148,0,0,1,31.215,59.2a2.987,2.987,0,0,1,.038-.442l.711-4.731h0c-.735-.14-1.469-.254-2.176-.344h-.009c-.423-.054-.837-.1-1.236-.136h0L26.649,66.1a.235.235,0,0,0,.19.266c1.308.245,7.977,1.737,10.078,6.992l.587-.171a.47.47,0,0,0,.334-.381l.079-.524Z" transform="translate(3942.16 7114.9)" fill="url(#linear-gradient-2)"/>
    <path id="Path_124075" data-name="Path 124075" d="M41.147,36.092h.009c.707.09,1.441.2,2.176.344h0l.446-2.967a15.626,15.626,0,0,0-3.222-.445.234.234,0,0,0-.235.2l-.411,2.731h0C40.31,35.993,40.724,36.038,41.147,36.092Z" transform="translate(3930.792 7132.486)" fill="#22b5f0"/>
    <path id="Path_124076" data-name="Path 124076" d="M67.32,61.964c.415-2.653-3.78-4.26-7.943-5.051l-.711,4.731a2.985,2.985,0,0,0-.038.442,2.148,2.148,0,0,0,2.265,2.121.234.234,0,0,1,.183.355c-.481.793-1.468,2.783-.29,4.216,0,0,3.943,3.562,4.465,6.916,0,0,1.005-6.6,2.206-14.637Z" transform="translate(3914.747 7112.011)" fill="url(#linear-gradient-3)"/>
    <path id="Path_124077" data-name="Path 124077" d="M74.623,28.067c1.077-7.206-5.6-9.282-6.994-9.635a.235.235,0,0,0-.29.193l-.35,2.331C70.87,21.883,75.194,24.252,74.623,28.067Z" transform="translate(3907.581 7145)" fill="url(#linear-gradient-4)"/>
    <path id="Path_124078" data-name="Path 124078" d="M64.315,36.14l-.446,2.967h0c4.163.792,8.358,2.4,7.943,5.051l.137-.908C72.519,39.436,68.195,37.067,64.315,36.14Z" transform="translate(3910.255 7129.815)" fill="url(#linear-gradient-5)"/>
  </g>
</svg>
