<svg xmlns="http://www.w3.org/2000/svg" width="95.721" height="25" viewBox="0 0 95.721 25">
  <g id="Group_53092" data-name="Group 53092" transform="translate(-201.099 -356.319)">
    <g id="Group_53136" data-name="Group 53136" transform="translate(201.099 356.319)">
      <path id="Path_82617" data-name="Path 82617" d="M258.87,392.16a4.3,4.3,0,0,0-1.627-.279,3.639,3.639,0,0,0-2.226.763,4.811,4.811,0,0,0-.736.652,5.028,5.028,0,0,0,0,6.476,3.977,3.977,0,0,0,1.147.894,3.53,3.53,0,0,0,1.815.5h14.144l-10.959-8.021c-.274-.186-.514-.372-.736-.5a4.978,4.978,0,0,0-.822-.484Z" transform="translate(-253.099 -376.168)" fill="#fbb615" fill-rule="evenodd"/>
      <path id="Path_82618" data-name="Path 82618" d="M274.169,356.98a2.182,2.182,0,0,1-.325-.242,4.1,4.1,0,0,0-4.932.242,4.46,4.46,0,0,0-.565.6c-.12.149-.223.316-.326.465a4.651,4.651,0,0,0-.582,1.266,4.552,4.552,0,0,0-.1,2.159,5.606,5.606,0,0,0,.6,1.731,3.866,3.866,0,0,0,1.113,1.228L281.4,373.6l-5.565-13.866c-.069-.149-.12-.3-.171-.428a8.634,8.634,0,0,0-.617-1.359c-.086-.112-.171-.242-.274-.372a4.824,4.824,0,0,0-.6-.6Z" transform="translate(-263.724 -350.033)" fill="#f37123" fill-rule="evenodd"/>
      <path id="Path_82619" data-name="Path 82619" d="M304.5,334.206a2.312,2.312,0,0,0-.377-.13,3.69,3.69,0,0,0-2.106,0,5.7,5.7,0,0,0-.719.28,4.192,4.192,0,0,0-2.209,2.494c-.017.056-.052.13-.069.186a4.884,4.884,0,0,0,.085,3.35l6.045,15.094,2-15.243a11.911,11.911,0,0,0,.154-1.935,5,5,0,0,0-.24-1.266c-.034-.149-.1-.3-.154-.465a4.214,4.214,0,0,0-2.414-2.364Z" transform="translate(-287.374 -333.922)" fill="#cc1e4f" fill-rule="evenodd"/>
      <path id="Path_82620" data-name="Path 82620" d="M354.385,392.644c-.222.13-.462.316-.736.5l-10.959,8.021h14.144a3.834,3.834,0,0,0,2.38-.856,7.126,7.126,0,0,0,.582-.54l.12-.13a4.386,4.386,0,0,0,.942-1.861,3.955,3.955,0,0,0,.12-.651c.017-.186.017-.391.017-.577a4.644,4.644,0,0,0-.788-2.717,3.945,3.945,0,0,0-.411-.54,4.9,4.9,0,0,0-.753-.652,3.483,3.483,0,0,0-.942-.54,3.723,3.723,0,0,0-1.267-.223,4.148,4.148,0,0,0-1.61.279,5.009,5.009,0,0,0-.839.484Z" transform="translate(-320.343 -376.168)" fill="#0db14b" fill-rule="evenodd"/>
      <path id="Path_82621" data-name="Path 82621" d="M344.361,337.035c-.017-.056-.051-.13-.069-.186a4.249,4.249,0,0,0-2.209-2.494,5.711,5.711,0,0,0-.719-.28,3.69,3.69,0,0,0-2.106,0,2.308,2.308,0,0,0-.377.13,4.27,4.27,0,0,0-2.415,2.364c-.051.168-.12.316-.171.465a4.951,4.951,0,0,0-.206,1.992v.093h1.147c.342.037.565.093.617.186.085.093-.086.242-.462.409l-.291.2-.359.316a1.18,1.18,0,0,0-.291.633,2.222,2.222,0,0,0-.034.6,1.638,1.638,0,0,0,.017.279l1.8,13.735,6.062-15.094a4.876,4.876,0,0,0,.069-3.35Z" transform="translate(-315.37 -333.922)" fill="#6461ab" fill-rule="evenodd"/>
      <path id="Path_82622" data-name="Path 82622" d="M359.305,360.424a4.849,4.849,0,0,0-.753-2.382c-.1-.149-.206-.316-.326-.465a4.479,4.479,0,0,0-.565-.6,4.136,4.136,0,0,0-4.949-.242,3.722,3.722,0,0,1-.326.242,6.374,6.374,0,0,0-.582.6,2.352,2.352,0,0,0-.274.372,11.8,11.8,0,0,0-.8,1.787L345.161,373.6l12.346-9.176a3.871,3.871,0,0,0,1.113-1.228.3.3,0,0,0,.069-.13,4.909,4.909,0,0,0,.377-.931c.051-.2.12-.447.154-.67a4.368,4.368,0,0,0,.086-1.042Z" transform="translate(-322.197 -350.033)" fill="#1689ca" fill-rule="evenodd"/>
    </g>
    <path id="Path_82623" data-name="Path 82623" d="M285.82,441.566v4.191h2.051a1.764,1.764,0,0,0,1.433-.684,2.421,2.421,0,0,0,.552-1.61,1.837,1.837,0,0,0-.662-1.323,1.884,1.884,0,0,0-1.39-.573Zm0,7.3v4.566h2.36a3.8,3.8,0,0,0,1.985-.508,1.714,1.714,0,0,0,.882-1.588c0-1.522-.97-2.36-2.868-2.47Zm24.109-10.653v4.19a6.837,6.837,0,0,0-3.11-.97,12.979,12.979,0,0,0-1.3.132,6.45,6.45,0,0,0-3.9,2.007,5.693,5.693,0,0,0-1.544,3.992,5.489,5.489,0,0,0,1.434,3.794,6.424,6.424,0,0,0,3.639,2.073,6.726,6.726,0,0,0,1.5.132,7,7,0,0,0,3.287-.993v4.588a10.1,10.1,0,0,1-3.552.662,9.478,9.478,0,0,1-1.235-.044,11.982,11.982,0,0,1-5.117-1.654,10.064,10.064,0,0,1-3.662-3.728A10.215,10.215,0,0,1,295,447.169a9.6,9.6,0,0,1,1.5-4.875,9.99,9.99,0,0,1,3.705-3.463,11.449,11.449,0,0,1,5.073-1.434,12.173,12.173,0,0,1,4.654.817Zm-41.49,18.947h-4.08V437.4l11.271,10.169v-9.352h4.191v19.565l-11.382-10.61v9.992Zm13.257,0V438.214h8.161a4.551,4.551,0,0,1,2.823,1.345,4.46,4.46,0,0,1,1.257,2.868,4.722,4.722,0,0,1-2.206,4.323A4.983,4.983,0,0,1,295,451.4a5.789,5.789,0,0,1-1.456,3.948,5.245,5.245,0,0,1-3.684,1.809Z" transform="translate(-13.109 -76.503)" fill-rule="evenodd"/>
  </g>
</svg>
