<svg xmlns="http://www.w3.org/2000/svg" width="102.263" height="35.334" viewBox="0 0 102.263 35.334">
  <path id="inc-ar21" d="M2.2-36.8v8.141H6.744V-9.68H2.2v7.568H26.339V-9.68H21.8V-28.661h4.541V-36.8H2.2m25.4,11.925v3.784H31V-9.68h-3.4v7.568H46.465V-9.68h-3.6l.016-3.653a32.437,32.437,0,0,1,.082-3.927,4.7,4.7,0,0,1,3.759-3.694,6.959,6.959,0,0,1,2.16.012,3.207,3.207,0,0,1,2.63,2.324l.09.327.025,8.611H48.1v7.568H66.551V-9.537l.29.552a13.154,13.154,0,0,0,6.787,5.919A22.87,22.87,0,0,0,83.241-1.49a22.935,22.935,0,0,0,3.907-.442c3.678-.761,6.377-2.5,8-5.146a11.409,11.409,0,0,0,1.554-4.7v-.11H86.554v.237a4.78,4.78,0,0,1-.25,1.334,3.747,3.747,0,0,1-2.774,2.385,7.354,7.354,0,0,1-2.139.1,4.343,4.343,0,0,1-1.959-.732,4.565,4.565,0,0,1-.843-.867,6.636,6.636,0,0,1-.929-2.823,25.412,25.412,0,0,1,.1-6.075,6.663,6.663,0,0,1,.589-1.763,3.645,3.645,0,0,1,2.573-1.931,4.311,4.311,0,0,1,1.256-.106,3.778,3.778,0,0,1,1.166.09c1.874.483,2.769,1.988,3.015,5.06.025.335.049.618.057.626s1.133-.11,7.678-.83l2.45-.266a9.149,9.149,0,0,0-.335-2.086c-1.08-4.312-4.263-7.253-9.122-8.423a20.009,20.009,0,0,0-5.829-.5,22.477,22.477,0,0,0-4.909.687c-4.745,1.2-8.21,3.841-9.818,7.478a13.811,13.811,0,0,0-.92,7.4A13.969,13.969,0,0,0,66.42-9.9l.09.217H63.483v-5.269c0-5.244-.012-5.78-.147-6.594a7.552,7.552,0,0,0-5.887-6.3,14.754,14.754,0,0,0-3.588-.532,13.4,13.4,0,0,0-7.871,1.763A11.38,11.38,0,0,0,43.6-24.615l-.826.88-.278.29v-5.216H27.607ZM99.358-10.514A4.256,4.256,0,0,0,97.2-9.381a4.209,4.209,0,0,0-1.309,3.3A4.3,4.3,0,0,0,99.42-2.067a5.858,5.858,0,0,0,1.514,0,4.322,4.322,0,0,0,3.08-2.315,4.271,4.271,0,0,0-.863-5,4.232,4.232,0,0,0-2.176-1.137A5.628,5.628,0,0,0,99.358-10.514Z" transform="translate(-2.203 36.802)" fill-rule="evenodd"/>
</svg>
