<svg id="huffpost" xmlns="http://www.w3.org/2000/svg" width="302.189" height="35.334" viewBox="0 0 302.189 35.334">
  <path id="Path_124034" data-name="Path 124034" d="M64.6,34.621H75.642L81.559.755H70.522L68.34,12.883H58.772L60.954.755H49.917L44,34.621H55.037l2.224-12.673h9.568ZM87.811.713,84.454,19.556a21.64,21.64,0,0,0-.42,4.238c0,9.988,8.729,11.5,13.974,11.5,10.995,0,15.737-3.651,17.457-13.513L119.159.671H108.122l-3.147,17.709c-1.007,5.539-1.721,8.435-5.833,8.435-2.686,0-3.987-1.427-3.987-4.364a22.773,22.773,0,0,1,.5-4.238L98.848.671H87.811ZM177.49,34.621h11.037l1.553-8.729h5.2c9.61,0,14.939-5.2,14.939-14.688,0-6.672-4.616-10.491-12.715-10.491h-14.1ZM194.7,17.541h-3.189l1.469-7.973h2.98c2.434,0,3.735,1.217,3.735,3.441C199.69,15.821,197.8,17.541,194.7,17.541ZM231.667,0c-12,0-19.178,7.764-19.178,20.815,0,9.064,5.707,14.52,15.275,14.52,12,0,19.178-7.764,19.178-20.815C246.984,5.413,241.277,0,231.667,0Zm-3.231,26.564c-2.854,0-4.532-2.056-4.532-5.5a18.8,18.8,0,0,1,.378-3.735c.839-4.448,2.266-8.519,6.756-8.519,2.854,0,4.532,2.056,4.532,5.5a18.8,18.8,0,0,1-.378,3.735C234.353,22.451,232.926,26.564,228.436,26.564Zm56.9,8.057h11.037l4.364-24.8h8.309L310.645.755H282.4L280.808,9.82h8.813Zm-18.3-21.36c-3.483-1.091-4.91-1.553-4.91-3.189,0-1.091.713-2.392,2.812-2.392A3.524,3.524,0,0,1,268.3,9.862l9.736-2.644C276.905,2.434,272.793,0,265.7,0c-13.345,0-14.394,8.939-14.394,11.666,0,5.539,2.938,8.939,9.316,10.7,1.679.462,3.609.965,3.609,2.812,0,1.469-1.091,2.392-2.98,2.392a4.455,4.455,0,0,1-4.2-2.77l-9.61,2.6c1.049,5.036,5.791,7.889,13.219,7.889,5.665,0,15.149-1.511,15.149-11.75.042-5.12-2.854-8.477-8.771-10.281Z" transform="translate(-25.535 0)"/>
  <path id="Path_124035" data-name="Path 124035" d="M12.3,35.666,18.255,1.8H0V35.666ZM289.852,1.8l-5.917,33.866h18.255V1.8Z" transform="translate(0 -1.045)" fill="#0dbe98"/>
  <path id="Path_124036" data-name="Path 124036" d="M236.8,25.62h9.274l1.511-8.519H238.31l1.049-6.295h12.967L253.921,1.7h-24L224,35.608h11.037Zm28.914,0h9.316L276.54,17.1h-9.274l1.049-6.295h12.967L282.877,1.7h-24l-5.917,33.908h11.037Z" transform="translate(-129.999 -0.987)"/>
</svg>
