<svg xmlns="http://www.w3.org/2000/svg" width="145.745" height="35.334" viewBox="0 0 145.745 35.334">
  <path id="thenextweb-ar21" d="M97.05,56.114H83.8V44.633a6.345,6.345,0,0,0-1.546-3.974l-5.078-5.078A6.36,6.36,0,0,0,73.2,34.034h-2.65v22.08H57.3V20.78H76.516a10.348,10.348,0,0,1,7.728,3.315l9.495,9.495a10.362,10.362,0,0,1,3.315,7.728ZM154.463,20.78V32.262a6.345,6.345,0,0,1-1.546,3.974l-5.078,5.078a5.323,5.323,0,0,1-3.974,1.546h-5.519a11.191,11.191,0,0,0,2.87-7.287V20.78H127.968V32.262a6.345,6.345,0,0,1-1.546,3.974l-5.078,5.078a5.323,5.323,0,0,1-3.974,1.546h-2.656V20.78H101.465V56.114h19.212A10.348,10.348,0,0,0,128.4,52.8l6.184-6.184v9.495h12.589a10.348,10.348,0,0,0,7.728-3.315L164.4,43.3a10.362,10.362,0,0,0,3.315-7.728V20.78ZM52.9,20.78H21.97V34.028h8.814V56.114H44.033V34.03h8.814" transform="translate(-21.97 -20.78)" fill="#f42"/>
</svg>
