<svg id="Book_Editing" data-name="Book Editing" xmlns="http://www.w3.org/2000/svg" width="512" height="512" viewBox="0 0 512 512">
  <g id="_032---Copywriting-Book" data-name="032---Copywriting-Book">
    <path id="Shape" d="M486.4,25.581H469.333V17.054A17.06,17.06,0,0,0,452.267,0h-153.6A51.21,51.21,0,0,0,256,22.938,51.21,51.21,0,0,0,213.333,0H59.733A17.06,17.06,0,0,0,42.667,17.054v8.527H25.6A25.591,25.591,0,0,0,0,51.162v289.92a25.591,25.591,0,0,0,25.6,25.581H354.227l11,28.139,15.445,39.728,21.589,55.69a34.081,34.081,0,0,0,44.169,19.45l31.821-12.356a34.1,34.1,0,0,0,19.456-44.136L476.083,397.54l-12-30.876H486.4A25.591,25.591,0,0,0,512,341.083V51.162a25.591,25.591,0,0,0-25.6-25.581ZM59.733,281.393h153.6a34.129,34.129,0,0,1,32.922,25.581H59.733Zm238.933,0h22.417l9.95,25.581H265.745A34.129,34.129,0,0,1,298.667,281.393ZM368.009,355l-.119-.3-16.427-42.26c-.051-.145-.1-.281-.162-.426L310.033,205.852l63.633-24.729,53.487,137.618v.085L441.6,356l-63.633,24.729ZM307.2,104.363l19.763,21.727-19.627,7.674Zm.282,84.179L307.362,152l31.9-12.39,24.6,27.048ZM447.812,371.917l9.267,23.876-63.633,24.729-9.267-23.876Zm-16.879-90.523h21.333v25.581H440.883ZM298.667,17.054h153.6V264.339H424.311L386.483,167.02a7.11,7.11,0,0,0-1.638-2.643l-56.439-62.051h38.528a8.527,8.527,0,1,0,0-17.054H305.92A15.738,15.738,0,0,0,290.133,101.1l.333,99.92a8.215,8.215,0,0,0,.572,3.053l23.424,60.269h-15.8a50.957,50.957,0,0,0-34.133,13.132V51.162a34.121,34.121,0,0,1,34.133-34.108Zm-238.933,0h153.6a34.121,34.121,0,0,1,34.133,34.108V277.471a50.957,50.957,0,0,0-34.133-13.132H59.733ZM25.6,349.61a8.53,8.53,0,0,1-8.533-8.527V51.162A8.53,8.53,0,0,1,25.6,42.635H42.667V306.974a17.06,17.06,0,0,0,17.067,17.054H337.655l9.95,25.581ZM481.51,472.4a16.925,16.925,0,0,1-9.438,9.022l-31.821,12.347a17.071,17.071,0,0,1-22.118-9.721L399.6,436.356l63.633-24.729,18.534,47.692a16.915,16.915,0,0,1-.256,13.081Zm13.423-131.317a8.53,8.53,0,0,1-8.533,8.527H457.455l-9.941-25.581h4.753a17.06,17.06,0,0,0,17.067-17.054V42.635H486.4a8.53,8.53,0,0,1,8.533,8.527Z"/>
    <path id="Shape-2" data-name="Shape" d="M18.533,22.067H138A8.533,8.533,0,1,0,138,5H18.533a8.533,8.533,0,0,0,0,17.067Z" transform="translate(75.333 37.667)"/>
    <path id="Shape-3" data-name="Shape" d="M18.533,27.067H138A8.533,8.533,0,1,0,138,10H18.533a8.533,8.533,0,0,0,0,17.067Z" transform="translate(75.333 75.333)"/>
    <path id="Shape-4" data-name="Shape" d="M18.533,32.067H138A8.533,8.533,0,1,0,138,15H18.533a8.533,8.533,0,1,0,0,17.067Z" transform="translate(75.333 112.903)"/>
    <path id="Shape-5" data-name="Shape" d="M18.533,37.067H138A8.533,8.533,0,1,0,138,20H18.533a8.533,8.533,0,1,0,0,17.067Z" transform="translate(75.333 150.537)"/>
    <path id="Shape-6" data-name="Shape" d="M18.533,42.067H138A8.533,8.533,0,1,0,138,25H18.533a8.533,8.533,0,0,0,0,17.067Z" transform="translate(75.333 188.171)"/>
    <path id="Shape-7" data-name="Shape" d="M42.533,22.067H162A8.533,8.533,0,0,0,162,5H42.533a8.533,8.533,0,1,0,0,17.067Z" transform="translate(256.133 37.667)"/>
  </g>
</svg>
