<svg xmlns="http://www.w3.org/2000/svg" width="186.087" height="25" viewBox="0 0 186.087 25">
  <g id="Group_54339" data-name="Group 54339" transform="translate(-127.817 31.534)">
    <g id="Group_54336" data-name="Group 54336" transform="translate(213.324 -31.534)">
      <path id="Path_126786" data-name="Path 126786" d="M110.031,83.6s-1.659.995-2.653,1.659l-2.322,1.161v6.467l-1,.665.168.165.828-.663,2.818,2.487,4.976-3.814-.167-.166-2.653,2.156-2.322-2.156V90.9l4.479-3.317Zm0,5.307-2.322,1.659V85.09ZM87.145,86.417h.166l.828-.664,1.327,1.492v5.307l-.664.5,2.157,2.487,2.154-2.157-.828-.994v-6.3l.5-.5,1.491,1.824v5.307l-.5.5,1.991,2.157,2.155-1.992-.828-.829V86.085l.5-.5,1.658,1.824v5.141l-.5.5,2.155,2.487,2.985-2.82-.165-.166-.664.663-1.16-1.16V86.085l.994-.829V85.09l-1.161.828-1.99-2.155-2.818,2.155-1.992-2.155L92.12,85.918l-1.99-2.155-2.986,2.654Z" transform="translate(-20.729 -76.839)" fill="#fff" fill-rule="evenodd"/>
      <path id="Path_126787" data-name="Path 126787" d="M147.553,89.722l.828-.664,1.161,1.492v5.971l-.829.828.165.165.829-.828L151.7,99.01l2.818-2.487-.165-.167-.828.665-1.161-1.328V89.722l.994-.829v-.167l-.994.829-1.991-2.322Zm.828-5.142,1.99-1.824L152.2,84.58l-2.155,1.991Z" transform="translate(-87.108 -80.31)" fill="#fff" fill-rule="evenodd"/>
      <path id="Path_126788" data-name="Path 126788" d="M143.037,80.309a2.871,2.871,0,0,1,1.99.829,2.738,2.738,0,0,1,.5,2.322,2.8,2.8,0,0,1-1.161,1.658,3.559,3.559,0,0,1-1.657.5v3.15l1.491,1.327-1.491,1.16v4.478a8.294,8.294,0,0,0,2.487-2.986l.165-.332a6.977,6.977,0,0,1-.663,3.151,5.908,5.908,0,0,1-2.322,2.654,6.551,6.551,0,0,1-9.122-2.322,7.129,7.129,0,0,1-1.161-4.146c0-2.986,2.322-5.473,4.81-6.468a1.8,1.8,0,0,1,1-.165c-.333,0-.5.165-.83.5a4.993,4.993,0,0,0-1.824,2.322l4.977-2.156v6.965l-3.982,1.991a4.468,4.468,0,0,0,2.986,1.659,4.006,4.006,0,0,0,3.15-.663V91.254l-1.491-1.16,1.491-1.327v-3.15c-.828-.166-1.824-.5-2.487-.664-.828-.166-3.814-.995-4.312-.995a1.3,1.3,0,0,0-1.327.166,1.879,1.879,0,0,0-.5,1.327,2.3,2.3,0,0,0,.5.663,1.287,1.287,0,0,1-.5-.165,2.25,2.25,0,0,1-1-1.824,2.874,2.874,0,0,1,1.161-2.654,3.775,3.775,0,0,1,2.655-.663,35.1,35.1,0,0,1,5.14,1.492,2.2,2.2,0,0,0,1.824-.166.709.709,0,0,0,.165-.995c-.331-.663-.994-.663-1.657-.829A1.043,1.043,0,0,1,143.037,80.309Zm-5.8,13.765v-6.8l-1.992.995a5.094,5.094,0,0,0-.5,2.819,6.681,6.681,0,0,0,1.327,3.483l1.16-.5Zm42.124,5.638a1.871,1.871,0,0,1-1.992-1.659c-.331-1.491.665-2.32,2.157-3.98L177.7,92.582V89.43a13.405,13.405,0,0,0,2.322-1.16l1.99-1.327s.829.995,1.659.829c1.327-.166,1.327-1.161,1.161-1.327.331.332.828,1.492-1.493,4.312l1.992,1.492v3.98a32.538,32.538,0,0,0-4.314,2.655s-1.159-1.493-2.155-.83C178.032,98.551,178.363,99.381,179.358,99.712ZM177.7,96.727a2.87,2.87,0,0,1,2.82-1.327,3.031,3.031,0,0,1,2.155,1.99V93.411l-1.161-.995C180.352,93.742,178.032,95.566,177.7,96.727Zm2.653-8.457v3.151l1,.995a12.605,12.605,0,0,0,3.15-3.649,2.322,2.322,0,0,1-2.487.995A2.843,2.843,0,0,1,180.352,88.27ZM107.879,89.6l.828-.664h.166l-.828.829v6.3s-1.659.83-2.653,1.493l-2.322,1.327L100.084,96.4l-.663.663h-.165l.829-.83v-6.8a19.8,19.8,0,0,0,2.487-1.16c1-.664,2.155-1.327,2.155-1.327ZM102.9,95.235l2.32,2.155v-6.8l-2.32-2.156Zm10.779-6.3,1.824-1.824a2.06,2.06,0,0,0,.5.332,1.256,1.256,0,0,0,1.161.166c.331-.166.331-.332.663-.5a2.846,2.846,0,0,1-1.493,2.819,2.19,2.19,0,0,1-2.653-.829v6.8l1.327,1,.83-.665h.165l-2.986,2.655L110.7,96.727l-.828.83-.166-.167,1.161-1.161v-5.8l-.83-1.327-.828.664h-.165l2.986-2.654Zm7.795,2.986,3.316-4.976a2.792,2.792,0,0,0,1.328.663c.994.332,1.99-.663,1.99-.663-.165,1.327-.828,2.819-2.322,2.986a3.462,3.462,0,0,1-2.322-.829l-.166.5,4.645,7.131.994-.829.166.165-3.316,2.82Z" transform="translate(-84.75 -80.184)" fill="#fff" fill-rule="evenodd"/>
      <path id="Path_126789" data-name="Path 126789" d="M117.913,85.325c0-1.16-.5-1.823-1.161-1.823l3.816-2.488V95.774l.994.994.663-.663.167.166-2.986,2.655-1.992-1.99-.828.829-.165-.165,1.491-1.328V85.325Zm-31.178-.332c0-.995-.5-1.492-1.161-1.492-.995-.166-1.16,1.327-1.16,1.327a2.534,2.534,0,0,1,.663-1.99,2.975,2.975,0,0,1,2.819-.995,2.422,2.422,0,0,1,1.99,2.487V98.094a3.347,3.347,0,0,0,.829.167,2.908,2.908,0,0,0,.829.166V81.842h.165v2.322L94.7,81.676l2.322,1.99,1-.829h.166l-1.161.995V96.6a2.277,2.277,0,0,1-.995,2.157c-1.659,1.161-3.814-.167-5.8-.333-1.327-.333-3.482-.5-4.145.828a1.228,1.228,0,0,0,.5,1.493c1.327.828,6.965-1.493,8.955-.5,1.825.828,1.825,1.99,1.492,2.986-.5,1.659-2.654,1.99-2.654,1.99s1.16-.663.829-1.657c-.165-.5-.5-.665-1.659-.5-2.487.331-5.307,1.491-7.3.663a3.007,3.007,0,0,1-1.659-2.986c0-1.824,2.156-2.487,2.156-2.487V91.626a1.366,1.366,0,0,0-1.492.332.874.874,0,0,0,.5,1.16,2.055,2.055,0,0,1-1.327-.663,2.152,2.152,0,0,1,0-2.487,2.4,2.4,0,0,1,2.322-.995V84.993Zm4.976,13.6a1.965,1.965,0,0,0,1.492-.331,1.386,1.386,0,0,0,.663-1.327V91.792a1.227,1.227,0,0,0-.995-.664,1.7,1.7,0,0,0-1.161.664v6.8Zm2.156-13.6-1.327-1.16-.829.5v4.81a1.831,1.831,0,0,0,1.161.5,1.242,1.242,0,0,0,.995-.5Zm0,4.478a1.453,1.453,0,0,1-.995.332,2.3,2.3,0,0,1-1.161-.332v1.991a1.831,1.831,0,0,1,1.161-.5,1.242,1.242,0,0,1,.995.5Z" transform="translate(-84.005 -80.225)" fill="#fff" fill-rule="evenodd"/>
    </g>
    <g id="Group_54338" data-name="Group 54338" transform="translate(127.817 -29.636)">
      <path id="Path_126790" data-name="Path 126790" d="M13.946,80.309a2.543,2.543,0,0,1,1.824.829,2.3,2.3,0,0,1,.5,2.322,2.243,2.243,0,0,1-1.16,1.658,3.566,3.566,0,0,1-1.659.5v3.15l1.492,1.327-1.492,1.16v4.478a8.283,8.283,0,0,0,2.487-2.986l.166-.332a6.969,6.969,0,0,1-.664,3.151,5.057,5.057,0,0,1-2.322,2.654,7,7,0,0,1-4.644.828A7.269,7.269,0,0,1,3.994,95.9,7.122,7.122,0,0,1,2.833,91.75a7.668,7.668,0,0,1,4.81-6.468,1.8,1.8,0,0,1,.995-.165,1.515,1.515,0,0,0-.829.5,4.981,4.981,0,0,0-1.824,2.322L10.96,85.78v6.965L6.979,94.736a4.468,4.468,0,0,0,2.985,1.659,4.259,4.259,0,0,0,3.317-.663V91.254l-1.659-1.16,1.659-1.327v-3.15a25.583,25.583,0,0,1-2.487-.664c-.995-.166-3.981-.995-4.313-.995a1.558,1.558,0,0,0-1.492.166,1.294,1.294,0,0,0-.332,1.327.861.861,0,0,0,.332.663,1.281,1.281,0,0,1-.5-.165,2.25,2.25,0,0,1-1-1.824A3.016,3.016,0,0,1,4.824,81.47a3.169,3.169,0,0,1,2.487-.663A44.014,44.014,0,0,1,12.619,82.3a1.9,1.9,0,0,0,1.659-.166c.166-.166.663-.5.332-.995-.5-.663-1.161-.663-1.824-.829a1.42,1.42,0,0,1,1.161,0ZM7.976,94.074v-6.8l-1.99.995a7.82,7.82,0,0,0-.5,2.819,8.5,8.5,0,0,0,1.327,3.483Zm25.208-7.131s-1.659.995-2.654,1.659l-2.322,1.161V96.23l-.995.665.166.166.829-.663,2.819,2.487L36,95.071l-.166-.167-2.654,2.156L30.861,94.9v-.663l4.478-3.317Zm0,5.307-2.322,1.659V88.435l2.322,3.814Zm-12.769,9.122a6.257,6.257,0,0,0,3.15-.5,4.32,4.32,0,0,0,2.156-3.98l.165-2.323V89.43l.829-.663V88.6l-.995.663-2.156-2.322-2.819,2.322V81.139l-3.483,2.654c.166.166.664.166.664.995V96.23l-1.492.995.165.165.664-.5,1.99,1.824L22.4,96.23l-.166-.166-.663.663-.829-.829V89.6l.829-.829,1.492,1.659V95.9c0,1.491,0,3.316-.829,4.146A3.224,3.224,0,0,1,20.414,101.371Z" transform="translate(-2.833 -80.184)" fill="#fff" fill-rule="evenodd"/>
      <g id="Group_54337" data-name="Group 54337" transform="translate(39.552 0)">
        <path id="Path_126791" data-name="Path 126791" d="M43.978,100.749c-1.327-.165-1.824-.828-1.824-1.493,0-.331.5-1.161,1.161-1.161a2.106,2.106,0,0,1,2.156,1l2.985-3.316h-.165l-.829.829a4.886,4.886,0,0,0-2.985-1.659V85.159l7.463,13.765a.726.726,0,0,0,.5.165.162.162,0,0,0,.166-.165V85.159a7.15,7.15,0,0,0,1.99-.829,2.755,2.755,0,0,0,.664-3.317,1.75,1.75,0,0,1-1.492,1.492,2.911,2.911,0,0,1-1.99-.995l-2.819,3.317.166.166L49.951,84a3.755,3.755,0,0,0,2.487,1.161v7.96L46.8,83a2.8,2.8,0,0,0-2.487-1.658,2.659,2.659,0,0,0-2.487,2.321,3.02,3.02,0,0,0,0,1.492s.166-1.327.995-1.327,1.161.663,1.492,1.16v2.986c-.829,0-2.819,0-2.819,2.156a3.12,3.12,0,0,0,.829,1.824,1.974,1.974,0,0,0,.995.332.917.917,0,0,1-.5-.995c.166-.663,1.492-.663,1.492-.5v4.146A3.794,3.794,0,0,0,40.829,96.6a2.77,2.77,0,0,0,.166,2.986,2.731,2.731,0,0,0,2.984,1.16ZM59.9,86.984s-1.492.995-2.654,1.659L54.923,89.8v6.467l-.995.665.166.166.995-.663,2.654,2.487,4.975-3.814-.165-.166L59.9,97.1l-2.156-2.156v-.663l4.312-3.317Zm0,5.307-2.156,1.659V88.476Zm6.8,6.634-2.488-1.99-.995.828-.166-.165,1.161-.83V91.3c0-2.322-2.156-1.658-1.99-4.146a2.824,2.824,0,0,1,1.658-2.156,4.388,4.388,0,0,1,1.161-.165,1.508,1.508,0,0,0-.829,1.492c.332,1.327,2.654,1.327,2.819,3.15v6.3L68.688,97.1l.5-.333v-6.8l-.995-.829,2.322-2.156,2.156,1.99-.829.829v5.97L74,97.428l.332-.166v-7.3l-.995-.829,2.322-2.156,2.321,1.824.829-.829.166.166-1.99,1.824v5.8l-5.141,3.15-2.654-1.99Z" transform="translate(-40.474 -81.013)" fill="#fff" fill-rule="evenodd"/>
      </g>
    </g>
  </g>
</svg>
