<svg xmlns="http://www.w3.org/2000/svg" width="118.935" height="25" viewBox="0 0 118.935 25">
  <g id="Amazon_Kindle" data-name="Amazon Kindle" transform="translate(-64.3 -157)">
    <path id="Path_126792" data-name="Path 126792" d="M132.491,229.679a25.189,25.189,0,0,1-14.195,4.332,25.629,25.629,0,0,1-17.355-6.626c-.357-.331-.051-.765.382-.51a34.478,34.478,0,0,0,30.607,1.911C132.593,228.506,133.128,229.194,132.491,229.679Z" transform="translate(-27.187 -52.011)" fill="#f49800" fill-rule="evenodd"/>
    <path id="Path_126793" data-name="Path 126793" d="M217.445,225.84c-.484-.637-3.237-.306-4.485-.153-.382.051-.433-.28-.1-.51,2.192-1.555,5.81-1.1,6.218-.586.433.51-.1,4.128-2.166,5.861-.306.255-.612.127-.484-.229C216.91,229.077,217.929,226.477,217.445,225.84Z" transform="translate(-110.535 -50.007)" fill="#f49800" fill-rule="evenodd"/>
    <path id="Path_126794" data-name="Path 126794" d="M213.157,179.986v-1.5a.375.375,0,0,1,.382-.382h6.728a.375.375,0,0,1,.382.382v1.3a2.005,2.005,0,0,1-.51.943l-3.466,4.969a7.559,7.559,0,0,1,3.848.815.708.708,0,0,1,.357.586V188.7c0,.229-.229.484-.484.331a7.7,7.7,0,0,0-7.11.025c-.229.127-.484-.127-.484-.357v-1.529a1.675,1.675,0,0,1,.255-1.019l4.026-5.785h-3.517A.4.4,0,0,1,213.157,179.986Z" transform="translate(-110.656 -15.723)" fill="#fff" fill-rule="evenodd"/>
    <path id="Path_126795" data-name="Path 126795" d="M111,188.842h-2.039a.364.364,0,0,1-.357-.357v-10.5a.392.392,0,0,1,.382-.382h1.911a.387.387,0,0,1,.382.357v1.376h.051a2.817,2.817,0,0,1,5.352,0,2.9,2.9,0,0,1,2.829-1.937,2.928,2.928,0,0,1,2.37,1.147c.637.892.51,2.166.51,3.287v6.626a.392.392,0,0,1-.382.382h-2.039a.387.387,0,0,1-.357-.382V182.9a16.674,16.674,0,0,0-.051-1.962,1.069,1.069,0,0,0-1.2-.917,1.362,1.362,0,0,0-1.223.866,6.526,6.526,0,0,0-.178,2.013v5.556a.392.392,0,0,1-.382.382h-2.039a.387.387,0,0,1-.357-.382V182.9c0-1.172.178-2.905-1.249-2.905-1.478,0-1.4,1.682-1.4,2.905v5.556C111.378,188.664,111.2,188.842,111,188.842Z" transform="translate(-33.01 -15.201)" fill="#fff" fill-rule="evenodd"/>
    <path id="Path_126796" data-name="Path 126796" d="M252.913,177.3c3.033,0,4.689,2.6,4.689,5.912,0,3.211-1.809,5.734-4.689,5.734-2.982,0-4.613-2.6-4.613-5.861C248.3,179.848,249.956,177.3,252.913,177.3Zm.025,2.141c-1.5,0-1.606,2.064-1.606,3.338s-.025,4.027,1.58,4.027c1.58,0,1.656-2.217,1.656-3.568a9.212,9.212,0,0,0-.306-2.778A1.3,1.3,0,0,0,252.938,179.441Z" transform="translate(-137.109 -15.127)" fill="#fff" fill-rule="evenodd"/>
    <path id="Path_126797" data-name="Path 126797" d="M293.2,188.917h-2.039a.387.387,0,0,1-.357-.382v-10.5a.366.366,0,0,1,.382-.331h1.886a.357.357,0,0,1,.357.306v1.606h.051a2.775,2.775,0,0,1,2.778-2.115,2.7,2.7,0,0,1,2.4,1.249,6.641,6.641,0,0,1,.535,3.262v6.575a.386.386,0,0,1-.382.331h-2.039a.381.381,0,0,1-.357-.331v-5.708c0-1.147.127-2.829-1.274-2.829a1.336,1.336,0,0,0-1.172.841,4.736,4.736,0,0,0-.331,1.988v5.657A.44.44,0,0,1,293.2,188.917Z" transform="translate(-168.778 -15.276)" fill="#fff" fill-rule="evenodd"/>
    <path id="Path_126798" data-name="Path 126798" d="M175.614,183.524a3.966,3.966,0,0,1-.382,2.166,1.664,1.664,0,0,1-1.427.943c-.79,0-1.249-.586-1.249-1.478,0-1.733,1.555-2.064,3.033-2.064v.433Zm2.064,4.995a.423.423,0,0,1-.484.051,4.692,4.692,0,0,1-1.172-1.376,4.022,4.022,0,0,1-3.364,1.478,2.9,2.9,0,0,1-3.058-3.186,3.438,3.438,0,0,1,2.192-3.338,14.066,14.066,0,0,1,3.848-.714v-.255a2.647,2.647,0,0,0-.255-1.478,1.376,1.376,0,0,0-1.147-.535,1.578,1.578,0,0,0-1.656,1.223.462.462,0,0,1-.357.382l-1.988-.2a.352.352,0,0,1-.306-.433c.459-2.4,2.625-3.135,4.587-3.135a4.6,4.6,0,0,1,3.084,1.019c.994.943.892,2.166.892,3.517v3.186a2.809,2.809,0,0,0,.764,1.886.392.392,0,0,1,0,.535c-.433.357-1.172.994-1.58,1.376Z" transform="translate(-78.465 -14.903)" fill="#fff" fill-rule="evenodd"/>
    <path id="Path_126799" data-name="Path 126799" d="M70.314,183.524a3.966,3.966,0,0,1-.382,2.166,1.664,1.664,0,0,1-1.427.943c-.79,0-1.249-.586-1.249-1.478,0-1.733,1.555-2.064,3.033-2.064v.433Zm2.064,4.995a.423.423,0,0,1-.484.051,4.692,4.692,0,0,1-1.172-1.376,4.022,4.022,0,0,1-3.364,1.478,2.9,2.9,0,0,1-3.058-3.186,3.438,3.438,0,0,1,2.192-3.338,14.066,14.066,0,0,1,3.848-.714v-.255a2.444,2.444,0,0,0-.255-1.478,1.376,1.376,0,0,0-1.147-.535,1.578,1.578,0,0,0-1.656,1.223.462.462,0,0,1-.357.382l-1.988-.2a.352.352,0,0,1-.306-.433c.459-2.4,2.625-3.135,4.587-3.135a4.6,4.6,0,0,1,3.084,1.019c.994.943.892,2.166.892,3.517v3.186a2.809,2.809,0,0,0,.765,1.886.392.392,0,0,1,0,.535c-.408.357-1.147.994-1.58,1.376Z" transform="translate(0 -14.903)" fill="#fff" fill-rule="evenodd"/>
    <path id="Path_126800" data-name="Path 126800" d="M341.9,173.641l-4.766-5.785h-.025v5.785H335.4V157h1.707v9.455h.025l4.077-3.925h2.243l-4.893,4.536,5.53,6.575Z" transform="translate(-202.012 0)" fill="#f49800"/>
    <path id="Path_126801" data-name="Path 126801" d="M373.8,162.5a1.2,1.2,0,1,1,1.2-1.2A1.2,1.2,0,0,1,373.8,162.5Zm-.841,13.456V164.84h1.707v11.111Z" transform="translate(-229.732 -2.31)" fill="#f49800"/>
    <path id="Path_126802" data-name="Path 126802" d="M397.885,188.991v-6.83c0-1.376-.229-2.931-1.937-2.931a5.81,5.81,0,0,0-3.44,1.682v8.079H390.8V177.88h1.4l.229,1.351a6.353,6.353,0,0,1,3.976-1.631c1.606,0,3.186,1.147,3.186,3.925v7.467h-1.707Z" transform="translate(-243.294 -15.35)" fill="#f49800"/>
    <path id="Path_126803" data-name="Path 126803" d="M438.309,173.871c-3.109,0-5.708-1.809-5.708-5.632a5.726,5.726,0,0,1,5.734-5.989,8.11,8.11,0,0,1,1.809.178V157h1.707v16.081A7.733,7.733,0,0,1,438.309,173.871Zm1.835-9.837a4.52,4.52,0,0,0-1.707-.28,4.12,4.12,0,0,0-4.078,4.383c0,2.523,1.376,4.307,4.281,4.307a4.309,4.309,0,0,0,1.529-.28v-8.129Z" transform="translate(-274.442 0)" fill="#f49800"/>
    <path id="Path_126804" data-name="Path 126804" d="M480.737,173.871a1.81,1.81,0,0,1-1.937-2.039V157h1.707v14.042c0,1.045.255,1.274.918,1.274a2,2,0,0,0,.586-.076l.2,1.249A3.043,3.043,0,0,1,480.737,173.871Z" transform="translate(-308.868 0)" fill="#f49800"/>
    <path id="Path_126805" data-name="Path 126805" d="M497.735,183.716c0,2.115,1.223,4.026,3.619,4.026a5.453,5.453,0,0,0,2.7-.815l.535,1.223a6.779,6.779,0,0,1-3.44,1.07c-3.542,0-5.25-2.854-5.25-6.014,0-3.211,1.835-5.606,4.511-5.606,2.854,0,4.434,2.268,4.434,5.734v.408h-7.11Zm2.7-4.664c-1.656,0-2.676,1.453-2.676,3.211h5.25C502.985,180.709,502.118,179.053,500.436,179.053Z" transform="translate(-321.61 -15.35)" fill="#f49800"/>
  </g>
</svg>
