<svg id="huffpost" xmlns="http://www.w3.org/2000/svg" width="128.284" height="15" viewBox="0 0 128.284 15">
  <path id="Path_124034" data-name="Path 124034" d="M52.747,14.7h4.685L59.944.321H55.259l-.926,5.148H50.271L51.2.321H46.512L44,14.7h4.685l.944-5.38h4.062ZM62.6.3l-1.425,8A9.186,9.186,0,0,0,61,10.1c0,4.24,3.705,4.881,5.932,4.881,4.667,0,6.681-1.55,7.411-5.736L75.906.285H71.221L69.885,7.8c-.428,2.352-.73,3.581-2.476,3.581-1.14,0-1.692-.606-1.692-1.853a9.668,9.668,0,0,1,.214-1.8L67.284.285H62.6ZM100.669,14.7h4.685l.659-3.705h2.209c4.08,0,6.342-2.209,6.342-6.235,0-2.833-1.96-4.454-5.4-4.454h-5.986Zm7.3-7.251h-1.354l.624-3.385h1.265c1.033,0,1.586.517,1.586,1.461A1.873,1.873,0,0,1,107.973,7.447ZM123.667,0c-5.095,0-8.141,3.3-8.141,8.836,0,3.848,2.423,6.164,6.485,6.164,5.1,0,8.141-3.3,8.141-8.836C130.17,2.3,127.747,0,123.667,0ZM122.3,11.277c-1.211,0-1.924-.873-1.924-2.334a7.98,7.98,0,0,1,.16-1.586c.356-1.888.962-3.616,2.868-3.616,1.211,0,1.924.873,1.924,2.334a7.98,7.98,0,0,1-.16,1.586C124.808,9.531,124.2,11.277,122.3,11.277Zm24.157,3.42h4.685l1.853-10.529h3.527l.677-3.848H145.205l-.677,3.848h3.741Zm-7.767-9.068c-1.479-.463-2.084-.659-2.084-1.354,0-.463.3-1.015,1.194-1.015a1.5,1.5,0,0,1,1.425.926l4.133-1.122C142.872,1.033,141.126,0,138.115,0,132.45,0,132,3.795,132,4.952c0,2.352,1.247,3.795,3.955,4.543.713.2,1.532.41,1.532,1.194,0,.624-.463,1.015-1.265,1.015a1.891,1.891,0,0,1-1.781-1.176l-4.08,1.1c.445,2.138,2.458,3.349,5.612,3.349,2.4,0,6.431-.641,6.431-4.988.018-2.173-1.211-3.6-3.723-4.365Z" transform="translate(-36.162 0)"/>
  <path id="Path_124035" data-name="Path 124035" d="M5.22,16.176,7.749,1.8H0V16.176ZM123.046,1.8l-2.512,14.376h7.749V1.8Z" transform="translate(0 -1.479)" fill="#0dbe98"/>
  <path id="Path_124036" data-name="Path 124036" d="M229.433,11.854h3.937l.641-3.616h-3.937l.445-2.672h5.5L236.7,1.7h-10.19L224,16.094h4.685Zm12.274,0h3.955l.641-3.616h-3.937l.445-2.672h5.5l.677-3.866H238.8l-2.512,14.394h4.685Z" transform="translate(-184.095 -1.397)"/>
</svg>
