<svg id="ELITE_DAILY" xmlns="http://www.w3.org/2000/svg" width="119.123" height="15" viewBox="0 0 119.123 15">
  <path id="E" d="M0,14.272c1.536-.068,1.878-.489,1.878-1.343V1.73C1.878.9,1.536.444,0,.387V0H10.493l.091,4.575-.432.023C9.127,1.73,8.49.535,6.282.535H4.234V6.863h.808c1.388,0,2.049-.41,2.583-2.7h.41v5.918h-.41C7.09,7.8,6.43,7.386,5.042,7.386H4.234v6.749h2c2.583,0,3.391-1.309,4.427-4.359l.444.023-.1,4.882H0Z" transform="translate(0 0.319)" fill="#231f20"/>
  <path id="L" d="M110.4,14.272c1.536-.068,1.878-.489,1.878-1.343V1.73c0-.831-.341-1.286-1.878-1.343V0h6.066V.387c-1.6.068-1.832.489-1.832,1.343V14.146h1.3c2.515,0,3.38-.979,4.552-4.4l.444.046-.171,4.894H110.4Z" transform="translate(-97.836 0.319)" fill="#231f20"/>
  <path id="I" d="M212.611,14.272c1.582-.068,1.923-.489,1.923-1.343V1.73c0-.831-.341-1.286-1.923-1.343V0h6.157V.387c-1.582.057-1.912.512-1.912,1.343v11.2c0,.854.319,1.286,1.9,1.343v.41H212.6v-.41Z" transform="translate(-188.404 0.319)" fill="#231f20"/>
  <path id="T" d="M285.424,14.272c1.627-.068,2.071-.489,2.071-1.343V.512h-.637c-1.411,0-2.31,1.309-3.414,4.188L283,4.678,283.114,0H294.2l.125,4.678-.444.023c-1.047-2.754-1.946-4.188-3.414-4.188h-.637V12.929c0,.854.444,1.286,2.071,1.343v.41h-6.476Z" transform="translate(-250.792 0.319)" fill="#231f20"/>
  <path id="E_1_" d="M397,14.272c1.536-.068,1.878-.489,1.878-1.343V1.73c0-.831-.341-1.286-1.878-1.343V0h10.493l.091,4.575-.432.023C406.128,1.73,405.49.535,403.282.535h-2.049V6.863h.808c1.388,0,2.049-.41,2.583-2.7h.41v5.918h-.41c-.535-2.288-1.2-2.7-2.583-2.7h-.808v6.749h2c2.583,0,3.391-1.309,4.427-4.359l.444.023-.1,4.871H397v-.4Z" transform="translate(-351.818 0.319)" fill="#231f20"/>
  <path id="D" d="M.1,163.872c1.536-.068,1.878-.489,1.878-1.343v-11.2c0-.831-.341-1.286-1.878-1.343V149.6H5.654c4.609,0,6.9,3.016,6.9,7.09,0,3.915-1.969,7.58-6.669,7.58H.1Zm5.315-.125c3.437,0,4.552-1.707,4.552-6.9,0-5.258-1.536-6.726-4.6-6.726H4.322v13.634H5.415Z" transform="translate(62.734 -149.281)" fill="#231f20"/>
  <path id="A" d="M112.576,156.349h-4.143l-.615,1.946c-.728,2.265-.58,2.8,1.115,3.118v.387H104.7v-.387c1.263-.3,1.753-1.047,2.435-3.118l3.756-11.495h1.218l3.778,12.587c.432,1.434.728,1.8,2.117,2.026v.387h-6.066v-.387c1.707-.1,1.946-.535,1.6-1.753Zm-.171-.535-1.753-6.214h-.091l-1.958,6.214Z" transform="translate(-29.962 -146.8)" fill="#231f20"/>
  <path id="I_1_" d="M231.9,163.872c1.582-.068,1.923-.489,1.923-1.343v-11.2c0-.831-.341-1.286-1.923-1.343V149.6h6.157v.387c-1.582.068-1.9.512-1.9,1.343v11.2c0,.854.319,1.286,1.9,1.343v.41H231.9Z" transform="translate(-142.685 -149.281)" fill="#231f20"/>
  <path id="L_1_" d="M304.7,163.872c1.536-.068,1.878-.489,1.878-1.343v-11.2c0-.831-.341-1.286-1.878-1.343V149.6h6.066v.387c-1.6.068-1.832.489-1.832,1.343v12.417h1.309c2.515,0,3.38-.979,4.552-4.4l.444.046-.171,4.894H304.711v-.41Z" transform="translate(-207.2 -149.281)" fill="#231f20"/>
  <path id="Y" d="M392.209,152.548c.854-1.753.774-2.265-.876-2.583V149.6h4.291v.364c-1.2.262-1.73.706-2.674,2.583l-2.606,5.235v4.746c0,.854.341,1.286,1.923,1.343v.41h-6.157v-.41c1.6-.068,1.923-.489,1.923-1.343V158l-3.141-6.43a2.254,2.254,0,0,0-1.992-1.6V149.6h5.918v.364c-1.684.148-1.832.66-1.343,1.65L390,157.066Z" transform="translate(-276.5 -149.281)" fill="#231f20"/>
</svg>
