<svg xmlns="http://www.w3.org/2000/svg" width="74.622" height="30" viewBox="0 0 74.622 30">
  <path id="business-insider-1" d="M5.77,6.329a2.348,2.348,0,0,0-1.357-.392c-.294-.016-.458-.016-.7-.016-.065,0-.1.033-.1.114V9.908c0,1.079.049,1.357.572,1.569a2.943,2.943,0,0,0,1.193.2A1.9,1.9,0,0,0,7.356,9.581,3.893,3.893,0,0,0,5.77,6.329ZM3.613,5.021c0,.131.049.163.114.18A3.981,3.981,0,0,0,4.5,5.25a1.661,1.661,0,0,0,1.177-.311,2.132,2.132,0,0,0,.67-1.733c0-1.1-.638-2.534-2.043-2.534A2.644,2.644,0,0,0,3.76.705c-.115.033-.147.1-.147.278V5.021ZM1.651,4.743c0-2.485,0-2.942-.033-3.466C1.586.721,1.455.46.915.345A3.367,3.367,0,0,0,.278.3C.1.3,0,.264,0,.149S.114,0,.36,0c.866,0,1.9.049,2.223.049C3.384.051,4.021,0,4.577,0,7.536,0,8.059,1.588,8.059,2.454A3.558,3.558,0,0,1,6.392,5.315c1.341.458,2.975,1.618,2.975,3.531C9.367,10.6,8.01,12.409,5,12.409c-.2,0-.67-.033-1.144-.049-.49-.033-.981-.049-1.226-.049-.18,0-.54,0-.932.016-.376,0-.8.033-1.128.033-.213,0-.327-.049-.327-.163,0-.082.065-.131.262-.131A2.673,2.673,0,0,0,1.1,12c.327-.065.409-.425.474-.9.082-.686.082-1.978.082-3.482V4.743m9.922,1.128c0-2.109.016-2.5-.016-2.943-.033-.49-.163-.621-.621-.752a2.58,2.58,0,0,0-.556-.049q-.245,0-.245-.147c0-.1.1-.131.311-.131.768,0,1.733.033,2.158.033.36,0,1.324-.033,1.847-.033.213,0,.311.033.311.131s-.082.147-.229.147a1.992,1.992,0,0,0-.425.049c-.376.065-.49.262-.523.752-.033.441-.033.834-.033,2.943V7.816c0,2.027.392,2.812,1.1,3.367a2.768,2.768,0,0,0,1.815.556A2.739,2.739,0,0,0,18.39,11c.8-.752.834-1.962.834-3.384V5.871c0-2.109-.016-2.5-.033-2.943-.033-.474-.147-.621-.6-.752a2.466,2.466,0,0,0-.523-.049q-.245,0-.245-.147c0-.1.1-.131.294-.131.736,0,1.7.033,1.716.033.164,0,1.128-.033,1.684-.033.2,0,.294.033.294.131s-.082.147-.245.147a1.994,1.994,0,0,0-.425.049c-.392.065-.49.262-.523.752-.016.441-.033.834-.033,2.943V7.358c0,1.553-.163,3.188-1.373,4.185a4.484,4.484,0,0,1-3.041,1,4.971,4.971,0,0,1-3.286-.948c-.736-.638-1.308-1.667-1.308-3.678V5.871m11.573,6.31c-.229-.1-.278-.164-.278-.474,0-.752.065-1.618.082-1.847,0-.213.065-.36.18-.36.131,0,.147.131.147.229a2.587,2.587,0,0,0,.131.719A2.225,2.225,0,0,0,25.7,11.821a1.8,1.8,0,0,0,1.994-1.765c0-.6-.147-1.21-1.422-1.962l-.834-.49c-1.7-1-2.256-1.929-2.256-3.155,0-1.7,1.635-2.8,3.629-2.8a8.537,8.537,0,0,1,2.043.229c.131.033.2.082.2.18,0,.18-.049.572-.049,1.667,0,.294-.065.441-.18.441q-.147,0-.147-.245A1.57,1.57,0,0,0,28.3,3.01a1.933,1.933,0,0,0-1.6-.654c-1.03,0-1.962.539-1.962,1.487,0,.621.229,1.112,1.52,1.831L26.841,6c1.9,1.046,2.485,2.109,2.485,3.368a2.97,2.97,0,0,1-1.439,2.6,4.192,4.192,0,0,1-2.4.572,6.109,6.109,0,0,1-2.338-.359m8.6-6.31c0-2.109,0-2.5-.016-2.943-.033-.474-.18-.638-.49-.736a1.833,1.833,0,0,0-.523-.065c-.147,0-.229-.033-.229-.164,0-.082.114-.114.343-.114.54,0,1.52.033,1.929.033.36,0,1.291-.033,1.847-.033.18,0,.294.033.294.114,0,.131-.082.164-.229.164a1.988,1.988,0,0,0-.425.049c-.392.065-.507.262-.54.752-.033.441-.033.834-.033,2.943V8.323c0,1.34,0,2.452.065,3.041.049.376.147.588.572.654a5.358,5.358,0,0,0,.736.049c.163,0,.229.082.229.147,0,.1-.114.147-.278.147-.948,0-1.929-.049-2.321-.049-.327,0-1.308.049-1.88.049-.18,0-.278-.049-.278-.147,0-.065.049-.147.229-.147a2.109,2.109,0,0,0,.507-.049c.294-.065.376-.261.425-.67.065-.572.065-1.684.065-3.024V5.871m6.866,4.593c.033,1.079.213,1.406.49,1.5a2.443,2.443,0,0,0,.752.1c.163,0,.245.065.245.147,0,.114-.131.147-.327.147-.932,0-1.6-.049-1.864-.049-.131,0-.817.049-1.553.049-.2,0-.327-.016-.327-.147,0-.082.1-.147.229-.147A2.966,2.966,0,0,0,36.91,12c.376-.1.425-.474.441-1.684l.131-8.239c0-.278.1-.474.245-.474.18,0,.376.213.621.458.18.18,2.338,2.387,4.43,4.43.981.964,2.894,2.926,3.106,3.122h.065L45.8,3.435c-.016-.85-.147-1.1-.49-1.226a2.415,2.415,0,0,0-.752-.082c-.18,0-.229-.065-.229-.147,0-.114.147-.131.36-.131.752,0,1.52.033,1.831.033.163,0,.7-.033,1.406-.033.2,0,.327.016.327.131,0,.082-.082.147-.245.147a1.459,1.459,0,0,0-.441.049c-.392.114-.507.36-.523,1.144l-.163,8.762c0,.311-.114.441-.229.441a.855.855,0,0,1-.588-.294c-.9-.834-2.7-2.55-4.2-4-1.569-1.5-3.09-3.188-3.368-3.433h-.049l.164,5.673M50.772,5.871c0-2.109,0-2.5-.017-2.943-.033-.474-.163-.621-.621-.752a2.64,2.64,0,0,0-.572-.049c-.147,0-.245-.049-.245-.147s.114-.131.327-.131c.752,0,1.667.033,2.076.033.458,0,3.645.016,3.923,0,.262-.016.49-.065.6-.082a1.683,1.683,0,0,1,.229-.065c.082,0,.1.065.1.131a6.175,6.175,0,0,0-.115.9c-.016.147-.049.752-.082.915-.016.065-.049.229-.163.229-.1,0-.115-.065-.115-.18a1.306,1.306,0,0,0-.1-.507c-.115-.245-.229-.441-.948-.507-.245-.033-1.962-.065-2.256-.065-.065,0-.1.049-.1.131V6.214c0,.082.016.147.1.147.327,0,2.191,0,2.517-.033.343-.033.556-.065.687-.213.114-.1.163-.18.229-.18a.132.132,0,0,1,.114.147c0,.082-.033.311-.114,1.013-.033.278-.065.834-.065.932,0,.114-.016.311-.147.311-.1,0-.131-.049-.131-.114-.016-.147-.016-.327-.049-.507-.082-.278-.262-.49-.8-.539-.262-.033-1.9-.065-2.256-.065-.065,0-.082.065-.082.147V8.372c0,.474-.016,1.651,0,2.06.033.948.474,1.161,1.945,1.161A3.882,3.882,0,0,0,56,11.412c.36-.163.523-.458.621-1.03.033-.147.065-.213.164-.213.114,0,.131.18.131.327a9.4,9.4,0,0,1-.2,1.537c-.1.36-.229.36-.768.36-1.079,0-1.945-.016-2.648-.049-.7-.016-1.243-.033-1.667-.033-.164,0-.474.016-.817.016-.343.016-.7.033-1,.033-.18,0-.278-.049-.278-.147,0-.065.049-.147.229-.147a2.11,2.11,0,0,0,.507-.049c.294-.065.376-.327.425-.736.065-.588.065-1.684.065-2.959V5.871m7.944,6.31c-.229-.1-.278-.164-.278-.474,0-.752.065-1.618.082-1.847,0-.213.065-.36.18-.36.131,0,.147.131.147.229a2.591,2.591,0,0,0,.131.719,2.224,2.224,0,0,0,2.288,1.373,1.8,1.8,0,0,0,1.994-1.765c0-.6-.147-1.21-1.422-1.962L61,7.6c-1.7-1-2.256-1.929-2.256-3.155,0-1.7,1.635-2.8,3.629-2.8a8.536,8.536,0,0,1,2.043.229c.131.033.2.082.2.18,0,.18-.049.572-.049,1.667,0,.294-.065.441-.18.441q-.147,0-.147-.245a1.57,1.57,0,0,0-.376-.915,1.933,1.933,0,0,0-1.6-.654c-1.03,0-1.962.539-1.962,1.487,0,.621.229,1.112,1.52,1.831L62.41,6c1.9,1.046,2.485,2.109,2.485,3.368a2.97,2.97,0,0,1-1.439,2.6,4.192,4.192,0,0,1-2.4.572,6.109,6.109,0,0,1-2.337-.359m8.14,0c-.229-.1-.278-.164-.278-.474,0-.752.065-1.618.082-1.847,0-.213.065-.36.18-.36.131,0,.147.131.147.229a2.591,2.591,0,0,0,.131.719,2.225,2.225,0,0,0,2.289,1.373A1.8,1.8,0,0,0,71.4,10.056c0-.6-.147-1.21-1.422-1.962l-.834-.49c-1.7-1-2.256-1.929-2.256-3.155,0-1.7,1.635-2.8,3.629-2.8a8.539,8.539,0,0,1,2.044.229c.131.033.2.082.2.18,0,.18-.049.572-.049,1.667,0,.294-.065.441-.18.441q-.147,0-.147-.245a1.57,1.57,0,0,0-.376-.915,1.933,1.933,0,0,0-1.6-.654c-1.03,0-1.962.539-1.962,1.487,0,.621.229,1.112,1.52,1.831L70.551,6c1.9,1.046,2.485,2.109,2.485,3.368a2.97,2.97,0,0,1-1.439,2.6,4.192,4.192,0,0,1-2.4.572,6.109,6.109,0,0,1-2.337-.359M2.321,22.2c0-2.485,0-2.942-.033-3.466-.033-.556-.2-.834-.556-.915a2.317,2.317,0,0,0-.588-.065c-.164,0-.262-.033-.262-.163,0-.1.131-.131.392-.131.621,0,1.651.049,2.125.049.409,0,1.373-.049,1.994-.049.213,0,.343.033.343.131,0,.131-.1.163-.262.163a2.744,2.744,0,0,0-.49.049c-.441.081-.572.36-.6.932-.033.523-.033.981-.033,3.466v2.877c0,1.586,0,2.877.065,3.58.049.441.164.736.654.8a6.9,6.9,0,0,0,.834.065c.18,0,.262.049.262.131,0,.114-.131.163-.311.163-1.079,0-2.109-.049-2.55-.049-.376,0-1.406.049-2.06.049-.212,0-.327-.049-.327-.163,0-.082.065-.131.262-.131a2.679,2.679,0,0,0,.589-.065c.327-.065.425-.343.474-.817.082-.686.082-1.978.082-3.564V22.2m8.32,5.721c.033,1.079.213,1.406.49,1.5a2.443,2.443,0,0,0,.752.1c.163,0,.245.065.245.147,0,.114-.131.147-.327.147-.932,0-1.6-.049-1.864-.049-.131,0-.817.049-1.553.049-.2,0-.327-.016-.327-.147,0-.082.1-.147.229-.147a2.965,2.965,0,0,0,.654-.065c.376-.1.425-.474.441-1.684l.131-8.239c0-.278.1-.474.245-.474.18,0,.376.212.621.458.18.18,2.338,2.387,4.43,4.43.981.964,2.893,2.926,3.106,3.122h.065L17.834,20.9c-.016-.85-.147-1.1-.49-1.226a2.419,2.419,0,0,0-.752-.081c-.18,0-.229-.065-.229-.147,0-.114.147-.131.36-.131.752,0,1.52.033,1.831.033.164,0,.7-.033,1.406-.033.2,0,.327.016.327.131,0,.082-.082.147-.245.147a1.462,1.462,0,0,0-.441.049c-.392.115-.507.36-.523,1.144l-.164,8.762c0,.311-.114.441-.229.441a.855.855,0,0,1-.589-.294c-.9-.834-2.7-2.55-4.2-4-1.569-1.5-3.09-3.188-3.368-3.433h-.049l.164,5.672m12.75,1.716c-.229-.1-.278-.164-.278-.474,0-.752.065-1.618.082-1.847,0-.212.065-.36.18-.36.131,0,.147.131.147.229a2.59,2.59,0,0,0,.131.719,2.224,2.224,0,0,0,2.289,1.373,1.8,1.8,0,0,0,1.994-1.765c0-.6-.147-1.21-1.422-1.962l-.834-.49c-1.7-1-2.256-1.929-2.256-3.155,0-1.7,1.635-2.8,3.629-2.8a8.525,8.525,0,0,1,2.043.229c.131.033.2.082.2.18,0,.18-.049.572-.049,1.667,0,.294-.065.441-.18.441q-.147,0-.147-.245a1.57,1.57,0,0,0-.376-.915,1.932,1.932,0,0,0-1.6-.654c-1.03,0-1.962.539-1.962,1.488,0,.621.229,1.112,1.52,1.831l.589.327c1.9,1.046,2.485,2.109,2.485,3.367a2.97,2.97,0,0,1-1.438,2.6,4.194,4.194,0,0,1-2.4.572,6.114,6.114,0,0,1-2.337-.36m9.972-6.31c0-2.109,0-2.5-.016-2.942-.033-.474-.18-.638-.49-.736a1.837,1.837,0,0,0-.523-.065c-.147,0-.229-.033-.229-.164,0-.082.114-.115.343-.115.54,0,1.52.033,1.929.033.36,0,1.291-.033,1.847-.033.18,0,.294.033.294.115,0,.131-.082.164-.229.164a2,2,0,0,0-.425.049c-.392.065-.507.262-.54.752-.033.441-.033.834-.033,2.942v2.452c0,1.341,0,2.452.065,3.041.049.376.147.588.572.654a5.359,5.359,0,0,0,.736.049c.163,0,.229.082.229.147,0,.1-.114.147-.278.147-.948,0-1.929-.049-2.321-.049-.327,0-1.308.049-1.88.049-.18,0-.278-.049-.278-.147,0-.065.049-.147.229-.147a2.11,2.11,0,0,0,.507-.049c.294-.065.376-.261.425-.67.065-.572.065-1.684.065-3.024V23.332m9.269,1.537c0,1.471.016,2.534.033,2.812a2.536,2.536,0,0,0,.163.981c.18.262.752.556,1.88.556a4.533,4.533,0,0,0,3.139-.948,4.243,4.243,0,0,0,1.226-3.449,4.523,4.523,0,0,0-1.341-3.466A5.8,5.8,0,0,0,43.71,20.03a3.052,3.052,0,0,0-.883.1.244.244,0,0,0-.18.278c-.016.474-.016,1.618-.016,2.714v1.749ZM40.7,23.332c0-2.109,0-2.5-.017-2.942-.033-.474-.163-.621-.621-.752a2.657,2.657,0,0,0-.572-.049c-.147,0-.245-.049-.245-.147s.114-.131.327-.131c.752,0,1.667.033,2.076.033.441,0,1.471-.033,2.338-.033,1.8,0,4.217,0,5.787,1.586a4.867,4.867,0,0,1,1.357,3.531A5.388,5.388,0,0,1,49.563,28.3a6.709,6.709,0,0,1-4.822,1.635c-.523,0-1.144-.049-1.716-.082-.572-.049-1.1-.082-1.455-.082-.164,0-.474.016-.817.016-.343.016-.7.033-1,.033-.18,0-.278-.049-.278-.147,0-.065.049-.147.229-.147a2.111,2.111,0,0,0,.507-.049c.294-.065.376-.327.425-.736.065-.588.065-1.684.065-2.959V23.332m14.107,0c0-2.109,0-2.5-.016-2.942-.033-.474-.163-.621-.621-.752a2.655,2.655,0,0,0-.572-.049c-.147,0-.245-.049-.245-.147s.114-.131.327-.131c.752,0,1.667.033,2.076.033.458,0,3.645.016,3.923,0,.262-.016.49-.065.6-.082a1.659,1.659,0,0,1,.229-.065c.082,0,.1.065.1.131a6.174,6.174,0,0,0-.115.9c-.016.147-.049.752-.082.915-.016.065-.049.229-.163.229-.1,0-.115-.065-.115-.18a1.308,1.308,0,0,0-.1-.507c-.114-.245-.229-.441-.948-.507-.245-.033-1.962-.065-2.256-.065-.065,0-.1.049-.1.131v3.433c0,.082.016.147.1.147.327,0,2.191,0,2.518-.033.343-.033.556-.065.686-.212.115-.1.163-.18.229-.18a.132.132,0,0,1,.114.147c0,.082-.033.311-.114,1.014-.033.278-.066.834-.066.932,0,.114-.016.311-.147.311-.1,0-.131-.049-.131-.115-.016-.147-.016-.327-.049-.507-.082-.278-.262-.49-.8-.54-.261-.033-1.9-.065-2.256-.065-.066,0-.082.065-.082.147v1.112c0,.474-.016,1.651,0,2.06.033.948.474,1.161,1.945,1.161a3.881,3.881,0,0,0,1.357-.18c.36-.163.523-.458.621-1.03.033-.147.065-.212.164-.212.114,0,.131.18.131.327a9.384,9.384,0,0,1-.2,1.536c-.1.36-.229.36-.768.36-1.079,0-1.945-.016-2.648-.049-.7-.016-1.243-.033-1.667-.033-.164,0-.474.016-.817.016-.343.016-.7.033-1,.033-.18,0-.278-.049-.278-.147,0-.065.049-.147.229-.147a2.109,2.109,0,0,0,.507-.049c.294-.065.376-.327.425-.736.065-.588.065-1.684.065-2.959V23.332m11.606,1.079c0,.147.033.2.131.245a3.942,3.942,0,0,0,1.1.131,1.445,1.445,0,0,0,1.013-.229,2.35,2.35,0,0,0,.932-2.06A2.184,2.184,0,0,0,67.4,20.03a5.194,5.194,0,0,0-.85.049c-.1.033-.131.082-.131.2v4.136Zm-1.831-1.079c0-2.109,0-2.5-.016-2.942-.033-.474-.163-.621-.621-.752a2.654,2.654,0,0,0-.572-.049c-.147,0-.245-.049-.245-.147s.114-.131.327-.131c.752,0,1.667.033,1.962.033.49,0,1.8-.033,2.24-.033a5.037,5.037,0,0,1,2.73.589A2.428,2.428,0,0,1,71.4,21.812c0,1.03-.589,1.945-1.994,3.073,1.275,1.569,2.289,2.828,3.155,3.694A2.7,2.7,0,0,0,74.1,29.5a1.342,1.342,0,0,0,.343.033.167.167,0,0,1,.18.147c0,.114-.1.147-.278.147H72.971a3.117,3.117,0,0,1-1.569-.278A6.511,6.511,0,0,1,69.44,27.5c-.572-.752-1.177-1.684-1.357-1.9a.332.332,0,0,0-.262-.1l-1.291-.033a.1.1,0,0,0-.114.114v.2c0,1.291.016,2.37.082,2.959.049.409.114.67.556.736a5.431,5.431,0,0,0,.7.049.167.167,0,0,1,.18.147c0,.1-.115.147-.294.147-.834,0-2.027-.049-2.24-.049-.278,0-1.193.049-1.766.049-.18,0-.278-.049-.278-.147,0-.065.049-.147.229-.147a2.11,2.11,0,0,0,.507-.049c.294-.065.376-.327.425-.736.065-.588.065-1.684.065-2.959V23.332" transform="translate(0 -0.002)" fill="#19636a"/>
</svg>
