<svg id="facebook" xmlns="http://www.w3.org/2000/svg" width="138.32" height="52" viewBox="0 0 138.32 52">
  <path id="Path_126934" data-name="Path 126934" d="M0,0H138.32V52H0Z" fill="none"/>
  <g id="Group_54499" data-name="Group 54499" transform="translate(14.971 14.991)">
    <path id="Path_126935" data-name="Path 126935" d="M86.63,39.628a5.134,5.134,0,0,0-2.274.614v7.013a14.793,14.793,0,0,0,1.638.062c2.227,0,2.532-1.02,2.532-2.443V41.524C88.526,40.472,88.177,39.628,86.63,39.628Zm-14.788-.383c-1.545,0-1.9.848-1.9,1.9v.59h3.793v-.59C73.738,40.093,73.385,39.245,71.842,39.245ZM43.2,46.544a1.107,1.107,0,0,0,1.257,1.263,4.61,4.61,0,0,0,2.155-.614V45.53h-2.03C43.618,45.53,43.2,45.709,43.2,46.544Zm57.819-6.917c-1.548,0-2.084.844-2.084,1.9v3.837c0,1.054.536,1.9,2.084,1.9s2.084-.847,2.084-1.9V41.524C103.1,40.472,102.558,39.628,101.015,39.628Zm-65.4,11.219H31.063V39.836H28.79V36.042h2.273V33.764c0-3.1,1.283-4.936,4.929-4.936h3.036v3.795h-1.9c-1.42,0-1.513.53-1.513,1.52l-.006,1.9h3.437l-.4,3.794H35.612V50.847Zm15.546.029H47.367l-.164-.959a8.69,8.69,0,0,1-4.3,1.114c-2.78,0-4.26-1.857-4.26-4.426,0-3.031,1.727-4.112,4.816-4.112h3.144v-.655c0-1.547-.177-2-2.556-2h-3.89l.38-3.794h4.252c5.22,0,6.364,1.649,6.364,5.826v9.007ZM64.051,40.115a21.7,21.7,0,0,0-4.172-.493c-2.039,0-2.655.45-2.655,2.181v3.275c0,1.732.616,2.183,2.655,2.183a21.65,21.65,0,0,0,4.172-.5v3.7a20.108,20.108,0,0,1-4.551.585c-4.884,0-6.825-2.568-6.825-6.278V42.115c0-3.713,1.941-6.286,6.825-6.286a20.023,20.023,0,0,1,4.551.588Zm14.236,4.658H69.944v.306c0,1.732.617,2.183,2.655,2.183a26.522,26.522,0,0,0,5.306-.5v3.7a23.917,23.917,0,0,1-5.683.585c-4.884,0-6.827-2.568-6.827-6.278V41.733c0-3.246,1.441-5.905,6.446-5.905s6.444,2.628,6.444,5.905Zm14.787.07c0,3.586-1.025,6.2-7.234,6.2a34.339,34.339,0,0,1-6.032-.578v-20.5l4.547-.759v7.17a10.324,10.324,0,0,1,3.412-.551c4.548,0,5.306,2.039,5.306,5.315v3.7Zm14.577.078c0,3.093-1.277,6.094-6.621,6.094s-6.647-3-6.647-6.094V41.934c0-3.1,1.3-6.1,6.647-6.1s6.621,3,6.621,6.1V44.92Zm14.567,0c0,3.093-1.279,6.094-6.621,6.094s-6.647-3-6.647-6.094V41.934c0-3.1,1.3-6.1,6.647-6.1s6.621,3,6.621,6.1V44.92Zm14.949,5.926h-4.929l-4.169-6.959v6.959H123.52V29.967l4.549-.759V42.65l4.169-6.608h4.929l-4.551,7.211ZM115.581,39.628c-1.545,0-2.081.844-2.081,1.9v3.837c0,1.054.536,1.9,2.081,1.9s2.089-.847,2.089-1.9V41.524c0-1.051-.546-1.9-2.089-1.9Zm24.183,8.622a1.393,1.393,0,1,1-.006,0Zm-.006.218a1.191,1.191,0,0,0,.006,2.377,1.191,1.191,0,0,0,0-2.377Zm-.262,2h-.25V48.9a2.876,2.876,0,0,1,.443-.036.833.833,0,0,1,.487.118.378.378,0,0,1,.141.324.39.39,0,0,1-.3.382V49.7c.137.025.23.149.262.38a1.3,1.3,0,0,0,.1.388h-.262a1.18,1.18,0,0,1-.106-.4.292.292,0,0,0-.337-.274H139.5v.675Zm0-.867h.181c.2,0,.379-.075.379-.269,0-.137-.1-.274-.379-.274a1.292,1.292,0,0,0-.181.012V49.6Z" transform="translate(-28.79 -28.828)" fill="#3b5998"/>
  </g>
</svg>
