<svg xmlns="http://www.w3.org/2000/svg" width="103.118" height="25" viewBox="0 0 103.118 25">
  <path id="thenextweb-ar21" d="M75.091,45.78H65.717V37.656a4.489,4.489,0,0,0-1.094-2.812L61.03,31.252a4.5,4.5,0,0,0-2.812-1.094H56.344V45.78H46.97v-25H60.563a7.321,7.321,0,0,1,5.468,2.345l6.718,6.718a7.331,7.331,0,0,1,2.345,5.468Zm40.621-25V28.9a4.489,4.489,0,0,1-1.094,2.812l-3.593,3.593a3.766,3.766,0,0,1-2.812,1.094h-3.9a7.918,7.918,0,0,0,2.031-5.156V20.78H96.966V28.9a4.489,4.489,0,0,1-1.094,2.812l-3.593,3.593A3.766,3.766,0,0,1,89.467,36.4H87.588V20.78H78.215v25H91.807a7.321,7.321,0,0,0,5.468-2.345l4.375-4.375v6.718h8.907a7.321,7.321,0,0,0,5.468-2.345l6.718-6.718a7.331,7.331,0,0,0,2.345-5.468V20.78Zm-71.855,0H21.97v9.374h6.236V45.78H37.58V30.155h6.236" transform="translate(-21.97 -20.78)" fill="#f42"/>
</svg>
