<svg xmlns="http://www.w3.org/2000/svg" width="86.825" height="30" viewBox="0 0 86.825 30">
  <path id="inc-ar21" d="M2.2-36.8v6.912H6.058v16.116H2.2v6.425H22.695v-6.425H18.84V-29.89h3.855V-36.8H2.2M23.772-26.677v3.213h2.883v9.69H23.772v6.425H39.783v-6.425h-3.06l.014-3.1a27.54,27.54,0,0,1,.069-3.334A3.99,3.99,0,0,1,40-23.347a5.908,5.908,0,0,1,1.834.01,2.723,2.723,0,0,1,2.233,1.973l.076.278.021,7.311h-2.99v6.425H56.836v-6.3l.247.469a11.168,11.168,0,0,0,5.762,5.026,19.417,19.417,0,0,0,8.162,1.337A19.472,19.472,0,0,0,74.324-7.2a9.885,9.885,0,0,0,6.79-4.369,9.687,9.687,0,0,0,1.32-3.991v-.094H73.82v.2a4.059,4.059,0,0,1-.212,1.132,3.182,3.182,0,0,1-2.355,2.025,6.244,6.244,0,0,1-1.816.083,3.687,3.687,0,0,1-1.664-.622,3.876,3.876,0,0,1-.715-.736,5.635,5.635,0,0,1-.788-2.4,21.576,21.576,0,0,1,.083-5.158,5.657,5.657,0,0,1,.5-1.5,3.1,3.1,0,0,1,2.185-1.639,3.66,3.66,0,0,1,1.066-.09,3.208,3.208,0,0,1,.99.076c1.591.41,2.351,1.688,2.56,4.3.021.285.042.524.049.531s.962-.094,6.519-.705l2.08-.226a7.768,7.768,0,0,0-.285-1.771C81.1-25.806,78.4-28.3,74.271-29.3a16.988,16.988,0,0,0-4.949-.424,19.083,19.083,0,0,0-4.168.583c-4.029,1.018-6.971,3.261-8.336,6.349a11.726,11.726,0,0,0-.781,6.286,11.86,11.86,0,0,0,.688,2.542l.076.184h-2.57v-4.473a39.376,39.376,0,0,0-.125-5.6,6.412,6.412,0,0,0-5-5.345,12.526,12.526,0,0,0-3.046-.452,11.377,11.377,0,0,0-6.682,1.5,9.662,9.662,0,0,0-2.028,1.691l-.7.747-.236.247V-29.89H23.772ZM84.691-14.483a3.614,3.614,0,0,0-1.83.962,3.574,3.574,0,0,0-1.111,2.8,3.655,3.655,0,0,0,2.994,3.411,4.974,4.974,0,0,0,1.285,0,3.669,3.669,0,0,0,2.615-1.966,3.626,3.626,0,0,0-.733-4.244,3.593,3.593,0,0,0-1.848-.966A4.778,4.778,0,0,0,84.691-14.483Z" transform="translate(-2.203 36.802)" fill-rule="evenodd"/>
</svg>
