<svg xmlns="http://www.w3.org/2000/svg" width="81.944" height="30" viewBox="0 0 81.944 30">
  <path id="Yahoo_Finance" data-name="Yahoo Finance" d="M48.375,40.528v9.028h4.444V42.4a2.333,2.333,0,0,1,.347-.972,1.261,1.261,0,0,1,1.319-.625,1.438,1.438,0,0,1,1.389,1.389v7.292h4.444V45.319a43.252,43.252,0,0,0-.069-4.583,4.415,4.415,0,0,0-1.319-2.917,3.975,3.975,0,0,0-2.292-1.111,6.031,6.031,0,0,0-1.6.069,3.627,3.627,0,0,0-2.014,1.111l-.347.278V31.5H48.236v9.028ZM95.6,31.639c-.139.278-4.653,11.181-4.653,11.181h5.278l2.361-5.625c1.319-3.125,2.361-5.694,2.361-5.694H95.667ZM38.653,36.778a6,6,0,0,0-2.5.9,6.378,6.378,0,0,0-2.778,4.583,7.8,7.8,0,0,0,.139,2.847A6.184,6.184,0,0,0,37.4,49.556a4.933,4.933,0,0,0,1.806.278,3.44,3.44,0,0,0,1.042-.069,4.036,4.036,0,0,0,2.083-1.111l.278-.278v1.111h4.306v-12.5H42.611V38.1l-.208-.208a3.778,3.778,0,0,0-2.083-1.111,3.418,3.418,0,0,0-.972-.069A3.562,3.562,0,0,1,38.653,36.778Zm28.333,0a7.13,7.13,0,0,0-3.333,1.389,6.686,6.686,0,0,0-2.292,6.111,6.358,6.358,0,0,0,4.861,5.347,7.166,7.166,0,0,0,1.806.208,6.479,6.479,0,0,0,3.125-.694,6.207,6.207,0,0,0,3.472-4.861,9.093,9.093,0,0,0,0-1.944,6.341,6.341,0,0,0-1.181-2.917,10.055,10.055,0,0,0-1.181-1.25,6.485,6.485,0,0,0-3.333-1.389A9.1,9.1,0,0,0,66.986,36.778Zm14.167,0a6.261,6.261,0,0,0-3.264,1.389,6.654,6.654,0,0,0-1.181,1.25,7.193,7.193,0,0,0-1.181,2.917,9.1,9.1,0,0,0,0,1.944,6.491,6.491,0,0,0,5.208,5.486,4.962,4.962,0,0,0,1.458.139,6.216,6.216,0,0,0,3.194-.764,6.534,6.534,0,0,0,3.333-7.222A6.419,6.419,0,0,0,83.1,36.778,9.1,9.1,0,0,0,81.153,36.778ZM19,37.056s1.181,2.847,2.639,6.319,2.639,6.319,2.639,6.319-.417,1.042-.972,2.292-.972,2.222-.972,2.292a22.077,22.077,0,0,0,2.361,0h2.361L30.6,45.736c1.944-4.722,3.542-8.542,3.542-8.611a17.293,17.293,0,0,0-2.361,0H29.417l-1.458,3.611c-.625,1.944-1.25,3.611-1.25,3.611s-.625-1.667-1.458-3.611l-1.389-3.611H21.431C20.111,37.056,19,37.056,19,37.056Zm21.806,3.75a2.594,2.594,0,0,1,1.875,1.806,4.2,4.2,0,0,1,0,1.319,2.4,2.4,0,0,1-1.806,1.806,4.2,4.2,0,0,1-1.319,0,2.63,2.63,0,0,1-1.736-1.458,2.73,2.73,0,0,1,.208-2.431A2.649,2.649,0,0,1,40.806,40.806Zm27.708.069a2.364,2.364,0,0,1,1.944,1.875,3.776,3.776,0,0,1,0,1.25,2.532,2.532,0,0,1-1.736,1.806,4.2,4.2,0,0,1-1.319,0,2.74,2.74,0,0,1-1.6-1.319,2,2,0,0,1-.208-1.111,2.218,2.218,0,0,1,.208-.972,2.787,2.787,0,0,1,.9-1.111A2,2,0,0,1,68.514,40.875Zm14.1,0a2.306,2.306,0,0,1,1.806,1.458,2.218,2.218,0,0,1,.208.972,2.879,2.879,0,0,1-.208,1.111,2.548,2.548,0,0,1-1.6,1.319,4.2,4.2,0,0,1-1.319,0,2.418,2.418,0,0,1-1.736-1.806,4.2,4.2,0,0,1,0-1.319,2.443,2.443,0,0,1,2.361-1.875C82.264,40.806,82.472,40.806,82.611,40.875Zm9.444,3.056a2.951,2.951,0,0,0-2.569,2.361,4.2,4.2,0,0,0,0,1.319,2.929,2.929,0,0,0,2.222,2.153c.139,0,.417.069.625.069A2.827,2.827,0,0,0,94.417,49a2.675,2.675,0,0,0,.833-2.083,2.742,2.742,0,0,0-1.319-2.431A2.485,2.485,0,0,0,92.056,43.931Zm-36.6,6.806a1.417,1.417,0,0,0-.833,2.083,1.581,1.581,0,0,0,.625.556,1.371,1.371,0,0,0,.625.069,1.541,1.541,0,0,0,.625-.069,1.674,1.674,0,0,0,.694-.694,1.42,1.42,0,0,0-.694-1.875.748.748,0,0,0-.556-.139A.893.893,0,0,0,55.458,50.736Zm-3.75.069a2.8,2.8,0,0,0-2.292,2.222,2.141,2.141,0,0,0-.069.694v.486h-.972v2.083h.972v5h2.639v-5h1.806V54.208H51.986V54c.069-.486.278-.833.694-.9a1.563,1.563,0,0,1,.972.069.537.537,0,0,0,.208.069V51.014l-.208-.069a2.544,2.544,0,0,0-1.111-.139A3.3,3.3,0,0,0,51.708,50.806Zm10.556,3.264a2.269,2.269,0,0,0-1.25.764l-.139.208v-.833H58.236v7.083h2.639v-4.1a1.628,1.628,0,0,1,.347-.694.956.956,0,0,1,1.25.139c.208.278.208.278.208,2.5v2.083h2.639V58.861a12.555,12.555,0,0,0-.139-3.264,2.014,2.014,0,0,0-.625-1.042A1.72,1.72,0,0,0,63.583,54,7.974,7.974,0,0,0,62.264,54.069Zm6.6-.069a3.443,3.443,0,0,0-1.389.556,3.819,3.819,0,0,0-1.458,2.431,6.148,6.148,0,0,0,0,1.6,4.031,4.031,0,0,0,.694,1.667,3.03,3.03,0,0,0,1.875,1.181,3.4,3.4,0,0,0,1.458-.069,3.022,3.022,0,0,0,1.042-.556l.278-.278v.694H74V54.139H71.361v.694l-.208-.069a2.415,2.415,0,0,0-1.389-.694A3.96,3.96,0,0,0,68.861,54Zm10.069.069a2.134,2.134,0,0,0-1.25.764l-.139.139v-.833H74.9v7.083h2.639V59.208c0-2.153,0-2.153.139-2.5a.764.764,0,0,1,.694-.417A.969.969,0,0,1,79,56.5c.278.278.278.208.278,2.569v2.083h2.639V58.583a13.787,13.787,0,0,0-.069-2.847,6.557,6.557,0,0,1-.208-.625,1.671,1.671,0,0,0-.417-.556A2.658,2.658,0,0,0,80.458,54,5.645,5.645,0,0,0,78.931,54.069Zm6.875,0a3.57,3.57,0,0,0-2.639,1.736c-.139.278-.278.625-.417.972a3.69,3.69,0,0,0-.069.972,2.649,2.649,0,0,0,.208,1.319A3.616,3.616,0,0,0,85.6,61.431a2.884,2.884,0,0,0,.9.069,3.04,3.04,0,0,0,1.458-.278l.278-.139V58.722l-.208.139a1.594,1.594,0,0,1-.972.278,1.77,1.77,0,0,1-.9-.139,1.363,1.363,0,0,1-.625-.625,1.194,1.194,0,0,1-.069-.556,1.354,1.354,0,0,1,.069-.556,1.482,1.482,0,0,1,1.389-.9,2.388,2.388,0,0,1,1.389.347V54.347l-.208-.069A4.39,4.39,0,0,0,85.806,54.069Zm5.972,0a3.847,3.847,0,0,0-2.5,5.9A3.355,3.355,0,0,0,91.5,61.431a9.754,9.754,0,0,0,2.014,0,3.541,3.541,0,0,0,1.806-.972,7.614,7.614,0,0,0,.556-.694s-.486-.208-1.111-.417l-1.111-.417-.139.139a1.127,1.127,0,0,1-.625.347,1.3,1.3,0,0,1-1.667-.9v-.139h4.861V57.75a2.4,2.4,0,0,0-.069-.833,3.7,3.7,0,0,0-.972-1.944,3.2,3.2,0,0,0-1.806-.9A5.124,5.124,0,0,0,91.778,54.069ZM54.556,57.75v3.542h2.639V54.208H54.556Zm38.264-1.736a1.74,1.74,0,0,1,.486.278.7.7,0,0,1,.278.486v.139H92.4c-1.319,0-1.25,0-1.111-.278A1.325,1.325,0,0,1,92.819,56.014Zm-22.431.347a1.417,1.417,0,0,1,.069,2.708,2.3,2.3,0,0,1-.972,0,1.311,1.311,0,0,1-.9-.9,1.182,1.182,0,0,1-.069-.486.748.748,0,0,1,.139-.556A1.5,1.5,0,0,1,70.389,56.361Z" transform="translate(-19 -31.5)" fill="#5c02cb" fill-rule="evenodd"/>
</svg>
