<svg id="marketwatch-logo" xmlns="http://www.w3.org/2000/svg" width="125.609" height="18" viewBox="0 0 125.609 18">
  <path id="Path_124037" data-name="Path 124037" d="M25.932,11.372a3.163,3.163,0,0,1-3.008,2.6,2.049,2.049,0,0,1-2.049-2.552,3.139,3.139,0,0,1,2.984-2.6,2.013,2.013,0,0,1,2.073,2.552m.959-5.033-.216,1.054A2.72,2.72,0,0,0,23.931,6,6.4,6.4,0,0,0,17.868,11.4c-.527,2.888.863,5.416,4.062,5.416a4,4,0,0,0,3.223-1.438l-.192,1.078h2.984L29.826,6.375H26.891Zm4.673.012h2.816l-.192,1.054A3.151,3.151,0,0,1,37.016,6l-.551,3.031c-1.414,0-2.4.312-2.72,1.857l-1.03,5.536H29.682Z" transform="translate(3.52 1.185)" fill="#363333"/>
  <path id="Path_124038" data-name="Path 124038" d="M0,0H125.609V17.973H0Z" fill="none"/>
  <path id="Path_124039" data-name="Path 124039" d="M35.95,2.99l-2.6,14.031h3.031l.9-4.865h.048l1.941,4.865h3.415l-2.636-5.656,4.613-4.421H41.1L37.616,10.6h-.048L38.982,2.99Z" transform="translate(6.611 0.593)" fill="#363333"/>
  <path id="Path_124040" data-name="Path 124040" d="M44.833,10.266A2.828,2.828,0,0,1,47.458,8.54a1.749,1.749,0,0,1,1.953,1.725ZM47.889,6a6.77,6.77,0,0,0-6.279,5.44,4.326,4.326,0,0,0,4.35,5.344,5.644,5.644,0,0,0,3.032-.911A7.609,7.609,0,0,0,51.52,13.3H48.44a2.612,2.612,0,0,1-2.025.935,1.8,1.8,0,0,1-2-1.905h7.561a3.6,3.6,0,0,0,.216-.791C52.766,8.4,50.968,6,47.889,6" transform="translate(8.224 1.189)" fill="#363333"/>
  <path id="Path_124041" data-name="Path 124041" d="M0,0H125.609V17.973H0Z" fill="none"/>
  <path id="Path_124042" data-name="Path 124042" d="M17.374,2.99l-5.32,7.992h-.048V2.99H9.43L0,17.021H3.655l5.3-7.992H9v7.992h2.6l5.3-7.992h.048v7.992h3.031V2.99Zm50.7,3.954H66.166l.551-2.984H64.069l-.216,1.2a2.085,2.085,0,0,1-2.169,1.833l-.455,2.229h1.5l-1.45,7.8h3.008l1.45-7.8h1.929Z" transform="translate(0 0.593)" fill="#363333"/>
  <path id="Path_124043" data-name="Path 124043" d="M106.138,3.595h3.008l-.911,5a3.151,3.151,0,0,1,2.888-1.4,3.079,3.079,0,0,1,2.552,1.126c.647.983.575,1.881.24,3.679l-1.03,5.632h-3.008l1.006-5.488c.1-.479.383-2.121-1.2-2.121a2.121,2.121,0,0,0-2.1,1.965l-1.042,5.632h-2.96ZM93.461,7.537H91.6l.515-2.984H89.471L89.207,5.7a2.085,2.085,0,0,1-2.169,1.833l-.407,2.277h1.486l-1.438,7.8h3.008l1.438-7.8h1.929ZM78.95,15.157a3.163,3.163,0,0,0,3.067-2.6,2.013,2.013,0,0,0-2.073-2.552,3.139,3.139,0,0,0-2.984,2.6,2.049,2.049,0,0,0,2.049,2.552m5.08,2.4H81.047l.192-1.078a4,4,0,0,1-3.271,1.5c-3.2,0-4.6-2.528-4.062-5.416a6.4,6.4,0,0,1,6.051-5.368,2.72,2.72,0,0,1,2.7,1.414l.216-1.054h2.984ZM78.3,0,72.432,3.595H74.1l-5.32,7.98V3.595H66.13l-5.32,7.98V3.595H57.73V17.614h2.624l5.32-8.028v8.028h2.6L77.728,3.595h1.486ZM103.3,13.791a6.83,6.83,0,0,1-6.063,4.182,4.338,4.338,0,0,1-4.433-5.44,6.662,6.662,0,0,1,6.363-5.344,4.266,4.266,0,0,1,4.541,4.242H100.65a1.785,1.785,0,0,0-1.929-1.426,2.936,2.936,0,0,0-2.864,2.552,1.953,1.953,0,0,0,1.929,2.576,2.876,2.876,0,0,0,2.4-1.342H103.3Z" transform="translate(11.443)" fill="#4db84d"/>
</svg>
