<svg xmlns="http://www.w3.org/2000/svg" width="55.907" height="60" viewBox="0 0 55.907 60">
  <g id="review_4_" data-name="review (4)" transform="translate(-2.5 -1.523)">
    <g id="Group_47332" data-name="Group 47332" transform="translate(2.5 1.523)">
      <path id="Path_124016" data-name="Path 124016" d="M53.706,17.655a1.035,1.035,0,0,0-.848,1.193A23.836,23.836,0,0,1,44.7,41.088,15.4,15.4,0,0,0,33.965,28.673a8.283,8.283,0,1,0-9.164,0A15.4,15.4,0,0,0,14.064,41.088a23.836,23.836,0,0,1-8.155-22.24A1.036,1.036,0,1,0,3.866,18.5a25.848,25.848,0,0,0,21.227,29.83.971.971,0,0,0,.17.014,1.035,1.035,0,0,0,.168-2.056,23.714,23.714,0,0,1-9.444-3.768,13.432,13.432,0,0,1,26.793,0,23.714,23.714,0,0,1-9.444,3.768,1.035,1.035,0,0,0,.168,2.056.971.971,0,0,0,.17-.014A25.848,25.848,0,0,0,54.9,18.5a1.031,1.031,0,0,0-1.194-.849ZM23.171,21.783a6.212,6.212,0,1,1,6.212,6.212A6.219,6.219,0,0,1,23.171,21.783Z" transform="translate(-1.429 11.299)" fill-rule="evenodd"/>
      <path id="Path_124017" data-name="Path 124017" d="M33.226,9.713a1.035,1.035,0,0,0-.836-.706l-6.615-.961-2.958-6a1.08,1.08,0,0,0-1.856,0L18,8.047l-6.615.961a1.037,1.037,0,0,0-.574,1.767L15.6,15.44l-1.13,6.588a1.035,1.035,0,0,0,1.5,1.092l5.917-3.112,5.917,3.112a1.023,1.023,0,0,0,.482.119,1.036,1.036,0,0,0,1.02-1.211l-1.13-6.588,4.787-4.665a1.037,1.037,0,0,0,.262-1.062Zm-6.884,4.623a1.038,1.038,0,0,0-.3.918l.867,5.057-4.542-2.388a1.034,1.034,0,0,0-.965,0l-4.542,2.388.867-5.057a1.038,1.038,0,0,0-.3-.918l-3.674-3.579,5.078-.738a1.038,1.038,0,0,0,.78-.566l2.271-4.6,2.271,4.6a1.038,1.038,0,0,0,.78.566l5.078.738-3.674,3.579Z" transform="translate(6.065 -1.523)" fill-rule="evenodd"/>
      <path id="Path_124018" data-name="Path 124018" d="M5.679,22.089a1.035,1.035,0,0,0,1.5,1.092l4.637-2.439,4.637,2.439a1.023,1.023,0,0,0,.482.119,1.036,1.036,0,0,0,1.02-1.211l-.886-5.162,3.752-3.656a1.037,1.037,0,0,0-.574-1.767l-5.185-.752-2.318-4.7a1.08,1.08,0,0,0-1.856,0l-2.318,4.7L3.387,11.5a1.037,1.037,0,0,0-.574,1.767l3.752,3.656Zm.082-8.837,3.647-.53a1.038,1.038,0,0,0,.78-.566L11.818,8.85l1.631,3.306a1.038,1.038,0,0,0,.78.566l3.647.53-2.639,2.57a1.038,1.038,0,0,0-.3.918l.623,3.632L12.3,18.657a1.034,1.034,0,0,0-.965,0L8.074,20.372,8.7,16.74a1.038,1.038,0,0,0-.3-.918l-2.639-2.57Z" transform="translate(-2.5 2.759)" fill-rule="evenodd"/>
      <path id="Path_124019" data-name="Path 124019" d="M38.249,11.5l-5.185-.752-2.318-4.7a1.08,1.08,0,0,0-1.856,0l-2.318,4.7-5.185.752a1.037,1.037,0,0,0-.574,1.767l3.752,3.656-.886,5.162a1.035,1.035,0,0,0,1.5,1.092l4.637-2.439,4.637,2.439a1.023,1.023,0,0,0,.482.119,1.036,1.036,0,0,0,1.02-1.211l-.886-5.162,3.752-3.656a1.036,1.036,0,0,0-.574-1.767Zm-5.013,4.319a1.038,1.038,0,0,0-.3.918l.623,3.632L30.3,18.657a1.034,1.034,0,0,0-.965,0l-3.262,1.715L26.7,16.74a1.038,1.038,0,0,0-.3-.918l-2.639-2.57,3.647-.53a1.038,1.038,0,0,0,.78-.566L29.818,8.85l1.631,3.306a1.038,1.038,0,0,0,.78.566l3.647.53Z" transform="translate(16.771 2.759)" fill-rule="evenodd"/>
    </g>
    <circle id="Ellipse_81" data-name="Ellipse 81" cx="1.035" cy="1.035" r="1.035" transform="translate(29.418 59.453)"/>
  </g>
</svg>
