<svg xmlns="http://www.w3.org/2000/svg" width="72.051" height="73.613" viewBox="0 0 72.051 73.613">
  <g id="Group_54884" data-name="Group 54884" transform="translate(-787.963 -559.3) rotate(-43)">
    <g id="Group_955" data-name="Group 955" transform="translate(154.57 951.399)">
      <g id="Group_911" data-name="Group 911" transform="translate(33.704 66.605)">
        <path id="Path_1312" data-name="Path 1312" d="M400.015,1410.885a24.624,24.624,0,0,1-.977,3.424,1.057,1.057,0,0,1-.336.537,1.079,1.079,0,0,1-.6.13l-10.307.177a.478.478,0,0,1-.281-.053.509.509,0,0,1-.154-.241c-.554-1.3-1.017-2.491-1.457-3.838l10.418-2.466Z" transform="translate(-385.9 -1408.553)" fill="#f7cb16"/>
      </g>
      <g id="Group_913" data-name="Group 913" transform="translate(43.119 45)">
        <g id="Group_912" data-name="Group 912">
          <path id="Path_1313" data-name="Path 1313" d="M460.386,1271.26a2.039,2.039,0,0,0,2.241.557,2.567,2.567,0,0,0,.952-2,28.215,28.215,0,0,0,.237-3.435,26.3,26.3,0,0,0-.092-2.992,1.831,1.831,0,0,0-.357-1.219,7.227,7.227,0,0,0-1.346-.739c-.552-.3-1.1-.677-1.684-.924a8.085,8.085,0,0,0-3.015-.208,13.223,13.223,0,0,0-2.375.176,3.975,3.975,0,0,0-3.149,2.858,36.2,36.2,0,0,0-1.144,4.882,2.344,2.344,0,0,0-.1,1.049,8.448,8.448,0,0,0,.784,1.442c.209.376.5,1.212.953,1.367a4.9,4.9,0,0,0,1.859-.2c2.162-.322,4.321-.334,6.5-.506.483-.038.487-.8,0-.758-1.769.14-3.576.067-5.332.321-.539.078-1.076.17-1.615.249-.264.038-.528.078-.793.109a1.182,1.182,0,0,0-.321.035c-.181.106-.155-.162.035.086a10.928,10.928,0,0,1-.8-1.385q-.187-.341-.372-.683a1.425,1.425,0,0,0-.159-.3c-.176-.177.07-.26-.048.121.289-.929.361-1.979.57-2.93.279-1.272.5-3.125,1.443-4.1,1-1.033,2.572-1.041,3.9-1.072q.79-.018,1.581.013a4.652,4.652,0,0,1,1.181.073,9.538,9.538,0,0,1,1.346.738c.475.26.943.543,1.428.783a1.122,1.122,0,0,1,.281.154c-.235-.251-.034.371-.014.567a27.6,27.6,0,0,1-.1,6.081c-.083.683-.2,1.953-1.164,1.7a2,2,0,0,1-.779-.454c-.362-.325-.9.209-.536.536Z" transform="translate(-450.523 -1260.265)" fill="#2e343d"/>
        </g>
      </g>
      <g id="Group_915" data-name="Group 915" transform="translate(24.946 45.708)">
        <g id="Group_914" data-name="Group 914">
          <path id="Path_1314" data-name="Path 1314" d="M329.169,1275.53a6.2,6.2,0,0,1-2.448-2.449,3.269,3.269,0,0,1,0-2.023c.166-.827.385-1.643.618-2.453q.224-.777.472-1.546c.041-.126.079-.254.124-.379-.156.429-.216.2-.1.163a2.052,2.052,0,0,0,.426-.325,1.894,1.894,0,0,1,1.392-.508c.826-.06,1.657-.108,2.485-.1a9.463,9.463,0,0,1,2.61.619c.544.168,1.063.378,1.594.577.224.084.23.159.192.032a1.607,1.607,0,0,1-.006.436c-.058,2.2-.177,4.417-.368,6.613-.015.168-.045.342-.051.51a.334.334,0,0,1-.015.08c.1-.314.167-.106-.054-.11a10.783,10.783,0,0,0-1.973.439,25.211,25.211,0,0,1-5.088.372.379.379,0,0,0,0,.758,25.725,25.725,0,0,0,5.136-.369c.69-.136,1.4-.255,2.072-.455.319-.094.536-.161.649-.487a4.866,4.866,0,0,0,.116-1.148c.051-.661.091-1.323.131-1.984.08-1.357.158-2.716.2-4.075a1.861,1.861,0,0,0-.055-.87c-.183-.349-.721-.5-1.058-.636a18.071,18.071,0,0,0-3.392-1.026,10.7,10.7,0,0,0-2.32.014,4.935,4.935,0,0,0-2.063.269,3.686,3.686,0,0,0-1.169.954,5.746,5.746,0,0,0-.4,1.259c-.288.947-.558,1.9-.768,2.87a5.062,5.062,0,0,0-.159,2.474,6.372,6.372,0,0,0,2.894,3.157c.417.257.8-.4.383-.655Z" transform="translate(-325.789 -1265.124)" fill="#2e343d"/>
        </g>
      </g>
      <g id="Group_916" data-name="Group 916" transform="translate(33.436 47.471)">
        <path id="Path_1315" data-name="Path 1315" d="M384.386,1282.937a15.548,15.548,0,0,1-.308-3.83s8.5-1.885,8.817-1.885,3.771,1.057,3.771,1.057l.442-.277.117,1.51a24.8,24.8,0,0,0,.267,3.734s-.047,1.478-2.406,1.453-9.205-.252-9.606-.353S384.386,1282.937,384.386,1282.937Z" transform="translate(-384.064 -1277.222)" fill="#f7cb16"/>
      </g>
      <g id="Group_917" data-name="Group 917" transform="translate(36.777 26.852)">
        <path id="Path_1316" data-name="Path 1316" d="M407.154,1140.8a33.343,33.343,0,0,1-.1-5.095h5.655c.2,1.207.233,3.788.4,4.9,0,0-3.157.181-3.746.192S407.154,1140.8,407.154,1140.8Z" transform="translate(-406.992 -1135.701)" fill="#2e343d"/>
      </g>
      <g id="Group_918" data-name="Group 918" transform="translate(31.067 17.574)">
        <path id="Path_1317" data-name="Path 1317" d="M385.322,1072.311a12.689,12.689,0,0,1-.131,2.268,8.391,8.391,0,0,1-1.733,4.258,7.919,7.919,0,0,1-4.852,3.044,13.568,13.568,0,0,1-4.106-.1,7.687,7.687,0,0,1-2.639-1.056,8.828,8.828,0,0,1-3.618-4.682,9.607,9.607,0,0,1-.371-4.019s4.52,1.673,6.458,2.272,7.92,0,7.92,0Z" transform="translate(-367.806 -1072.021)" fill="#2dc7e0"/>
      </g>
      <g id="Group_919" data-name="Group 919" transform="translate(31.134 13.482)">
        <path id="Path_1318" data-name="Path 1318" d="M381.751,1044.621a14.7,14.7,0,0,0-11.73,1.207,3.324,3.324,0,0,0-1.717,1.938c-.258,1.2.71,2.3,1.732,2.987,1.462.977,4.146,1.427,6.373,1.42a20.329,20.329,0,0,0,6.46-.923c1.149-.409,2.369-1,2.744-2.156a2.659,2.659,0,0,0-.09-1.684C384.992,1045.9,383.385,1045.111,381.751,1044.621Z" transform="translate(-368.262 -1043.937)" fill="#2e343d"/>
      </g>
      <g id="Group_921" data-name="Group 921" transform="translate(33.907 10.611)">
        <g id="Group_920" data-name="Group 920">
          <path id="Path_1319" data-name="Path 1319" d="M392.214,1024.287a6.168,6.168,0,0,0-.969,1.646q-.688,1.221-1.373,2.442a44.917,44.917,0,0,0-2.559,4.675c-.1.235.254.336.382.161a43.061,43.061,0,0,0,2.527-4.441q.6-1.079,1.2-2.161c.213-.384.428-.768.639-1.153a3.654,3.654,0,0,1,.466-.856c.208-.2-.1-.5-.312-.312Z" transform="translate(-387.295 -1024.23)" fill="#f7cb16"/>
        </g>
      </g>
      <g id="Group_923" data-name="Group 923" transform="translate(39.637 11.13)">
        <g id="Group_922" data-name="Group 922">
          <path id="Path_1320" data-name="Path 1320" d="M426.681,1028c-.022,1.417-.037,2.834-.034,4.251a28,28,0,0,0,.095,3.974c.034.229.35.142.372-.051a35.11,35.11,0,0,0,.01-4.087c0-1.362-.007-2.725,0-4.087a.222.222,0,0,0-.444,0Z" transform="translate(-426.624 -1027.788)" fill="#f7cb16"/>
        </g>
      </g>
      <g id="Group_925" data-name="Group 925" transform="translate(41.145 10.77)">
        <g id="Group_924" data-name="Group 924">
          <path id="Path_1321" data-name="Path 1321" d="M437,1025.646q1.139,2.182,2.347,4.326a36.852,36.852,0,0,0,2.7,4.538.224.224,0,0,0,.386-.226c-.735-1.574-1.8-3.051-2.667-4.557q-1.232-2.13-2.395-4.3c-.13-.244-.5-.028-.371.217Z" transform="translate(-436.974 -1025.322)" fill="#f7cb16"/>
        </g>
      </g>
      <g id="Group_926" data-name="Group 926" transform="translate(31.192 31.533)">
        <path id="Path_1322" data-name="Path 1322" d="M369.065,1168.17c5.571-.045,10.677.069,16.1-.337a.4.4,0,0,1,.435.4l.081,17.028a.406.406,0,0,1-.388.407q-7.754.33-15.52.167a.405.405,0,0,1-.4-.388l-.72-16.855A.406.406,0,0,1,369.065,1168.17Z" transform="translate(-368.662 -1167.831)" fill="#2dc7e0"/>
      </g>
      <g id="Group_927" data-name="Group 927" transform="translate(32.236 53.213)">
        <path id="Path_1323" data-name="Path 1323" d="M375.959,1316.636c5.253.069,10.594.1,15.846.166.344,5.1.557,10.122.9,15.224a.318.318,0,0,1-.362.417c-2.325.145-4.552.088-6.881.1-2.909.013-5.778.06-8.63.144a.338.338,0,0,1-.348-.32c-.284-5.172-.545-10.422-.661-15.594A.133.133,0,0,1,375.959,1316.636Z" transform="translate(-375.825 -1316.636)" fill="#2dc7e0"/>
      </g>
      <g id="Group_928" data-name="Group 928" transform="translate(52.717 42.655)">
        <path id="Path_1324" data-name="Path 1324" d="M517.021,1259.117c9.156,0,18.55-.719,27.1-.7q-.247-7.123-.494-14.247l-27.227.595C516.508,1249.488,516.841,1254.364,517.021,1259.117Z" transform="translate(-516.404 -1244.166)" fill="#c1beb0"/>
      </g>
      <g id="Group_930" data-name="Group 930" transform="translate(57.695 43.242)">
        <g id="Group_929" data-name="Group 929">
          <path id="Path_1325" data-name="Path 1325" d="M550.569,1248.411q.286,3.506.342,7.026c.037,2.342-.174,4.7-.1,7.033.007.217.366.29.4.054a47.02,47.02,0,0,0,.184-6.924c-.033-2.4-.164-4.8-.373-7.19-.025-.284-.471-.288-.447,0Z" transform="translate(-550.568 -1248.197)" fill="#494948"/>
        </g>
      </g>
      <g id="Group_932" data-name="Group 932" transform="translate(62.701 43.015)">
        <g id="Group_931" data-name="Group 931">
          <path id="Path_1326" data-name="Path 1326" d="M584.926,1246.829c.2,2.365.368,4.735.447,7.108s-.074,4.759.042,7.122a.19.19,0,0,0,.379,0,54.338,54.338,0,0,0-.012-7.122c-.082-2.374-.227-4.744-.462-7.108-.025-.249-.416-.254-.394,0Z" transform="translate(-584.925 -1246.64)" fill="#494948"/>
        </g>
      </g>
      <g id="Group_934" data-name="Group 934" transform="translate(69.007 43.343)">
        <g id="Group_933" data-name="Group 933">
          <path id="Path_1327" data-name="Path 1327" d="M628.418,1249.025c-.294,2.092.094,4.281.115,6.387.023,2.275-.145,4.525-.318,6.791-.021.275.387.261.421,0a48.5,48.5,0,0,0,.318-6.46q-.011-1.577-.106-3.151a17.269,17.269,0,0,1-.064-3.467c.034-.239-.332-.342-.366-.1Z" transform="translate(-628.214 -1248.887)" fill="#494948"/>
        </g>
      </g>
      <g id="Group_936" data-name="Group 936" transform="translate(74.809 42.66)">
        <g id="Group_935" data-name="Group 935">
          <path id="Path_1328" data-name="Path 1328" d="M668.477,1244.34a10.711,10.711,0,0,0-.085,3.061c.088,1.162.115,2.328.112,3.493a69.735,69.735,0,0,1-.469,6.969c-.022.217.351.27.384.052a47.049,47.049,0,0,0,.46-6.522c.013-1.11-.015-2.218-.059-3.327a15.3,15.3,0,0,1,.029-3.623c.048-.242-.32-.346-.371-.1Z" transform="translate(-668.033 -1244.202)" fill="#494948"/>
        </g>
      </g>
      <g id="Group_938" data-name="Group 938" transform="translate(53.023 49.739)">
        <g id="Group_937" data-name="Group 937">
          <path id="Path_1329" data-name="Path 1329" d="M518.7,1293.6c8.821.106,17.639-.057,26.454-.374.28-.01.28-.448,0-.436-8.811.391-17.635.484-26.454.395a.208.208,0,0,0,0,.415Z" transform="translate(-518.5 -1292.793)" fill="#494948"/>
        </g>
      </g>
      <g id="Group_939" data-name="Group 939" transform="translate(0.197 43.152)">
        <path id="Path_1330" data-name="Path 1330" d="M184.031,1262.751c-8.7,0-17.648-.848-26.509-.514a1.533,1.533,0,0,1-1.324-.378,1.5,1.5,0,0,1-.213-.88,130.1,130.1,0,0,1,.283-13.4c7.485.115,15.577.26,23.062.375,1.481.023,3.124.191,4.548.217-.058,1.153-.07,2.278-.049,3.417Z" transform="translate(-155.926 -1247.579)" fill="#c1beb0"/>
      </g>
      <g id="Group_941" data-name="Group 941" transform="translate(5.263 43.267)">
        <g id="Group_940" data-name="Group 940">
          <path id="Path_1331" data-name="Path 1331" d="M190.819,1248.554c-.133,2.342-.156,4.69-.1,7.034a47.646,47.646,0,0,0,.414,6.747c.037.216.383.163.378-.051-.052-2.283-.364-4.568-.417-6.859s0-4.581.1-6.87c.011-.245-.365-.243-.379,0Z" transform="translate(-190.691 -1248.371)" fill="#494948"/>
        </g>
      </g>
      <g id="Group_943" data-name="Group 943" transform="translate(11.144 43.754)">
        <g id="Group_942" data-name="Group 942">
          <path id="Path_1332" data-name="Path 1332" d="M231.27,1251.908a74.345,74.345,0,0,0,.163,13.145c.029.235.385.251.379,0-.055-2.191-.243-4.376-.266-6.57s.023-4.385.132-6.575c.013-.263-.394-.262-.409,0Z" transform="translate(-231.061 -1251.711)" fill="#494948"/>
        </g>
      </g>
      <g id="Group_945" data-name="Group 945" transform="translate(17.666 43.834)">
        <g id="Group_944" data-name="Group 944">
          <path id="Path_1333" data-name="Path 1333" d="M275.927,1252.463c-.043,4.325-.058,8.651-.1,12.976a.2.2,0,0,0,.4,0c.031-4.325.091-8.651.123-12.976a.21.21,0,0,0-.421,0Z" transform="translate(-275.825 -1252.26)" fill="#494948"/>
        </g>
      </g>
      <g id="Group_947" data-name="Group 947" transform="translate(22.941 43.679)">
        <g id="Group_946" data-name="Group 946">
          <path id="Path_1334" data-name="Path 1334" d="M312.145,1251.383c-.068,2.331-.088,4.663-.083,6.995a69.86,69.86,0,0,0,.112,6.995.19.19,0,0,0,.379,0c.13-2.311-.067-4.677-.07-6.995s.025-4.663.053-6.995a.2.2,0,0,0-.391,0Z" transform="translate(-312.03 -1251.194)" fill="#494948"/>
        </g>
      </g>
      <g id="Group_949" data-name="Group 949" transform="translate(0 50.372)">
        <g id="Group_948" data-name="Group 948">
          <path id="Path_1335" data-name="Path 1335" d="M154.793,1297.865c9.212-.137,18.424-.152,27.636-.273a.222.222,0,0,0,0-.444c-9.209-.057-18.428.105-27.636.255a.231.231,0,0,0,0,.462Z" transform="translate(-154.57 -1297.136)" fill="#494948"/>
        </g>
      </g>
      <g id="Group_951" data-name="Group 951" transform="translate(37.812 4.426)">
        <g id="Group_950" data-name="Group 950">
          <path id="Path_1336" data-name="Path 1336" d="M414.427,983.179a3.251,3.251,0,0,1,4.532-.112c.2.151.458-.089.279-.279a3.564,3.564,0,0,0-5.083.118.193.193,0,0,0,.272.272Z" transform="translate(-414.098 -981.778)" fill="#2c2d30"/>
        </g>
      </g>
      <g id="Group_953" data-name="Group 953" transform="translate(35.639 0)">
        <g id="Group_952" data-name="Group 952">
          <path id="Path_1337" data-name="Path 1337" d="M399.527,953.432A6.273,6.273,0,0,1,404,951.778a9.46,9.46,0,0,1,4.817,1.771c.2.125.446-.182.255-.33-2.832-2.2-7.078-2.613-9.821-.065-.186.173.093.451.279.279Z" transform="translate(-399.187 -951.399)" fill="#2c2d30"/>
        </g>
      </g>
      <g id="Group_954" data-name="Group 954" transform="translate(38.327 8.121)">
        <path id="Path_1338" data-name="Path 1338" d="M420.185,1007.328a1.811,1.811,0,0,0-2.366.739,1.763,1.763,0,0,0,3.093,1.693,1.621,1.621,0,0,0,.008-1.593A2.053,2.053,0,0,0,420.185,1007.328Z" transform="translate(-417.631 -1007.139)" fill="#f7cb16"/>
      </g>
    </g>
    <g id="Group_957" data-name="Group 957" transform="translate(189.31 1016.211)">
      <g id="Group_956" data-name="Group 956">
        <path id="Path_1339" data-name="Path 1339" d="M393.013,1396.368c-.012,1.021.012,2.041,0,3.061a.126.126,0,0,0,.251,0c.012-1.02-.012-2.041,0-3.061a.126.126,0,0,0-.251,0Z" transform="translate(-393.01 -1396.247)" fill="#2c2d30"/>
      </g>
    </g>
    <g id="Group_959" data-name="Group 959" transform="translate(192.113 1016.382)">
      <g id="Group_958" data-name="Group 958" transform="translate(0 0)">
        <path id="Path_1340" data-name="Path 1340" d="M412.249,1397.546q.044,1.443.088,2.885c.005.161.256.162.251,0q-.044-1.443-.088-2.885c0-.161-.256-.162-.251,0Z" transform="translate(-412.249 -1397.424)" fill="#2c2d30"/>
      </g>
    </g>
    <g id="Group_961" data-name="Group 961" transform="translate(195.203 1016.383)">
      <g id="Group_960" data-name="Group 960" transform="translate(0 0)">
        <path id="Path_1341" data-name="Path 1341" d="M433.461,1397.547q.069,1.442.048,2.885a.125.125,0,0,0,.251,0q.021-1.443-.048-2.885c-.008-.161-.259-.162-.251,0Z" transform="translate(-433.461 -1397.426)" fill="#2c2d30"/>
      </g>
    </g>
    <g id="Group_963" data-name="Group 963" transform="translate(198.344 1016.154)">
      <g id="Group_962" data-name="Group 962">
        <path id="Path_1342" data-name="Path 1342" d="M455.017,1395.977a15.291,15.291,0,0,1,.07,3.19c-.013.161.238.16.251,0a15.3,15.3,0,0,0-.07-3.19c-.02-.158-.271-.16-.251,0Z" transform="translate(-455.016 -1395.858)" fill="#2c2d30"/>
      </g>
    </g>
    <g id="Group_965" data-name="Group 965" transform="translate(201.041 1016.085)">
      <g id="Group_964" data-name="Group 964" transform="translate(0)">
        <path id="Path_1343" data-name="Path 1343" d="M473.528,1395.5q.019,1.518.039,3.035a.125.125,0,0,0,.251,0q-.02-1.517-.039-3.035a.125.125,0,0,0-.251,0Z" transform="translate(-473.528 -1395.379)" fill="#2c2d30"/>
      </g>
    </g>
    <g id="Group_967" data-name="Group 967" transform="translate(185.942 986.593)">
      <g id="Group_966" data-name="Group 966" transform="translate(0 0)">
        <path id="Path_1344" data-name="Path 1344" d="M369.99,1193.739c1.356-.958,2.519.234,3.925.28s2.634-.908,4.032-.709c1.293.183,2.219,1.028,3.586.681.7-.178,1.333-.561,2.036-.729a3.919,3.919,0,0,1,2.9.761.158.158,0,0,0,.159-.272,4.086,4.086,0,0,0-4.028-.446,3.92,3.92,0,0,1-3,.306,6.018,6.018,0,0,0-2.019-.582c-1.668-.012-3,1.072-4.7.489-.876-.3-2.344-.934-2.976.137-.03.051.033.124.086.086Z" transform="translate(-369.897 -1192.958)" fill="#0290a8"/>
      </g>
    </g>
    <g id="Group_969" data-name="Group 969" transform="translate(186.329 995.793)">
      <g id="Group_968" data-name="Group 968" transform="translate(0 0)">
        <path id="Path_1345" data-name="Path 1345" d="M372.643,1256.89c1.331-.958,2.467.241,3.848.28,1.43.041,2.709-1.01,4.155-.675,1.255.29,2.065,1,3.415.608.631-.183,1.205-.534,1.844-.691a3.755,3.755,0,0,1,2.825.761.158.158,0,0,0,.159-.273,3.891,3.891,0,0,0-3.831-.491,3.97,3.97,0,0,1-2.91.4,7.2,7.2,0,0,0-1.984-.628c-1.667-.075-3,1.082-4.7.489-.858-.3-2.3-.932-2.908.137-.029.051.033.124.086.086Z" transform="translate(-372.55 -1256.102)" fill="#0290a8"/>
      </g>
    </g>
    <g id="Group_971" data-name="Group 971" transform="translate(186.115 991.412)">
      <g id="Group_970" data-name="Group 970" transform="translate(0 0)">
        <path id="Path_1346" data-name="Path 1346" d="M371.2,1227.024c1.541-.836,2.815-.027,4.371.206,1.257.188,2.363-.339,3.571-.571,1.312-.252,2.5.415,3.816.167,1.65-.31,2.987-.932,4.582.028.152.091.288-.143.139-.237a4.288,4.288,0,0,0-3.586-.355,5.744,5.744,0,0,1-2.762.306,5.123,5.123,0,0,0-1.972-.208c-.692.1-1.352.347-2.03.508a5.337,5.337,0,0,1-2.836-.168c-1.08-.306-2.475-.685-3.389.2a.081.081,0,0,0,.1.127Z" transform="translate(-371.082 -1226.035)" fill="#0290a8"/>
      </g>
    </g>
    <g id="Group_973" data-name="Group 973" transform="translate(189.341 1022.363)">
      <g id="Group_972" data-name="Group 972">
        <path id="Path_1347" data-name="Path 1347" d="M393.909,1439.093l5.238.052c1.737.017,3.507-.058,5.238.088v-.361c-1.868.006-3.739.245-5.6.349-.879.049-1.758.078-2.637.111a7.441,7.441,0,0,1-2.771-.183v.234a15.226,15.226,0,0,1,3.063-.3c.925-.056,1.851-.094,2.777-.127,1.852-.067,3.717.055,5.564-.037a.188.188,0,0,0,0-.375,39.259,39.259,0,0,0-5.728.085c-.927.051-1.853.129-2.777.22a21.625,21.625,0,0,1-2.932.29.123.123,0,0,0-.061.227,3.36,3.36,0,0,0,1.875.267c1.044-.056,2.087-.137,3.132-.186,2.028-.1,4.077-.028,6.1-.22.228-.022.234-.376,0-.361-1.733.12-3.5.018-5.238.01l-5.238-.026a.119.119,0,0,0,0,.237Z" transform="translate(-393.222 -1438.469)" fill="#fff"/>
      </g>
    </g>
  </g>
</svg>
