<svg id="delivery-time" xmlns="http://www.w3.org/2000/svg" width="60" height="60" viewBox="0 0 60 60">
  <g id="Group_47317" data-name="Group 47317" transform="translate(15.235 9.455)">
    <path id="Path_124001" data-name="Path 124001" d="M23.705,18.582V11.309a.909.909,0,1,0-1.818,0v7.273a3.713,3.713,0,0,0-2.818,3.636,4.1,4.1,0,0,0,1.091,2.727l-3.273,5.545a.936.936,0,1,0,1.636.909L21.8,25.855a4.563,4.563,0,0,0,1.091.182,3.744,3.744,0,0,0,3.727-3.727A3.938,3.938,0,0,0,23.705,18.582ZM22.8,24.127a1.909,1.909,0,1,1,1.909-1.909A1.983,1.983,0,0,1,22.8,24.127Z" transform="translate(-16.759 -10.4)"/>
  </g>
  <g id="Group_47318" data-name="Group 47318" transform="translate(20.364 3.455)">
    <path id="Path_124002" data-name="Path 124002" d="M23.309,7.436a.859.859,0,0,0,.909-.909V4.709a.909.909,0,1,0-1.818,0V6.527A.911.911,0,0,0,23.309,7.436Z" transform="translate(-22.4 -3.8)"/>
  </g>
  <g id="Group_47319" data-name="Group 47319" transform="translate(20.364 35.364)">
    <path id="Path_124003" data-name="Path 124003" d="M23.309,38.9a.859.859,0,0,0-.909.909v1.818a.909.909,0,1,0,1.818,0V39.809A.978.978,0,0,0,23.309,38.9Z" transform="translate(-22.4 -38.9)"/>
  </g>
  <g id="Group_47320" data-name="Group 47320" transform="translate(3.455 20.364)">
    <path id="Path_124004" data-name="Path 124004" d="M7.436,23.309a.859.859,0,0,0-.909-.909H4.709a.909.909,0,1,0,0,1.818H6.527A.978.978,0,0,0,7.436,23.309Z" transform="translate(-3.8 -22.4)"/>
  </g>
  <g id="Group_47321" data-name="Group 47321" transform="translate(35.364 20.364)">
    <path id="Path_124005" data-name="Path 124005" d="M38.9,23.309a.859.859,0,0,0,.909.909h1.818a.909.909,0,1,0,0-1.818H39.809A.911.911,0,0,0,38.9,23.309Z" transform="translate(-38.9 -22.4)"/>
  </g>
  <g id="Group_47322" data-name="Group 47322" transform="translate(5.639 11.781)">
    <path id="Path_124006" data-name="Path 124006" d="M6.655,14.724l1.636.909A.936.936,0,1,0,9.2,14l-1.636-.909a.92.92,0,0,0-1.273.364C6.109,14,6.2,14.542,6.655,14.724Z" transform="translate(-6.203 -12.959)"/>
  </g>
  <g id="Group_47323" data-name="Group 47323" transform="translate(11.872 33.326)">
    <path id="Path_124007" data-name="Path 124007" d="M15.369,36.787a.92.92,0,0,0-1.273.364l-.909,1.636a.936.936,0,1,0,1.636.909l.909-1.636A1.007,1.007,0,0,0,15.369,36.787Z" transform="translate(-13.059 -36.659)"/>
  </g>
  <g id="Group_47324" data-name="Group 47324" transform="translate(27.821 5.599)">
    <path id="Path_124008" data-name="Path 124008" d="M31.055,9.56A.92.92,0,0,0,32.328,9.2l.909-1.636A.936.936,0,1,0,31.6,6.651l-.909,1.636a1.007,1.007,0,0,0,.364,1.273Z" transform="translate(-30.603 -6.159)"/>
  </g>
  <g id="Group_47325" data-name="Group 47325" transform="translate(11.665 5.756)">
    <path id="Path_124009" data-name="Path 124009" d="M15.166,9.666a.894.894,0,0,0,.273-1.273L14.53,6.757a.92.92,0,1,0-1.545,1l.909,1.636A.979.979,0,0,0,15.166,9.666Z" transform="translate(-12.831 -6.331)"/>
  </g>
  <g id="Group_47326" data-name="Group 47326" transform="translate(5.756 28.028)">
    <path id="Path_124010" data-name="Path 124010" d="M8.394,30.985l-1.636.909a.92.92,0,0,0,1,1.545l1.636-.909a.92.92,0,1,0-1-1.545Z" transform="translate(-6.331 -30.831)"/>
  </g>
  <g id="Group_47327" data-name="Group 47327" transform="translate(33.21 11.756)">
    <path id="Path_124011" data-name="Path 124011" d="M37.957,15.539l1.636-.909a.92.92,0,0,0-1-1.545l-1.636.909a.894.894,0,0,0-.273,1.273A1.094,1.094,0,0,0,37.957,15.539Z" transform="translate(-36.531 -12.931)"/>
  </g>
  <g id="Group_47328" data-name="Group 47328" transform="translate(36.273)">
    <path id="Path_124012" data-name="Path 124012" d="M40.809,1.818H56.536V23.636l-3.727-3.727a.9.9,0,0,0-1.273,1.273l5.273,5.273a.879.879,0,0,0,1.273,0l5.273-5.273a.9.9,0,1,0-1.273-1.273l-3.727,3.727V.909A.859.859,0,0,0,57.445,0H40.809A.859.859,0,0,0,39.9.909.911.911,0,0,0,40.809,1.818Z" transform="translate(-39.9)"/>
  </g>
  <g id="Group_47329" data-name="Group 47329" transform="translate(0 0)">
    <path id="Path_124013" data-name="Path 124013" d="M59.364,33.091c-.182-.091-16.909-9.273-17.091-9.273.091-.909.182-1.727.182-2.545A21.227,21.227,0,1,0,21.182,42.545a19.422,19.422,0,0,0,3.091-.273v6.182a.81.81,0,0,0,.455.727L41.545,59.818c.182.091.273.182.455.182a3.937,3.937,0,0,0,.455-.091l17-9a.955.955,0,0,0,.455-.818V33.909a.874.874,0,0,0-.545-.818Zm-2.273.818-4,2.182L38,27.818l4-2.091Zm-7.636,4.636L33.818,30l2.273-1.273,16.091,8.818v4.545L50,43.455V39.364a.921.921,0,0,0-.545-.818Zm-7.364,3.545-15-8.455,4.818-2.545,15.273,8.273ZM21.182,40.636A19.409,19.409,0,1,1,40.636,21.273a21.633,21.633,0,0,1-.273,3.273s-15.455,8.273-15.636,8.273a1.085,1.085,0,0,0-.455.818v6.818c-1.091.091-2.182.182-3.091.182Zm4.909,7.273V35.182l15,8.455V57.455Zm16.818,9.636V43.727l5.182-2.818V45a.955.955,0,0,0,.455.818.826.826,0,0,0,.909,0l4.091-2.273A.955.955,0,0,0,54,42.727V37.636l4-2.182V49.545Z" transform="translate(0 0)"/>
  </g>
  <g id="Group_47330" data-name="Group 47330" transform="translate(27.781 40.599)">
    <path id="Path_124014" data-name="Path 124014" d="M41.869,50.514,31.96,44.787a.936.936,0,0,0-.909,1.636L40.96,52.06a.92.92,0,0,0,1.273-.364.994.994,0,0,0-.364-1.182Z" transform="translate(-30.559 -44.659)"/>
  </g>
  <g id="Group_47331" data-name="Group 47331" transform="translate(27.69 44.235)">
    <path id="Path_124015" data-name="Path 124015" d="M41.769,54.605,31.86,48.787a.936.936,0,0,0-.909,1.636l9.909,5.727a.92.92,0,0,0,1.273-.364A.958.958,0,0,0,41.769,54.605Z" transform="translate(-30.459 -48.659)"/>
  </g>
</svg>
