<svg xmlns="http://www.w3.org/2000/svg" width="26.399" height="30" viewBox="0 0 26.399 30">
  <g id="Group_55068" data-name="Group 55068" transform="translate(-298.573 -4511.19)">
    <path id="Path_3092" data-name="Path 3092" d="M105.49,27.934c.206-4.851,2.8-9.562,8.562-12.216a16.011,16.011,0,0,1,17.563,3.262c.271.28.308.449,0,.738-1.327,1.3-2.654,2.617-3.954,3.954-.458.477-.692.075-.935-.168a8.908,8.908,0,0,0-6.8-2.449,8.048,8.048,0,0,0-7.777,9.347,7.749,7.749,0,0,0,5.543,6.935,8.412,8.412,0,0,0,8.889-2.01c.57-.551.869-.486,1.374.047,1.168,1.224,2.411,2.393,3.627,3.57.28.271.477.43.075.841a15.759,15.759,0,0,1-20.4,1.608C107.621,38.674,105.49,34.253,105.49,27.934Z" transform="translate(193.083 4496.788)" fill="#fff"/>
    <path id="Path_3093" data-name="Path 3093" d="M116,30.084a4.935,4.935,0,0,1,4.982-4.944A4.97,4.97,0,1,1,116,30.084Z" transform="translate(192.396 4496.086)" fill="#fff"/>
  </g>
</svg>
