<svg id="Group_55059" data-name="Group 55059" xmlns="http://www.w3.org/2000/svg" width="20.24" height="30" viewBox="0 0 20.24 30">
  <path id="Path_90551" data-name="Path 90551" d="M10.059,29.05c-.061,0-.061-.055,0,0l-.307-.164-.061-.055-7.238-4.6s-.061,0-.061-.055l-.123-.109-.061-.055H2.085L0,22.7l4.109.547a1.243,1.243,0,0,1,.429.109.669.669,0,0,1,.184.055,2.147,2.147,0,0,1,.368.164c.123.055.184.109.307.164.061.055.184.109.184.164.061.055.123.055.184.109q.184.082.184.164a3.532,3.532,0,0,0,.491.438l3.251,4.106.061.055.307.274" transform="translate(0 -10.328)" fill="#fff"/>
  <path id="Path_90552" data-name="Path 90552" d="M10.1,35.4l-.307-.438-.061-.055L.1,22.7l2.085,1.314.368.219,7.238,4.6h.061L10.1,29s.061,0,.061.055l.307-.219L20.218,22.7,10.4,34.962l-.061.055L10.1,35.4" transform="translate(-0.039 -10.328)" fill="#fff"/>
  <g id="Group_52949" data-name="Group 52949" transform="translate(7.299 12.317)">
    <path id="Path_90553" data-name="Path 90553" d="M14.66,27.6l-.307-.438-.061-.055L11.9,24.155l2.392.438h.061l.307.055.307-.055L17.3,24.1l-2.331,3.066v.055l-.307.383" transform="translate(-11.9 -23.279)" fill="#fff"/>
    <path id="Path_90554" data-name="Path 90554" d="M26.582,22.6l-3.067.383-1.165.164a3.451,3.451,0,0,0-2.331,1.259l-3.251,4.16-.061.055L16.4,29l.368-.328.061-.055L16.4,29l8.28-5.255,1.9-1.15" transform="translate(-13.64 -22.6)" fill="#fff"/>
  </g>
  <g id="Group_52950" data-name="Group 52950" transform="translate(5.581)">
    <path id="Path_90555" data-name="Path 90555" d="M15.111,3.768c0,2.409-4.661,3.668-4.661,6.241a3,3,0,0,0,.429,1.752S9.1,10.227,9.1,8.585s1.717-4.106,1.717-4.106c0,1.095.491,1.423.981,1.478h.061a.833.833,0,0,0,.859-.931c0-.547-.675-1.095-.675-2.19C12.044,1.8,13.516.1,13.516.1a5.3,5.3,0,0,1,1.595,3.668" transform="translate(-9.1 -0.1)" fill="#fff"/>
    <path id="Path_90556" data-name="Path 90556" d="M15.176,15.2A2.426,2.426,0,0,1,12.6,12.9v-.055c0-2.792,4.355-3.066,4.355-6.843a5.676,5.676,0,0,1,1.288,3.12c0,1.916-2.024,2.409-2.024,3.339,0,.383.184.657.8.657a.243.243,0,0,0,.184-.055,2.975,2.975,0,0,0,2.024-2.573c0,.055.613,4.708-4.048,4.708" transform="translate(-10.453 -2.77)" fill="#fff"/>
  </g>
  <g id="Group_52951" data-name="Group 52951" transform="translate(0.797)">
    <path id="Path_90557" data-name="Path 90557" d="M18.2,13.117a.243.243,0,0,0,.184-.055c-.613.164-2.883.657-2.883-.766,0-1.752,3.373-2.135,3.373-3.613A4.763,4.763,0,0,0,18.076,6a5.676,5.676,0,0,1,1.288,3.12c0,1.916-2.024,2.409-2.024,3.339a.754.754,0,0,0,.859.657" transform="translate(-6.79 -2.77)" fill="#fff"/>
    <path id="Path_90558" data-name="Path 90558" d="M15.585,4.753c0,1.369-1.963,1.259-2.085,1.2h.184a.833.833,0,0,0,.859-.931c0-.547-.675-1.095-.675-2.19C13.868,1.8,15.34.1,15.34.1a4.547,4.547,0,0,0-.8,2.244c0,1.259,1.043,1.369,1.043,2.409" transform="translate(-6.017 -0.1)" fill="#fff"/>
    <path id="Path_90559" data-name="Path 90559" d="M14.049,50.4,12.7,49.578h1.656l.552-1.478.491,1.478h1.656l-1.349.821.491,1.423-1.349-.876-1.411.876.613-1.423" transform="translate(-5.708 -21.823)" fill="#fff"/>
    <path id="Path_90560" data-name="Path 90560" d="M25.549,50.4,24.2,49.578h1.656l.552-1.478.491,1.478h1.656l-1.349.821.491,1.423-1.349-.876-1.411.876.613-1.423" transform="translate(-10.154 -21.823)" fill="#fff"/>
    <path id="Path_90561" data-name="Path 90561" d="M2.649,50.4,1.3,49.578H2.956L3.508,48.1,4,49.578H5.655L4.305,50.4,4.8,51.823l-1.349-.876L2.1,51.823,2.649,50.4" transform="translate(-1.3 -21.823)" fill="#fff"/>
  </g>
</svg>
