<svg xmlns="http://www.w3.org/2000/svg" width="26.704" height="20.001" viewBox="0 0 26.704 20.001">
  <g id="email_2_" data-name="email (2)" transform="translate(0 -64.266)">
    <path id="Path_124020" data-name="Path 124020" d="M15.584,178.823a4.016,4.016,0,0,1-4.463,0l-10.942-7.3c-.061-.04-.12-.083-.178-.126v11.954a2.457,2.457,0,0,0,2.458,2.458H24.245a2.457,2.457,0,0,0,2.458-2.458V171.4c-.058.044-.117.086-.178.126Z" transform="translate(0 -101.548)" fill="#fff"/>
    <path id="Path_124021" data-name="Path 124021" d="M1.046,68.678l10.942,7.3a2.452,2.452,0,0,0,2.727,0l10.942-7.3A2.343,2.343,0,0,0,26.7,66.723a2.46,2.46,0,0,0-2.457-2.457H2.457A2.461,2.461,0,0,0,0,66.725a2.342,2.342,0,0,0,1.046,1.953Z" fill="#fff"/>
  </g>
</svg>
