<svg xmlns="http://www.w3.org/2000/svg" xmlns:xlink="http://www.w3.org/1999/xlink" width="216.969" height="55.334" viewBox="0 0 216.969 55.334">
  <defs>
    <clipPath id="clip-path">
      <rect id="Rectangle_2579" data-name="Rectangle 2579" width="216.969" height="55.334" fill="#fff"/>
    </clipPath>
  </defs>
  <g id="google-review-new" clip-path="url(#clip-path)">
    <path id="Path_82267" data-name="Path 82267" d="M78.769,23.249a1.01,1.01,0,0,1,1.921,0L82.1,27.585a1.01,1.01,0,0,0,.961.7h4.559a1.01,1.01,0,0,1,.594,1.827l-3.689,2.68a1.01,1.01,0,0,0-.367,1.129l1.409,4.336a1.01,1.01,0,0,1-1.554,1.129L80.323,36.7a1.01,1.01,0,0,0-1.187,0l-3.689,2.68a1.01,1.01,0,0,1-1.554-1.129L75.3,33.919a1.01,1.01,0,0,0-.367-1.129l-3.689-2.68a1.01,1.01,0,0,1,.594-1.827H76.4a1.01,1.01,0,0,0,.961-.7Z" transform="translate(32.309 10.287)" fill="#ef4335"/>
    <path id="Path_82268" data-name="Path 82268" d="M93.8,23.249a1.01,1.01,0,0,1,1.921,0l1.409,4.336a1.01,1.01,0,0,0,.961.7h4.559a1.01,1.01,0,0,1,.594,1.827l-3.689,2.68a1.01,1.01,0,0,0-.367,1.129l1.409,4.336a1.01,1.01,0,0,1-1.554,1.129L95.352,36.7a1.01,1.01,0,0,0-1.187,0l-3.688,2.68a1.01,1.01,0,0,1-1.554-1.129l1.409-4.336a1.01,1.01,0,0,0-.367-1.129l-3.689-2.68a1.01,1.01,0,0,1,.594-1.827h4.559a1.01,1.01,0,0,0,.96-.7Z" transform="translate(39.165 10.287)" fill="#ef4335"/>
    <path id="Path_82269" data-name="Path 82269" d="M108.827,23.249a1.011,1.011,0,0,1,1.922,0l1.408,4.336a1.01,1.01,0,0,0,.961.7h4.559a1.01,1.01,0,0,1,.594,1.827l-3.69,2.68a1.012,1.012,0,0,0-.367,1.129l1.41,4.336a1.01,1.01,0,0,1-1.554,1.129l-3.688-2.68a1.011,1.011,0,0,0-1.188,0l-3.688,2.68a1.01,1.01,0,0,1-1.554-1.129l1.408-4.336a1.01,1.01,0,0,0-.367-1.129L101.3,30.11a1.01,1.01,0,0,1,.594-1.827h4.559a1.012,1.012,0,0,0,.961-.7Z" transform="translate(46.021 10.287)" fill="#ef4335"/>
    <path id="Path_82270" data-name="Path 82270" d="M123.858,23.249a1.01,1.01,0,0,1,1.921,0l1.408,4.336a1.011,1.011,0,0,0,.961.7h4.559a1.01,1.01,0,0,1,.594,1.827l-3.688,2.68a1.01,1.01,0,0,0-.367,1.129l1.408,4.336a1.01,1.01,0,0,1-1.554,1.129l-3.688-2.68a1.009,1.009,0,0,0-1.187,0l-3.69,2.68a1.01,1.01,0,0,1-1.554-1.129l1.41-4.336a1.012,1.012,0,0,0-.367-1.129l-3.688-2.68a1.01,1.01,0,0,1,.593-1.827h4.559a1.01,1.01,0,0,0,.961-.7Z" transform="translate(52.877 10.287)" fill="#ef4335"/>
    <path id="Path_82271" data-name="Path 82271" d="M138.887,23.249a1.01,1.01,0,0,1,1.921,0l1.41,4.336a1.01,1.01,0,0,0,.96.7h4.559a1.01,1.01,0,0,1,.594,1.827l-3.688,2.68a1.01,1.01,0,0,0-.367,1.129l1.41,4.336a1.011,1.011,0,0,1-1.555,1.129L140.44,36.7a1.009,1.009,0,0,0-1.187,0l-3.688,2.68a1.011,1.011,0,0,1-1.555-1.129l1.41-4.336a1.01,1.01,0,0,0-.367-1.129l-3.688-2.68a1.01,1.01,0,0,1,.594-1.827h4.559a1.01,1.01,0,0,0,.96-.7Z" transform="translate(59.733 10.287)" fill="#ddd"/>
    <path id="Path_82272" data-name="Path 82272" d="M138.887,23.249a1.01,1.01,0,0,1,1.921,0l1.41,4.336a1.01,1.01,0,0,0,.96.7l.954.018.722,4.333-.211.156a1.01,1.01,0,0,0-.367,1.129l1.41,4.336a1.011,1.011,0,0,1-1.555,1.129L140.44,36.7a1.009,1.009,0,0,0-1.187,0l-3.688,2.68a1.011,1.011,0,0,1-1.555-1.129l1.41-4.336a1.01,1.01,0,0,0-.367-1.129l-3.688-2.68a1.01,1.01,0,0,1,.594-1.827h4.559a1.01,1.01,0,0,0,.96-.7Z" transform="translate(59.733 10.287)" fill="#ef4335"/>
    <path id="Path_82273" data-name="Path 82273" d="M55.646,11.144h5.919V16.82a8.747,8.747,0,0,1-5.575,1.818,6.86,6.86,0,0,1-7.171-7.252c0-4.242,2.788-7.333,7.111-7.333A7.478,7.478,0,0,1,61.4,6.316L60.151,7.387A5.952,5.952,0,0,0,55.909,5.73c-3.01,0-5.252,2.222-5.252,5.656,0,3.232,2.121,5.616,5.333,5.616a6.424,6.424,0,0,0,3.818-1.091V12.76H55.646Z" transform="translate(22.269 1.849)" fill="#fff"/>
    <path id="Path_82274" data-name="Path 82274" d="M64.323,17.241a4.875,4.875,0,0,1-5.09-5.03,5.07,5.07,0,0,1,10.141,0A4.853,4.853,0,0,1,64.323,17.241Zm0-1.495a3.373,3.373,0,0,0,3.394-3.535,3.416,3.416,0,1,0-6.828,0A3.392,3.392,0,0,0,64.323,15.746Z" transform="translate(27.02 3.267)" fill="#fff"/>
    <path id="Path_82275" data-name="Path 82275" d="M72.6,17.241a4.875,4.875,0,0,1-5.09-5.03,5.07,5.07,0,0,1,10.14,0A4.853,4.853,0,0,1,72.6,17.241Zm0-1.495a3.373,3.373,0,0,0,3.394-3.535,3.416,3.416,0,1,0-6.828,0A3.393,3.393,0,0,0,72.6,15.746Z" transform="translate(30.796 3.267)" fill="#fff"/>
    <path id="Path_82276" data-name="Path 82276" d="M83.879,7.282H85.5v9.09c0,2.848-1.394,4.868-4.828,4.868a7.646,7.646,0,0,1-4-1.071l.384-1.515a6.694,6.694,0,0,0,3.535,1.03c2.222,0,3.313-1.293,3.313-2.889V15.423h-.04a4.155,4.155,0,0,1-3.333,1.515,4.676,4.676,0,0,1-4.767-4.868,4.705,4.705,0,0,1,4.687-4.909,4.467,4.467,0,0,1,3.394,1.495h.04ZM80.647,15.4a3.214,3.214,0,0,0,3.293-3.414,3.253,3.253,0,1,0-6.5.02A3.181,3.181,0,0,0,80.647,15.4Z" transform="translate(34.559 3.267)" fill="#fff"/>
    <path id="Path_82277" data-name="Path 82277" d="M84.6,18.657V3.79h1.636V18.657Z" transform="translate(38.594 1.729)" fill="#fff"/>
    <path id="Path_82278" data-name="Path 82278" d="M96.831,12.049c0,.263-.04.606-.04.667H89.216a3.225,3.225,0,0,0,3.293,3.03,3.436,3.436,0,0,0,2.767-1.333l1.151.99a4.854,4.854,0,0,1-3.979,1.838,4.781,4.781,0,0,1-4.888-5.03,4.737,4.737,0,0,1,4.707-5.05C95.013,7.161,96.831,9.221,96.831,12.049ZM92.347,8.676a3.063,3.063,0,0,0-3.07,2.687h5.939A2.867,2.867,0,0,0,92.347,8.676Z" transform="translate(39.942 3.267)" fill="#fff"/>
    <path id="Path_82279" data-name="Path 82279" d="M109.851,18.493h-2.12l-3.636-5.474h-2.707v5.474H99.63V4.151h5.091c3.313,0,4.747,1.9,4.747,4.444a4,4,0,0,1-3.415,4.262v.02ZM101.388,5.767V11.4h2.869c2.384,0,3.393-1.212,3.393-2.848,0-1.818-1.191-2.788-3.151-2.788Z" transform="translate(45.448 1.893)" fill="#fff"/>
    <path id="Path_82280" data-name="Path 82280" d="M117.166,12.049c0,.263-.041.606-.041.667H109.55a3.224,3.224,0,0,0,3.292,3.03,3.435,3.435,0,0,0,2.767-1.333l1.152.99a4.854,4.854,0,0,1-3.98,1.838,4.781,4.781,0,0,1-4.888-5.03,4.737,4.737,0,0,1,4.706-5.05C115.347,7.161,117.166,9.221,117.166,12.049Zm-4.485-3.373a3.064,3.064,0,0,0-3.071,2.687h5.94A2.868,2.868,0,0,0,112.681,8.676Z" transform="translate(49.217 3.267)" fill="#fff"/>
    <path id="Path_82281" data-name="Path 82281" d="M122.748,7.244h1.776l-4,9.838H118.95l-4.02-9.838h1.758L119.718,15h.061Z" transform="translate(52.427 3.305)" fill="#fff"/>
    <path id="Path_82282" data-name="Path 82282" d="M123.96,6.717a1.143,1.143,0,0,1-1.172-1.151,1.156,1.156,0,0,1,1.172-1.151,1.168,1.168,0,0,1,1.171,1.151A1.155,1.155,0,0,1,123.96,6.717Zm-.829,11.656V8.535h1.635v9.838Z" transform="translate(56.012 2.014)" fill="#fff"/>
    <path id="Path_82283" data-name="Path 82283" d="M135.25,12.049c0,.263-.041.606-.041.667h-7.575a3.225,3.225,0,0,0,3.292,3.03,3.438,3.438,0,0,0,2.768-1.333l1.15.99a4.851,4.851,0,0,1-3.978,1.838,4.78,4.78,0,0,1-4.888-5.03,4.737,4.737,0,0,1,4.706-5.05C133.432,7.161,135.25,9.221,135.25,12.049Zm-4.485-3.373a3.062,3.062,0,0,0-3.07,2.687h5.938A2.867,2.867,0,0,0,130.765,8.676Z" transform="translate(57.467 3.267)" fill="#fff"/>
    <path id="Path_82284" data-name="Path 82284" d="M145.744,7.244H147.4l-3.413,9.838H142.45l-2.222-7.171h-.019l-2.242,7.171h-1.5l-3.413-9.838h1.656l2.5,7.353h.041L139.5,7.244h1.414L143.2,14.6h.039Z" transform="translate(60.697 3.305)" fill="#fff"/>
    <path id="Path_82285" data-name="Path 82285" d="M147.553,17.241a5.6,5.6,0,0,1-3.859-1.414l.849-1.232a4.07,4.07,0,0,0,3.01,1.172c1.171,0,1.858-.606,1.858-1.313,0-.849-.909-1.131-2.343-1.616-1.6-.566-2.949-1.232-2.949-3.03,0-1.515,1.373-2.646,3.252-2.646a5.11,5.11,0,0,1,3.374,1.212L149.9,9.666a3.922,3.922,0,0,0-2.607-1.01c-.747,0-1.514.444-1.514,1.151,0,.768.808,1.131,1.858,1.535,2.081.808,3.454,1.151,3.435,3.091C151.068,15.968,149.916,17.241,147.553,17.241Z" transform="translate(65.548 3.267)" fill="#fff"/>
    <g id="Group_54305" data-name="Group 54305" transform="translate(0 0.001)">
      <path id="Path_82286" data-name="Path 82286" d="M12.263,28.758l-1.926,7.19L3.3,36.1a27.715,27.715,0,0,1-.2-25.835h0l6.267,1.149,2.745,6.23a16.511,16.511,0,0,0,.155,11.117Z" transform="translate(0 4.68)" fill="#fbbb00"/>
      <path id="Path_82287" data-name="Path 82287" d="M45.993,15.451A27.655,27.655,0,0,1,36.13,42.2v0l-7.894-.4-1.117-6.974a16.489,16.489,0,0,0,7.095-8.42H19.418V15.451Z" transform="translate(8.858 7.048)" fill="#518ef8"/>
      <path id="Path_82288" data-name="Path 82288" d="M43.953,38.768h0A27.675,27.675,0,0,1,2.266,30.3l8.966-7.339a16.454,16.454,0,0,0,23.711,8.425Z" transform="translate(1.034 10.475)" fill="#28b446"/>
      <path id="Path_82289" data-name="Path 82289" d="M44.357,6.37l-8.963,7.338a16.453,16.453,0,0,0-24.256,8.615L2.125,14.943A27.672,27.672,0,0,1,44.357,6.37Z" transform="translate(0.969 0)" fill="#f14336"/>
    </g>
    <path id="Path_82290" data-name="Path 82290" d="M54.288,37.384v-2.29H48.355V33.333l6.42-9.944h2.23v9.337H58.9v2.369H57.006v2.29Zm-2.927-4.519h3.116V27.838Z" transform="translate(22.058 10.669)" fill="#ef4335"/>
    <path id="Path_82291" data-name="Path 82291" d="M58.33,34.136a1.605,1.605,0,0,1-1.185-.468,1.562,1.562,0,0,1-.478-1.155,1.578,1.578,0,0,1,.478-1.155,1.614,1.614,0,0,1,1.185-.478,1.666,1.666,0,0,1,1.642,1.633,1.649,1.649,0,0,1-1.642,1.622Z" transform="translate(25.85 14.087)" fill="#ef4335"/>
    <path id="Path_82292" data-name="Path 82292" d="M67.911,29.872A3.807,3.807,0,0,1,69.7,31.236a3.885,3.885,0,0,1,.687,2.329,3.51,3.51,0,0,1-.687,2.15,4.277,4.277,0,0,1-1.832,1.414,6.721,6.721,0,0,1-2.578.478,6.368,6.368,0,0,1-2.6-.5,4.164,4.164,0,0,1-1.8-1.423,3.572,3.572,0,0,1-.657-2.12,3.88,3.88,0,0,1,.677-2.329A3.781,3.781,0,0,1,62.7,29.872v-.03a2.788,2.788,0,0,1-1.224-1.1,3.262,3.262,0,0,1-.518-1.812,3.4,3.4,0,0,1,.577-1.991,3.571,3.571,0,0,1,1.553-1.254,6.131,6.131,0,0,1,4.45.02,3.549,3.549,0,0,1,1.553,1.264,3.416,3.416,0,0,1,.567,1.961,3.312,3.312,0,0,1-.518,1.8,2.816,2.816,0,0,1-1.224,1.115Zm-2.618-4.31a2.047,2.047,0,0,0-.926.219,1.659,1.659,0,0,0-.637.587,1.535,1.535,0,0,0-.219.806A1.455,1.455,0,0,0,63.74,28a1.485,1.485,0,0,0,.627.557,1.98,1.98,0,0,0,.926.2,1.872,1.872,0,0,0,1.294-.438,1.478,1.478,0,0,0,.5-1.145,1.512,1.512,0,0,0-.518-1.155A1.868,1.868,0,0,0,65.293,25.562Zm0,9.676a2.283,2.283,0,0,0,1.622-.6,1.919,1.919,0,0,0,.637-1.433,1.951,1.951,0,0,0-1.085-1.782,2.491,2.491,0,0,0-1.175-.269,2.351,2.351,0,0,0-1.633.577,1.919,1.919,0,0,0-.627,1.473,1.858,1.858,0,0,0,.647,1.453A2.34,2.34,0,0,0,65.293,35.238Z" transform="translate(27.478 10.616)" fill="#ef4335"/>
  </g>
</svg>
