<svg xmlns="http://www.w3.org/2000/svg" width="21.973" height="25" viewBox="0 0 21.973 25">
  <g id="location_3_" data-name="location (3)" transform="translate(-31)">
    <g id="Group_52954" data-name="Group 52954" transform="translate(33.93)">
      <g id="Group_52953" data-name="Group 52953">
        <path id="Path_124022" data-name="Path 124022" d="M99.057,0a8.053,8.053,0,0,0-6.549,12.744L98.44,22a.732.732,0,0,0,1.233,0l5.958-9.288A8.056,8.056,0,0,0,99.057,0Zm0,11.719a3.662,3.662,0,1,1,3.662-3.662A3.666,3.666,0,0,1,99.057,11.719Z" transform="translate(-91)" fill="#fff"/>
      </g>
    </g>
    <g id="Group_52956" data-name="Group 52956" transform="translate(31 16.831)">
      <g id="Group_52955" data-name="Group 52955">
        <path id="Path_124023" data-name="Path 124023" d="M47.712,344.7l-3.688,5.766a2.422,2.422,0,0,1-4.076,0L36.254,344.7C33,345.448,31,346.825,31,348.47c0,2.855,5.661,4.395,10.986,4.395s10.986-1.54,10.986-4.395C52.973,346.823,50.966,345.446,47.712,344.7Z" transform="translate(-31 -344.695)" fill="#fff"/>
      </g>
    </g>
  </g>
</svg>
