<svg xmlns="http://www.w3.org/2000/svg" width="114.865" height="30" viewBox="0 0 114.865 30">
  <g id="Group_54659" data-name="Group 54659" transform="translate(-201.099 -356.319)">
    <g id="Group_54658" data-name="Group 54658" transform="translate(201.099 356.319)">
      <path id="Path_136676" data-name="Path 136676" d="M260.024,392.216a5.162,5.162,0,0,0-1.952-.335,4.367,4.367,0,0,0-2.672.916,5.775,5.775,0,0,0-.883.782,6.033,6.033,0,0,0,0,7.772,4.773,4.773,0,0,0,1.376,1.072,4.236,4.236,0,0,0,2.178.6h16.973L261.894,393.4c-.329-.224-.617-.447-.884-.6a5.979,5.979,0,0,0-.986-.58Z" transform="translate(-253.099 -373.026)" fill="#fbb615" fill-rule="evenodd"/>
      <path id="Path_136677" data-name="Path 136677" d="M275.552,357.171a2.618,2.618,0,0,1-.39-.29,4.921,4.921,0,0,0-5.918.29,5.353,5.353,0,0,0-.678.715c-.144.179-.267.38-.391.559a5.583,5.583,0,0,0-.7,1.519,5.462,5.462,0,0,0-.123,2.59,6.728,6.728,0,0,0,.719,2.077,4.639,4.639,0,0,0,1.336,1.474l14.815,11.011-6.678-16.639c-.082-.179-.144-.357-.206-.514a10.361,10.361,0,0,0-.74-1.631c-.1-.134-.205-.29-.329-.447a5.787,5.787,0,0,0-.719-.715Z" transform="translate(-263.018 -348.835)" fill="#f37123" fill-rule="evenodd"/>
      <path id="Path_136678" data-name="Path 136678" d="M305.644,334.262a2.774,2.774,0,0,0-.452-.157,4.428,4.428,0,0,0-2.527,0,6.844,6.844,0,0,0-.863.335,5.031,5.031,0,0,0-2.65,2.993c-.021.067-.062.156-.082.223a5.861,5.861,0,0,0,.1,4.02l7.254,18.112,2.4-18.291a14.3,14.3,0,0,0,.185-2.322,6,6,0,0,0-.288-1.519c-.041-.179-.123-.357-.185-.558a5.056,5.056,0,0,0-2.9-2.836Z" transform="translate(-285.096 -333.922)" fill="#cc1e4f" fill-rule="evenodd"/>
      <path id="Path_136679" data-name="Path 136679" d="M356.724,392.8c-.267.157-.555.38-.884.6l-13.151,9.626h16.973A4.6,4.6,0,0,0,362.518,402a8.558,8.558,0,0,0,.7-.648l.144-.156a5.263,5.263,0,0,0,1.131-2.234,4.746,4.746,0,0,0,.144-.782c.021-.223.021-.469.021-.692a5.573,5.573,0,0,0-.946-3.26,4.735,4.735,0,0,0-.493-.648,5.88,5.88,0,0,0-.9-.782,4.18,4.18,0,0,0-1.13-.648,4.468,4.468,0,0,0-1.521-.268,4.978,4.978,0,0,0-1.932.335,6.016,6.016,0,0,0-1.007.58Z" transform="translate(-315.873 -373.026)" fill="#0db14b" fill-rule="evenodd"/>
      <path id="Path_136680" data-name="Path 136680" d="M346.02,337.657c-.021-.067-.062-.157-.082-.223a5.1,5.1,0,0,0-2.65-2.993,6.853,6.853,0,0,0-.863-.335,4.428,4.428,0,0,0-2.527,0,2.768,2.768,0,0,0-.452.157,5.124,5.124,0,0,0-2.9,2.836c-.061.2-.144.38-.205.558a5.942,5.942,0,0,0-.247,2.39v.111h1.377c.411.044.678.112.74.224.1.112-.1.29-.555.491l-.35.246-.431.38a1.416,1.416,0,0,0-.349.76,2.666,2.666,0,0,0-.041.715,1.966,1.966,0,0,0,.021.335l2.158,16.482,7.274-18.112a5.851,5.851,0,0,0,.082-4.02Z" transform="translate(-311.232 -333.922)" fill="#6461ab" fill-rule="evenodd"/>
      <path id="Path_136681" data-name="Path 136681" d="M362.134,361.3a5.819,5.819,0,0,0-.9-2.859c-.123-.179-.247-.38-.391-.559a5.378,5.378,0,0,0-.678-.715,4.963,4.963,0,0,0-5.939-.29,4.466,4.466,0,0,1-.391.29,7.648,7.648,0,0,0-.7.715,2.822,2.822,0,0,0-.329.447,14.166,14.166,0,0,0-.966,2.144l-6.678,16.639L359.976,366.1a4.645,4.645,0,0,0,1.335-1.474.363.363,0,0,0,.082-.156,5.89,5.89,0,0,0,.452-1.117c.062-.246.144-.536.185-.8a5.242,5.242,0,0,0,.1-1.25Z" transform="translate(-317.605 -348.835)" fill="#1689ca" fill-rule="evenodd"/>
    </g>
    <path id="Path_136682" data-name="Path 136682" d="M290.112,442.4v5.029h2.461a2.116,2.116,0,0,0,1.72-.82,2.905,2.905,0,0,0,.662-1.933,2.205,2.205,0,0,0-.794-1.588,2.262,2.262,0,0,0-1.668-.688Zm0,8.762v5.479h2.832a4.565,4.565,0,0,0,2.382-.609,2.057,2.057,0,0,0,1.059-1.906c0-1.826-1.164-2.832-3.441-2.964Zm28.931-12.784v5.029a8.2,8.2,0,0,0-3.732-1.164,15.576,15.576,0,0,0-1.562.159,7.74,7.74,0,0,0-4.685,2.409,6.832,6.832,0,0,0-1.853,4.791,6.587,6.587,0,0,0,1.721,4.553,7.709,7.709,0,0,0,4.367,2.488,8.073,8.073,0,0,0,1.8.159,8.394,8.394,0,0,0,3.944-1.191v5.505a12.125,12.125,0,0,1-4.262.794,11.391,11.391,0,0,1-1.482-.053,14.379,14.379,0,0,1-6.14-1.985,12.077,12.077,0,0,1-4.394-4.474,12.259,12.259,0,0,1-1.641-6.273,11.515,11.515,0,0,1,1.8-5.85,11.989,11.989,0,0,1,4.447-4.156,13.738,13.738,0,0,1,6.088-1.72,14.609,14.609,0,0,1,5.585.98Zm-49.789,22.736h-4.9V437.4l13.526,12.2V438.377h5.029v23.478l-13.658-12.732v11.99Zm15.908,0V438.377h9.793a5.462,5.462,0,0,1,3.388,1.614,5.352,5.352,0,0,1,1.509,3.441,5.666,5.666,0,0,1-2.647,5.188,5.979,5.979,0,0,1,3.918,5.585,6.947,6.947,0,0,1-1.747,4.738,6.294,6.294,0,0,1-4.42,2.17Z" transform="translate(-3.079 -75.588)" fill-rule="evenodd"/>
  </g>
</svg>
