<svg xmlns="http://www.w3.org/2000/svg" width="142.721" height="30" viewBox="0 0 142.721 30">
  <g id="Group_54665" data-name="Group 54665" transform="translate(-762 1100.75)">
    <path id="Path_136696" data-name="Path 136696" d="M138.832,230.255c-4.618,3.395-11.284,5.2-17.034,5.2a30.755,30.755,0,0,1-20.826-7.951c-.428-.4-.061-.917.459-.612a41.373,41.373,0,0,0,36.728,2.294C138.955,228.848,139.6,229.674,138.832,230.255Z" transform="translate(672.372 -1306.203)" fill="#f49800" fill-rule="evenodd"/>
    <path id="Path_136697" data-name="Path 136697" d="M218.406,226.186c-.581-.765-3.884-.367-5.382-.183-.459.061-.52-.336-.122-.612,2.63-1.865,6.972-1.315,7.462-.7.52.612-.122,4.954-2.6,7.034-.367.306-.734.153-.581-.275C217.764,230.07,218.987,226.951,218.406,226.186Z" transform="translate(594.725 -1304.337)" fill="#f49800" fill-rule="evenodd"/>
    <path id="Path_136698" data-name="Path 136698" d="M213.228,180.363v-1.8a.45.45,0,0,1,.459-.459h8.073a.45.45,0,0,1,.459.459v1.56a2.407,2.407,0,0,1-.612,1.132l-4.159,5.963a9.07,9.07,0,0,1,4.618.979.85.85,0,0,1,.428.7v1.927c0,.275-.275.581-.581.4a9.24,9.24,0,0,0-8.532.031c-.275.153-.581-.153-.581-.428v-1.835a2.01,2.01,0,0,1,.306-1.223l4.832-6.942h-4.22A.476.476,0,0,1,213.228,180.363Z" transform="translate(594.613 -1272.397)" fill-rule="evenodd"/>
    <path id="Path_136699" data-name="Path 136699" d="M111.475,191.131h-2.446a.437.437,0,0,1-.428-.428V178.1a.47.47,0,0,1,.459-.459h2.294a.465.465,0,0,1,.459.428v1.651h.061a3.38,3.38,0,0,1,6.422,0,3.475,3.475,0,0,1,3.394-2.324,3.513,3.513,0,0,1,2.844,1.376c.765,1.07.612,2.6.612,3.945v7.951a.47.47,0,0,1-.459.459h-2.446a.465.465,0,0,1-.428-.459v-6.667a20.011,20.011,0,0,0-.061-2.355,1.282,1.282,0,0,0-1.437-1.1,1.634,1.634,0,0,0-1.468,1.04,7.831,7.831,0,0,0-.214,2.416v6.667a.47.47,0,0,1-.459.459h-2.446a.465.465,0,0,1-.428-.459v-6.667c0-1.407.214-3.486-1.5-3.486-1.774,0-1.682,2.018-1.682,3.486v6.667C111.933,190.917,111.719,191.131,111.475,191.131Z" transform="translate(666.947 -1271.911)" fill-rule="evenodd"/>
    <path id="Path_136700" data-name="Path 136700" d="M253.835,177.3c3.639,0,5.627,3.119,5.627,7.095,0,3.853-2.171,6.881-5.627,6.881-3.578,0-5.535-3.119-5.535-7.034C248.3,180.358,250.288,177.3,253.835,177.3Zm.031,2.569c-1.8,0-1.927,2.477-1.927,4.006s-.031,4.832,1.9,4.832c1.9,0,1.988-2.661,1.988-4.281a11.054,11.054,0,0,0-.367-3.333A1.554,1.554,0,0,0,253.866,179.869Z" transform="translate(569.969 -1271.842)" fill-rule="evenodd"/>
    <path id="Path_136701" data-name="Path 136701" d="M293.675,191.2h-2.446a.465.465,0,0,1-.428-.459v-12.6a.439.439,0,0,1,.459-.4h2.263a.429.429,0,0,1,.428.367v1.927h.061c.673-1.713,1.651-2.538,3.333-2.538a3.234,3.234,0,0,1,2.875,1.5,7.969,7.969,0,0,1,.642,3.914v7.89a.463.463,0,0,1-.459.4h-2.446a.457.457,0,0,1-.428-.4v-6.85c0-1.376.153-3.395-1.529-3.395a1.6,1.6,0,0,0-1.407,1.009,5.683,5.683,0,0,0-.4,2.385v6.789A.529.529,0,0,1,293.675,191.2Z" transform="translate(540.466 -1271.981)" fill-rule="evenodd"/>
    <path id="Path_136702" data-name="Path 136702" d="M176.817,184.829a4.759,4.759,0,0,1-.459,2.6,2,2,0,0,1-1.713,1.132c-.948,0-1.5-.7-1.5-1.774,0-2.079,1.865-2.477,3.639-2.477v.52Zm2.477,5.994a.508.508,0,0,1-.581.061,5.63,5.63,0,0,1-1.407-1.651,4.826,4.826,0,0,1-4.037,1.774,3.478,3.478,0,0,1-3.67-3.823,4.126,4.126,0,0,1,2.63-4.006,16.878,16.878,0,0,1,4.618-.856v-.306a3.176,3.176,0,0,0-.306-1.774,1.651,1.651,0,0,0-1.376-.642,1.893,1.893,0,0,0-1.988,1.468.555.555,0,0,1-.428.459l-2.385-.245a.422.422,0,0,1-.367-.52c.55-2.875,3.15-3.761,5.5-3.761a5.518,5.518,0,0,1,3.7,1.223c1.193,1.132,1.07,2.6,1.07,4.22v3.823a3.371,3.371,0,0,0,.917,2.263.47.47,0,0,1,0,.642c-.52.428-1.407,1.193-1.9,1.651Z" transform="translate(624.602 -1271.634)" fill-rule="evenodd"/>
    <path id="Path_136703" data-name="Path 136703" d="M71.517,184.829a4.759,4.759,0,0,1-.459,2.6,2,2,0,0,1-1.713,1.132c-.948,0-1.5-.7-1.5-1.774,0-2.079,1.865-2.477,3.639-2.477v.52Zm2.477,5.994a.508.508,0,0,1-.581.061,5.63,5.63,0,0,1-1.407-1.651,4.826,4.826,0,0,1-4.037,1.774,3.478,3.478,0,0,1-3.67-3.823,4.126,4.126,0,0,1,2.63-4.006,16.878,16.878,0,0,1,4.618-.856v-.306a2.933,2.933,0,0,0-.306-1.774,1.651,1.651,0,0,0-1.376-.642,1.893,1.893,0,0,0-1.988,1.468.555.555,0,0,1-.428.459l-2.385-.245a.422.422,0,0,1-.367-.52c.55-2.875,3.15-3.761,5.5-3.761a5.519,5.519,0,0,1,3.7,1.223c1.193,1.132,1.07,2.6,1.07,4.22v3.823a3.371,3.371,0,0,0,.917,2.263.47.47,0,0,1,0,.642c-.489.428-1.376,1.193-1.9,1.651Z" transform="translate(697.7 -1271.634)" fill-rule="evenodd"/>
    <path id="Path_136704" data-name="Path 136704" d="M343.2,176.969l-5.719-6.942h-.031v6.942H335.4V157h2.049v11.346h.031l4.893-4.709h2.691l-5.872,5.443,6.636,7.89Z" transform="translate(509.505 -1257.75)" fill="#f49800"/>
    <path id="Path_136705" data-name="Path 136705" d="M374.037,162.975a1.437,1.437,0,1,1,1.437-1.437A1.436,1.436,0,0,1,374.037,162.975Zm-1.009,16.147V165.788h2.049v13.333Z" transform="translate(483.681 -1259.902)" fill="#f49800"/>
    <path id="Path_136706" data-name="Path 136706" d="M399.3,191.27v-8.2c0-1.651-.275-3.517-2.324-3.517-1.621,0-3.119,1.162-4.128,2.018v9.694H390.8V177.936h1.682l.275,1.621a7.624,7.624,0,0,1,4.771-1.957c1.927,0,3.823,1.376,3.823,4.709v8.96H399.3Z" transform="translate(471.047 -1272.05)" fill="#f49800"/>
    <path id="Path_136707" data-name="Path 136707" d="M439.45,177.245c-3.731,0-6.85-2.171-6.85-6.758a6.871,6.871,0,0,1,6.881-7.187,9.731,9.731,0,0,1,2.171.214V157H443.7v19.3A9.28,9.28,0,0,1,439.45,177.245Zm2.2-11.8a5.424,5.424,0,0,0-2.049-.336,4.944,4.944,0,0,0-4.893,5.26c0,3.028,1.651,5.168,5.138,5.168a5.17,5.17,0,0,0,1.835-.336V165.44Z" transform="translate(442.03 -1257.75)" fill="#f49800"/>
    <path id="Path_136708" data-name="Path 136708" d="M481.124,177.245A2.172,2.172,0,0,1,478.8,174.8V157h2.049v16.85c0,1.254.306,1.529,1.1,1.529a2.4,2.4,0,0,0,.7-.092l.245,1.5A3.651,3.651,0,0,1,481.124,177.245Z" transform="translate(409.958 -1257.75)" fill="#f49800"/>
    <path id="Path_136709" data-name="Path 136709" d="M498.1,184.939c0,2.538,1.468,4.832,4.343,4.832a6.543,6.543,0,0,0,3.242-.979l.642,1.468a8.135,8.135,0,0,1-4.128,1.284c-4.251,0-6.3-3.425-6.3-7.217,0-3.853,2.2-6.728,5.413-6.728,3.425,0,5.321,2.722,5.321,6.881v.489H498.1Zm3.242-5.6c-1.988,0-3.211,1.743-3.211,3.853h6.3C504.4,181.331,503.362,179.343,501.343,179.343Z" transform="translate(398.087 -1272.05)" fill="#f49800"/>
  </g>
</svg>
