<svg xmlns="http://www.w3.org/2000/svg" width="223.305" height="30" viewBox="0 0 223.305 30">
  <g id="Group_54663" data-name="Group 54663" transform="translate(-127.817 31.534)">
    <g id="Group_54660" data-name="Group 54660" transform="translate(230.426 -31.534)">
      <path id="Path_136683" data-name="Path 136683" d="M114.608,83.6s-1.991,1.194-3.183,1.991l-2.786,1.394v7.76l-1.2.8.2.2.994-.8,3.382,2.985,5.972-4.577-.2-.2-3.183,2.588-2.786-2.588v-.8l5.375-3.98Zm0,6.368-2.786,1.991V85.388ZM87.145,86.98h.2l.994-.8,1.592,1.791v6.369l-.8.6,2.589,2.985,2.585-2.589-.994-1.193V86.582l.6-.6,1.79,2.189v6.368l-.6.6,2.389,2.589,2.586-2.39-.994-.994V86.582l.6-.6,1.989,2.189v6.169l-.6.6,2.586,2.985,3.582-3.384-.2-.2-.8.8-1.392-1.393V86.582l1.193-1v-.2l-1.394.994L102.268,83.8l-3.382,2.586L96.5,83.8l-3.381,2.586L90.727,83.8,87.145,86.98Z" transform="translate(-7.446 -75.487)" fill-rule="evenodd"/>
      <path id="Path_136684" data-name="Path 136684" d="M147.553,91.116l.994-.8,1.394,1.791v7.166l-1,.994.2.2.994-.994,2.39,2.787,3.382-2.985-.2-.2-.994.8-1.394-1.593V91.116l1.193-1v-.2l-1.193,1-2.389-2.786Zm.994-6.17,2.388-2.189,2.189,2.189-2.586,2.389Z" transform="translate(-75.019 -79.821)" fill-rule="evenodd"/>
      <path id="Path_136685" data-name="Path 136685" d="M151.794,80.334a3.445,3.445,0,0,1,2.388,1,3.286,3.286,0,0,1,.6,2.786,3.361,3.361,0,0,1-1.394,1.989,4.27,4.27,0,0,1-1.988.6v3.78l1.79,1.592-1.79,1.393V98.84a9.953,9.953,0,0,0,2.985-3.583l.2-.4a8.373,8.373,0,0,1-.8,3.781A7.089,7.089,0,0,1,151,101.825a7.861,7.861,0,0,1-10.946-2.786,8.555,8.555,0,0,1-1.394-4.975c0-3.583,2.786-6.568,5.772-7.762a2.164,2.164,0,0,1,1.2-.2c-.4,0-.6.2-1,.6a5.992,5.992,0,0,0-2.189,2.786l5.972-2.588v8.358l-4.778,2.389a5.362,5.362,0,0,0,3.583,1.991,4.808,4.808,0,0,0,3.78-.8V93.468l-1.79-1.393L151,90.483V86.7c-.994-.2-2.189-.6-2.985-.8-.994-.2-4.577-1.194-5.174-1.194a1.558,1.558,0,0,0-1.592.2,2.254,2.254,0,0,0-.6,1.592,2.754,2.754,0,0,0,.6.8,1.545,1.545,0,0,1-.6-.2,2.7,2.7,0,0,1-1.2-2.189,3.449,3.449,0,0,1,1.394-3.184,4.53,4.53,0,0,1,3.185-.8,42.114,42.114,0,0,1,6.168,1.791,2.642,2.642,0,0,0,2.189-.2.851.851,0,0,0,.2-1.194c-.4-.8-1.193-.8-1.988-1A1.251,1.251,0,0,1,151.794,80.334ZM144.83,96.852v-8.16l-2.39,1.194a6.113,6.113,0,0,0-.595,3.383,8.017,8.017,0,0,0,1.592,4.18l1.393-.6Zm50.549,6.766a2.245,2.245,0,0,1-2.39-1.991c-.4-1.79.8-2.784,2.589-4.776l-2.189-1.791V91.279a16.086,16.086,0,0,0,2.786-1.393l2.388-1.592s.994,1.194,1.991,1c1.592-.2,1.592-1.394,1.394-1.592.4.4.994,1.791-1.792,5.174l2.39,1.791v4.776a39.045,39.045,0,0,0-5.176,3.186s-1.391-1.792-2.586-1C193.787,102.224,194.184,103.221,195.379,103.618Zm-1.991-3.583a3.444,3.444,0,0,1,3.384-1.592,3.637,3.637,0,0,1,2.586,2.388V96.056l-1.394-1.194C196.572,96.453,193.787,98.643,193.388,100.035Zm3.183-10.148v3.782l1.195,1.194a15.126,15.126,0,0,0,3.78-4.378s-1.193,1.791-2.985,1.194A3.412,3.412,0,0,1,196.572,89.887ZM109.6,91.479l.994-.8h.2l-.994,1V99.24s-1.991,1-3.183,1.792l-2.786,1.592-3.583-2.985-.8.8h-.2l.994-1V91.279a23.759,23.759,0,0,0,2.985-1.393c1.2-.8,2.586-1.592,2.586-1.592Zm-5.97,6.766,2.784,2.586V92.673l-2.784-2.588Zm12.934-7.563,2.189-2.189a2.472,2.472,0,0,0,.6.4,1.507,1.507,0,0,0,1.394.2c.4-.2.4-.4.8-.6,0,1.791-.8,2.986-1.792,3.383a2.628,2.628,0,0,1-3.183-1v8.16l1.592,1.2,1-.8h.2l-3.583,3.186-2.786-2.589-.994,1-.2-.2,1.394-1.394V92.472l-1-1.592-.994.8H111l3.583-3.185Zm9.354,3.583,3.979-5.971a3.35,3.35,0,0,0,1.593.8c1.193.4,2.388-.8,2.388-.8-.2,1.592-.994,3.383-2.786,3.583a4.154,4.154,0,0,1-2.786-1l-.2.6,5.573,8.557,1.193-.994.2.2-3.979,3.384Z" transform="translate(-81.848 -80.185)" fill-rule="evenodd"/>
      <path id="Path_136686" data-name="Path 136686" d="M124.695,86.187c0-1.392-.6-2.188-1.394-2.188l4.579-2.986V98.726l1.193,1.193.8-.8.2.2-3.583,3.186-2.39-2.388-.994.994-.2-.2,1.79-1.593V86.187Zm-37.414-.4c0-1.194-.6-1.791-1.394-1.791-1.194-.2-1.392,1.592-1.392,1.592a3.041,3.041,0,0,1,.8-2.388,3.57,3.57,0,0,1,3.383-1.194,2.906,2.906,0,0,1,2.388,2.985V101.51a4.016,4.016,0,0,0,1,.2,3.49,3.49,0,0,0,1,.2v-19.9h.2v2.786l3.583-2.985L99.619,84.2l1.2-1h.2L99.619,84.4V99.718a2.732,2.732,0,0,1-1.194,2.589c-1.991,1.394-4.577-.2-6.966-.4-1.592-.4-4.179-.6-4.974.994a1.474,1.474,0,0,0,.6,1.792c1.592.994,8.358-1.792,10.746-.6,2.19.994,2.19,2.388,1.791,3.583-.6,1.991-3.185,2.388-3.185,2.388s1.393-.8,1-1.988c-.2-.6-.6-.8-1.991-.6-2.985.4-6.368,1.79-8.756.8a3.608,3.608,0,0,1-1.991-3.583c0-2.189,2.588-2.985,2.588-2.985V93.749a1.639,1.639,0,0,0-1.791.4,1.048,1.048,0,0,0,.6,1.392,2.465,2.465,0,0,1-1.592-.8,2.583,2.583,0,0,1,0-2.985,2.876,2.876,0,0,1,2.786-1.194V85.789Zm5.971,16.319a2.358,2.358,0,0,0,1.791-.4,1.664,1.664,0,0,0,.8-1.592v-6.17a1.473,1.473,0,0,0-1.194-.8,2.039,2.039,0,0,0-1.394.8v8.16Zm2.588-16.319L94.247,84.4l-1,.6v5.772a2.2,2.2,0,0,0,1.394.6,1.491,1.491,0,0,0,1.194-.6Zm0,5.374a1.743,1.743,0,0,1-1.194.4,2.757,2.757,0,0,1-1.394-.4v2.389a2.2,2.2,0,0,1,1.394-.6,1.491,1.491,0,0,1,1.194.6Z" transform="translate(-84.005 -80.067)" fill-rule="evenodd"/>
    </g>
    <g id="Group_54662" data-name="Group 54662" transform="translate(127.817 -29.257)">
      <path id="Path_136687" data-name="Path 136687" d="M16.169,80.334a3.052,3.052,0,0,1,2.189,1c.8.6.8,1.791.6,2.786A2.692,2.692,0,0,1,17.562,86.1a4.28,4.28,0,0,1-1.991.6v3.78l1.791,1.592-1.791,1.393V98.84a9.94,9.94,0,0,0,2.985-3.583l.2-.4a8.363,8.363,0,0,1-.8,3.781,6.069,6.069,0,0,1-2.786,3.185,8.406,8.406,0,0,1-5.572.994,8.723,8.723,0,0,1-5.374-3.78,8.547,8.547,0,0,1-1.394-4.975A9.2,9.2,0,0,1,8.605,86.3,2.16,2.16,0,0,1,9.8,86.1a1.818,1.818,0,0,0-1,.6,5.977,5.977,0,0,0-2.189,2.786L12.585,86.9v8.358L7.808,97.646a5.361,5.361,0,0,0,3.582,1.991,5.111,5.111,0,0,0,3.98-.8V93.468L13.38,92.075l1.991-1.592V86.7a30.7,30.7,0,0,1-2.985-.8c-1.194-.2-4.777-1.194-5.175-1.194a1.869,1.869,0,0,0-1.791.2,1.553,1.553,0,0,0-.4,1.592,1.033,1.033,0,0,0,.4.8,1.538,1.538,0,0,1-.6-.2,2.7,2.7,0,0,1-1.2-2.189,3.619,3.619,0,0,1,1.593-3.184,3.8,3.8,0,0,1,2.985-.8c1.791.2,4.18,1.194,6.369,1.791a2.284,2.284,0,0,0,1.991-.2c.2-.2.8-.6.4-1.194-.6-.8-1.394-.8-2.189-1a1.7,1.7,0,0,1,1.394,0ZM9,96.852v-8.16L6.617,89.886a9.383,9.383,0,0,0-.6,3.383,10.2,10.2,0,0,0,1.592,4.18Zm30.249-8.557s-1.991,1.194-3.185,1.991l-2.786,1.394v7.76l-1.194.8.2.2,1-.8,3.383,2.985,5.971-4.577-.2-.2-3.185,2.588-2.786-2.588v-.8l5.374-3.98Zm0,6.368-2.786,1.991V90.086l2.786,4.577ZM23.931,105.609a7.508,7.508,0,0,0,3.78-.6,5.184,5.184,0,0,0,2.588-4.776l.2-2.787V91.279l1-.8v-.2l-1.194.8-2.588-2.786-3.383,2.786V81.33l-4.18,3.184c.2.2.8.2.8,1.194V99.439l-1.791,1.194.2.2.8-.595,2.388,2.189,3.781-2.987-.2-.2-.8.8-1-.994V91.479l1-1,1.791,1.991v6.568c0,1.79,0,3.979-1,4.975A3.869,3.869,0,0,1,23.931,105.609Z" transform="translate(-2.833 -80.185)" fill-rule="evenodd"/>
      <g id="Group_54661" data-name="Group 54661" transform="translate(47.463 0)">
        <path id="Path_136688" data-name="Path 136688" d="M44.679,104.7c-1.592-.2-2.189-.994-2.189-1.792,0-.4.6-1.394,1.394-1.394a2.527,2.527,0,0,1,2.588,1.2l3.582-3.979h-.2l-1,.994a5.863,5.863,0,0,0-3.582-1.991V85.988l8.955,16.518a.872.872,0,0,0,.6.2.194.194,0,0,0,.2-.2V85.988a8.58,8.58,0,0,0,2.388-1,3.306,3.306,0,0,0,.8-3.98A2.1,2.1,0,0,1,56.422,82.8a3.493,3.493,0,0,1-2.388-1.194l-3.383,3.98.2.2,1-1.194a4.506,4.506,0,0,0,2.985,1.394v9.552L48.064,83.4a3.357,3.357,0,0,0-2.985-1.989A3.19,3.19,0,0,0,42.095,84.2a3.624,3.624,0,0,0,0,1.791s.2-1.592,1.194-1.592,1.394.8,1.791,1.393V89.37c-1,0-3.383,0-3.383,2.588a3.744,3.744,0,0,0,1,2.189,2.369,2.369,0,0,0,1.194.4,1.1,1.1,0,0,1-.6-1.194c.2-.8,1.791-.8,1.791-.6V97.73a4.552,4.552,0,0,0-4.18,1.991,3.323,3.323,0,0,0,.2,3.583,3.277,3.277,0,0,0,3.581,1.393Zm19.1-16.518s-1.791,1.194-3.184,1.991l-2.786,1.394v7.76l-1.194.8.2.2,1.194-.8,3.185,2.985,5.969-4.577-.2-.2-3.184,2.588-2.588-2.588v-.8l5.174-3.98Zm0,6.368L61.2,96.536V89.968Zm8.16,7.961-2.986-2.388-1.194.994-.2-.2,1.394-1V93.352c0-2.786-2.588-1.989-2.388-4.975a3.389,3.389,0,0,1,1.989-2.588,5.265,5.265,0,0,1,1.394-.2,1.81,1.81,0,0,0-1,1.791c.4,1.592,3.184,1.592,3.383,3.78v7.563l1.991,1.592.6-.4V91.758l-1.194-1,2.786-2.588,2.588,2.388-1,1v7.165l2.588,1.988.4-.2V91.757l-1.194-1,2.786-2.588,2.785,2.189,1-1,.2.2-2.388,2.189v6.966l-6.169,3.78-3.184-2.388Z" transform="translate(-40.474 -81.013)" fill-rule="evenodd"/>
      </g>
    </g>
  </g>
</svg>
