<svg xmlns="http://www.w3.org/2000/svg" xmlns:xlink="http://www.w3.org/1999/xlink" width="85.715" height="30" viewBox="0 0 85.715 30">
  <defs>
    <linearGradient id="linear-gradient" x1="0.554" y1="0.957" x2="-0.016" y2="0.037" gradientUnits="objectBoundingBox">
      <stop offset="0" stop-color="#000083"/>
      <stop offset="1" stop-color="#22b5f0"/>
    </linearGradient>
    <linearGradient id="linear-gradient-2" x1="0.766" y1="1.046" x2="0" y2="0.013" gradientUnits="objectBoundingBox">
      <stop offset="0" stop-color="#000083"/>
      <stop offset="0.084" stop-color="#091c95"/>
      <stop offset="0.255" stop-color="#1850b5"/>
      <stop offset="0.423" stop-color="#267bcf"/>
      <stop offset="0.585" stop-color="#309de4"/>
      <stop offset="0.738" stop-color="#37b5f3"/>
      <stop offset="0.88" stop-color="#3bc3fc"/>
      <stop offset="1" stop-color="#3dc8ff"/>
    </linearGradient>
    <linearGradient id="linear-gradient-3" x1="1.372" y1="0.859" x2="-0.176" y2="0.064" gradientUnits="objectBoundingBox">
      <stop offset="0" stop-color="#2083e6"/>
      <stop offset="0.038" stop-color="#2488e8"/>
      <stop offset="0.388" stop-color="#44b0f4"/>
      <stop offset="0.666" stop-color="#58c9fc"/>
      <stop offset="0.835" stop-color="#5fd2ff"/>
    </linearGradient>
    <linearGradient id="linear-gradient-4" x1="1" y1="0.5" x2="0" y2="0.5" gradientUnits="objectBoundingBox">
      <stop offset="0" stop-color="#099cd6"/>
      <stop offset="0.046" stop-color="#0ea1db"/>
      <stop offset="0.205" stop-color="#19ace7"/>
      <stop offset="0.425" stop-color="#20b3ee"/>
      <stop offset="1" stop-color="#22b5f0"/>
    </linearGradient>
    <linearGradient id="linear-gradient-5" y1="0.5" x2="1" y2="0.5" gradientUnits="objectBoundingBox">
      <stop offset="0" stop-color="#3dc8ff"/>
      <stop offset="0.397" stop-color="#36c3fb"/>
      <stop offset="0.963" stop-color="#23b6f1"/>
      <stop offset="1" stop-color="#22b5f0"/>
    </linearGradient>
  </defs>
  <g id="Group_54664" data-name="Group 54664" transform="translate(-3965 -7163.425)">
    <path id="Path_136689" data-name="Path 136689" d="M138.1,72.369l2.586-17.19a.726.726,0,0,1,.516-.589l5.168-1.5a.484.484,0,0,1,.613.536L144.392,70.87c-.1.833.233,1.166,1.033,1.166a4.719,4.719,0,0,0,.783-.071.52.52,0,0,1,.6.587l-.534,3.54a.859.859,0,0,1-.658.709,11.151,11.151,0,0,1-2.693.331C139.329,77.133,137.63,75.467,138.1,72.369Zm31.629,0,2.586-17.19a.726.726,0,0,1,.516-.589l5.168-1.5a.484.484,0,0,1,.613.536L176.021,70.87c-.1.833.233,1.166,1.033,1.166a4.719,4.719,0,0,0,.783-.071.52.52,0,0,1,.6.587l-.534,3.54a.859.859,0,0,1-.658.709,11.148,11.148,0,0,1-2.693.331C170.958,77.133,169.259,75.467,169.725,72.369Zm-1.318.174-.517,3.592a.789.789,0,0,1-.607.656,11.843,11.843,0,0,1-2.734.342c-2.332,0-3.8-.766-4.4-2.065a8.88,8.88,0,0,1-5.8,2.065c-4.33,0-6.729-2.9-6.1-7.162l1.4-9.484a.519.519,0,0,1,.513-.443h5.014a.519.519,0,0,1,.513.595l-1.211,8.2c-.3,1.932.533,3.132,2.332,3.132a3.271,3.271,0,0,0,3.4-3.032l1.266-8.452a.519.519,0,0,1,.513-.442h5.015a.519.519,0,0,1,.513.595L166.015,70.87c-.133.8.2,1.166,1.033,1.166a3.952,3.952,0,0,0,.748-.076.52.52,0,0,1,.612.583Zm31.662,0-.543,3.774a.522.522,0,0,1-.4.433,12.209,12.209,0,0,1-2.915.383c-2.332,0-3.8-.766-4.4-2.065a8.88,8.88,0,0,1-5.8,2.065c-4.331,0-6.729-2.9-6.1-7.162l1.4-9.484a.519.519,0,0,1,.513-.443h5.014a.519.519,0,0,1,.513.595l-1.211,8.2c-.3,1.932.533,3.132,2.332,3.132a3.271,3.271,0,0,0,3.4-3.032l1.266-8.452a.519.519,0,0,1,.513-.442h5.015a.519.519,0,0,1,.513.595L197.677,70.87c-.133.8.2,1.166,1.033,1.166a3.951,3.951,0,0,0,.748-.076.52.52,0,0,1,.612.583Z" transform="translate(3850.64 7116.292)"/>
    <path id="Path_136690" data-name="Path 136690" d="M16.892,76.619c-2.521-6.306-10.524-8.1-12.094-8.391a.282.282,0,0,1-.227-.319L6.842,52.84a27.418,27.418,0,0,0-3.818-.127.281.281,0,0,0-.262.24L0,71.254a.281.281,0,0,0,.285.324c2-.049,12.336-.051,15.343,4.962a.567.567,0,0,0,.644.258Z" transform="translate(3965 7116.604)" fill="url(#linear-gradient)"/>
    <path id="Path_136691" data-name="Path 136691" d="M40.075,76.657c-.626-4.025-5.358-8.3-5.358-8.3-1.413-1.719-.229-4.107.348-5.06a.281.281,0,0,0-.219-.426,2.578,2.578,0,0,1-2.717-2.545,3.585,3.585,0,0,1,.045-.531l.853-5.677h0c-.882-.168-1.763-.3-2.611-.413H30.4c-.508-.065-1-.119-1.483-.163h0L26.65,68.609a.282.282,0,0,0,.227.319c1.57.294,9.572,2.085,12.094,8.391l.7-.2a.564.564,0,0,0,.4-.458l.095-.629Z" transform="translate(3942.922 7115.904)" fill="url(#linear-gradient-2)"/>
    <path id="Path_136692" data-name="Path 136692" d="M41.394,36.705h.01c.849.108,1.729.245,2.611.413h0l.535-3.561a18.751,18.751,0,0,0-3.867-.534.281.281,0,0,0-.282.24l-.494,3.277h0C40.39,36.586,40.886,36.641,41.394,36.705Z" transform="translate(3931.932 7132.903)" fill="#22b5f0"/>
    <path id="Path_136693" data-name="Path 136693" d="M69.058,62.974c.5-3.184-4.536-5.112-9.531-6.062l-.853,5.677a3.582,3.582,0,0,0-.045.531,2.578,2.578,0,0,0,2.717,2.545.281.281,0,0,1,.219.426c-.578.952-1.761,3.34-.348,5.06,0,0,4.731,4.274,5.358,8.3,0,0,1.206-7.918,2.648-17.564Z" transform="translate(3916.422 7113.111)" fill="url(#linear-gradient-3)"/>
    <path id="Path_136694" data-name="Path 136694" d="M76.15,30c1.292-8.647-6.718-11.138-8.393-11.562a.282.282,0,0,0-.348.232l-.42,2.8C71.646,22.574,76.835,25.417,76.15,30Z" transform="translate(3909.495 7145)" fill="url(#linear-gradient-4)"/>
    <path id="Path_136695" data-name="Path 136695" d="M64.4,36.14,63.869,39.7h0c5,.95,10.03,2.878,9.531,6.062l.164-1.089C74.249,40.1,69.06,37.253,64.4,36.14Z" transform="translate(3912.08 7130.322)" fill="url(#linear-gradient-5)"/>
  </g>
</svg>
