<svg id="Group_55041" data-name="Group 55041" xmlns="http://www.w3.org/2000/svg" xmlns:xlink="http://www.w3.org/1999/xlink" width="114.285" height="40" viewBox="0 0 114.285 40">
  <defs>
    <linearGradient id="linear-gradient" x1="0.554" y1="0.957" x2="-0.016" y2="0.037" gradientUnits="objectBoundingBox">
      <stop offset="0" stop-color="#000083"/>
      <stop offset="1" stop-color="#22b5f0"/>
    </linearGradient>
    <linearGradient id="linear-gradient-2" x1="0.766" y1="1.046" x2="0" y2="0.013" gradientUnits="objectBoundingBox">
      <stop offset="0" stop-color="#000083"/>
      <stop offset="0.084" stop-color="#091c95"/>
      <stop offset="0.255" stop-color="#1850b5"/>
      <stop offset="0.423" stop-color="#267bcf"/>
      <stop offset="0.585" stop-color="#309de4"/>
      <stop offset="0.738" stop-color="#37b5f3"/>
      <stop offset="0.88" stop-color="#3bc3fc"/>
      <stop offset="1" stop-color="#3dc8ff"/>
    </linearGradient>
    <linearGradient id="linear-gradient-3" x1="1.372" y1="0.859" x2="-0.176" y2="0.064" gradientUnits="objectBoundingBox">
      <stop offset="0" stop-color="#2083e6"/>
      <stop offset="0.038" stop-color="#2488e8"/>
      <stop offset="0.388" stop-color="#44b0f4"/>
      <stop offset="0.666" stop-color="#58c9fc"/>
      <stop offset="0.835" stop-color="#5fd2ff"/>
    </linearGradient>
    <linearGradient id="linear-gradient-4" x1="1" y1="0.5" x2="0" y2="0.5" gradientUnits="objectBoundingBox">
      <stop offset="0" stop-color="#099cd6"/>
      <stop offset="0.046" stop-color="#0ea1db"/>
      <stop offset="0.205" stop-color="#19ace7"/>
      <stop offset="0.425" stop-color="#20b3ee"/>
      <stop offset="1" stop-color="#22b5f0"/>
    </linearGradient>
    <linearGradient id="linear-gradient-5" y1="0.5" x2="1" y2="0.5" gradientUnits="objectBoundingBox">
      <stop offset="0" stop-color="#3dc8ff"/>
      <stop offset="0.397" stop-color="#36c3fb"/>
      <stop offset="0.963" stop-color="#23b6f1"/>
      <stop offset="1" stop-color="#22b5f0"/>
    </linearGradient>
  </defs>
  <path id="Path_124072" data-name="Path 124072" d="M138.122,78.8l3.448-22.92a.968.968,0,0,1,.687-.785l6.891-2a.645.645,0,0,1,.817.715L146.516,76.8c-.133,1.111.311,1.555,1.377,1.555a6.294,6.294,0,0,0,1.044-.1.693.693,0,0,1,.8.783l-.711,4.721a1.146,1.146,0,0,1-.878.946,14.867,14.867,0,0,1-3.59.442C139.765,85.153,137.5,82.932,138.122,78.8Zm42.171,0,3.448-22.92a.968.968,0,0,1,.687-.785l6.891-2a.645.645,0,0,1,.817.715L188.687,76.8c-.133,1.111.311,1.555,1.377,1.555a6.294,6.294,0,0,0,1.044-.1.693.693,0,0,1,.8.783l-.711,4.721a1.146,1.146,0,0,1-.878.946,14.865,14.865,0,0,1-3.59.442C181.936,85.153,179.671,82.932,180.293,78.8Zm-1.757.232-.689,4.789a1.052,1.052,0,0,1-.81.875,15.79,15.79,0,0,1-3.645.456c-3.109,0-5.064-1.022-5.863-2.754a11.84,11.84,0,0,1-7.729,2.754c-5.774,0-8.972-3.864-8.128-9.55l1.867-12.645a.692.692,0,0,1,.685-.591h6.685a.692.692,0,0,1,.685.793l-1.615,10.933c-.4,2.576.711,4.175,3.109,4.175a4.361,4.361,0,0,0,4.53-4.042l1.688-11.27a.692.692,0,0,1,.684-.589h6.686a.692.692,0,0,1,.685.793L175.346,76.8c-.178,1.066.266,1.555,1.377,1.555a5.268,5.268,0,0,0,1-.1.693.693,0,0,1,.816.777Zm42.216,0-.724,5.032a.7.7,0,0,1-.533.577,16.277,16.277,0,0,1-3.887.511c-3.109,0-5.064-1.022-5.863-2.754a11.84,11.84,0,0,1-7.729,2.754c-5.774,0-8.972-3.864-8.128-9.55l1.867-12.645a.692.692,0,0,1,.685-.591h6.685a.692.692,0,0,1,.685.793l-1.615,10.933c-.4,2.576.711,4.175,3.109,4.175a4.361,4.361,0,0,0,4.53-4.042l1.688-11.27a.692.692,0,0,1,.684-.589h6.686a.692.692,0,0,1,.685.793L217.562,76.8c-.178,1.066.266,1.555,1.377,1.555a5.268,5.268,0,0,0,1-.1.693.693,0,0,1,.815.777Z" transform="translate(-106.473 -45.153)"/>
  <path id="Path_124073" data-name="Path 124073" d="M22.523,84.593C19.161,76.185,8.491,73.8,6.4,73.405a.376.376,0,0,1-.3-.426L9.122,52.889a36.555,36.555,0,0,0-5.091-.169.375.375,0,0,0-.35.32L0,77.44a.375.375,0,0,0,.38.432c2.663-.065,16.448-.069,20.457,6.617a.755.755,0,0,0,.858.343Z" transform="translate(0 -44.862)" fill="url(#linear-gradient)"/>
  <path id="Path_124074" data-name="Path 124074" d="M44.551,84.362C43.716,78.995,37.408,73.3,37.408,73.3c-1.884-2.293-.306-5.476.464-6.746a.375.375,0,0,0-.292-.568c-1.2-.093-3.624-.623-3.623-3.393a4.778,4.778,0,0,1,.061-.708l1.137-7.569h0c-1.176-.224-2.35-.407-3.482-.551l-.014,0c-.677-.086-1.339-.159-1.977-.218h0L26.651,73.631a.376.376,0,0,0,.3.426c2.093.392,12.763,2.78,16.125,11.188l.94-.273a.752.752,0,0,0,.534-.61l.126-.838C44.6,84.069,44.551,84.362,44.551,84.362Z" transform="translate(-20.556 -45.515)" fill="url(#linear-gradient-2)"/>
  <path id="Path_124075" data-name="Path 124075" d="M41.889,37.932l.014,0c1.132.144,2.306.327,3.482.551h0l.713-4.748a25,25,0,0,0-5.155-.712.374.374,0,0,0-.376.32l-.658,4.369h0C40.55,37.773,41.212,37.846,41.889,37.932Z" transform="translate(-30.788 -29.688)" fill="#22b5f0"/>
  <path id="Path_124076" data-name="Path 124076" d="M72.535,64.995c.665-4.245-6.049-6.816-12.708-8.082l-1.137,7.569a4.779,4.779,0,0,0-.061.708c0,2.771,2.424,3.3,3.623,3.393a.375.375,0,0,1,.292.568c-.77,1.27-2.348,4.453-.464,6.746,0,0,6.308,5.7,7.143,11.066,0,0,1.608-10.557,3.53-23.418Z" transform="translate(-45.228 -48.115)" fill="url(#linear-gradient-3)"/>
  <path id="Path_124077" data-name="Path 124077" d="M79.2,33.852C80.926,22.323,70.246,19,68.013,18.436a.376.376,0,0,0-.464.309l-.56,3.729C73.2,23.957,80.117,27.748,79.2,33.852Z" transform="translate(-51.677 -18.425)" fill="url(#linear-gradient-4)"/>
  <path id="Path_124078" data-name="Path 124078" d="M64.582,36.14l-.713,4.748h0c6.66,1.267,13.373,3.837,12.708,8.082l.219-1.452C77.71,41.414,70.791,37.623,64.582,36.14Z" transform="translate(-49.27 -32.091)" fill="url(#linear-gradient-5)"/>
</svg>
