<svg xmlns="http://www.w3.org/2000/svg" width="302.923" height="483.896" viewBox="0 0 302.923 483.896">
  <g id="Group_54914" data-name="Group 54914" transform="translate(-305.084 -206.785)">
    <g id="Group_54901" data-name="Group 54901" transform="translate(390.041 463.643)">
      <g id="Group_54898" data-name="Group 54898" transform="translate(0 178.148)">
        <g id="Group_54896" data-name="Group 54896" transform="translate(141.521 5.479)">
          <path id="Path_138035" data-name="Path 138035" d="M487.775,488.211c-15.247.79-30.6.6-45.8.792-1.667.02-3.517-.031-4.726-1.126-1.758-1.59-1.054-4.585.76-6.117s4.318-2.01,6.684-2.514c6.393-1.357,15.178-3.443,19.883-8.16,4.082-4.095,2.557-12.2.743-17.187.446,1.224,11.984-1.139,13.217-1.337q6.38-1.031,12.829-1.629a3.789,3.789,0,0,1,2.36.3,3.474,3.474,0,0,1,1.09,1.371c5.811,10.7,11.636,21.647,12.116,33.992C500.575,487.372,494.185,487.877,487.775,488.211Z" transform="translate(-435.058 -450.882)" fill="#310d20"/>
          <path id="Path_138036" data-name="Path 138036" d="M435.69,477.111a25.894,25.894,0,0,1,.274-6.814c22.25.258,44.554.512,66.7-1.539,2.119-.195,4.421-.374,6.218.715s2.422,4,.6,5.06c.828,1.344.184,2.979-1.429,2.732-.781-.119-1.442-.633-2.214-.792-2.1-.43-3.885,1.83-6.033,1.806-1.463-.016-2.716-1.1-4.176-1.207-1.55-.116-2.922.868-4.371,1.4s-3.564.321-3.948-1.115a5.714,5.714,0,0,1-5.242,1.913c-1.337-.226-2.6-.926-3.956-.848a12.481,12.481,0,0,0-3.418,1.159,8.022,8.022,0,0,1-7.745-1.39,7.051,7.051,0,0,1-8.342-.377,5.752,5.752,0,0,1-6.7,1.574c-1.168-.541-2.283-1.512-3.56-1.3a8.263,8.263,0,0,0-2.1,1.021,4.153,4.153,0,0,1-4.869-1.072C440.5,480.13,435.9,479.355,435.69,477.111Z" transform="translate(-435.581 -436.618)" fill="#fbf7de"/>
        </g>
        <g id="Group_54897" data-name="Group 54897">
          <path id="Path_138037" data-name="Path 138037" d="M409.352,485.175c-15.247.79-30.6.6-45.8.792-1.667.02-3.519-.031-4.728-1.126-1.758-1.59-1.054-4.585.762-6.117s4.318-2.01,6.684-2.514c6.392-1.359,15.178-3.443,19.881-8.16,4.084-4.094,2.559-12.2.745-17.187.444,1.224,11.984-1.139,13.215-1.337q6.383-1.031,12.83-1.63a3.772,3.772,0,0,1,2.359.3,3.445,3.445,0,0,1,1.09,1.371c5.811,10.7,11.636,21.647,12.116,33.992C422.15,484.336,415.76,484.842,409.352,485.175Z" transform="translate(-356.633 -447.845)" fill="#310d20"/>
          <path id="Path_138038" data-name="Path 138038" d="M357.264,474.075a25.9,25.9,0,0,1,.276-6.814c22.25.256,44.553.512,66.7-1.539,2.12-.195,4.421-.374,6.22.715s2.422,4,.6,5.06c.83,1.344.186,2.979-1.429,2.732-.78-.119-1.44-.635-2.214-.792-2.1-.43-3.883,1.83-6.031,1.806-1.464-.016-2.718-1.1-4.178-1.207-1.55-.116-2.92.868-4.371,1.4s-3.562.321-3.947-1.115a5.718,5.718,0,0,1-5.244,1.913c-1.337-.226-2.6-.926-3.956-.848a12.49,12.49,0,0,0-3.416,1.159,8.027,8.027,0,0,1-7.747-1.389,7.051,7.051,0,0,1-8.342-.377,5.754,5.754,0,0,1-6.7,1.574c-1.167-.541-2.281-1.512-3.56-1.3a8.2,8.2,0,0,0-2.1,1.021A4.151,4.151,0,0,1,362.961,475C362.074,477.094,357.472,476.319,357.264,474.075Z" transform="translate(-357.156 -433.581)" fill="#fbf7de"/>
        </g>
      </g>
      <path id="Path_138039" data-name="Path 138039" d="M531.118,389.6q-9.788,26.432-19.578,52.862c3.477,1.761,1.98,7.967-1.956,8.1a17.28,17.28,0,0,1,3.992,4.569c5.421,7.938,11.416,14.817,17.354,22.2,7,8.709,10.56,21.8,15.129,31.838a6.518,6.518,0,0,0,1.4,2.218,12.544,12.544,0,0,0,2.465,1.426,7.5,7.5,0,0,1,2.521,10.519,7.064,7.064,0,0,1,3.69,9.017,9.673,9.673,0,0,1,4.246,1.085c1.236.778,2.045,2.371,1.4,3.64a4.493,4.493,0,0,1-2.137,1.723,83.123,83.123,0,0,1-26.635,7.738c-8.859,1.173-16.382,3.371-25.058-.067,1.79-2.575,4.12-3.613,6.7-5.228a5,5,0,0,1-4.975-2.021c-1.211-1.6.119-4.688-.285-5.266q-26.743-38.231-53.489-76.459a11.835,11.835,0,0,1-2.037-3.845,11.512,11.512,0,0,1,.368-5.217q5.376-23.617,10.75-47.236-25.03,17.256-48.75,36.16a4.473,4.473,0,0,1,3.183,4.849,4.647,4.647,0,0,1-4.639,3.625c1.581.1,2.427,1.951,2.191,3.445s-1.157,2.806-1.61,4.255c-1.321,4.223.292,8.75.659,12.951.536,6.166-.07,12.621-.06,18.814q.03,18.236.392,36.474a14.186,14.186,0,0,0,1.03,6.089c.828,1.673,2.3,3.035,2.885,4.8s-.413,4.233-2.351,4.167l3.5,3.719c-.292-.31-21.027,2.36-23.264,2.3a138.561,138.561,0,0,1-26.624-3.3l4.616-3.8c-1.525-.269-2.247-2.054-2.019-3.517s1.09-2.759,1.563-4.169a16.141,16.141,0,0,0,.321-6.639c-1.956-21.339-4.329-42.64-6.529-63.957-.953-9.25-2.414-18.372-3.12-27.685a8.914,8.914,0,0,1,.218-3.587,9.359,9.359,0,0,1,2.263-3.2c14.224-15.055,30.024-27.989,45.1-42.183q8.218-7.739,16.143-15.754c2.456-2.483,5.217-6.722,8.234-8.494,2.934-1.725,3.53-1.261,7.258-.668a190.385,190.385,0,0,0,87.27-6.495,2.622,2.622,0,0,1,2.431.043,2.257,2.257,0,0,1,.626,1.307C539.168,365.208,536.135,376.062,531.118,389.6Z" transform="translate(-349.819 -349.124)" fill="#4e263e"/>
      <path id="Path_138040" data-name="Path 138040" d="M527.719,384.511a25.363,25.363,0,0,1-4.778,2.564,113.554,113.554,0,0,1-33.953,8.144q4.821,4.537,9.645,9.071l-10.075,1.238a405.047,405.047,0,0,0-10.17,45.563q8.516.79,17.033,1.577l-19.772,4.851a35.285,35.285,0,0,0,22.651,3.826,65.41,65.41,0,0,1-15.83,6.173l29.575,43.991c3.077,4.576,6.323,9.313,11.114,12.042s11.607,2.761,15.18-1.438l-13.195,11.414a45.276,45.276,0,0,0,16.56-3.984l-14.393,10.181a46.561,46.561,0,0,0,16.9-3.208,53.112,53.112,0,0,1-16.3,10.5c-2.266.837-20.447.161-19.962-.538,1.788-2.575,4.118-3.611,6.7-5.226a5,5,0,0,1-4.975-2.021c-1.211-1.6.119-4.688-.285-5.266q-26.743-38.231-53.489-76.459a11.835,11.835,0,0,1-2.037-3.845,11.512,11.512,0,0,1,.368-5.217q5.376-23.617,10.75-47.236-25.03,17.256-48.75,36.16a4.473,4.473,0,0,1,3.183,4.849,4.647,4.647,0,0,1-4.639,3.625c1.581.1,2.427,1.951,2.191,3.445s-1.157,2.806-1.61,4.255c-1.321,4.223.292,8.75.659,12.951.536,6.166-.07,12.621-.06,18.814q.03,18.236.392,36.474a14.186,14.186,0,0,0,1.03,6.089c.828,1.673,2.3,3.035,2.885,4.8s-.413,4.233-2.351,4.167l3.5,3.719c-.292-.31-21.027,2.36-23.264,2.3a138.561,138.561,0,0,1-26.624-3.3l4.616-3.8c-1.525-.269-2.247-2.054-2.019-3.517s1.09-2.759,1.563-4.169a16.141,16.141,0,0,0,.321-6.639c-1.956-21.339-4.329-42.64-6.529-63.957-.953-9.25-2.414-18.372-3.12-27.685a8.914,8.914,0,0,1,.218-3.587,9.359,9.359,0,0,1,2.263-3.2c14.224-15.055,30.024-27.989,45.1-42.183q8.218-7.739,16.143-15.754c2.456-2.483,5.217-6.722,8.234-8.494,2.934-1.725,3.53-1.261,7.258-.668a190.385,190.385,0,0,0,87.27-6.495,2.622,2.622,0,0,1,2.431.043,2.257,2.257,0,0,1,.626,1.307C538.808,363.615,538.3,377.21,527.719,384.511Z" transform="translate(-349.819 -349.124)" fill="#4e263e" opacity="0.49" style="mix-blend-mode: multiply;isolation: isolate"/>
      <g id="Group_54900" data-name="Group 54900" transform="translate(35.622 26.695)">
        <path id="Path_138041" data-name="Path 138041" d="M445.957,370.779a42.559,42.559,0,0,0-19.57,5.538,58.887,58.887,0,0,1,21.893,7.029" transform="translate(-337.078 -358.396)" fill="none" stroke="#6f387d" stroke-linecap="round" stroke-linejoin="round" stroke-width="1"/>
        <path id="Path_138042" data-name="Path 138042" d="M454.431,405.454c-4.039,6.632-12.722,10.36-20.6,8.846" transform="translate(-331.092 -330.498)" fill="none" stroke="#6f387d" stroke-linecap="round" stroke-linejoin="round" stroke-width="1"/>
        <path id="Path_138043" data-name="Path 138043" d="M447.139,403.978a40.467,40.467,0,0,0-11.712,4.531" transform="translate(-329.805 -331.686)" fill="none" stroke="#6f387d" stroke-linecap="round" stroke-linejoin="round" stroke-width="1"/>
        <path id="Path_138044" data-name="Path 138044" d="M472.573,440.636c-3.9,5.746-8.38,11.921-15.288,13.78" transform="translate(-312.219 -302.193)" fill="none" stroke="#6f387d" stroke-linecap="round" stroke-linejoin="round" stroke-width="1"/>
        <path id="Path_138045" data-name="Path 138045" d="M473.739,447.624a34.188,34.188,0,0,1-15.422,7.734" transform="translate(-311.389 -296.571)" fill="none" stroke="#6f387d" stroke-linecap="round" stroke-linejoin="round" stroke-width="1"/>
        <g id="Group_54899" data-name="Group 54899" opacity="0.53">
          <path id="Path_138046" data-name="Path 138046" d="M425.828,385.776a13.153,13.153,0,0,1-7.346-2.368c-2.857-2.29-3.683-6.273-3.014-9.773s2.593-6.65,4.483-9.718" transform="translate(-346.039 -363.917)" fill="none" stroke="#6f387d" stroke-linecap="round" stroke-linejoin="round" stroke-width="1"/>
          <path id="Path_138047" data-name="Path 138047" d="M423.367,364.018a39.5,39.5,0,0,0-4.661,11.7" transform="translate(-343.258 -363.836)" fill="none" stroke="#6f387d" stroke-linecap="round" stroke-linejoin="round" stroke-width="1"/>
          <path id="Path_138048" data-name="Path 138048" d="M418.86,377.19a45.873,45.873,0,0,0-14.666-10.609" transform="translate(-354.933 -361.774)" fill="none" stroke="#6f387d" stroke-linecap="round" stroke-linejoin="round" stroke-width="1"/>
          <path id="Path_138049" data-name="Path 138049" d="M404.531,401.82a44.289,44.289,0,0,0-22.945-7.267" transform="translate(-373.123 -339.269)" fill="none" stroke="#6f387d" stroke-linecap="round" stroke-linejoin="round" stroke-width="1"/>
          <path id="Path_138050" data-name="Path 138050" d="M394.881,401.355a35.062,35.062,0,0,0-14.079-.964" transform="translate(-373.753 -334.825)" fill="none" stroke="#6f387d" stroke-linecap="round" stroke-linejoin="round" stroke-width="1"/>
          <path id="Path_138051" data-name="Path 138051" d="M404.172,450.713a45.645,45.645,0,0,1-27.276-3.292" transform="translate(-376.896 -296.734)" fill="none" stroke="#6f387d" stroke-linecap="round" stroke-linejoin="round" stroke-width="1"/>
          <path id="Path_138052" data-name="Path 138052" d="M394.676,445.58a28.391,28.391,0,0,1-15.954-6.359" transform="translate(-375.427 -303.331)" fill="none" stroke="#6f387d" stroke-linecap="round" stroke-linejoin="round" stroke-width="1"/>
        </g>
      </g>
    </g>
    <g id="Group_54906" data-name="Group 54906" transform="translate(316.282 330.573)">
      <g id="Group_54903" data-name="Group 54903" transform="translate(0 51.892)">
        <path id="Path_138053" data-name="Path 138053" d="M414,373.825c-24.749-6.365-48.158-17.095-70.359-29.162.032.018-5.5,7.276-6.742,7.451a7.889,7.889,0,0,1-4.26-1.036q-5.7-2.6-11.4-5.206a1.768,1.768,0,0,1-1.032-.845,2.815,2.815,0,0,1,.065-1.209c.108-1.155-.8-2.133-1.539-3.055-1.5-1.878-2.234-5.033-.123-6.273a8.112,8.112,0,0,1-2.323-5.63,4.72,4.72,0,0,1,3.806-4.419c-1.476-2.626.383-6.119,3.227-7.35s6.215-.671,9.082.509a7.035,7.035,0,0,1,2.2-9.768,2.3,2.3,0,0,1,1.458-.41c.955.139,1.406,1.164,1.754,2.021a18.9,18.9,0,0,0,8.454,9.355,3.8,3.8,0,0,1,1.66,1.308,3.187,3.187,0,0,1,.09,2.1,70.226,70.226,0,0,0-1.546,9.391c19.217,6.182,39.254,11.818,59.108,16.165a7.49,7.49,0,0,0,3.476.2,7.18,7.18,0,0,0,3.221-2.359l38.466-41.47q8.589,11.583,17.176,23.167a206.432,206.432,0,0,1-46.4,45.049,9.177,9.177,0,0,1-3.854,1.9A9.4,9.4,0,0,1,414,373.825Z" transform="translate(-316.282 -304.139)" fill="#c34b48"/>
        <path id="Path_138054" data-name="Path 138054" d="M337.164,328.78a7.129,7.129,0,0,1-3.29,1.007q-.728.1-1.456.2a4.662,4.662,0,0,1,1.492,5.437,5.075,5.075,0,0,1-5.073,2.864,2.408,2.408,0,0,1,.63,3.062c-1.283,2.173-3.871.716-5.648.17-1.074-.33-2.817-.653-3.448-1.675-.866-1.395-.365-2.954-1.635-4.544-1.5-1.878-2.234-5.033-.123-6.273a8.112,8.112,0,0,1-2.323-5.63,4.72,4.72,0,0,1,3.806-4.419c-1.476-2.626.383-6.119,3.227-7.35,4.636-2,11.52.641,14.821,4.03,2.371,2.436,2.927,7.413-1.646,7.785a3.207,3.207,0,0,1,1.922,2.422,3.111,3.111,0,0,1-1.144,2.833C337.24,328.724,337.2,328.753,337.164,328.78Z" transform="translate(-327.48 -298.673)" fill="#fc795f"/>
        <g id="Group_54902" data-name="Group 54902" transform="translate(2.631 19.771)">
          <path id="Path_138055" data-name="Path 138055" d="M336.427,323.681a1.767,1.767,0,0,0-.051-2.131,5.142,5.142,0,0,0-1.85-1.422,44.983,44.983,0,0,0-15.994-5.033" transform="translate(-317.102 -315.095)" fill="none" stroke="#e23d26" stroke-linecap="round" stroke-linejoin="round" stroke-width="1" opacity="0.75" style="mix-blend-mode: multiply;isolation: isolate"/>
          <path id="Path_138056" data-name="Path 138056" d="M332.537,327.279c.974-2.389-1.393-4.181-3.481-4.952-3.571-1.319-7.487-1.435-11.316-1.536" transform="translate(-317.74 -310.511)" fill="none" stroke="#e23d26" stroke-linecap="round" stroke-linejoin="round" stroke-width="1" opacity="0.75" style="mix-blend-mode: multiply;isolation: isolate"/>
          <path id="Path_138057" data-name="Path 138057" d="M327.691,329.41a2.507,2.507,0,0,0-.816-2.443,6.306,6.306,0,0,0-2.451-1.281,19.261,19.261,0,0,0-6.038-.915" transform="translate(-317.219 -307.311)" fill="none" stroke="#e23d26" stroke-linecap="round" stroke-linejoin="round" stroke-width="1" opacity="0.75" style="mix-blend-mode: multiply;isolation: isolate"/>
        </g>
      </g>
      <g id="Group_54905" data-name="Group 54905" transform="translate(102.419)">
        <path id="Path_138058" data-name="Path 138058" d="M403.207,310.869c-1.052,1.713-2.019,3.488-3.055,5.2a64.391,64.391,0,0,1-27.113,24.388c7.343,14.315,20.328,25.136,32.976,35.551,3.239,2.665,13.249-17.492,13.715-19.051,1.889,8.8,7.359,18.661,7.316,27.5-.031,6.17-2.133,13.624,2.839,17.569l-11.71,15.719c30.9,18.309,71.83,20.114,104.377,4.6,7.792-3.716,15.315-8.536,20.081-15.49,1.1-1.6,2.073-3.477,1.712-5.363-.9-4.708-9.227-6.444-8.429-11.168a24.174,24.174,0,0,1,1.061-2.851c.592-1.947-3.095-10.308-6.361-7.018,2.126-2.142,1.846-5.524,1.247-8.418a72.032,72.032,0,0,0-7-19.291c-.494-.924-1.02-1.989-.619-2.952,10.47-3.448,18.715-11.237,24.466-20.141q-18.36-18.942-36.717-37.885c-2.4-2.479-4.934-5.042-8.252-6.218a23.781,23.781,0,0,0-8.232-.875c-13.976.15-30.432-2.1-43.878,1.388-12.8,3.322-24.764,9-36.591,14.62a32.689,32.689,0,0,0-6.455,3.694A24.247,24.247,0,0,0,403.207,310.869Z" transform="translate(-373.038 -268.375)" fill="#df2c44"/>
        <path id="Path_138059" data-name="Path 138059" d="M396.83,302.456q4.5-.441,9.007-.881-1.914,3.124-3.826,6.249c-.254.415,19.724,2.418,21.68,2.285,7.37-.5,14.348-1.317,21.292-4.154a89.467,89.467,0,0,1-18.632,20.871,66.255,66.255,0,0,0,18.847-7.014c.689,11.206,12.385,20.806,9.454,31.646-1.736,6.421-8.016,10.327-12.358,15.368l32.159-5.484c-.41.07-6.884,13.608-8.189,15.171a54.912,54.912,0,0,1-13.025,11.157c-11.233,6.868-27.817,6.924-40.431,4.921q11.745,8.115,23.977,15.5a50.042,50.042,0,0,1-21.849-.368A78.077,78.077,0,0,0,435.4,424.8a58.883,58.883,0,0,1-15.828,1.247c11.224,7.076,28.783,7.267,41.685,6.659a110.247,110.247,0,0,0,42.152-10.367c7.792-3.716,15.315-8.536,20.081-15.49,1.1-1.6,2.073-3.477,1.712-5.363-.9-4.708-9.227-6.444-8.429-11.168a24.163,24.163,0,0,1,1.061-2.851c.592-1.947-3.095-10.308-6.361-7.018,2.126-2.142,1.846-5.524,1.247-8.418a72.032,72.032,0,0,0-7-19.291c-.494-.924-1.02-1.989-.619-2.952,10.47-3.448,18.715-11.237,24.466-20.141q-18.36-18.942-36.717-37.885c-2.4-2.479-4.934-5.042-8.252-6.218a23.781,23.781,0,0,0-8.232-.875c-13.976.15-30.432-2.1-43.878,1.388C419.446,289.443,407.625,294.565,396.83,302.456Z" transform="translate(-353.896 -268.375)" fill="#df2c44" opacity="0.65" style="mix-blend-mode: multiply;isolation: isolate"/>
        <path id="Path_138060" data-name="Path 138060" d="M396.5,310.869c-2.577,4.2-4.809,8.341-7.953,12.224-.509.63-6.946,7.449-7.179,7.005,3.292,6.28,8.317,12.2,13.39,17.125,1.628,1.577,14.949,13.76,16.938,12.293l1.126-.832c.161-.119-.227-5.009-.155-5.643a23.092,23.092,0,0,1,1.954-6.514c1.727-4.044,3.461-8.106,5.138-12.183q8.941,10.738,18.374,21.048,7.333-12.552,14.667-25.1,9.7,7.3,19.4,14.6a83.147,83.147,0,0,0,10.08-29.69,55.925,55.925,0,0,0,6.2,8.066c1.673,1.808,5.269,3.9,5.76,6.323,9.739-5.12,18.289-15.133,24.251-24.19.108-.164-12.282-12.69-13.2-13.639-2.4-2.479-4.934-5.042-8.252-6.218a23.781,23.781,0,0,0-8.232-.875c-13.976.15-30.432-2.1-43.878,1.388-12.8,3.322-24.764,9-36.591,14.62a32.689,32.689,0,0,0-6.455,3.694A24.247,24.247,0,0,0,396.5,310.869Z" transform="translate(-366.334 -268.375)" fill="#7f0631" opacity="0.64" style="mix-blend-mode: multiply;isolation: isolate"/>
        <path id="Path_138061" data-name="Path 138061" d="M435.977,291.914c2.09,1.953,4.549,2.772,7.262,1.22-7.686,11.721-23.531,17.98-37.657,14.875a9.837,9.837,0,0,0,4.311-6.975,27.982,27.982,0,0,0-.323-8.314c-.523-3.753-1.14-7.723-3.663-10.647,1.935,2.241,20.487-5.412,23.019-6.691C428.019,275.84,430.919,287.192,435.977,291.914Z" transform="translate(-346.856 -275.383)" fill="#c34b48"/>
        <path id="Path_138062" data-name="Path 138062" d="M432.4,289.184a95.171,95.171,0,0,1-11.952,13.027c-3.174,2.873-6.744,7.2-11.517,6.514-.875-.126-2.514-1.222-3.353-.716a9.838,9.838,0,0,0,4.309-6.975,27.982,27.982,0,0,0-.323-8.314c-.523-3.753-1.14-7.723-3.663-10.647,1.935,2.241,20.487-5.412,23.019-6.691-.98.494.848,5.369,1.063,6.013a43.084,43.084,0,0,0,3.021,6.982C432.809,288.648,432.607,288.915,432.4,289.184Z" transform="translate(-346.855 -275.383)" fill="#c34b48" opacity="0.51" style="mix-blend-mode: multiply;isolation: isolate"/>
        <g id="Group_54904" data-name="Group 54904" transform="translate(34.59 21.442)">
          <path id="Path_138063" data-name="Path 138063" d="M470.828,352.848a260.841,260.841,0,0,0-16.961-21.687c-4.8-5.517-7.714-11.215-11.847-17.136-2.248-3.225-4.522-6.637-4.939-10.49-.644-5.966,3.243-11.423,6.946-16.27" transform="translate(-356.158 -287.265)" fill="none" stroke="#9a1a3b" stroke-linecap="round" stroke-linejoin="round" stroke-width="1" opacity="0.54" style="mix-blend-mode: multiply;isolation: isolate"/>
          <path id="Path_138064" data-name="Path 138064" d="M407.5,357.443c-7.817-19.271-5.5-41.582-15.29-60.014" transform="translate(-392.206 -279.088)" fill="none" stroke="#9a1a3b" stroke-linecap="round" stroke-linejoin="round" stroke-width="1" opacity="0.54" style="mix-blend-mode: multiply;isolation: isolate"/>
          <path id="Path_138065" data-name="Path 138065" d="M450.833,289.079c-13.35,13.208-29.008,18.148-48.187,15.893" transform="translate(-383.806 -285.806)" fill="none" stroke="#9a1a3b" stroke-linecap="round" stroke-linejoin="round" stroke-width="1" opacity="0.54" style="mix-blend-mode: multiply;isolation: isolate"/>
          <path id="Path_138066" data-name="Path 138066" d="M429.423,302.027a21.368,21.368,0,0,1-15.844,9.965" transform="translate(-375.01 -275.388)" fill="none" stroke="#9a1a3b" stroke-linecap="round" stroke-linejoin="round" stroke-width="1" opacity="0.54" style="mix-blend-mode: multiply;isolation: isolate"/>
          <path id="Path_138067" data-name="Path 138067" d="M503.7,343.842c-20.584,25.969-57.623,39-90.96,31.993" transform="translate(-375.685 -241.746)" fill="none" stroke="#9a1a3b" stroke-linecap="round" stroke-linejoin="round" stroke-width="1" opacity="0.54" style="mix-blend-mode: multiply;isolation: isolate"/>
          <path id="Path_138068" data-name="Path 138068" d="M405.591,351.055c8.117,6.809,19.07,9.988,29.871,10.434s21.544-1.642,31.986-4.313" transform="translate(-381.437 -235.943)" fill="none" stroke="#9a1a3b" stroke-linecap="round" stroke-linejoin="round" stroke-width="1" opacity="0.54" style="mix-blend-mode: multiply;isolation: isolate"/>
          <path id="Path_138069" data-name="Path 138069" d="M481.157,349.33a103.131,103.131,0,0,1-76.354-6.507" transform="translate(-382.071 -242.566)" fill="none" stroke="#9a1a3b" stroke-linecap="round" stroke-linejoin="round" stroke-width="1" opacity="0.54" style="mix-blend-mode: multiply;isolation: isolate"/>
          <path id="Path_138070" data-name="Path 138070" d="M446.967,316.452a126.7,126.7,0,0,1-22.959,22.878" transform="translate(-366.62 -263.783)" fill="none" stroke="#9a1a3b" stroke-linecap="round" stroke-linejoin="round" stroke-width="1" opacity="0.54" style="mix-blend-mode: multiply;isolation: isolate"/>
        </g>
      </g>
      <path id="Path_138071" data-name="Path 138071" d="M417.643,360.649c-.991-1.066-1.978-2.613-1.913-3.927.022-.453,1.205-3.669,1.859-3.227a8.433,8.433,0,0,0,5.993,1.308c2.2-.356,4.387-1.584,6.536-1,1.691.458,8.3,9.9,8.7,9.754,19.637-7.408,37.935-20.115,58.44-24.9q-3.235-5.809-6.984-11.338c8.631-5.5,17.656-9.936,25.045-16.992,6.652,10.183,13.352,20.458,17.648,31.735a5.134,5.134,0,0,1-1.1,6.668c-10.7,11.767-27.368,15.918-42.475,20.26-15.357,4.414-31.015,5.71-46.565,8.846,1.873-.379-2.544,7.312-3.015,7.76-2.47,3.535-10.968,5.323-14.8,6.827a3.727,3.727,0,0,1-3,.273c-.967-.507-1.205-1.711-1.337-2.757a5.367,5.367,0,0,1-5.639-1.337,4.77,4.77,0,0,1-.6-5.513c-4.475-1.6-6.872-7.115-4.887-11.26-1.711-2.108-.817-5.356,1.193-7.207s4.809-2.649,7.493-3.385C418.047,361.062,417.845,360.865,417.643,360.649Z" transform="translate(-241.969 -247.269)" fill="#fc795f"/>
    </g>
    <g id="Group_54913" data-name="Group 54913" transform="translate(394.971 206.786)">
      <path id="Path_138072" data-name="Path 138072" d="M402.221,226.412a49.628,49.628,0,0,0-9.7,3.624c-8.072,4.105-15.183,12.181-16.2,21.1s3.282,17.3,5.43,25.749c2.389,9.405-.65,15.369-2.322,24.513-1.911,10.452,3.391,21.429,12.067,28.07,20.031,15.33,48.393,4.86,67.254-7.581,3.1-2.046,6.13-4.334,8.184-7.355,3.786-5.58,3.026-13.6,3.649-20.052-.226,1.29,1.047,2.478,2.4,2.683a6.924,6.924,0,0,0,3.936-.888c9.965-4.759,16.347-15.6,15.423-26.188-.505-5.791-3.382-11.749-8.768-14.465s-13.294-.846-15.405,4.6c1.884-4.861-2.669-14.373-5.024-18.547-3.048-5.4-6.13-9.066-11.843-12-11.037-5.664-24.58-7.337-36.9-5.6A102.6,102.6,0,0,0,402.221,226.412Z" transform="translate(-346.799 -193.4)" fill="#fc795f"/>
      <path id="Path_138073" data-name="Path 138073" d="M405.432,336.024c15.534-.148,28.5-4.986,37.8-17.7,4.634-6.336,5.118-14.8,5.32-22.553.056-2.167-1.523-25.861-2.111-25.72-10.347,2.46-23.7-.384-29.95-9.745.045,1.935-2.436,3.1-4.282,2.519s-3.113-2.236-4.257-3.8a13.924,13.924,0,0,1-23.827,9.176q-.566,6.464-1.131,12.93c-1.292-10.284-7.922-19.195-6.684-30,1.021-8.918,8.133-16.993,16.2-21.1a49.628,49.628,0,0,1,9.7-3.624,102.6,102.6,0,0,1,12.168-2.335c12.321-1.736,25.865-.063,36.9,5.6,5.713,2.932,8.8,6.594,11.843,12,2.355,4.174,6.908,13.686,5.024,18.547,2.111-5.45,10.019-7.319,15.405-4.6s8.263,8.675,8.768,14.465c.924,10.591-5.459,21.429-15.423,26.188a6.924,6.924,0,0,1-3.936.888c-1.353-.206-2.626-1.393-2.4-2.683-.623,6.455.137,14.472-3.649,20.052-2.054,3.021-5.082,5.309-8.184,7.355C443.947,331.64,423.312,340.185,405.432,336.024Z" transform="translate(-346.799 -193.4)" fill="#c34b48" opacity="0.57" style="mix-blend-mode: multiply;isolation: isolate"/>
      <g id="Group_54911" data-name="Group 54911" transform="translate(32.89 67.148)">
        <path id="Path_138074" data-name="Path 138074" d="M440.667,250.6c-.736-2.553-3.544-4.878-6.491-3.988-4.183,1.263-5.636,7.117-4.75,10.7,2.929-3.18,8.185-2.828,6.52,2.35a8.7,8.7,0,0,1-2.783,4.044,14.75,14.75,0,0,1-3.264,1.4,2.917,2.917,0,0,0,.493,3.171" transform="translate(-337.032 -242.051)" fill="none" stroke="#e23d26" stroke-linecap="round" stroke-linejoin="round" stroke-width="1" opacity="0.75" style="mix-blend-mode: multiply;isolation: isolate"/>
        <g id="Group_54909" data-name="Group 54909" transform="translate(4.749 3.091)">
          <g id="Group_54907" data-name="Group 54907" transform="translate(36.082)">
            <ellipse id="Ellipse_290" data-name="Ellipse 290" cx="14.62" cy="17.651" rx="14.62" ry="17.651" fill="#fff"/>
            <path id="Path_138075" data-name="Path 138075" d="M401.679,259.5c0,7.612,5.112,13.783,11.417,13.783s11.417-6.172,11.417-13.783S419.4,245.713,413.1,245.713,401.679,251.883,401.679,259.5Z" transform="translate(-399.986 -245.705)" fill="#310d20"/>
          </g>
          <g id="Group_54908" data-name="Group 54908" transform="translate(0 2.633)">
            <ellipse id="Ellipse_291" data-name="Ellipse 291" cx="8.846" cy="14.609" rx="8.846" ry="14.609" transform="matrix(0.999, -0.048, 0.048, 0.999, 0, 0.851)" fill="#fff"/>
            <path id="Path_138076" data-name="Path 138076" d="M381.629,259.111c.289,6.294,3.611,11.268,7.424,11.111s6.668-5.39,6.379-11.684-3.611-11.268-7.422-11.109S381.342,252.819,381.629,259.111Z" transform="translate(-380.052 -246.961)" fill="#310d20"/>
          </g>
        </g>
        <path id="Path_138077" data-name="Path 138077" d="M393.968,244a127.211,127.211,0,0,1,1.835,16.421,10.725,10.725,0,0,1-.067,2.333c-.624,3.652-4.244,5.571-6.2,8.461a7.926,7.926,0,0,0-1.482,5.749,6.359,6.359,0,0,0,4.688,4.843,15.178,15.178,0,0,0,12.737-2.47" transform="translate(-370.194 -243.996)" fill="#fc7250" stroke="#e23d26" stroke-miterlimit="10" stroke-width="1"/>
        <g id="Group_54910" data-name="Group 54910" transform="translate(0 36.236)" opacity="0.67">
          <path id="Path_138078" data-name="Path 138078" d="M433.03,264.141a10.6,10.6,0,0,1,2.781.608c10.021,3.775-1.274,13.451-6.361,15.593a19.009,19.009,0,0,1-14.509-.005c-2.331-.983-4.661-2.839-4.639-5.269.067-7.763,12.634-10.34,18.744-10.869A22.612,22.612,0,0,1,433.03,264.141Z" transform="translate(-352.218 -264.076)" fill="#e23d26" style="mix-blend-mode: multiply;isolation: isolate"/>
          <path id="Path_138079" data-name="Path 138079" d="M387.459,266.909a6.476,6.476,0,0,1,2.328,5.277,5.911,5.911,0,0,1-9.149,4.625c-5.138-3.506-1.906-13.375,4.963-10.968A5.964,5.964,0,0,1,387.459,266.909Z" transform="translate(-378.114 -262.956)" fill="#e23d26"/>
        </g>
        <path id="Path_138080" data-name="Path 138080" d="M422.924,273.428a16.065,16.065,0,0,0,1.341-1.707,3.049,3.049,0,0,0,.666-1.648A2.406,2.406,0,0,0,422.868,268a8.036,8.036,0,0,0-3.208.236c-10.854,2.216-21.252,1.75-32.045-.065a3.261,3.261,0,0,0-2.259.164c-.944.59-.92,1.949-.451,2.927a19.514,19.514,0,0,0,3.1,5.089c4.246,4.439,10.687,7.783,17.167,6.787a27,27,0,0,0,9.084-3.465C417.437,277.871,420.544,276.079,422.924,273.428Z" transform="translate(-372.906 -224.754)" fill="#fff" stroke="#e23d26" stroke-miterlimit="10" stroke-width="1"/>
      </g>
      <path id="Path_138081" data-name="Path 138081" d="M376.6,276.664c-.48-4.028.119-8.521,1.07-10.524a54.486,54.486,0,0,1-5.2,8.745c-.538.738-1.323,1.556-2.245,1.364-5.28-1.086-3.248-14.956-1.911-17.739a10.131,10.131,0,0,1-4.923,2.615,3.378,3.378,0,0,1-2.034-.061c-1.279-.559-1.5-2.182-1.465-3.524.419-15.977,12.237-30.455,27.352-37.365s32.893-7.034,49.172-3.236q-2.682-3.427-5.367-6.852a2.57,2.57,0,0,1-.763-1.765c.148-1.26,1.9-1.579,3.228-1.532a67.385,67.385,0,0,1,31.419,9.185,63.993,63.993,0,0,1,12.893,9.932c2.765,2.766,7.949,7.086,8.444,11.13a26.2,26.2,0,0,1,.272-8.086c5.623,4.383,8.887,10.907,11.453,17.385a137.362,137.362,0,0,1,7.115,26.466c.558,3.061-.448,8.238.688,10.865-2.582-5.978-4.012-11.7-10.878-14.667-6.087-2.627-10.835.6-12.567,6.419a39.52,39.52,0,0,0-1.209,9.757c-.076,1.92-1.068,6.22-.332,7.956-2.355-5.556-2.218-12.913-2.781-18.885.152,1.151-1.449,1.929-2.586,1.516a4.56,4.56,0,0,1-2.3-2.579c-1.779-3.8-2.812-7.989-4.06-11.966-.973,5.982-7.505,9.721-13.736,10.872a34.883,34.883,0,0,1-28.247-7.323c.045,1.112-1.548,1.712-2.613,1.256a5.538,5.538,0,0,1-2.268-2.469,4.417,4.417,0,0,0-2.451-2.257c1.16,5.944-3.835,11.809-9.86,13.689a23.455,23.455,0,0,1-9.73.7c-2.137-.251-6.67-2.449-8.581-1.953-5.116,1.33-3.652,11.91-10.308,10.564C378.415,283.723,377.047,280.392,376.6,276.664Z" transform="translate(-359.888 -206.786)" fill="#310d20"/>
      <g id="Group_54912" data-name="Group 54912" transform="translate(35.831 51.089)">
        <path id="Path_138082" data-name="Path 138082" d="M427.264,246.937c-2.694-6.26-7.29-12.228-15.151-11.82a13.791,13.791,0,0,0-9.6,4.623" transform="translate(-361.423 -235.097)" fill="none" stroke="#683355" stroke-linecap="round" stroke-linejoin="round" stroke-width="2"/>
        <path id="Path_138083" data-name="Path 138083" d="M396.58,241.533a11.254,11.254,0,0,0-9.283-4.676c-3.647.179-7.16,2.884-7.554,6.347" transform="translate(-379.744 -233.69)" fill="none" stroke="#683355" stroke-linecap="round" stroke-linejoin="round" stroke-width="2"/>
      </g>
    </g>
  </g>
</svg>
