<svg xmlns="http://www.w3.org/2000/svg" width="58.095" height="60" viewBox="0 0 58.095 60">
  <g id="digital-drawing" transform="translate(-28 -24)">
    <circle id="Ellipse_295" data-name="Ellipse 295" cx="1.079" cy="1.079" r="1.079" transform="translate(57.524 29.46)"/>
    <path id="Path_138200" data-name="Path 138200" d="M84.952,28.762a.952.952,0,0,0,.952-.952V24.952a.952.952,0,1,0-1.9,0V27.81A.952.952,0,0,0,84.952,28.762Z" transform="translate(-42.667)"/>
    <path id="Path_138201" data-name="Path 138201" d="M84.952,52a.952.952,0,0,0-.952.952V55.81a.952.952,0,0,0,1.9,0V52.952A.952.952,0,0,0,84.952,52Z" transform="translate(-42.667 -21.333)"/>
    <path id="Path_138202" data-name="Path 138202" d="M64.952,45.9H67.81a.952.952,0,0,0,0-1.9H64.952a.952.952,0,0,0,0,1.9Z" transform="translate(-27.429 -15.238)"/>
    <path id="Path_138203" data-name="Path 138203" d="M92.952,45.9H95.81a.952.952,0,1,0,0-1.9H92.952a.952.952,0,1,0,0,1.9Z" transform="translate(-48.762 -15.238)"/>
    <path id="Path_138204" data-name="Path 138204" d="M152.935,224a1.456,1.456,0,1,0,1.456,1.456A1.456,1.456,0,0,0,152.935,224Z" transform="translate(-94.079 -152.381)"/>
    <path id="Path_138205" data-name="Path 138205" d="M80.733,98.61A5.368,5.368,0,0,0,86.1,93.248V63.019a5.387,5.387,0,0,0-2.688-4.626l.779-.779A3.334,3.334,0,0,0,79.472,52.9l-4.758,4.758h-38.5a5.368,5.368,0,0,0-5.362,5.362V93.246a5.37,5.37,0,0,0,5.364,5.364H52.452l-1.361,4.762H28.952a.952.952,0,0,0,0,1.9h56.19a.952.952,0,0,0,0-1.9H66.814L65.453,98.61Zm.086-44.363a1.429,1.429,0,1,1,2.02,2.02l-5.051,5.051-2.02-2.02ZM64.993,74.113l-2.02-2.02L72.4,62.664l2.02,2.02ZM61.886,73.7l1.5,1.5-3.541,2.049ZM75.768,63.338l-2.02-2.02.674-.674,2.02,2.02ZM64.225,68.147a39.626,39.626,0,0,0-8.74,0c-2.387.341-4.078,1.29-5.024,2.82a6.567,6.567,0,0,0-.507,5.09.953.953,0,1,0,1.807-.6,4.7,4.7,0,0,1,.32-3.486,4.856,4.856,0,0,1,3.673-1.936,34.9,34.9,0,0,1,6.705-.116l-1.308,1.308a.945.945,0,0,0-.153.2l-4.563,7.956a.952.952,0,0,0,1.3,1.3l7.931-4.588a.939.939,0,0,0,.2-.151l4.613-4.613c1.843.636,2.99,1.429,3.15,2.2.168.811-.719,1.789-1.493,2.466a53.838,53.838,0,0,1-9.857,6.641c-3.5-.32-6.87-.216-8.989.843-1.558.779-3.11,1.75-2.8,3.045.315,1.336,2.448,1.617,4.182,1.617a.958.958,0,0,0,.325-.057,67.824,67.824,0,0,0,7.687-3.49A79.993,79.993,0,0,1,75.35,87.143a.953.953,0,0,0,.538-1.828,87.459,87.459,0,0,0-10.4-2.291,52.306,52.306,0,0,0,7.9-5.6c1.68-1.47,2.387-2.912,2.1-4.285-.275-1.33-1.471-2.432-3.539-3.29L81.99,59.81a3.469,3.469,0,0,1,2.2,3.209V90.038H45.143V59.562H72.81ZM54.5,86.227a9.521,9.521,0,0,1-1.807-.2,9.766,9.766,0,0,1,1.449-.85,11.105,11.105,0,0,1,4.675-.806c-2.2,1.034-3.821,1.669-4.316,1.857ZM36.219,59.562h7.019V90.038H32.762V63.019a3.461,3.461,0,0,1,3.457-3.457ZM32.762,93.246v-1.3H84.19v1.3A3.461,3.461,0,0,1,80.733,96.7H36.221a3.463,3.463,0,0,1-3.459-3.459Zm32.071,10.126H53.072l1.361-4.762h9.039Z" transform="translate(0 -21.276)"/>
    <path id="Path_138206" data-name="Path 138206" d="M59.333,106.667A3.333,3.333,0,1,0,56,103.333,3.337,3.337,0,0,0,59.333,106.667Zm0-4.762a1.429,1.429,0,1,1-1.429,1.429A1.43,1.43,0,0,1,59.333,101.9Z" transform="translate(-21.333 -57.905)"/>
    <path id="Path_138207" data-name="Path 138207" d="M56.952,142.667h4.762a.952.952,0,0,0,.952-.952v-4.762a.952.952,0,0,0-.952-.952H56.952a.952.952,0,0,0-.952.952v4.762A.952.952,0,0,0,56.952,142.667ZM57.9,137.9h2.857v2.857H57.9Z" transform="translate(-21.333 -85.333)"/>
    <path id="Path_138208" data-name="Path 138208" d="M56.559,180.3h4.949a.952.952,0,0,0,.825-1.429l-2.475-4.286a.991.991,0,0,0-1.65,0l-2.475,4.286a.952.952,0,0,0,.825,1.429Zm2.475-3.333.825,1.429h-1.65Z" transform="translate(-21.033 -114.394)"/>
  </g>
</svg>
