<svg xmlns="http://www.w3.org/2000/svg" width="63.789" height="60" viewBox="0 0 63.789 60">
  <g id="Layer_x0020_1" transform="translate(0 -50.617)">
    <path id="Path_138214" data-name="Path 138214" d="M42.158,73.579a1.118,1.118,0,0,1-.785-1.906L51.2,61.694a1.123,1.123,0,0,1,1.607,1.57L42.98,73.243A1.159,1.159,0,0,1,42.158,73.579Zm6.765-15.959L54.3,52.164a5.245,5.245,0,0,1,7.4-.037l.523.523a5.211,5.211,0,0,1,.037,7.4l-2.878,2.915L48.96,73.542v30.124a6.962,6.962,0,0,1-6.952,6.952H6.952A6.938,6.938,0,0,1,0,103.666V57.845a6.931,6.931,0,0,1,6.952-6.914H42.158A6.924,6.924,0,0,1,48.923,57.621ZM28.778,87.146a1.162,1.162,0,0,1-1.084-1.458l2.691-9.231L46.718,59.9V57.845a4.706,4.706,0,0,0-4.709-4.672H6.952a4.682,4.682,0,0,0-4.709,4.672v45.821a4.713,4.713,0,0,0,4.709,4.709H42.009a4.738,4.738,0,0,0,4.709-4.709V75.822l-8.409,8.447Zm9.194-9.306a1.11,1.11,0,0,1-.785-1.906l1.757-1.794a1.123,1.123,0,0,1,1.607,1.57L38.757,77.5A1.076,1.076,0,0,1,37.972,77.84ZM35.319,63.75H8.932a1.121,1.121,0,0,1,0-2.242H35.319A1.122,1.122,0,0,1,35.319,63.75Zm-6.765,9.157H8.932a1.121,1.121,0,1,1,0-2.242H28.554A1.122,1.122,0,0,1,28.554,72.907Zm-4.971,9.157H8.932a1.121,1.121,0,0,1,0-2.242H23.583A1.122,1.122,0,0,1,23.583,82.063Zm4.41,9.119H8.932a1.121,1.121,0,1,1,0-2.242H27.993A1.121,1.121,0,1,1,27.993,91.183Zm12.072,9.157H8.932a1.121,1.121,0,0,1,0-2.242H40.065A1.121,1.121,0,0,1,40.065,100.339ZM31.918,79.148l-1.495,5.2,5.2-1.57Zm1.046-2.13,4.747,4.709L57.033,62.18l-4.784-4.709ZM53.819,55.864,58.6,60.573,60.7,58.48a3,3,0,0,0-.037-4.223c-1.383-1.383-3.177-2.093-4.747-.486Z"/>
  </g>
</svg>
