<svg id="Group_55004" data-name="Group 55004" xmlns="http://www.w3.org/2000/svg" width="60" height="60" viewBox="0 0 60 60">
  <g id="Group_54995" data-name="Group 54995" transform="translate(0.003)">
    <g id="Group_54994" data-name="Group 54994">
      <path id="Path_138209" data-name="Path 138209" d="M58.851,0H40.234a1.172,1.172,0,0,0-.829,2L43.79,6.386,29.031,21.145,15.4,7.514a1.172,1.172,0,0,0-1.657,0L.369,20.887a1.172,1.172,0,1,0,1.657,1.657L14.571,10,30.9,26.325a1.172,1.172,0,1,0,1.657-1.657L30.688,22.8,45.448,8.043l6.544,6.544L40.1,26.481a1.172,1.172,0,1,0,1.657,1.657L53.648,16.244l4.374,4.374a1.172,1.172,0,0,0,2-.829V1.172A1.172,1.172,0,0,0,58.851,0ZM57.679,16.96,43.063,2.344H57.679Z" transform="translate(-0.026)"/>
    </g>
  </g>
  <g id="Group_54997" data-name="Group 54997" transform="translate(36.831 29.038)">
    <g id="Group_54996" data-name="Group 54996">
      <path id="Path_138210" data-name="Path 138210" d="M316.29,248.133a1.171,1.171,0,1,0,.343.829A1.175,1.175,0,0,0,316.29,248.133Z" transform="translate(-314.29 -247.79)"/>
    </g>
  </g>
  <g id="Group_54999" data-name="Group 54999" transform="translate(0.003 20.853)">
    <g id="Group_54998" data-name="Group 54998">
      <path id="Path_138211" data-name="Path 138211" d="M22.577,188.188l-6.352-6.352,1.891-1.891a1.172,1.172,0,1,0-1.657-1.657L.365,194.382a1.172,1.172,0,1,0,1.657,1.657l12.545-12.545,6.352,6.352a1.172,1.172,0,0,0,1.657-1.657Z" transform="translate(-0.022 -177.945)"/>
    </g>
  </g>
  <g id="Group_55001" data-name="Group 55001" transform="translate(28.828 42.996)">
    <g id="Group_55000" data-name="Group 55000">
      <path id="Path_138212" data-name="Path 138212" d="M247.227,366.9h-.055a1.172,1.172,0,0,0,0,2.344h.046a1.172,1.172,0,0,0,.008-2.344Z" transform="translate(-246 -366.901)"/>
    </g>
  </g>
  <g id="Group_55003" data-name="Group 55003" transform="translate(0 28.843)">
    <g id="Group_55002" data-name="Group 55002">
      <path id="Path_138213" data-name="Path 138213" d="M58.828,274.94H56.773v-5.251a1.172,1.172,0,0,0-.889-1.137l-5.447-1.357-1.953-4.711,2.891-4.81a1.172,1.172,0,0,0-.176-1.432L46.659,251.7a1.172,1.172,0,0,0-1.432-.176l-4.81,2.891L35.7,252.462l-1.357-5.447a1.172,1.172,0,0,0-1.137-.889H26.789a1.172,1.172,0,0,0-1.137.889l-1.357,5.447-4.711,1.952-4.81-2.891a1.172,1.172,0,0,0-1.432.176L8.8,256.241a1.172,1.172,0,0,0-.176,1.432l2.891,4.81-1.952,4.711-5.447,1.357a1.172,1.172,0,0,0-.889,1.137v5.251H1.172a1.172,1.172,0,0,0,0,2.344H58.828a1.172,1.172,0,0,0,0-2.344Zm-4.4,0H42.452a12.627,12.627,0,0,0-7.95-13.832,1.172,1.172,0,1,0-.835,2.19,10.284,10.284,0,0,1,6.4,11.642H19.929a10.284,10.284,0,0,1,6.442-11.657,1.172,1.172,0,0,0-.826-2.193,12.627,12.627,0,0,0-8,13.85H5.571V270.6l5.131-1.278a1.172,1.172,0,0,0,.8-.688l2.4-5.8a1.171,1.171,0,0,0-.078-1.052L11.1,257.25,14.351,254l4.532,2.724a1.171,1.171,0,0,0,1.052.078l5.8-2.4a1.172,1.172,0,0,0,.688-.8l1.278-5.131h4.59l1.278,5.131a1.172,1.172,0,0,0,.688.8l5.8,2.4a1.171,1.171,0,0,0,1.052-.078L45.649,254,48.9,257.25l-2.724,4.532a1.172,1.172,0,0,0-.078,1.052l2.4,5.8a1.172,1.172,0,0,0,.8.688l5.131,1.278Z" transform="translate(0 -246.127)"/>
    </g>
  </g>
</svg>
