<svg xmlns="http://www.w3.org/2000/svg" width="62" height="60" viewBox="0 0 62 60">
  <g id="format" transform="translate(-1 -2)">
    <path id="Path_138215" data-name="Path 138215" d="M40,22H28a3,3,0,0,0-3,3v2a2.977,2.977,0,0,0,.78,2A2.977,2.977,0,0,0,25,31v2a2.977,2.977,0,0,0,.78,2A2.977,2.977,0,0,0,25,37v2a3,3,0,0,0,3,3H40a3,3,0,0,0,3-3V37a2.977,2.977,0,0,0-.78-2A2.977,2.977,0,0,0,43,33V31a2.977,2.977,0,0,0-.78-2A2.977,2.977,0,0,0,43,27V25a3,3,0,0,0-3-3Zm1,17a1,1,0,0,1-1,1H28a1,1,0,0,1-1-1V37a1,1,0,0,1,1-1H40a1,1,0,0,1,1,1Zm0-6a1,1,0,0,1-1,1H28a1,1,0,0,1-1-1V31a1,1,0,0,1,1-1H40a1,1,0,0,1,1,1Zm0-6a1,1,0,0,1-1,1H28a1,1,0,0,1-1-1V25a1,1,0,0,1,1-1H40a1,1,0,0,1,1,1Z"/>
    <path id="Path_138222" data-name="Path 138222" d="M42,53a2,2,0,0,0,2-2V49h2a2,2,0,0,0,2-2V19a1,1,0,0,0-.293-.707l-7-7A1,1,0,0,0,40,11H22a2,2,0,0,0-2,2v2H18a2,2,0,0,0-2,2V51a2,2,0,0,0,2,2ZM41,14.414,44.586,18H41ZM22,13H39v6a1,1,0,0,0,1,1h6V47H22Zm-4,4h2V47a2,2,0,0,0,2,2H42v2H18Z"/>
    <path id="Path_138223" data-name="Path 138223" d="M58,57a3,3,0,0,1-3,3H9a3,3,0,0,1-3-3V36H8a1,1,0,0,0,.857-1.515l-3-5a1.04,1.04,0,0,0-1.715,0l-3,5A1,1,0,0,0,2,36H4V57a5.006,5.006,0,0,0,5,5H55a5.006,5.006,0,0,0,5-5V42H58ZM3.766,34,5,31.943,6.234,34Z"/>
    <path id="Path_138224" data-name="Path 138224" d="M62,29H60V7a5.006,5.006,0,0,0-5-5H9A5.006,5.006,0,0,0,4,7V23H6V7A3,3,0,0,1,9,4H55a3,3,0,0,1,3,3V29H56a1,1,0,0,0-.857,1.515l3,5a1,1,0,0,0,1.715,0l3-5A1,1,0,0,0,62,29Zm-3,4.057L57.766,31h2.468Z"/>
    <path id="Path_138225" data-name="Path 138225" d="M58,38h2v2H58Z"/>
    <path id="Path_138226" data-name="Path 138226" d="M4,25H6v2H4Z"/>
  </g>
</svg>
