<svg xmlns="http://www.w3.org/2000/svg" xmlns:xlink="http://www.w3.org/1999/xlink" width="131" height="163" viewBox="0 0 131 163">
  <defs>
    <clipPath id="clip-path">
      <rect id="Rectangle_14375" data-name="Rectangle 14375" width="131" height="163" transform="translate(0 4658)" fill="#fff" stroke="#707070" stroke-width="1"/>
    </clipPath>
  </defs>
  <g id="Mask_Group_54" data-name="Mask Group 54" transform="translate(0 -4658)" clip-path="url(#clip-path)">
    <g id="Group_54838" data-name="Group 54838" transform="matrix(0.866, -0.5, 0.5, 0.866, -1764.697, 4450.162)">
      <g id="Group_469" data-name="Group 469" transform="translate(1325.374 1092.739)">
        <g id="Group_424" data-name="Group 424" transform="translate(23.38 0)">
          <path id="Path_470" data-name="Path 470" d="M1502.152,1165.464c-.807-16.128-3.615-32.069-11.381-46.228s-21.944-25.665-38.074-26.454c-14.493-.709-28.455,7.351-37.56,18.649s-14.074,25.046-16.934,39.272a79.732,79.732,0,0,0-1.7,14.761Z" transform="translate(-1396.502 -1092.739)" fill="#e8e8e8"/>
        </g>
        <g id="Group_426" data-name="Group 426" transform="translate(74.062 26.837)">
          <g id="Group_425" data-name="Group 425">
            <path id="Path_471" data-name="Path 471" d="M1550.7,1175.43c.13,2.17.154,4.344.161,6.518a30.667,30.667,0,0,0,.173,6.11,1.045,1.045,0,0,0,2,0,33.608,33.608,0,0,0,.066-6.11c-.03-2.174-.078-4.348-.23-6.518-.1-1.383-2.254-1.4-2.17,0Z" transform="translate(-1550.694 -1174.387)" fill="#2dc7e0"/>
          </g>
        </g>
        <g id="Group_428" data-name="Group 428" transform="translate(87.265 31.776)">
          <g id="Group_427" data-name="Group 427">
            <path id="Path_472" data-name="Path 472" d="M1593.112,1200.018c.89-1.608,1.736-3.239,2.523-4.9.646-1.365,1.762-3.112,1.635-4.67a1.042,1.042,0,0,0-1.756-.727c-1.082,1.154-1.482,2.979-2.143,4.4-.736,1.581-1.526,3.138-2.354,4.673-.741,1.374,1.338,2.6,2.1,1.225Z" transform="translate(-1590.859 -1189.412)" fill="#2dc7e0"/>
          </g>
        </g>
        <g id="Group_430" data-name="Group 430" transform="translate(54.238 32.575)">
          <g id="Group_429" data-name="Group 429">
            <path id="Path_473" data-name="Path 473" d="M1499.7,1202.445a72.923,72.923,0,0,0-7.216-10.239,1.227,1.227,0,0,0-1.919,1.481c2.176,3.425,4.813,6.578,7.039,9.984.85,1.3,2.939.1,2.1-1.225Z" transform="translate(-1490.381 -1191.843)" fill="#2dc7e0"/>
          </g>
        </g>
        <g id="Group_431" data-name="Group 431" transform="translate(66.946 17.068)">
          <path id="Path_474" data-name="Path 474" d="M1535.471,1144.805a10.864,10.864,0,0,0-3.963,1.588c-1.143.714-2.309,1.694-2.45,3.035a3.664,3.664,0,0,0,.7,2.337,6.747,6.747,0,0,0,3.278,2.609,9.959,9.959,0,0,0,3.023.533,9.256,9.256,0,0,0,5.57-1.226,4.615,4.615,0,0,0,2.064-4.994,5.1,5.1,0,0,0-1.521-2.163A8.113,8.113,0,0,0,1535.471,1144.805Z" transform="translate(-1529.044 -1144.664)" fill="#fff"/>
        </g>
        <g id="Group_432" data-name="Group 432" transform="translate(88.078 23.054)">
          <path id="Path_475" data-name="Path 475" d="M1602.759,1164.216a12.673,12.673,0,0,0-3.962-1.293,5.537,5.537,0,0,0-3.976.937,3.577,3.577,0,0,0-1.375,3.691,5.428,5.428,0,0,0,1.831,2.425,12.945,12.945,0,0,0,5.048,2.974,6.07,6.07,0,0,0,5.567-1.085,3.131,3.131,0,0,0,1.121-2.152,4.124,4.124,0,0,0-.92-2.376A9.244,9.244,0,0,0,1602.759,1164.216Z" transform="translate(-1593.333 -1162.877)" fill="#fff"/>
        </g>
        <g id="Group_433" data-name="Group 433" transform="translate(45.156 22.739)">
          <path id="Path_476" data-name="Path 476" d="M1465.429,1164.608a7.194,7.194,0,0,0-2.652,4.31c-.282,2.392,1.793,4.612,4.151,5.108a9.211,9.211,0,0,0,6.821-1.723,9.383,9.383,0,0,0,2.923-2.879,5.17,5.17,0,0,0,.666-3.969,5.054,5.054,0,0,0-3.745-3.366,8.057,8.057,0,0,0-5.142.684A12.435,12.435,0,0,0,1465.429,1164.608Z" transform="translate(-1462.751 -1161.919)" fill="#fff"/>
        </g>
        <g id="Group_435" data-name="Group 435" transform="translate(66.348 16.438)">
          <g id="Group_434" data-name="Group 434">
            <path id="Path_477" data-name="Path 477" d="M1534.087,1142.924c-2.922.645-7.815,2.8-6.7,6.6,1.217,4.135,6.362,5.147,10.037,4.606,3.243-.477,6.8-3.223,5.7-6.91-1.075-3.619-5.726-5-9.041-4.3-.671.142-.535,1.284.164,1.213a7.754,7.754,0,0,1,6.686,2.064c3.147,3.409-1.311,6.511-4.478,6.773-2.658.219-6.553-.374-7.635-3.292-1.224-3.3,3.009-5,5.591-5.566C1535.191,1143.943,1534.862,1142.752,1534.087,1142.924Z" transform="translate(-1527.226 -1142.748)" fill="#2e343d"/>
          </g>
        </g>
        <g id="Group_437" data-name="Group 437" transform="translate(87.466 22.341)">
          <g id="Group_436" data-name="Group 436">
            <path id="Path_478" data-name="Path 478" d="M1601.907,1162.075c-3.044-1.406-7.475-2.531-9.724.866-2.22,3.354,1.22,6.292,3.86,7.958,2.8,1.77,7.155,2.433,9.544-.433,2.518-3.023-1.065-6.881-3.767-8.241a.618.618,0,0,0-.623,1.066,9.463,9.463,0,0,1,2.684,2.493c1.115,1.491,1.461,3.137-.156,4.39-2.05,1.589-5,.71-6.978-.477-2.048-1.228-5.6-3.878-3.157-6.429,1.969-2.054,5.372-.825,7.519.173C1602.027,1163.868,1602.831,1162.5,1601.907,1162.075Z" transform="translate(-1591.47 -1160.706)" fill="#2e343d"/>
          </g>
        </g>
        <g id="Group_439" data-name="Group 439" transform="translate(44.619 22.103)">
          <g id="Group_438" data-name="Group 438">
            <path id="Path_479" data-name="Path 479" d="M1463.879,1162.855c-2.873,2.658-4.18,6.747-.545,9.43,3.3,2.437,7.786.881,10.671-1.466,2.9-2.362,4.42-6.76,1.062-9.477-3.235-2.616-8.412-1.1-11.12,1.581-.431.428.13,1.2.661.856,2.419-1.553,5.308-3.257,8.28-2.2,4.4,1.566,2.83,6.373-.081,8.518-2.243,1.653-5.564,2.96-8.208,1.464-3.5-1.979-2.222-5.561.187-7.8C1465.393,1163.2,1464.485,1162.295,1463.879,1162.855Z" transform="translate(-1461.118 -1159.984)" fill="#2e343d"/>
          </g>
        </g>
        <g id="Group_441" data-name="Group 441" transform="translate(50.704 26.279)">
          <g id="Group_440" data-name="Group 440">
            <path id="Path_480" data-name="Path 480" d="M1479.662,1173.733a4.667,4.667,0,0,0,1.8,3.489c.626.544,1.9.24,1.809-.749.021.234.017-.391.016-.467a2.561,2.561,0,0,0-.093-.567,5.585,5.585,0,0,0-.472-1.153c-.409-.769-1.078-1.644-2.036-1.6a1.055,1.055,0,0,0-1.008,1.323c.217.609.7.932,1.006,1.466.247.437.371.938.6,1.422l-.145-.535c0,.037.008.073.012.109l1.809-.749a2.765,2.765,0,0,1-1.246-1.99,1.029,1.029,0,0,0-2.057,0Z" transform="translate(-1479.631 -1172.687)" fill="#2e343d"/>
          </g>
        </g>
        <g id="Group_443" data-name="Group 443" transform="translate(73.459 19.742)">
          <g id="Group_442" data-name="Group 442">
            <path id="Path_481" data-name="Path 481" d="M1549.036,1153.535a7.106,7.106,0,0,0,.2,3.83c.274.911,1.824,1.067,2.007,0a8.422,8.422,0,0,0-.189-3.738c-.391-1.261-2.378-.722-1.984.547a5.32,5.32,0,0,1,.174,1.415c.009.262.012.525.007.786,0,.111-.007.222-.012.332,0,.062-.049.381,0,.1h2.007a5.02,5.02,0,0,1-.225-2.73c.309-1.286-1.666-1.835-1.984-.547Z" transform="translate(-1548.859 -1152.8)" fill="#2e343d"/>
          </g>
        </g>
        <g id="Group_445" data-name="Group 445" transform="translate(93.487 26.067)">
          <g id="Group_444" data-name="Group 444">
            <path id="Path_482" data-name="Path 482" d="M1611.458,1172.2a3.716,3.716,0,0,0-1.667,3.093c.009.747.942,1.445,1.627.933a3.89,3.89,0,0,0,1.621-3.082c.041-1.325-2.017-1.324-2.058,0a1.787,1.787,0,0,1-.655,1.214l1.627.934a1.514,1.514,0,0,1,.13-.63,1.438,1.438,0,0,1,.477-.574,1.12,1.12,0,0,0,.393-1.5,1.1,1.1,0,0,0-1.5-.393Z" transform="translate(-1609.79 -1172.043)" fill="#2e343d"/>
          </g>
        </g>
        <g id="Group_446" data-name="Group 446" transform="translate(54.27 39.512)">
          <path id="Path_483" data-name="Path 483" d="M1525.388,1246.157a14,14,0,0,1,1.579-6.9c.869-1.446,2.057-2.673,3-4.071a13.923,13.923,0,0,0-.142-15.66,15.367,15.367,0,0,0-5.148-4.318,21.161,21.161,0,0,0-11.188-2.218,38.5,38.5,0,0,0-12.308,2.693c-3.906,1.575-7.522,4.245-9.424,8s-1.773,8.683.976,11.874c.742.861,1.642,1.574,2.388,2.431a12.3,12.3,0,0,1,2.473,8.181Z" transform="translate(-1490.479 -1212.947)" fill="#2dc7e0"/>
        </g>
        <g id="Group_447" data-name="Group 447" transform="translate(39.558 95.997)">
          <path id="Path_484" data-name="Path 484" d="M1523.29,1387.808c-1.341,5.809-6.12,11.823-11.158,15.009a51.542,51.542,0,0,1-34.658,7.748c-11.96-1.772-25.579-7.887-31.752-21.147l64.333-4.628Z" transform="translate(-1445.721 -1384.79)" fill="#2e343d"/>
        </g>
        <g id="Group_448" data-name="Group 448" transform="translate(0 72.573)">
          <path id="Path_485" data-name="Path 485" d="M1475.822,1340.456a.7.7,0,0,0,.676-.852,34.575,34.575,0,0,0-7.638-14.389c-3.768-4.371-9.533-8.62-14.422-11.686-35.528.238-70.154.137-105.684.153a43.206,43.206,0,0,0-23.355,27.373.7.7,0,0,0,.685.882l100-.92C1442.6,1340.866,1459.3,1340.611,1475.822,1340.456Z" transform="translate(-1325.374 -1313.529)" fill="#ea4b06"/>
        </g>
        <g id="Group_449" data-name="Group 449" transform="translate(23.186 80.741)">
          <path id="Path_486" data-name="Path 486" d="M1397.212,1340.544a6.137,6.137,0,0,0-.739,6.366c.931,2.052,1.722,3.121,3.889,3.742a9.523,9.523,0,0,0,4.323.134,7.431,7.431,0,0,0,3.7-2.435,7.791,7.791,0,0,0,1.11-4.143,5.772,5.772,0,0,0-1.512-3.832,6.472,6.472,0,0,0-5.715-1.962C1400.9,1338.534,1398.419,1339.115,1397.212,1340.544Z" transform="translate(-1395.912 -1338.377)" fill="#f7cb16"/>
        </g>
        <g id="Group_450" data-name="Group 450" transform="translate(54.272 80.97)">
          <path id="Path_487" data-name="Path 487" d="M1502.595,1341.289a9.323,9.323,0,0,1,2.015,3.841,5.693,5.693,0,0,1-4.943,6.776,9.128,9.128,0,0,1-5.6-1.011,7.547,7.547,0,0,1-3.573-5.7,5.375,5.375,0,0,1,2.115-4.318,8.11,8.11,0,0,1,4.595-1.792A6.534,6.534,0,0,1,1502.595,1341.289Z" transform="translate(-1490.487 -1339.075)" fill="#f7cb16"/>
        </g>
        <g id="Group_451" data-name="Group 451" transform="translate(85.983 80.214)">
          <path id="Path_488" data-name="Path 488" d="M1597.73,1338.263a8.018,8.018,0,0,1,2.911,5.53,4.636,4.636,0,0,1-.189,1.893,4.72,4.72,0,0,1-2.553,2.531,8.758,8.758,0,0,1-7.127.057,6.37,6.37,0,0,1-3.447-3.231,5.6,5.6,0,0,1,.585-5.078,6.911,6.911,0,0,1,4.046-2.962A6.392,6.392,0,0,1,1597.73,1338.263Z" transform="translate(-1586.959 -1336.775)" fill="#f7cb16"/>
        </g>
        <g id="Group_452" data-name="Group 452" transform="translate(113.813 80.366)">
          <path id="Path_489" data-name="Path 489" d="M1684.43,1340.906a5.892,5.892,0,0,1,.944,3.03,5.248,5.248,0,0,1-3.969,4.686,8.448,8.448,0,0,1-6.221-.247,8.36,8.36,0,0,1-3.157-3.421,5.045,5.045,0,0,1,1.109-5.481,7.177,7.177,0,0,1,5.563-2.21A7.953,7.953,0,0,1,1684.43,1340.906Z" transform="translate(-1671.628 -1337.237)" fill="#f7cb16"/>
        </g>
        <g id="Group_453" data-name="Group 453" transform="translate(68.604 48.153)">
          <path id="Path_490" data-name="Path 490" d="M1550.08,1239.3a.708.708,0,0,1,.988.521,8.631,8.631,0,0,1-1.065,5.711,10.17,10.17,0,0,1-4.533,4.335,8.052,8.052,0,0,1-7.036-.3,9.288,9.288,0,0,1-4.34-6.856.717.717,0,0,1,.725-.812C1540.251,1241.967,1546.186,1241,1550.08,1239.3Z" transform="translate(-1534.087 -1239.237)" fill="#fff"/>
        </g>
        <g id="Group_454" data-name="Group 454" transform="translate(72.574 53.641)">
          <path id="Path_491" data-name="Path 491" d="M1551.312,1256.227a8.889,8.889,0,0,0-5.146,4.318c.125.08.25.156.376.225a8.05,8.05,0,0,0,7.036.3,9.78,9.78,0,0,0,4.039-3.547A6.565,6.565,0,0,0,1551.312,1256.227Z" transform="translate(-1546.166 -1255.93)" fill="#ea4b06"/>
        </g>
        <g id="Group_456" data-name="Group 456" transform="translate(67.489 63.536)">
          <g id="Group_455" data-name="Group 455">
            <path id="Path_492" data-name="Path 492" d="M1531.172,1286.388a5.086,5.086,0,0,1-.44,2.474c-.195.427.438.8.635.371a5.862,5.862,0,0,0,.54-2.845c-.031-.469-.766-.473-.735,0Z" transform="translate(-1530.695 -1286.035)" fill="#0290a8"/>
          </g>
        </g>
        <g id="Group_458" data-name="Group 458" transform="translate(72.413 63.526)">
          <g id="Group_457" data-name="Group 457">
            <path id="Path_493" data-name="Path 493" d="M1545.689,1286.461a6.42,6.42,0,0,1,.146,2.308c-.053.47.682.466.735,0a6.991,6.991,0,0,0-.172-2.5.368.368,0,0,0-.709.2Z" transform="translate(-1545.677 -1286.004)" fill="#0290a8"/>
          </g>
        </g>
        <g id="Group_460" data-name="Group 460" transform="translate(77.484 63.675)">
          <g id="Group_459" data-name="Group 459">
            <path id="Path_494" data-name="Path 494" d="M1561.1,1286.81a21.911,21.911,0,0,1,.037,2.4c-.019.473.717.472.735,0a22.064,22.064,0,0,0-.037-2.4c-.033-.469-.768-.473-.735,0Z" transform="translate(-1561.104 -1286.457)" fill="#0290a8"/>
          </g>
        </g>
        <g id="Group_462" data-name="Group 462" transform="translate(82.369 63.134)">
          <g id="Group_461" data-name="Group 461">
            <path id="Path_495" data-name="Path 495" d="M1575.982,1285.264a8.582,8.582,0,0,1,.306,3.395c-.05.47.685.466.735,0a9.108,9.108,0,0,0-.332-3.59.368.368,0,0,0-.709.2Z" transform="translate(-1575.965 -1284.81)" fill="#0290a8"/>
          </g>
        </g>
        <g id="Group_464" data-name="Group 464" transform="translate(69.984 67.653)">
          <g id="Group_463" data-name="Group 463">
            <path id="Path_496" data-name="Path 496" d="M1538.285,1298.915v2.332a.368.368,0,0,0,.736,0v-2.332a.368.368,0,0,0-.736,0Z" transform="translate(-1538.285 -1298.56)" fill="#0290a8"/>
          </g>
        </g>
        <g id="Group_466" data-name="Group 466" transform="translate(74.759 67.996)">
          <g id="Group_465" data-name="Group 465">
            <path id="Path_497" data-name="Path 497" d="M1552.814,1299.957q.111,1.165.113,2.335a.368.368,0,0,0,.735,0q0-1.17-.113-2.335c-.044-.467-.779-.471-.735,0Z" transform="translate(-1552.812 -1299.605)" fill="#0290a8"/>
          </g>
        </g>
        <g id="Group_468" data-name="Group 468" transform="translate(80.364 68.259)">
          <g id="Group_467" data-name="Group 467">
            <path id="Path_498" data-name="Path 498" d="M1569.87,1300.865a14.211,14.211,0,0,1,.186,2.168.368.368,0,0,0,.735,0,15.569,15.569,0,0,0-.212-2.364c-.078-.465-.786-.268-.709.2Z" transform="translate(-1569.865 -1300.404)" fill="#0290a8"/>
          </g>
        </g>
      </g>
      <g id="Group_471" data-name="Group 471" transform="translate(1347.217 1173.535)">
        <g id="Group_470" data-name="Group 470">
          <path id="Path_499" data-name="Path 499" d="M1399.881,1338.819c-2.1-.879-4.776.495-6.219,2.054a7.287,7.287,0,0,0-1.547,6.893c1.677,5.82,8.128,5.27,11.551,1.35a.46.46,0,0,0-.555-.719c-1.73,1-3.2,2.547-5.323,2.657-2.33.119-4.051-1.79-4.557-3.917a5.97,5.97,0,0,1,1.714-5.788c1.47-1.339,3.135-1.358,4.936-1.822a.371.371,0,0,0,0-.708Z" transform="translate(-1391.827 -1338.544)" fill="#f7cb16"/>
        </g>
      </g>
      <g id="Group_473" data-name="Group 473" transform="translate(1378.451 1174.459)">
        <g id="Group_472" data-name="Group 472" transform="translate(0 0)">
          <path id="Path_500" data-name="Path 500" d="M1494.48,1341.7c-3.034-1.411-7.159,1.843-7.581,4.9-.506,3.663,2.982,6.87,6.231,7.739,3.328.89,8.041-.439,9.639-3.768,1.2-2.5-.552-6.544-3.484-6.686a.5.5,0,0,0-.132.976,3.772,3.772,0,0,1,2.595,2.848,3.622,3.622,0,0,1-1.488,3.92,7.667,7.667,0,0,1-7.622,1.246c-2.442-.949-5.2-3.63-4.478-6.522.736-2.942,3.794-3.626,6.272-4.282a.2.2,0,0,0,.048-.37Z" transform="translate(-1486.849 -1341.357)" fill="#f7cb16"/>
        </g>
      </g>
      <g id="Group_475" data-name="Group 475" transform="translate(1409.551 1172.987)">
        <g id="Group_474" data-name="Group 474" transform="translate(0 0)">
          <path id="Path_501" data-name="Path 501" d="M1589.622,1337.1c-2.616-1.045-5.886,1.808-7.269,3.8-1.673,2.412-.79,5.559,1.107,7.622,1.925,2.094,5.342,1.962,7.829,1.042,3.06-1.132,3.82-3.918,2.875-6.877-.143-.447-.881-.394-.853.116a9.765,9.765,0,0,1,.016,3.318,3.981,3.981,0,0,1-2.916,2.437c-2.235.665-4.892.729-6.43-1.266-1.712-2.222-1.786-4.723.257-6.741a11.729,11.729,0,0,1,5.384-2.877.3.3,0,0,0,0-.577Z" transform="translate(-1581.467 -1336.879)" fill="#f7cb16"/>
        </g>
      </g>
      <g id="Group_477" data-name="Group 477" transform="translate(1442.227 1173.437)">
        <g id="Group_476" data-name="Group 476">
          <path id="Path_502" data-name="Path 502" d="M1681.8,1339.731c3.5-1.325,8.925.47,9.713,4.359a5.049,5.049,0,0,1-.047,2.973,4.294,4.294,0,0,1-2.751,1.7c-1.764.507-5.449.9-6.723-.831-.354-.48-1.345-.213-1.067.45,1.084,2.586,5.175,2.386,7.463,1.9,2.676-.571,4.8-1.98,4.607-4.927a6.7,6.7,0,0,0-4.238-6.234c-1.731-.708-5.968-1.7-7.165.34-.075.128.053.327.208.269Z" transform="translate(-1680.877 -1338.247)" fill="#f7cb16"/>
        </g>
      </g>
      <g id="Group_479" data-name="Group 479" transform="translate(1380.583 1146.732)">
        <g id="Group_478" data-name="Group 478" transform="translate(0 0)">
          <path id="Path_503" data-name="Path 503" d="M1493.685,1257.032c-.621,1.163-.279,2.694,0,3.932a8.59,8.59,0,0,0,1.836,4.143.369.369,0,0,0,.612-.356c-.294-1.393-1.1-2.658-1.469-4.057-.312-1.193-.27-2.579-.872-3.662a.064.064,0,0,0-.108,0Z" transform="translate(-1493.336 -1257.001)" fill="#2dc7e0"/>
        </g>
      </g>
    </g>
  </g>
</svg>
