<svg xmlns="http://www.w3.org/2000/svg" width="115.001" height="107.01" viewBox="0 0 115.001 107.01">
  <g id="Group_55004" data-name="Group 55004" transform="translate(-1399.838 -4689.447)">
    <g id="Group_54839" data-name="Group 54839" transform="translate(858.776 4401.041) rotate(-11)">
      <g id="Group_1853" data-name="Group 1853" transform="translate(472.46 405.027)">
        <path id="Path_2310" data-name="Path 2310" d="M522.847,405.027c1.851,7.813,7.247,15.058,14.286,15.744a30.767,30.767,0,0,0,17.888-4.112,30.112,30.112,0,0,0-2.074,15.214,10.393,10.393,0,0,0,2.394,6.074,20.5,20.5,0,0,0,5.99,3.828,38.222,38.222,0,0,0,10.862,3.293,25.638,25.638,0,0,0-10.417,7.859c-2.913,3.669-4.919,6.5-4.543,11.173.282,3.5,1.859,6.755,3.408,9.911-5.7-1.778-12.186.268-16.531,4.37s-6.713,9.983-7.447,15.913c-4.425-4.636-10.455-7.965-16.859-8.22s-13.068,2.929-16.1,8.578A19.444,19.444,0,0,0,478.3,473.69c2.707-2.721,5.523-5.63,6.467-9.35a15.114,15.114,0,0,0-1.089-9.41,24.8,24.8,0,0,0-11.218-12.281c6.086-.545,12.029-3.77,15.228-8.977s3.263-12.361-.386-17.263a23.856,23.856,0,0,0,35.545-11.381Z" transform="translate(-472.46 -405.027)" fill="#f7cb16"/>
      </g>
      <g id="Group_1855" data-name="Group 1855" transform="translate(493.053 425.361)">
        <g id="Group_1854" data-name="Group 1854" transform="translate(0)">
          <path id="Path_2311" data-name="Path 2311" d="M564.915,475.066c-11.436,2.218-19.941,12.082-21.8,23.386-1.742,10.615,3.035,22.051,12.9,26.979,5.285,2.641,11.378,3.186,17.182,2.478,5.855-.715,11.261-2.591,15.613-6.675,4.132-3.878,7.89-9.1,9.373-14.623a24.356,24.356,0,0,0-1.962-17.211,27.117,27.117,0,0,0-13.254-12.632A31.879,31.879,0,0,0,564.9,475c-.728.127-.42,1.238.306,1.11,10.611-1.862,21.457,1.351,27.908,10.3a24.429,24.429,0,0,1,4.7,15.635c-.351,5.945-3.394,11.158-7.152,15.624a24.4,24.4,0,0,1-13.864,8.524,33.377,33.377,0,0,1-16.424-.223c-10.342-3.038-16.892-13.14-16.591-23.747.35-12.355,9.117-23.753,21.41-26.177C565.834,475.926,565.56,474.941,564.915,475.066Z" transform="translate(-542.767 -474.448)" fill="#db9d12"/>
        </g>
      </g>
      <g id="Group_1857" data-name="Group 1857" transform="translate(515.986 455.599)">
        <g id="Group_1856" data-name="Group 1856">
          <path id="Path_2312" data-name="Path 2312" d="M621.061,579.215c.125,1.853,1.294,3.724,3.378,3.49s3.679-2.612,3.779-4.582a.461.461,0,0,0-.852-.231c-.751,1.172-.853,2.643-2.174,3.423-1.691,1-3.031-.446-3.188-2.1-.057-.6-.985-.611-.943,0Z" transform="translate(-621.059 -577.68)" fill="#2e343d"/>
        </g>
      </g>
      <g id="Group_1859" data-name="Group 1859" transform="translate(510.251 445.076)">
        <g id="Group_1858" data-name="Group 1858">
          <path id="Path_2313" data-name="Path 2313" d="M601.734,542.1a4.818,4.818,0,0,0,.35,3.879.543.543,0,0,0,.928,0,4,4,0,0,0,.307-3.7c-.13-.307-.576-.555-.845-.223a.9.9,0,0,0-.151,1.083c.187.42.823.185.826-.224l.04-.144-.845-.223a3.1,3.1,0,0,1-.26,2.89h.928a3.773,3.773,0,0,1-.32-3.073c.192-.614-.755-.866-.958-.264Z" transform="translate(-601.479 -541.755)" fill="#2e343d"/>
        </g>
      </g>
      <g id="Group_1861" data-name="Group 1861" transform="translate(526.851 443.666)">
        <g id="Group_1860" data-name="Group 1860" transform="translate(0)">
          <path id="Path_2314" data-name="Path 2314" d="M658.378,538.3a4,4,0,0,0,.217,3.148.525.525,0,0,0,.9,0,4.844,4.844,0,0,0-.018-4.253.53.53,0,0,0-.96.126,4.409,4.409,0,0,0,.109,2.975.49.49,0,0,0,.906-.245,9.48,9.48,0,0,1,0-2.451l-.96.126a3.95,3.95,0,0,1,.023,3.195h.9a2.981,2.981,0,0,1-.175-2.36c.195-.6-.738-.851-.944-.26Z" transform="translate(-658.152 -536.941)" fill="#2e343d"/>
        </g>
      </g>
      <g id="Group_1862" data-name="Group 1862" transform="translate(502.981 452.982)">
        <path id="Path_2315" data-name="Path 2315" d="M581.377,568.914a10.7,10.7,0,0,0-3.614,1.03,1.8,1.8,0,0,0-1.074,1.039c-.2.806.66,1.474,1.45,1.725a5.991,5.991,0,0,0,4.611-.437,2.321,2.321,0,0,0,1.437-2.082,1.789,1.789,0,0,0-1.066-1.339c-.541-.25-1.149.029-1.744.064Z" transform="translate(-576.66 -568.747)" fill="#e27b00"/>
      </g>
      <g id="Group_1863" data-name="Group 1863" transform="translate(528.947 452.127)">
        <path id="Path_2316" data-name="Path 2316" d="M668.921,565.83a4.961,4.961,0,0,0-3.07,1.031,1.489,1.489,0,0,0-.46.512,1.153,1.153,0,0,0,.31,1.267,2.652,2.652,0,0,0,1.24.6,8.129,8.129,0,0,0,4.678-.242c.506-.182,1.051-.484,1.166-1.009.147-.671-.491-1.248-1.1-1.556a5.391,5.391,0,0,0-2.759-.6Z" transform="translate(-665.307 -565.828)" fill="#e27b00"/>
      </g>
    </g>
  </g>
</svg>
