<svg xmlns="http://www.w3.org/2000/svg" xmlns:xlink="http://www.w3.org/1999/xlink" width="238.811" height="55.334" viewBox="0 0 238.811 55.334">
  <defs>
    <clipPath id="clip-path">
      <rect id="Rectangle_2580" data-name="Rectangle 2580" width="238.811" height="55.334" fill="#fff"/>
    </clipPath>
  </defs>
  <g id="trustpilot-review-new" clip-path="url(#clip-path)">
    <path id="Path_82293" data-name="Path 82293" d="M80.769,23.249a1.01,1.01,0,0,1,1.921,0L84.1,27.585a1.01,1.01,0,0,0,.961.7h4.559a1.01,1.01,0,0,1,.594,1.827l-3.689,2.68a1.01,1.01,0,0,0-.367,1.129l1.409,4.336a1.01,1.01,0,0,1-1.554,1.129L82.323,36.7a1.01,1.01,0,0,0-1.187,0l-3.689,2.68a1.01,1.01,0,0,1-1.554-1.129L77.3,33.919a1.01,1.01,0,0,0-.367-1.129l-3.689-2.68a1.01,1.01,0,0,1,.594-1.827H78.4a1.01,1.01,0,0,0,.961-.7Z" transform="translate(33.222 10.287)" fill="#00b67a"/>
    <path id="Path_82294" data-name="Path 82294" d="M95.8,23.249a1.01,1.01,0,0,1,1.921,0l1.409,4.336a1.01,1.01,0,0,0,.96.7h4.559a1.01,1.01,0,0,1,.594,1.827l-3.689,2.68a1.01,1.01,0,0,0-.367,1.129l1.409,4.336a1.01,1.01,0,0,1-1.554,1.129L97.352,36.7a1.01,1.01,0,0,0-1.187,0l-3.689,2.68a1.01,1.01,0,0,1-1.554-1.129l1.409-4.336a1.01,1.01,0,0,0-.367-1.129l-3.689-2.68a1.01,1.01,0,0,1,.594-1.827h4.559a1.01,1.01,0,0,0,.96-.7Z" transform="translate(40.078 10.287)" fill="#00b67a"/>
    <path id="Path_82295" data-name="Path 82295" d="M110.827,23.249a1.011,1.011,0,0,1,1.922,0l1.408,4.336a1.01,1.01,0,0,0,.961.7h4.559a1.01,1.01,0,0,1,.594,1.827l-3.688,2.68a1.008,1.008,0,0,0-.367,1.129l1.408,4.336a1.01,1.01,0,0,1-1.554,1.129l-3.688-2.68a1.011,1.011,0,0,0-1.188,0l-3.688,2.68a1.01,1.01,0,0,1-1.554-1.129l1.408-4.336a1.008,1.008,0,0,0-.367-1.129L103.3,30.11a1.01,1.01,0,0,1,.594-1.827h4.559a1.01,1.01,0,0,0,.961-.7Z" transform="translate(46.934 10.287)" fill="#00b67a"/>
    <path id="Path_82296" data-name="Path 82296" d="M125.858,23.249a1.01,1.01,0,0,1,1.921,0l1.41,4.336a1.008,1.008,0,0,0,.96.7h4.559a1.01,1.01,0,0,1,.594,1.827l-3.688,2.68a1.01,1.01,0,0,0-.367,1.129l1.408,4.336a1.01,1.01,0,0,1-1.554,1.129l-3.689-2.68a1.009,1.009,0,0,0-1.187,0l-3.688,2.68a1.011,1.011,0,0,1-1.555-1.129l1.41-4.336a1.01,1.01,0,0,0-.367-1.129l-3.688-2.68a1.01,1.01,0,0,1,.593-1.827h4.559a1.01,1.01,0,0,0,.961-.7Z" transform="translate(53.789 10.287)" fill="#00b67a"/>
    <path id="Path_82297" data-name="Path 82297" d="M140.887,23.249a1.01,1.01,0,0,1,1.921,0l1.41,4.336a1.01,1.01,0,0,0,.961.7h4.559a1.01,1.01,0,0,1,.593,1.827l-3.689,2.68a1.01,1.01,0,0,0-.367,1.129l1.41,4.336a1.011,1.011,0,0,1-1.555,1.129L142.44,36.7a1.009,1.009,0,0,0-1.187,0l-3.688,2.68a1.01,1.01,0,0,1-1.554-1.129l1.408-4.336a1.01,1.01,0,0,0-.367-1.129l-3.689-2.68a1.01,1.01,0,0,1,.594-1.827h4.559a1.008,1.008,0,0,0,.96-.7Z" transform="translate(60.645 10.287)" fill="#ddd"/>
    <path id="Path_82298" data-name="Path 82298" d="M140.887,23.249a1.01,1.01,0,0,1,1.921,0l1.41,4.336a1.01,1.01,0,0,0,.961.7l1.1,5.636,1.41,4.336a1.011,1.011,0,0,1-1.555,1.129L142.44,36.7a1.009,1.009,0,0,0-1.187,0l-3.688,2.68a1.01,1.01,0,0,1-1.554-1.129l1.408-4.336a1.01,1.01,0,0,0-.367-1.129l-3.689-2.68a1.01,1.01,0,0,1,.594-1.827h4.559a1.008,1.008,0,0,0,.96-.7Z" transform="translate(60.645 10.287)" fill="#00b67a"/>
    <path id="Path_82299" data-name="Path 82299" d="M54.732,18.493V5.767h-4.3V4.151H60.813V5.767H56.49V18.493Z" transform="translate(23.004 1.893)" fill="#fff"/>
    <path id="Path_82300" data-name="Path 82300" d="M62.724,7.161a2.328,2.328,0,0,1,.4.02V9c-.222-.02-.485-.04-.646-.04-1.858,0-2.99,1.434-2.99,3.414V17.12H57.856V7.282h1.636V9.019h.02A3.73,3.73,0,0,1,62.724,7.161Z" transform="translate(26.392 3.267)" fill="#fff"/>
    <path id="Path_82301" data-name="Path 82301" d="M69.624,7.244H71.26v9.838H69.624V15.446H69.6A3.91,3.91,0,0,1,66.372,17.2c-2.262,0-3.7-1.293-3.7-4.1V7.244h1.636v5.393c0,2.242.828,3.07,2.4,3.07,1.555,0,2.909-1.353,2.909-3.7Z" transform="translate(28.59 3.305)" fill="#fff"/>
    <path id="Path_82302" data-name="Path 82302" d="M73.919,17.241a5.6,5.6,0,0,1-3.858-1.414l.849-1.232a4.07,4.07,0,0,0,3.01,1.172c1.172,0,1.859-.606,1.859-1.313,0-.849-.909-1.131-2.343-1.616-1.6-.566-2.949-1.232-2.949-3.03,0-1.515,1.374-2.646,3.252-2.646A5.11,5.11,0,0,1,77.11,8.373l-.848,1.293a3.92,3.92,0,0,0-2.606-1.01c-.747,0-1.515.444-1.515,1.151,0,.768.808,1.131,1.858,1.535,2.081.808,3.454,1.151,3.434,3.091C77.434,15.968,76.282,17.241,73.919,17.241Z" transform="translate(31.959 3.267)" fill="#fff"/>
    <path id="Path_82303" data-name="Path 82303" d="M79.877,18.31c-1.757,0-2.565-1.071-2.565-3.05V9.766H76.06V8.352h1.252V5l1.636-.182V8.352h3.272V9.766H78.948v5.252c0,1.172.283,1.757,1.212,1.757a3.54,3.54,0,0,0,1.656-.5l.444,1.434A4.527,4.527,0,0,1,79.877,18.31Z" transform="translate(34.696 2.197)" fill="#fff"/>
    <path id="Path_82304" data-name="Path 82304" d="M86.844,7.161a4.832,4.832,0,0,1,4.808,5.111,4.7,4.7,0,0,1-4.808,4.969,4.18,4.18,0,0,1-3.353-1.576h-.04v5.454H81.834V7.282H83.47V8.737h.02A4.232,4.232,0,0,1,86.844,7.161Zm-.162,8.585a3.258,3.258,0,0,0,3.313-3.474,3.333,3.333,0,0,0-3.333-3.6,3.376,3.376,0,0,0-3.252,3.6A3.321,3.321,0,0,0,86.682,15.746Z" transform="translate(37.33 3.267)" fill="#fff"/>
    <path id="Path_82305" data-name="Path 82305" d="M91.334,6.717a1.143,1.143,0,0,1-1.171-1.151,1.155,1.155,0,0,1,1.171-1.151,1.168,1.168,0,0,1,1.172,1.151A1.155,1.155,0,0,1,91.334,6.717Zm-.828,11.656V8.535h1.636v9.838Z" transform="translate(41.129 2.014)" fill="#fff"/>
    <path id="Path_82306" data-name="Path 82306" d="M93.865,18.657V3.79H95.5V18.657Z" transform="translate(42.818 1.729)" fill="#fff"/>
    <path id="Path_82307" data-name="Path 82307" d="M101.911,17.241a4.874,4.874,0,0,1-5.09-5.03,5.07,5.07,0,0,1,10.14,0A4.853,4.853,0,0,1,101.911,17.241Zm0-1.495a3.374,3.374,0,0,0,3.394-3.535,3.416,3.416,0,1,0-6.828,0A3.393,3.393,0,0,0,101.911,15.746Z" transform="translate(44.166 3.267)" fill="#fff"/>
    <path id="Path_82308" data-name="Path 82308" d="M108.556,18.31c-1.756,0-2.564-1.071-2.564-3.05V9.766h-1.252V8.352h1.252V5l1.635-.182V8.352H110.9V9.766h-3.273v5.252c0,1.172.284,1.757,1.213,1.757a3.538,3.538,0,0,0,1.656-.5l.444,1.434A4.525,4.525,0,0,1,108.556,18.31Z" transform="translate(47.778 2.197)" fill="#fff"/>
    <path id="Path_82309" data-name="Path 82309" d="M124.721,18.493H122.6l-3.636-5.474h-2.707v5.474H114.5V4.151h5.091c3.313,0,4.747,1.9,4.747,4.444a4,4,0,0,1-3.415,4.262v.02ZM116.258,5.767V11.4h2.867c2.384,0,3.394-1.212,3.394-2.848,0-1.818-1.191-2.788-3.151-2.788Z" transform="translate(52.231 1.893)" fill="#fff"/>
    <path id="Path_82310" data-name="Path 82310" d="M132.034,12.049c0,.263-.039.606-.039.667H124.42a3.224,3.224,0,0,0,3.292,3.03,3.435,3.435,0,0,0,2.767-1.333l1.152.99a4.854,4.854,0,0,1-3.98,1.838,4.781,4.781,0,0,1-4.888-5.03,4.737,4.737,0,0,1,4.706-5.05C130.217,7.161,132.034,9.221,132.034,12.049Zm-4.484-3.373a3.063,3.063,0,0,0-3.071,2.687h5.94A2.868,2.868,0,0,0,127.551,8.676Z" transform="translate(56 3.267)" fill="#fff"/>
    <path id="Path_82311" data-name="Path 82311" d="M137.618,7.244h1.777l-4,9.838H133.82L129.8,7.244h1.758L134.588,15h.06Z" transform="translate(59.21 3.305)" fill="#fff"/>
    <path id="Path_82312" data-name="Path 82312" d="M138.829,6.717a1.143,1.143,0,0,1-1.171-1.151,1.155,1.155,0,0,1,1.171-1.151A1.169,1.169,0,0,1,140,5.566,1.156,1.156,0,0,1,138.829,6.717ZM138,18.373V8.535h1.635v9.838Z" transform="translate(62.795 2.014)" fill="#fff"/>
    <path id="Path_82313" data-name="Path 82313" d="M150.121,12.049c0,.263-.041.606-.041.667h-7.575a3.224,3.224,0,0,0,3.292,3.03,3.44,3.44,0,0,0,2.768-1.333l1.15.99a4.852,4.852,0,0,1-3.98,1.838,4.781,4.781,0,0,1-4.888-5.03,4.738,4.738,0,0,1,4.708-5.05C148.3,7.161,150.121,9.221,150.121,12.049Zm-4.485-3.373a3.062,3.062,0,0,0-3.07,2.687H148.5A2.867,2.867,0,0,0,145.636,8.676Z" transform="translate(64.25 3.267)" fill="#fff"/>
    <path id="Path_82314" data-name="Path 82314" d="M160.613,7.244h1.657l-3.415,9.838H157.32L155.1,9.911h-.02l-2.241,7.171h-1.5l-3.413-9.838h1.656l2.5,7.353h.041l2.243-7.353h1.414l2.282,7.353h.041Z" transform="translate(67.48 3.305)" fill="#fff"/>
    <path id="Path_82315" data-name="Path 82315" d="M162.423,17.241a5.6,5.6,0,0,1-3.859-1.414l.849-1.232a4.068,4.068,0,0,0,3.01,1.172c1.171,0,1.858-.606,1.858-1.313,0-.849-.909-1.131-2.343-1.616-1.6-.566-2.95-1.232-2.95-3.03,0-1.515,1.375-2.646,3.253-2.646a5.109,5.109,0,0,1,3.372,1.212l-.848,1.293a3.922,3.922,0,0,0-2.607-1.01c-.747,0-1.514.444-1.514,1.151,0,.768.808,1.131,1.858,1.535,2.081.808,3.454,1.151,3.434,3.091C165.937,15.968,164.786,17.241,162.423,17.241Z" transform="translate(72.332 3.267)" fill="#fff"/>
    <g id="Group_54301" data-name="Group 54301">
      <path id="Path_82316" data-name="Path 82316" d="M58.09,21.147H35.907L29.055,0,22.183,21.147,0,21.126,17.965,34.208,11.091,55.334,29.055,42.273,47,55.334,40.146,34.208Z" fill="#00b67a"/>
      <path id="Path_82317" data-name="Path 82317" d="M32.59,28.275l-1.542-4.783L19.957,31.557Z" transform="translate(9.104 10.716)" fill="#005128"/>
    </g>
    <path id="Path_82318" data-name="Path 82318" d="M56.288,37.384v-2.29H50.355V33.333l6.42-9.944h2.23v9.337H60.9v2.369H59.006v2.29Zm-2.927-4.519h3.116V27.838Z" transform="translate(22.97 10.669)" fill="#00b67a"/>
    <path id="Path_82319" data-name="Path 82319" d="M60.33,34.136a1.605,1.605,0,0,1-1.185-.468,1.562,1.562,0,0,1-.478-1.155,1.578,1.578,0,0,1,.478-1.155,1.614,1.614,0,0,1,1.185-.478,1.666,1.666,0,0,1,1.642,1.633,1.649,1.649,0,0,1-1.642,1.622Z" transform="translate(26.762 14.087)" fill="#00b67a"/>
    <path id="Path_82320" data-name="Path 82320" d="M61.9,23.389h8.71V25.2L65.744,37.683l-2.757-.5,4.589-11.3H61.9Z" transform="translate(28.237 10.669)" fill="#00b67a"/>
  </g>
</svg>
