<svg id="Walmart-Logo.wine" xmlns="http://www.w3.org/2000/svg" width="166.824" height="40" viewBox="0 0 166.824 40">
  <path id="Path_124079" data-name="Path 124079" d="M96.757,24.676c0-3.95-1.691-7.44-7.41-7.44A13.5,13.5,0,0,0,82.819,18.8l.926,3.169a9.632,9.632,0,0,1,4.772-1.331c2.9,0,3.37,1.634,3.37,2.687v.254c-6.32-.01-10.315,2.173-10.315,6.62a5.256,5.256,0,0,0,5.574,5.265,6.381,6.381,0,0,0,5.083-2.251h.106s.72,3.012,4.7,1.861a26.232,26.232,0,0,1-.278-4.206Zm-4.715,4.171a3.043,3.043,0,0,1-.121.934,3.3,3.3,0,0,1-3.181,2.235,2.158,2.158,0,0,1-2.353-2.31c0-2.392,2.642-3.051,5.655-3.034M0,11.861S4.128,28.749,4.784,31.485c.773,3.2,2.157,4.38,6.152,3.592L13.517,24.6c.652-2.595,1.1-4.455,1.517-7.1h.071a69.684,69.684,0,0,0,1.247,7.107s1.053,4.758,1.6,7.25,2.028,4.065,5.948,3.214l6.142-23.217H25.083L22.975,21.9c-.558,2.909-1.065,5.2-1.46,7.868h-.072c-.356-2.638-.808-4.836-1.388-7.686L17.872,11.861H12.7l-2.331,9.963c-.665,3.042-1.286,5.482-1.677,8.064H8.624c-.4-2.423-.949-5.508-1.527-8.436,0,0-1.384-7.134-1.873-9.591M43.859,24.676c0-3.95-1.7-7.44-7.414-7.44A13.5,13.5,0,0,0,29.921,18.8l.926,3.169a9.6,9.6,0,0,1,4.772-1.331c2.9,0,3.37,1.634,3.37,2.687v.254c-6.32-.01-10.319,2.173-10.319,6.62a5.258,5.258,0,0,0,5.565,5.265,6.36,6.36,0,0,0,5.087-2.251h.11s.724,3.012,4.7,1.861a26.036,26.036,0,0,1-.274-4.206ZM39.14,28.847a3.174,3.174,0,0,1-.117.934,3.311,3.311,0,0,1-3.19,2.235,2.159,2.159,0,0,1-2.349-2.31c0-2.392,2.642-3.051,5.655-3.034m12.011,8.4V11.861H46.432V35.069Zm60.09-23.209V28.984c0,2.364.444,4.012,1.4,5.022a5.258,5.258,0,0,0,3.844,1.462,11.432,11.432,0,0,0,3.423-.505l-.057-3.686a7.557,7.557,0,0,1-1.8.209c-1.611,0-2.143-1.02-2.143-3.143V21.787h4.11V17.352h-4.11V11.861M99.043,17.638V35.077h4.878V26.146a6.585,6.585,0,0,1,.106-1.28,3.675,3.675,0,0,1,3.852-3.075,8.16,8.16,0,0,1,1.4.131V17.35a5.006,5.006,0,0,0-5.827,3.584h-.121v-3.3m-49.44,0V35.077h4.754V24.841a3.977,3.977,0,0,1,.223-1.415,3.19,3.19,0,0,1,2.885-2.237c1.914,0,2.818,1.615,2.818,3.946v9.941h4.742V24.719a4.877,4.877,0,0,1,.2-1.407,2.974,2.974,0,0,1,2.854-2.122c1.934,0,2.871,1.581,2.871,4.328v9.559H79.97V24.794c0-5.4-2.748-7.545-5.868-7.545a6.309,6.309,0,0,0-3.445.943,7.47,7.47,0,0,0-2.21,2.165h-.072A4.975,4.975,0,0,0,63.56,17.25,5.483,5.483,0,0,0,58.477,20h-.072V17.638" transform="translate(0 -3.39)" fill="#46abff"/>
  <path id="Path_124080" data-name="Path 124080" d="M196.638,13.466a1.727,1.727,0,0,0,1.82-1.112l.924-10.468C199.382.848,198.162,0,196.638,0s-2.744.848-2.744,1.885l.932,10.468a1.713,1.713,0,0,0,1.812,1.112m-5.67,3.276a1.717,1.717,0,0,0-.063-2.13l-8.628-6.034c-.9-.523-2.241.1-3.01,1.421s-.611,2.8.268,3.312l9.552,4.429a1.708,1.708,0,0,0,1.881-1.006m11.34,0a1.756,1.756,0,0,0,1.883,1.018l9.552-4.441c.887-.523,1.02-1.989.27-3.308-.767-1.321-2.118-1.94-3.014-1.427l-8.63,6.028a1.761,1.761,0,0,0-.051,2.139m-5.679,9.8a1.727,1.727,0,0,1,1.82,1.112l.924,10.469c0,1.037-1.221,1.877-2.744,1.877s-2.744-.84-2.744-1.877l.932-10.469a1.713,1.713,0,0,1,1.812-1.112m5.669-3.267c.489-.812,1.288-1.245,1.883-1.01l9.552,4.433c.887.513,1.02,1.991.27,3.312-.767,1.311-2.118,1.934-3.014,1.421l-8.63-6.036a1.734,1.734,0,0,1-.051-2.12m-11.35-.009a1.718,1.718,0,0,1-.063,2.13l-8.628,6.026c-.9.523-2.241-.1-3.01-1.413s-.611-2.8.268-3.312l9.552-4.433a1.7,1.7,0,0,1,1.881,1m25.57,7.246h.119c.161,0,.227.051.245.18a.888.888,0,0,0,.088.28h.307a.558.558,0,0,1-.08-.288.327.327,0,0,0-.227-.274v-.029a.279.279,0,0,0,.245-.268.353.353,0,0,0-.106-.254.833.833,0,0,0-.417-.088,1.936,1.936,0,0,0-.446.043v1.157h.272Zm.008-.528.139-.018c.164,0,.251.076.251.182s-.119.174-.27.174h-.121Zm.174-.785a1.174,1.174,0,1,0,1.194,1.165A1.169,1.169,0,0,0,216.72,29.2m0,.235a.935.935,0,0,1,0,1.869.935.935,0,0,1-.008-1.869" transform="translate(-51.091 0)" fill="#fcb61a"/>
</svg>
