<svg id="Walmart-Logo.wine" xmlns="http://www.w3.org/2000/svg" width="417.059" height="100" viewBox="0 0 417.059 100">
  <path id="Path_124079" data-name="Path 124079" d="M241.893,43.9c0-9.876-4.227-18.6-18.524-18.6a33.739,33.739,0,0,0-16.321,3.92l2.315,7.923a24.08,24.08,0,0,1,11.93-3.328c7.238-.01,8.424,4.084,8.424,6.717v.634c-15.8-.026-25.788,5.434-25.788,16.551,0,6.793,5.071,13.162,13.934,13.162,5.408,0,9.978-2.183,12.707-5.628h.266s1.8,7.529,11.751,4.651a65.577,65.577,0,0,1-.7-10.514ZM230.106,54.326a7.606,7.606,0,0,1-.3,2.336,8.251,8.251,0,0,1-7.954,5.587c-3.3,0-5.883-1.866-5.883-5.776,0-5.98,6.6-7.626,14.139-7.585M0,11.861S10.32,54.082,11.961,60.922c1.932,7.995,5.393,10.949,15.381,8.981l6.451-26.181c1.631-6.487,2.74-11.138,3.793-17.747h.179a174.212,174.212,0,0,0,3.118,17.768s2.632,11.895,4,18.125C46.208,68.1,49.95,72.029,59.749,69.9L75.1,11.861h-12.4l-5.27,25.108c-1.4,7.274-2.663,13-3.65,19.669H53.61c-.889-6.594-2.019-12.089-3.471-19.214L44.68,11.861H31.748L25.921,36.769c-1.661,7.606-3.215,13.7-4.192,20.16H21.56c-1.007-6.057-2.372-13.771-3.818-21.09,0,0-3.461-17.834-4.682-23.978M109.648,43.9c0-9.876-4.238-18.6-18.535-18.6A33.758,33.758,0,0,0,74.8,29.218l2.315,7.923a24,24,0,0,1,11.93-3.328c7.238-.01,8.424,4.084,8.424,6.717v.634c-15.8-.026-25.8,5.434-25.8,16.551,0,6.793,5.091,13.162,13.914,13.162,5.459,0,9.988-2.183,12.717-5.628h.276s1.809,7.529,11.751,4.651a65.09,65.09,0,0,1-.685-10.514Zm-11.8,10.428a7.936,7.936,0,0,1-.291,2.336,8.278,8.278,0,0,1-7.974,5.587c-3.276,0-5.873-1.866-5.873-5.776,0-5.98,6.6-7.626,14.139-7.585m30.027,20.995V11.861h-11.8V69.882ZM278.1,11.861V54.67c0,5.909,1.109,10.029,3.5,12.554a13.144,13.144,0,0,0,9.61,3.655,28.58,28.58,0,0,0,8.557-1.263l-.143-9.216a18.893,18.893,0,0,1-4.5.521c-4.028,0-5.357-2.551-5.357-7.856V36.678h10.274V25.59H289.767V11.861M247.609,26.3V69.9h12.2V47.574a16.463,16.463,0,0,1,.266-3.2c.91-4.708,4.483-7.688,9.63-7.688a20.4,20.4,0,0,1,3.5.327V25.584a12.914,12.914,0,0,0-2.648-.251c-4.565,0-9.738,2.9-11.92,9.211h-.3V26.3m-123.6,0V69.9h11.884V44.312a9.943,9.943,0,0,1,.557-3.537c.966-2.592,3.364-5.592,7.212-5.592,4.784,0,7.044,4.038,7.044,9.865V69.9h11.854v-25.9a12.194,12.194,0,0,1,.49-3.517,7.435,7.435,0,0,1,7.136-5.306c4.835,0,7.177,3.951,7.177,10.821V69.9h11.843V44.195c0-13.5-6.87-18.862-14.67-18.862a15.772,15.772,0,0,0-8.613,2.356,18.675,18.675,0,0,0-5.526,5.413h-.179c-1.876-4.692-6.282-7.77-12.038-7.77-7.381,0-10.734,3.726-12.707,6.875h-.179V26.3" transform="translate(0 9.317)" fill="#fff"/>
  <path id="Path_124080" data-name="Path 124080" d="M223.436,33.665c2.331,0,4.293-1.217,4.549-2.781L230.3,4.713C230.3,2.121,227.244,0,223.436,0c-3.829,0-6.86,2.121-6.86,4.713l2.331,26.171c.245,1.564,2.2,2.781,4.529,2.781M209.26,41.854c1.155-2.045,1.089-4.314-.159-5.326L187.531,21.444c-2.244-1.309-5.6.251-7.524,3.552s-1.528,7,.67,8.281l23.881,11.072c1.528.572,3.527-.491,4.7-2.515m28.349,0c1.221,2.024,3.22,3.087,4.708,2.545l23.881-11.1c2.218-1.309,2.551-4.974.675-8.271-1.917-3.3-5.3-4.851-7.535-3.568L237.762,36.506c-1.2,1.027-1.283,3.307-.128,5.347m-14.2,24.5c2.331,0,4.294,1.216,4.549,2.781l2.31,26.171c0,2.592-3.051,4.692-6.86,4.692-3.829,0-6.86-2.1-6.86-4.692l2.331-26.171c.246-1.564,2.2-2.781,4.529-2.781m14.173-8.166c1.221-2.029,3.22-3.113,4.708-2.525L266.2,66.746c2.219,1.283,2.551,4.979.675,8.281-1.917,3.276-5.3,4.835-7.535,3.552L237.763,63.49c-1.2-1.017-1.283-3.287-.128-5.3m-28.374-.022c1.155,2.04,1.089,4.3-.159,5.326L187.531,78.557c-2.244,1.308-5.6-.256-7.524-3.532-1.917-3.3-1.528-7,.67-8.281l23.881-11.082c1.528-.583,3.527.491,4.7,2.5m63.926,18.116h.3c.4,0,.567.128.613.45a2.221,2.221,0,0,0,.22.7h.767a1.4,1.4,0,0,1-.2-.721.816.816,0,0,0-.567-.685v-.071a.7.7,0,0,0,.613-.67.883.883,0,0,0-.266-.634,2.082,2.082,0,0,0-1.043-.22,4.839,4.839,0,0,0-1.114.107v2.893h.68Zm.021-1.319.348-.046c.409,0,.629.189.629.455,0,.3-.3.434-.674.434h-.3ZM273.641,73a2.935,2.935,0,1,0,2.985,2.914A2.922,2.922,0,0,0,273.641,73m0,.588a2.338,2.338,0,0,1,0,4.672,2.337,2.337,0,0,1-.021-4.672" transform="translate(140.432 0)" fill="#fff"/>
</svg>
