<svg xmlns="http://www.w3.org/2000/svg" width="285.713" height="99.999" viewBox="0 0 285.713 99.999">
  <g id="Group_54350" data-name="Group 54350" transform="translate(-3965 -7163.425)">
    <path id="Path_124072" data-name="Path 124072" d="M138.273,117.394l8.619-57.3a2.419,2.419,0,0,1,1.718-1.963l17.227-4.994a1.613,1.613,0,0,1,2.044,1.788L159.26,112.4c-.333,2.776.778,3.886,3.443,3.886a15.732,15.732,0,0,0,2.609-.238A1.732,1.732,0,0,1,167.323,118l-1.779,11.8a2.864,2.864,0,0,1-2.195,2.365,37.165,37.165,0,0,1-8.975,1.1C142.381,133.273,136.719,127.721,138.273,117.394Zm105.428,0,8.619-57.3a2.419,2.419,0,0,1,1.718-1.963l17.227-4.994a1.612,1.612,0,0,1,2.044,1.788L264.688,112.4c-.333,2.776.778,3.886,3.443,3.886a15.734,15.734,0,0,0,2.609-.238A1.732,1.732,0,0,1,272.751,118l-1.779,11.8a2.865,2.865,0,0,1-2.195,2.364,37.164,37.164,0,0,1-8.975,1.1C247.809,133.273,242.146,127.721,243.7,117.394Zm-4.392.579-1.722,11.973a2.63,2.63,0,0,1-2.024,2.187,39.476,39.476,0,0,1-9.113,1.14c-7.773,0-12.659-2.554-14.657-6.884a29.6,29.6,0,0,1-19.322,6.884c-14.435,0-22.43-9.661-20.32-23.874l4.667-31.613a1.73,1.73,0,0,1,1.712-1.477h16.711a1.73,1.73,0,0,1,1.712,1.983l-4.037,27.332c-1,6.441,1.777,10.438,7.773,10.438,6.107,0,10.438-3.776,11.326-10.105l4.221-28.174a1.73,1.73,0,0,1,1.711-1.474h16.715a1.73,1.73,0,0,1,1.712,1.983L231.335,112.4c-.445,2.665.666,3.886,3.442,3.886a13.177,13.177,0,0,0,2.492-.254,1.734,1.734,0,0,1,2.039,1.944Zm105.539,0-1.81,12.581A1.738,1.738,0,0,1,341.706,132a40.7,40.7,0,0,1-9.717,1.277c-7.773,0-12.659-2.554-14.657-6.884a29.6,29.6,0,0,1-19.322,6.884c-14.435,0-22.43-9.661-20.32-23.874l4.667-31.613a1.73,1.73,0,0,1,1.711-1.477H300.78a1.73,1.73,0,0,1,1.711,1.983l-4.037,27.332c-1,6.441,1.777,10.438,7.773,10.438,6.107,0,10.438-3.776,11.326-10.105l4.221-28.174a1.73,1.73,0,0,1,1.711-1.474H340.2a1.73,1.73,0,0,1,1.711,1.983L336.875,112.4c-.444,2.665.666,3.886,3.442,3.886a13.175,13.175,0,0,0,2.492-.254,1.734,1.734,0,0,1,2.038,1.944Z" transform="translate(3905.849 7130.151)" fill="#fff"/>
    <path id="Path_124073" data-name="Path 124073" d="M56.308,132.439C47.9,111.419,21.227,105.45,16,104.47a.941.941,0,0,1-.758-1.065l7.569-50.227a91.387,91.387,0,0,0-12.728-.422.938.938,0,0,0-.875.8l-9.192,61a.938.938,0,0,0,.949,1.08c6.656-.162,41.121-.172,51.142,16.541a1.889,1.889,0,0,0,2.145.859Z" transform="translate(3965 7130.313)" fill="#fff"/>
    <path id="Path_124074" data-name="Path 124074" d="M71.409,130.593c-2.087-13.417-17.858-27.665-17.858-27.665-4.709-5.731-.765-13.691,1.161-16.865a.937.937,0,0,0-.731-1.421c-3-.232-9.06-1.556-9.058-8.483a11.948,11.948,0,0,1,.151-1.77l2.843-18.922h0c-2.94-.559-5.875-1.017-8.7-1.377l-.034,0c-1.694-.216-3.348-.4-4.943-.544h0l-7.568,50.227a.941.941,0,0,0,.758,1.065c5.232.981,31.908,6.949,40.313,27.969l2.349-.682a1.881,1.881,0,0,0,1.335-1.526l.316-2.1C71.521,129.861,71.409,130.593,71.409,130.593Z" transform="translate(3953.58 7129.95)" fill="#fff"/>
    <path id="Path_124075" data-name="Path 124075" d="M44.858,45.293l.034,0c2.83.361,5.764.818,8.7,1.377h0l1.783-11.87A62.5,62.5,0,0,0,42.5,33.025a.936.936,0,0,0-.939.8L39.91,44.748h0C41.509,44.9,43.164,45.077,44.858,45.293Z" transform="translate(3947.896 7138.742)" fill="#fff"/>
    <path id="Path_124076" data-name="Path 124076" d="M93.394,77.118C95.056,66.5,78.273,60.079,61.623,56.913L58.78,75.834a11.945,11.945,0,0,0-.151,1.769c0,6.927,6.06,8.252,9.058,8.483a.937.937,0,0,1,.731,1.421c-1.926,3.174-5.87,11.134-1.161,16.865,0,0,15.771,14.248,17.858,27.665,0,0,4.02-26.392,8.825-58.546Z" transform="translate(3939.874 7128.505)" fill="#fff"/>
    <path id="Path_124077" data-name="Path 124077" d="M97.525,56.993c4.307-28.824-22.395-37.128-27.975-38.539a.939.939,0,0,0-1.159.772l-1.4,9.322C82.511,32.255,99.809,41.732,97.525,56.993Z" transform="translate(3936.291 7145)" fill="#fff"/>
    <path id="Path_124078" data-name="Path 124078" d="M65.652,36.14,63.869,48.01h0C80.519,51.176,97.3,57.6,95.64,68.216l.547-3.63C98.471,49.324,81.173,39.848,65.652,36.14Z" transform="translate(3937.628 7137.408)" fill="#fff"/>
  </g>
</svg>
