<svg xmlns="http://www.w3.org/2000/svg" width="404.378" height="85" viewBox="0 0 404.378 85">
  <g id="Amazon_Kindle" data-name="Amazon Kindle" transform="translate(-64.3 -157)">
    <path id="Path_123984" data-name="Path 123984" d="M208.586,236.591c-13.084,9.618-31.972,14.73-48.262,14.73a87.139,87.139,0,0,1-59.006-22.528c-1.213-1.126-.173-2.6,1.3-1.733a117.223,117.223,0,0,0,104.062,6.5C208.933,232.605,210.752,234.945,208.586,236.591Z" transform="translate(-4.872 -9.321)" fill="#fff" fill-rule="evenodd"/>
    <path id="Path_123985" data-name="Path 123985" d="M228.981,229.993c-1.646-2.166-11-1.04-15.25-.52-1.3.173-1.473-.953-.347-1.733,7.452-5.285,19.755-3.726,21.142-1.993,1.473,1.733-.347,14.037-7.365,19.929-1.04.867-2.08.433-1.646-.78C227.162,241,230.627,232.159,228.981,229.993Z" transform="translate(-19.809 -8.962)" fill="#fff" fill-rule="evenodd"/>
    <path id="Path_123986" data-name="Path 123986" d="M214.013,184.512V179.4a1.276,1.276,0,0,1,1.3-1.3h22.875a1.276,1.276,0,0,1,1.3,1.3v4.419c0,.693-.607,1.733-1.733,3.206l-11.784,16.9a25.7,25.7,0,0,1,13.084,2.773,2.408,2.408,0,0,1,1.213,1.993v5.459c0,.78-.78,1.646-1.646,1.126a26.179,26.179,0,0,0-24.174.087c-.78.433-1.646-.433-1.646-1.213v-5.2a5.7,5.7,0,0,1,.866-3.466l13.69-19.669H215.4A1.35,1.35,0,0,1,214.013,184.512Z" transform="translate(-19.83 -2.818)" fill="#fff" fill-rule="evenodd"/>
    <path id="Path_123987" data-name="Path 123987" d="M116.745,216.3h-6.932a1.239,1.239,0,0,1-1.213-1.213v-35.7a1.333,1.333,0,0,1,1.3-1.3h6.5a1.317,1.317,0,0,1,1.3,1.213v4.679h.173c1.646-4.506,4.852-6.585,9.185-6.585s7.105,2.08,9.011,6.585a9.846,9.846,0,0,1,9.618-6.585,9.954,9.954,0,0,1,8.058,3.9c2.166,3.033,1.733,7.365,1.733,11.177V215a1.333,1.333,0,0,1-1.3,1.3h-6.932a1.317,1.317,0,0,1-1.213-1.3V196.116a56.7,56.7,0,0,0-.173-6.672c-.52-2.426-2.08-3.119-4.072-3.119a4.629,4.629,0,0,0-4.159,2.946c-.693,1.82-.607,4.766-.607,6.845V215a1.333,1.333,0,0,1-1.3,1.3h-6.932a1.317,1.317,0,0,1-1.213-1.3V196.116c0-3.986.607-9.878-4.246-9.878-5.025,0-4.766,5.719-4.766,9.878V215C118.044,215.7,117.438,216.3,116.745,216.3Z" transform="translate(-5.916 -2.724)" fill="#fff" fill-rule="evenodd"/>
    <path id="Path_123988" data-name="Path 123988" d="M263.983,177.3c10.311,0,15.943,8.838,15.943,20.1,0,10.917-6.152,19.5-15.943,19.5-10.138,0-15.683-8.838-15.683-19.929C248.3,185.965,253.932,177.3,263.983,177.3Zm.087,7.278c-5.112,0-5.459,7.018-5.459,11.351s-.087,13.69,5.372,13.69c5.372,0,5.632-7.538,5.632-12.13a31.319,31.319,0,0,0-1.04-9.444A4.4,4.4,0,0,0,264.069,184.578Z" transform="translate(-24.571 -2.711)" fill="#fff" fill-rule="evenodd"/>
    <path id="Path_123989" data-name="Path 123989" d="M298.945,216.318h-6.932a1.317,1.317,0,0,1-1.213-1.3v-35.7a1.243,1.243,0,0,1,1.3-1.126h6.412a1.215,1.215,0,0,1,1.213,1.04v5.459h.173c1.906-4.852,4.679-7.192,9.444-7.192a9.163,9.163,0,0,1,8.145,4.246c1.82,2.859,1.82,7.625,1.82,11.091v22.355a1.312,1.312,0,0,1-1.3,1.126h-6.932a1.294,1.294,0,0,1-1.213-1.126V195.782c0-3.9.433-9.618-4.332-9.618a4.543,4.543,0,0,0-3.986,2.859,16.1,16.1,0,0,0-1.126,6.758v19.235A1.5,1.5,0,0,1,298.945,216.318Z" transform="translate(-30.246 -2.737)" fill="#fff" fill-rule="evenodd"/>
    <path id="Path_123990" data-name="Path 123990" d="M190.049,199.181c0,2.686.087,4.939-1.3,7.365a5.658,5.658,0,0,1-4.852,3.206c-2.686,0-4.246-1.993-4.246-5.025,0-5.892,5.285-7.018,10.311-7.018v1.473Zm7.018,16.983a1.439,1.439,0,0,1-1.646.173,15.951,15.951,0,0,1-3.986-4.679c-3.812,3.9-6.5,5.026-11.437,5.026-5.892,0-10.4-3.639-10.4-10.831a11.69,11.69,0,0,1,7.452-11.351c3.812-1.646,9.011-1.993,13.084-2.426v-.866c0-1.646.087-3.639-.866-5.026a4.677,4.677,0,0,0-3.9-1.82c-2.686,0-5.026,1.386-5.632,4.159a1.571,1.571,0,0,1-1.213,1.3l-6.758-.693a1.2,1.2,0,0,1-1.04-1.473c1.56-8.145,8.925-10.658,15.6-10.658,3.379,0,7.8.866,10.484,3.466,3.379,3.206,3.033,7.365,3.033,11.957v10.831c0,3.293,1.386,4.679,2.6,6.412a1.332,1.332,0,0,1,0,1.82c-1.473,1.213-3.986,3.379-5.372,4.679Z" transform="translate(-14.061 -2.671)" fill="#fff" fill-rule="evenodd"/>
    <path id="Path_123991" data-name="Path 123991" d="M84.749,199.181c0,2.686.087,4.939-1.3,7.365a5.658,5.658,0,0,1-4.852,3.206c-2.686,0-4.246-1.993-4.246-5.025,0-5.892,5.285-7.018,10.311-7.018v1.473Zm7.018,16.983a1.439,1.439,0,0,1-1.646.173,15.952,15.952,0,0,1-3.986-4.679c-3.812,3.9-6.5,5.026-11.437,5.026-5.892,0-10.4-3.639-10.4-10.831A11.69,11.69,0,0,1,71.752,194.5c3.812-1.646,9.011-1.993,13.084-2.426v-.866c0-1.646.173-3.639-.866-5.026a4.677,4.677,0,0,0-3.9-1.82c-2.686,0-5.025,1.386-5.632,4.159a1.571,1.571,0,0,1-1.213,1.3l-6.758-.693a1.2,1.2,0,0,1-1.04-1.473c1.56-8.145,8.925-10.658,15.6-10.658,3.379,0,7.8.866,10.484,3.466,3.379,3.206,3.033,7.365,3.033,11.957v10.831c0,3.293,1.386,4.679,2.6,6.412a1.332,1.332,0,0,1,0,1.82c-1.386,1.213-3.9,3.379-5.372,4.679Z" transform="translate(0 -2.671)" fill="#fff" fill-rule="evenodd"/>
    <path id="Path_123992" data-name="Path 123992" d="M357.495,213.58l-16.2-19.669h-.087V213.58H335.4V157h5.805v32.146h.087L355.155,175.8h7.625l-16.636,15.423,18.8,22.355h-7.452Z" transform="translate(-36.202 0)" fill="#fff"/>
    <path id="Path_123993" data-name="Path 123993" d="M376.672,168.245a4.072,4.072,0,1,1,4.072-4.072A4.068,4.068,0,0,1,376.672,168.245Zm-2.859,45.749V176.216h5.805v37.778Z" transform="translate(-41.169 -0.414)" fill="#fff"/>
    <path id="Path_123994" data-name="Path 123994" d="M414.888,216.331V193.11c0-4.679-.78-9.964-6.585-9.964-4.592,0-8.838,3.293-11.7,5.719v27.467H390.8V178.553h4.766l.78,4.592c4.159-3.206,8.231-5.545,13.517-5.545,5.459,0,10.831,3.9,10.831,13.344v25.387h-5.805Z" transform="translate(-43.6 -2.751)" fill="#fff"/>
    <path id="Path_123995" data-name="Path 123995" d="M452.009,214.36c-10.571,0-19.409-6.152-19.409-19.149,0-11.784,8.491-20.362,19.5-20.362a27.574,27.574,0,0,1,6.152.606V157h5.805v54.674A26.293,26.293,0,0,1,452.009,214.36Zm6.239-33.445a15.368,15.368,0,0,0-5.805-.953c-7.452,0-13.864,5.805-13.864,14.9,0,8.578,4.679,14.643,14.557,14.643a14.651,14.651,0,0,0,5.2-.953v-27.64Z" transform="translate(-49.182 0)" fill="#fff"/>
    <path id="Path_123996" data-name="Path 123996" d="M485.385,214.36c-4.592,0-6.585-2.946-6.585-6.932V157h5.805v47.742c0,3.553.866,4.332,3.119,4.332a6.809,6.809,0,0,0,1.993-.26l.693,4.246A10.345,10.345,0,0,1,485.385,214.36Z" transform="translate(-55.351 0)" fill="#fff"/>
    <path id="Path_123997" data-name="Path 123997" d="M502.139,198.4c0,7.192,4.159,13.69,12.3,13.69a18.539,18.539,0,0,0,9.185-2.773l1.82,4.159a23.051,23.051,0,0,1-11.7,3.639c-12.044,0-17.849-9.7-17.849-20.449,0-10.917,6.239-19.062,15.336-19.062,9.7,0,15.077,7.712,15.077,19.5v1.386H502.139Zm9.185-15.856c-5.632,0-9.1,4.939-9.1,10.917h17.849C519.988,188.171,517.042,182.539,511.323,182.539Z" transform="translate(-57.635 -2.751)" fill="#fff"/>
  </g>
</svg>
