<svg xmlns="http://www.w3.org/2000/svg" width="53.621" height="60" viewBox="0 0 53.621 60">
  <path id="service" d="M87.433,46.9c-.521-.87-2.654-3.454-8.244-.2l-9.708,5.654a5.332,5.332,0,0,1-1.226.528,4.048,4.048,0,0,0,.328-.844A3.785,3.785,0,0,0,66.007,47.5a.964.964,0,0,0-.127-.032,48.555,48.555,0,0,1-7.739-2.294c-.77-.278-1.5-.541-2.116-.742-2.525-.819-4.8.189-6.688,1.284l-7.13,4.128-.628-1.11a2.4,2.4,0,0,0-3.267-.905l-2.724,1.542a2.4,2.4,0,0,0-.905,3.267l8.008,14.149a2.381,2.381,0,0,0,1.446,1.128,2.418,2.418,0,0,0,.646.089,2.378,2.378,0,0,0,1.174-.311l2.724-1.542a2.4,2.4,0,0,0,.905-3.267l-.774-1.367,1.517-.876,12.391,3.32a7.968,7.968,0,0,0,2.068.279,7.411,7.411,0,0,0,3.922-1.127L86.329,52.269a4.075,4.075,0,0,0,1.1-5.373ZM47.728,64.47,45,66.012a.466.466,0,0,1-.629-.174L36.367,51.688a.468.468,0,0,1,.174-.629l2.724-1.542a.448.448,0,0,1,.223-.059.479.479,0,0,1,.127.017.46.46,0,0,1,.279.216L47.9,63.841A.468.468,0,0,1,47.728,64.47ZM64.28,54.7l1.207.2a7.23,7.23,0,0,0,4.968-.873l9.708-5.654C82.9,46.775,85,46.6,85.772,47.89a2.154,2.154,0,0,1-.459,2.731L67.7,61.469a5.509,5.509,0,0,1-4.474.627L50.444,58.672a.969.969,0,0,0-.734.1l-1.85,1.068-4.7-8.3L50.306,47.4c1.6-.925,3.324-1.7,5.121-1.118.589.191,1.268.436,2.055.721a50.434,50.434,0,0,0,7.983,2.366,1.824,1.824,0,0,1,1.248,2.17,1.748,1.748,0,0,1-2.126,1.254c-1.423-.293-2.778-.68-4.211-1.089-.682-.195-1.388-.4-2.113-.591a.968.968,0,0,0-.5,1.87c.71.19,1.408.39,2.082.582,1.484.424,2.886.824,4.4,1.133M40,52.158a.972.972,0,1,1-1.1-.822A.972.972,0,0,1,40,52.158ZM54.278,23.122a7.174,7.174,0,0,1,.737,1.676,7.178,7.178,0,0,1-.119,1.826c-.031.245-.065.518-.1.824a3.766,3.766,0,0,0,2.273,3.937c.284.122.537.228.765.324l.12.051-3.6,7.726A.968.968,0,0,0,55.4,40.848l3.954-.691,2.016,3.47a.968.968,0,0,0,.837.481h.044a.968.968,0,0,0,.833-.558l3.571-7.669-.071-.033a4.789,4.789,0,0,1,1.268-.278A7.169,7.169,0,0,1,69.629,36l.311.1,2.577,5.983a.968.968,0,0,0,.817.582l.072,0a.968.968,0,0,0,.822-.458l2.116-3.41,3.932.805a.968.968,0,0,0,1.083-1.331l-2.929-6.8.205-.088a3.766,3.766,0,0,0,2.273-3.937c-.037-.307-.071-.579-.1-.824a7.169,7.169,0,0,1-.119-1.827,7.178,7.178,0,0,1,.737-1.676c.113-.22.238-.464.377-.74a3.766,3.766,0,0,0-.789-4.476c-.225-.211-.427-.4-.608-.566a7.174,7.174,0,0,1-1.265-1.323,7.167,7.167,0,0,1-.513-1.757c-.055-.241-.116-.509-.187-.809a3.765,3.765,0,0,0-3.482-2.922c-.308-.017-.583-.031-.829-.043a7.17,7.17,0,0,1-1.82-.2A7.168,7.168,0,0,1,70.787,9.27c-.2-.149-.416-.315-.663-.5a3.765,3.765,0,0,0-4.545,0c-.247.185-.466.351-.663.5a7.172,7.172,0,0,1-1.522,1.016,7.169,7.169,0,0,1-1.82.2c-.247.012-.521.026-.829.043a3.766,3.766,0,0,0-3.482,2.922c-.07.3-.131.569-.187.809a7.167,7.167,0,0,1-.513,1.757A7.177,7.177,0,0,1,55.3,17.34c-.181.168-.383.355-.608.566a3.766,3.766,0,0,0-.789,4.476C54.04,22.658,54.165,22.9,54.278,23.122Zm7.833,17.929L60.687,38.6a.968.968,0,0,0-1-.467l-2.792.488,2.759-5.927a11.646,11.646,0,0,1,.9,1.3c.134.207.283.438.452.7a3.763,3.763,0,0,0,3.158,1.72c.035,0,.071,0,.107,0Zm13.961-4.284a.968.968,0,0,0-1.016.438l-1.494,2.408-1.4-3.255a3.767,3.767,0,0,0,2.536-1.666c.169-.258.318-.489.452-.7a7.173,7.173,0,0,1,1.083-1.476,2.3,2.3,0,0,1,.427-.271l2.191,5.088ZM56.014,19.318c.222-.208.421-.393.6-.559,1.718-1.594,1.828-1.784,2.349-4.068.054-.237.114-.5.184-.8a1.821,1.821,0,0,1,1.7-1.431c.3-.017.575-.03.818-.043,2.34-.116,2.547-.192,4.414-1.607.194-.147.41-.311.654-.493a1.821,1.821,0,0,1,2.226,0c.244.182.46.346.654.493,1.868,1.415,2.074,1.49,4.414,1.607.243.012.514.026.818.043a1.821,1.821,0,0,1,1.7,1.431c.069.3.13.561.184.8.521,2.284.631,2.474,2.349,4.068.179.166.377.35.6.559a1.821,1.821,0,0,1,.386,2.192c-.137.272-.261.513-.372.73-1.069,2.085-1.107,2.3-.816,4.626.03.242.064.511.1.813a1.821,1.821,0,0,1-1.113,1.927c-.28.12-.53.225-.754.32-2.159.91-2.327,1.051-3.6,3.019-.132.2-.279.432-.446.687a1.822,1.822,0,0,1-2.091.761c-.292-.088-.551-.168-.783-.24-2.239-.691-2.458-.691-4.7,0-.233.072-.492.152-.783.24a1.822,1.822,0,0,1-2.091-.761c-.167-.255-.314-.483-.446-.687-1.271-1.968-1.439-2.109-3.6-3.019-.224-.095-.474-.2-.754-.32a1.821,1.821,0,0,1-1.113-1.928c.036-.3.07-.572.1-.813.292-2.325.253-2.541-.816-4.626-.111-.217-.235-.458-.372-.73a1.821,1.821,0,0,1,.386-2.192ZM67.851,31.083a8.874,8.874,0,1,0-8.874-8.874A8.884,8.884,0,0,0,67.851,31.083Zm0-15.812a6.938,6.938,0,1,1-6.938,6.938A6.946,6.946,0,0,1,67.851,15.271ZM65.387,25.638,62.9,23.148a.968.968,0,1,1,1.369-1.369L66.1,23.618l5.367-4.87a.968.968,0,1,1,1.3,1.433l-6.049,5.49a.968.968,0,0,1-1.335-.032Z" transform="translate(-34.373 -8.007)" fill="#fff"/>
</svg>
