<svg xmlns="http://www.w3.org/2000/svg" width="59.995" height="60" viewBox="0 0 59.995 60">
  <path id="safety" d="M58.294,52.5a9.5,9.5,0,0,0-5.129-.176l-8.08,1.5c2.738-2.345,5.2-5.768,5.2-9.536v-8.9a.85.85,0,0,0-.656-.828A21.647,21.647,0,0,1,42.7,31.5a.85.85,0,0,0-.467-.14H36.417a.851.851,0,0,0-.468.14,21.649,21.649,0,0,1-6.924,3.059.85.85,0,0,0-.656.828v8.9a9.08,9.08,0,0,0,.287,2.228,14.594,14.594,0,0,0-4.795,1.164c-2.139.787-4.268,1.541-6.43,2.3l-.061-.2a2.377,2.377,0,0,0-2.954-1.592l-3.7,1.108a2.367,2.367,0,0,0-1.594,2.957L13.64,67.309A2.374,2.374,0,0,0,16.594,68.9l3.7-1.108a2.367,2.367,0,0,0,1.594-2.957L21.461,63.4l3.315-1.211a3.374,3.374,0,0,1,2.528.044l7.168,2.9A6.677,6.677,0,0,0,37,65.583a19.87,19.87,0,0,0,5.117-.93l.466-.128,14.414-3.92a5.036,5.036,0,0,0,3.589-5.582A3.57,3.57,0,0,0,58.294,52.5ZM30.07,36.048a23.524,23.524,0,0,0,6.6-2.988h5.314a23.524,23.524,0,0,0,6.6,2.988v8.235c0,2.959-2.08,6.362-5.364,8.862a3.971,3.971,0,0,0-1.775-1.339l-6.373-2.429a11.368,11.368,0,0,0-4.578-2.65,7.687,7.687,0,0,1-.422-2.444ZM20.213,65.84a.67.67,0,0,1-.4.324l-3.7,1.108a.674.674,0,0,1-.838-.452L10.748,51.756a.667.667,0,0,1,.452-.839l3.7-1.107a.667.667,0,0,1,.193-.028.675.675,0,0,1,.646.48l4.521,15.064a.67.67,0,0,1-.05.514Zm36.333-6.874L42.132,62.885l-.471.129c-2.094.577-4.7,1.295-6.552.545l-7.168-2.9a5.075,5.075,0,0,0-3.75-.065l-3.221,1.177L17.922,51.608c2.193-.772,4.353-1.537,6.528-2.337,3.766-1.385,5.748-1.9,9.617,1.486a.855.855,0,0,0,.257.155l6.515,2.483a2.31,2.31,0,1,1-1.645,4.317l-8.658-3.3A.85.85,0,1,0,29.929,56l8.658,3.3a4.012,4.012,0,0,0,5.435-3.556l9.453-1.75c3.081-.571,5.118-.044,5.449,1.408a3.346,3.346,0,0,1-2.378,3.563ZM68.911,25.757,64.39,10.693A2.377,2.377,0,0,0,61.436,9.1l-3.7,1.107a2.367,2.367,0,0,0-1.594,2.957l.432,1.438-3.315,1.211a3.376,3.376,0,0,1-2.528-.044l-7.168-2.9c-2.385-.966-5.3-.163-7.641.482l-.466.128L21.037,17.4a5.035,5.035,0,0,0-3.589,5.582A3.57,3.57,0,0,0,19.736,25.5a9.5,9.5,0,0,0,5.129.176l9.427-1.745A4,4,0,0,0,36.586,26.2l6.373,2.429c2.11,1.823,3.893,2.7,5.768,2.846.185.014.369.021.552.021a14.3,14.3,0,0,0,4.888-1.166c2.133-.784,4.265-1.54,6.43-2.3l.061.2a2.373,2.373,0,0,0,2.954,1.592l3.7-1.107a2.367,2.367,0,0,0,1.594-2.957ZM53.58,28.731c-3.766,1.385-5.748,1.9-9.617-1.486a.851.851,0,0,0-.257-.155l-6.514-2.482a2.31,2.31,0,1,1,1.645-4.318l8.658,3.3A.85.85,0,1,0,48.1,22l-8.658-3.3a4.011,4.011,0,0,0-5.435,3.556l-9.453,1.75c-3.081.571-5.118.044-5.449-1.408a3.347,3.347,0,0,1,2.378-3.563L35.9,15.117l.471-.129c2.094-.577,4.7-1.3,6.551-.545l7.168,2.9a5.074,5.074,0,0,0,3.75.065l3.221-1.177,3.049,10.159C57.91,27.167,55.748,27.934,53.58,28.731ZM67.232,26.76a.67.67,0,0,1-.4.324l-3.7,1.107a.674.674,0,0,1-.838-.452l-4.52-15.064a.667.667,0,0,1,.452-.839l3.7-1.108a.675.675,0,0,1,.838.452l4.521,15.063a.671.671,0,0,1-.05.515ZM33.559,42.589a.85.85,0,1,1,1.412-.947l2.124,3.164,6.757-5.487a.85.85,0,1,1,1.072,1.32l-7.48,6.073a.85.85,0,0,1-1.242-.186Z" transform="translate(-9.017 -9.001)" fill="#fff"/>
</svg>
