<svg xmlns="http://www.w3.org/2000/svg" xmlns:xlink="http://www.w3.org/1999/xlink" width="538.593" height="54.672" viewBox="0 0 538.593 54.672">
  <defs>
    <linearGradient id="linear-gradient" x1="0.5" x2="0.5" y2="1" gradientUnits="objectBoundingBox">
      <stop offset="0" stop-color="#d36cfa"/>
      <stop offset="1" stop-color="#852cc2"/>
    </linearGradient>
  </defs>
  <g id="Group_54464" data-name="Group 54464" transform="translate(-142.295 -639.328)">
    <g id="Group_54463" data-name="Group 54463" transform="translate(247.925 534.712)">
      <g id="Group_54462" data-name="Group 54462" transform="translate(326.751 104.616)">
        <path id="Path_126809" data-name="Path 126809" d="M407.76,116.044H513.972v16.345H407.76Z" transform="translate(-407.76 -116.044)" fill="none"/>
      </g>
    </g>
    <g id="Group_54621" data-name="Group 54621" transform="translate(0.295 31)">
      <g id="apple-podcasts-logo" transform="translate(257.623 634.302)">
        <g id="Group_54460" data-name="Group 54460" transform="translate(34.671 9.561)">
          <path id="Path_126782" data-name="Path 126782" d="M120.668,33.217h-4.076l-.978,2.89h-1.727l3.861-10.693h1.793L123.4,36.107h-1.756Zm-3.654-1.333h3.231l-1.593-4.691h-.045l-1.593,4.691Zm14.918.326c0,2.423-1.3,3.979-3.253,3.979a2.64,2.64,0,0,1-2.453-1.365h-.037v3.861h-1.6V28.31h1.549v1.3h.029a2.763,2.763,0,0,1,2.483-1.378c1.98,0,3.284,1.564,3.284,3.98Zm-1.644,0c0-1.579-.815-2.616-2.06-2.616-1.222,0-2.045,1.06-2.045,2.616s.823,2.624,2.045,2.624C129.473,34.833,130.288,33.8,130.288,32.21Zm10.285,0c0,2.423-1.3,3.979-3.253,3.979a2.64,2.64,0,0,1-2.453-1.365h-.037v3.861h-1.6V28.31h1.549v1.3h.029a2.763,2.763,0,0,1,2.483-1.378c1.978,0,3.283,1.564,3.283,3.98Zm-1.645,0c0-1.579-.815-2.616-2.06-2.616-1.222,0-2.045,1.06-2.045,2.616s.823,2.624,2.045,2.624C138.113,34.833,138.928,33.8,138.928,32.21Zm3-6.8h1.6V36.107h-1.6Zm10.26,8.4a3.128,3.128,0,0,1-3.357,2.386c-2.267,0-3.675-1.52-3.675-3.957s1.416-4.032,3.608-4.032c2.157,0,3.512,1.482,3.512,3.846v.548H146.77v.1a2.03,2.03,0,0,0,2.1,2.208,1.765,1.765,0,0,0,1.8-1.1Zm-5.409-2.327h3.9a1.874,1.874,0,0,0-1.911-1.978,1.971,1.971,0,0,0-1.986,1.978ZM161.4,25.414a3.355,3.355,0,0,1,3.52,3.512,3.392,3.392,0,0,1-3.571,3.527h-2.3v3.653h-1.66V25.414Zm-2.349,5.647h1.905a2.127,2.127,0,1,0,.007-4.246h-1.911v4.246Zm6.619,1.149c0-2.453,1.445-3.995,3.7-3.995s3.7,1.541,3.7,3.995-1.43,3.995-3.7,3.995S165.671,34.669,165.671,32.21Zm5.765,0c0-1.682-.77-2.675-2.067-2.675s-2.067,1-2.067,2.675.77,2.675,2.067,2.675S171.437,33.9,171.437,32.21Zm2.738,0c0-2.408,1.327-3.979,3.26-3.979a2.629,2.629,0,0,1,2.445,1.378h.029V25.415h1.608V36.107H179.96V34.781h-.029a2.66,2.66,0,0,1-2.483,1.408c-1.947,0-3.273-1.571-3.273-3.979Zm1.637,0c0,1.6.815,2.624,2.06,2.624s2.052-1.037,2.052-2.624c0-1.571-.823-2.616-2.052-2.616C176.627,29.593,175.812,30.623,175.812,32.21Zm12.651-1.216a1.722,1.722,0,0,0-1.838-1.438c-1.23,0-2.045,1.03-2.045,2.653,0,1.66.823,2.66,2.06,2.66a1.677,1.677,0,0,0,1.823-1.4H190a3.116,3.116,0,0,1-3.379,2.734c-2.222,0-3.675-1.519-3.675-3.994,0-2.423,1.453-3.995,3.661-3.995a3.134,3.134,0,0,1,3.379,2.779h-1.528Zm2.555,2.883c0-1.363,1.045-2.164,2.987-2.282l2.074-.118v-.593c0-.882-.585-1.356-1.6-1.356a1.465,1.465,0,0,0-1.579,1.1h-1.5c.045-1.393,1.349-2.408,3.121-2.408,1.911,0,3.148,1,3.148,2.549v5.343h-1.533V34.827H196.1a2.775,2.775,0,0,1-2.461,1.393,2.381,2.381,0,0,1-2.622-2.343Zm5.06-.689v-.6l-1.868.118c-1.037.059-1.585.459-1.585,1.134,0,.652.57,1.112,1.46,1.112a1.847,1.847,0,0,0,1.993-1.763Zm6.273-4.966c1.726,0,2.963.955,3,2.334h-1.5c-.068-.689-.652-1.112-1.542-1.112-.866,0-1.445.4-1.445,1.008,0,.467.386.778,1.192.978l1.312.3c1.571.377,2.164.955,2.164,2.1,0,1.408-1.334,2.371-3.239,2.371-1.838,0-3.075-.941-3.193-2.364h1.585c.112.748.712,1.149,1.682,1.149s1.557-.393,1.557-1.015c0-.482-.3-.741-1.111-.949l-1.393-.34c-1.408-.342-2.12-1.06-2.12-2.141,0-1.375,1.237-2.318,3.053-2.318Zm6.718-1.755v1.844h1.482v1.267h-1.482v4.3c0,.668.3.978.949.978a4.9,4.9,0,0,0,.526-.037v1.259a4.384,4.384,0,0,1-.888.073c-1.579,0-2.193-.592-2.193-2.1V29.578h-1.135V28.311h1.135V26.467Zm5.775,1.755c1.726,0,2.963.955,3,2.334h-1.5c-.068-.689-.652-1.112-1.542-1.112-.866,0-1.445.4-1.445,1.008,0,.467.385.778,1.192.978l1.312.3c1.57.377,2.163.955,2.163,2.1,0,1.408-1.334,2.371-3.239,2.371-1.838,0-3.075-.941-3.193-2.364h1.586c.112.748.712,1.149,1.682,1.149s1.557-.393,1.557-1.015c0-.482-.3-.741-1.111-.949l-1.393-.34c-1.408-.342-2.119-1.06-2.119-2.141C211.791,29.164,213.028,28.222,214.845,28.222Z" transform="translate(-113.887 -25.414)" fill="#fff"/>
        </g>
        <path id="Path_126783" data-name="Path 126783" d="M29.883,25.366a5.294,5.294,0,0,1-3.359,3.013A10.879,10.879,0,0,1,23.5,28.7H12.253a10.879,10.879,0,0,1-3.021-.319,5.277,5.277,0,0,1-3.359-3.013,9.793,9.793,0,0,1-.5-3.544V10.573a9.788,9.788,0,0,1,.495-3.543A5.3,5.3,0,0,1,9.231,4.016,10.882,10.882,0,0,1,12.252,3.7H23.5a10.881,10.881,0,0,1,3.021.318,5.276,5.276,0,0,1,3.359,3.013,9.806,9.806,0,0,1,.495,3.543v11.25A9.794,9.794,0,0,1,29.883,25.366Z" transform="translate(0 0)" fill="url(#linear-gradient)"/>
        <path id="Path_126784" data-name="Path 126784" d="M29.883,25.366a5.294,5.294,0,0,1-3.359,3.013A10.879,10.879,0,0,1,23.5,28.7H12.253a10.879,10.879,0,0,1-3.021-.319,5.277,5.277,0,0,1-3.359-3.013,9.793,9.793,0,0,1-.5-3.544V10.573a9.788,9.788,0,0,1,.495-3.543A5.3,5.3,0,0,1,9.231,4.016,10.882,10.882,0,0,1,12.252,3.7H23.5a10.881,10.881,0,0,1,3.021.318,5.276,5.276,0,0,1,3.359,3.013,9.806,9.806,0,0,1,.495,3.543v11.25A9.794,9.794,0,0,1,29.883,25.366Z" transform="translate(0 0)" fill="none"/>
        <path id="Path_126785" data-name="Path 126785" d="M29.728,25.558a2.85,2.85,0,0,0-3.624,0,1.15,1.15,0,0,0-.332.72,9.322,9.322,0,0,0,.04,1.891c.065.766.189,1.789.35,2.829a10.839,10.839,0,0,0,.293,1.427,1.415,1.415,0,0,0,1.459.87,1.415,1.415,0,0,0,1.459-.87A10.743,10.743,0,0,0,29.668,31c.162-1.04.286-2.062.351-2.829a9.339,9.339,0,0,0,.04-1.891A1.146,1.146,0,0,0,29.728,25.558Zm-3.856-3.525a2.046,2.046,0,1,0,2.046-2.046A2.046,2.046,0,0,0,25.871,22.033Zm2.021-8.075a8.791,8.791,0,0,0-2.884,17.086.118.118,0,0,0,.151-.073.122.122,0,0,0,.006-.056c-.046-.3-.088-.6-.127-.9a.3.3,0,0,0-.177-.238,7.665,7.665,0,1,1,6.117,0,.3.3,0,0,0-.178.238q-.059.451-.127.9a.117.117,0,0,0,.1.134.109.109,0,0,0,.057-.006,8.791,8.791,0,0,0-2.935-17.086Zm-.158,4.034a4.769,4.769,0,0,1,4.949,4.583c0,.059,0,.119,0,.178a4.751,4.751,0,0,1-1.506,3.472.368.368,0,0,0-.115.286,8.647,8.647,0,0,1-.01,1,.116.116,0,0,0,.109.122.117.117,0,0,0,.072-.019,5.888,5.888,0,0,0-3.326-10.754c-.074,0-.148,0-.222,0a5.888,5.888,0,0,0-3.081,10.751.115.115,0,0,0,.16-.03.117.117,0,0,0,.02-.073,8.263,8.263,0,0,1-.01-1,.364.364,0,0,0-.115-.286,4.762,4.762,0,0,1,3.072-8.233Z" transform="translate(-10.038 -7.49)" fill="#fff"/>
      </g>
      <g id="Group_54461" data-name="Group 54461" transform="translate(544 635)">
        <path id="Path_126786" data-name="Path 126786" d="M851.9,129.236v9.087h3.123v-9.087Z" transform="translate(-840.961 -121.285)" fill="#fab908"/>
        <path id="Path_126787" data-name="Path 126787" d="M813.642,136.969a1.568,1.568,0,1,1-1.568,1.568A1.567,1.567,0,0,1,813.642,136.969Z" transform="translate(-812.075 -126.894)" fill="#0066d9"/>
        <path id="Path_126788" data-name="Path 126788" d="M813.642,143.172a1.568,1.568,0,1,1-1.568,1.568A1.567,1.567,0,0,1,813.642,143.172Z" transform="translate(-812.075 -131.393)" fill="#0066d9"/>
        <path id="Path_126789" data-name="Path 126789" d="M812.117,142.676h3.123v1.7h-3.123Z" transform="translate(-812.105 -131.033)" fill="#0066d9"/>
        <path id="Path_126790" data-name="Path 126790" d="M893.248,143.172a1.568,1.568,0,1,1-1.568,1.568A1.567,1.567,0,0,1,893.248,143.172Z" transform="translate(-869.816 -131.393)" fill="#4285f4"/>
        <path id="Path_126791" data-name="Path 126791" d="M893.248,136.969a1.568,1.568,0,1,1-1.568,1.568A1.567,1.567,0,0,1,893.248,136.969Z" transform="translate(-869.816 -126.894)" fill="#4285f4"/>
        <path id="Path_126792" data-name="Path 126792" d="M891.722,142.676h3.124v1.7h-3.124v-1.7Z" transform="translate(-869.846 -131.033)" fill="#4285f4"/>
        <path id="Path_126793" data-name="Path 126793" d="M833.286,155.577a1.568,1.568,0,1,1-1.568,1.568A1.568,1.568,0,0,1,833.286,155.577Z" transform="translate(-826.323 -140.391)" fill="#ea4335"/>
        <path id="Path_126794" data-name="Path 126794" d="M833.286,161.78a1.568,1.568,0,1,1-1.568,1.568A1.568,1.568,0,0,1,833.286,161.78Z" transform="translate(-826.323 -144.89)" fill="#ea4335"/>
        <path id="Path_126795" data-name="Path 126795" d="M831.719,161.284h3.124v1.7h-3.124Z" transform="translate(-826.323 -144.531)" fill="#ea4335"/>
        <path id="Path_126796" data-name="Path 126796" d="M833.286,118.36a1.568,1.568,0,1,1-1.568,1.568A1.568,1.568,0,0,1,833.286,118.36Z" transform="translate(-826.323 -113.396)" fill="#ea4335"/>
        <path id="Path_126797" data-name="Path 126797" d="M833.286,138.54a1.568,1.568,0,1,1-1.568,1.568A1.568,1.568,0,0,1,833.286,138.54Z" transform="translate(-826.323 -128.034)" fill="#ea4335"/>
        <path id="Path_126798" data-name="Path 126798" d="M831.719,124.067h3.124v5.577h-3.124Z" transform="translate(-826.323 -117.536)" fill="#ea4335"/>
        <path id="Path_126799" data-name="Path 126799" d="M873.606,124.563a1.568,1.568,0,1,1-1.568,1.568A1.568,1.568,0,0,1,873.606,124.563Z" transform="translate(-855.568 -117.895)" fill="#34a853"/>
        <path id="Path_126800" data-name="Path 126800" d="M873.606,118.36a1.568,1.568,0,1,1-1.568,1.568A1.568,1.568,0,0,1,873.606,118.36Z" transform="translate(-855.568 -113.396)" fill="#34a853"/>
        <path id="Path_126801" data-name="Path 126801" d="M872.079,124.067H875.2v1.7h-3.124Z" transform="translate(-855.598 -117.536)" fill="#34a853"/>
        <circle id="Ellipse_196" data-name="Ellipse 196" cx="1.568" cy="1.568" r="1.568" transform="translate(10.938 1.704)" fill="#fab908"/>
        <path id="Path_126802" data-name="Path 126802" d="M853.466,100.288a1.568,1.568,0,1,1-1.568,1.568A1.567,1.567,0,0,1,853.466,100.288Z" transform="translate(-840.961 -100.288)" fill="#fab908"/>
        <path id="Path_126803" data-name="Path 126803" d="M851.9,105.995h3.123v1.7H851.9Z" transform="translate(-840.961 -104.427)" fill="#fab908"/>
        <path id="Path_126804" data-name="Path 126804" d="M853.466,179.894a1.568,1.568,0,1,1-1.568,1.568A1.567,1.567,0,0,1,853.466,179.894Z" transform="translate(-840.961 -158.029)" fill="#fab908"/>
        <circle id="Ellipse_197" data-name="Ellipse 197" cx="1.568" cy="1.568" r="1.568" transform="translate(10.938 20.161)" fill="#fab908"/>
        <path id="Path_126805" data-name="Path 126805" d="M851.9,179.4h3.123v1.7H851.9Z" transform="translate(-840.961 -157.669)" fill="#fab908"/>
        <path id="Path_126806" data-name="Path 126806" d="M873.606,161.78a1.568,1.568,0,1,1-1.568,1.568A1.568,1.568,0,0,1,873.606,161.78Z" transform="translate(-855.568 -144.89)" fill="#34a853"/>
        <path id="Path_126807" data-name="Path 126807" d="M873.606,141.642a1.568,1.568,0,1,1-1.568,1.568A1.568,1.568,0,0,1,873.606,141.642Z" transform="translate(-855.568 -130.284)" fill="#34a853"/>
        <path id="Path_126808" data-name="Path 126808" d="M872.079,147.349H875.2v5.543h-3.124Z" transform="translate(-855.598 -134.423)" fill="#34a853"/>
        <circle id="Ellipse_198" data-name="Ellipse 198" cx="1.568" cy="1.568" r="1.568" transform="translate(10.938 6.383)" fill="#fab908"/>
        <circle id="Ellipse_199" data-name="Ellipse 199" cx="1.568" cy="1.568" r="1.568" transform="translate(10.938 15.47)" fill="#fab908"/>
      </g>
      <path id="Path_126810" data-name="Path 126810" d="M461.078,129.8h-1.329v-10.4h3.544a3.277,3.277,0,0,1,2.283.886,2.835,2.835,0,0,1,.966,2.215,2.868,2.868,0,0,1-.966,2.215,3.293,3.293,0,0,1-2.283.875h-2.215V129.8Zm0-5.486h2.237a1.756,1.756,0,0,0,1.363-.568,1.883,1.883,0,0,0,.5-1.249,1.822,1.822,0,0,0-.511-1.249,1.712,1.712,0,0,0-1.352-.568h-2.237Zm6.577-.773a3.436,3.436,0,0,1,2.624-1.09,3.51,3.51,0,0,1,2.635,1.079,4.1,4.1,0,0,1,0,5.418,3.742,3.742,0,0,1-5.259,0,4.068,4.068,0,0,1-.012-5.407Zm.988,4.578a2.249,2.249,0,0,0,3.179.092c.032-.029.062-.06.092-.092a2.918,2.918,0,0,0,0-3.748,2.251,2.251,0,0,0-3.271,0,2.918,2.918,0,0,0,0,3.748Zm9.325,1.908a3.2,3.2,0,0,1-2.385-1.079,4.155,4.155,0,0,1,0-5.407,3.135,3.135,0,0,1,3.851-.738,2.484,2.484,0,0,1,.965.863h.057l-.057-.988v-3.283h1.329v10.4h-1.272v-.988H480.4a2.687,2.687,0,0,1-.965.875,3.1,3.1,0,0,1-1.465.341Zm.227-1.215a2.084,2.084,0,0,0,1.59-.692,2.564,2.564,0,0,0,.67-1.874,2.634,2.634,0,0,0-.658-1.874,2.161,2.161,0,0,0-1.613-.7,2.089,2.089,0,0,0-1.59.7,2.9,2.9,0,0,0,0,3.737,2.13,2.13,0,0,0,1.59.7Zm8.178,1.215a3.468,3.468,0,0,1-2.635-1.079,4.1,4.1,0,0,1,0-5.418,3.493,3.493,0,0,1,2.635-1.079,3.225,3.225,0,0,1,3.123,2.044L488.27,125a1.988,1.988,0,0,0-1.987-1.34,2.121,2.121,0,0,0-1.568.727,2.859,2.859,0,0,0,.011,3.691,2.059,2.059,0,0,0,1.556.727,2.08,2.08,0,0,0,2.067-1.34l1.192.511a3.292,3.292,0,0,1-3.169,2.045Zm6.338,0a2.8,2.8,0,0,1-1.9-.647,2.159,2.159,0,0,1-.761-1.727,2.111,2.111,0,0,1,.9-1.817,3.655,3.655,0,0,1,2.226-.67,3.918,3.918,0,0,1,1.931.431v-.2a1.57,1.57,0,0,0-.545-1.249,1.931,1.931,0,0,0-1.318-.477,1.991,1.991,0,0,0-1.056.284,1.386,1.386,0,0,0-.647.75l-1.215-.522a2.733,2.733,0,0,1,.977-1.181,3.068,3.068,0,0,1,1.908-.545,3.3,3.3,0,0,1,2.272.8,2.853,2.853,0,0,1,.909,2.249v4.3h-1.284v-.988h-.057a2.624,2.624,0,0,1-2.352,1.216h.012Zm.216-1.215a2.195,2.195,0,0,0,1.5-.613,1.941,1.941,0,0,0,.681-1.465,2.7,2.7,0,0,0-1.7-.454,2.311,2.311,0,0,0-1.477.409,1.3,1.3,0,0,0-.488.988.966.966,0,0,0,.454.829,1.776,1.776,0,0,0,1.022.306Zm7.36,1.215a3.2,3.2,0,0,1-3.1-2.033l1.193-.488a1.977,1.977,0,0,0,1.931,1.34,1.808,1.808,0,0,0,1.023-.284.85.85,0,0,0,.4-.726c0-.454-.329-.773-.977-.943l-1.431-.341a3.414,3.414,0,0,1-1.3-.67,1.59,1.59,0,0,1-.613-1.306,1.8,1.8,0,0,1,.84-1.533,3.571,3.571,0,0,1,3.668-.159,2.383,2.383,0,0,1,1.057,1.227l-1.159.477a1.583,1.583,0,0,0-1.624-.943,1.881,1.881,0,0,0-1.01.25.751.751,0,0,0-.4.659c0,.409.307.681.943.829l1.409.341a2.644,2.644,0,0,1,1.477.8,1.915,1.915,0,0,1,.477,1.284,1.962,1.962,0,0,1-.784,1.59,3.059,3.059,0,0,1-2.022.636Zm6.815-.114a2.065,2.065,0,0,1-2.306-2.283V123.9h-1.249v-1.227H504.8v-2.169h1.34v2.169h1.738V123.9h-1.738v3.635q0,1.159.954,1.158a1.554,1.554,0,0,0,.613-.113l.455,1.136a2.461,2.461,0,0,1-1.068.193h.012Zm4.668.114a3.2,3.2,0,0,1-3.1-2.033l1.193-.488a1.977,1.977,0,0,0,1.931,1.34,1.808,1.808,0,0,0,1.022-.284.851.851,0,0,0,.4-.726c0-.454-.329-.773-.977-.943l-1.431-.341a3.415,3.415,0,0,1-1.294-.67,1.591,1.591,0,0,1-.613-1.306,1.8,1.8,0,0,1,.841-1.533,3.571,3.571,0,0,1,3.669-.159,2.387,2.387,0,0,1,1.056,1.227l-1.159.477a1.583,1.583,0,0,0-1.624-.943,1.883,1.883,0,0,0-1.011.25.729.729,0,0,0-.4.659c0,.409.307.681.943.829l1.409.341a2.644,2.644,0,0,1,1.477.8,1.916,1.916,0,0,1,.477,1.284,1.962,1.962,0,0,1-.784,1.59,3.056,3.056,0,0,1-2.021.636ZM409,124.072a6.031,6.031,0,0,1,6.043-5.963,5.68,5.68,0,0,1,4.089,1.647l-1.159,1.136a4.3,4.3,0,1,0-2.93,7.485,3.976,3.976,0,0,0,3.01-1.193,3.42,3.42,0,0,0,.886-2.044h-3.9v-1.624h5.486a5.415,5.415,0,0,1,.091,1.022,5.338,5.338,0,0,1-1.408,3.805,5.483,5.483,0,0,1-4.169,1.669,6.031,6.031,0,0,1-6.043-5.94Zm15.981-1.647a3.783,3.783,0,0,1,3.85,3.713c0,.038,0,.076,0,.114a3.783,3.783,0,0,1-3.724,3.84h-.126a3.783,3.783,0,0,1-3.839-3.725c0-.038,0-.077,0-.115a3.771,3.771,0,0,1,3.713-3.828Zm0,6.145a2.335,2.335,0,1,0-2.158-2.329A2.223,2.223,0,0,0,424.981,128.57Zm8.405-6.145a3.782,3.782,0,0,1,3.839,3.725c0,.034,0,.069,0,.1a3.783,3.783,0,0,1-3.725,3.84h-.115a3.783,3.783,0,0,1-3.851-3.713c0-.042,0-.084,0-.126a3.771,3.771,0,0,1,3.713-3.828Zm0,6.145a2.169,2.169,0,1,0-.012,0Zm10.3-6.02H445.3v6.883c0,2.839-1.67,4-3.646,4a3.657,3.657,0,0,1-3.407-2.272l1.477-.613a2.087,2.087,0,0,0,1.919,1.363,1.972,1.972,0,0,0,2.044-2.249v-.556h-.057a2.613,2.613,0,0,1-2.022.874,3.843,3.843,0,0,1,0-7.679,2.658,2.658,0,0,1,2.022.863h.057v-.614Zm-1.931,5.917a2.342,2.342,0,0,0,0-4.646,2.331,2.331,0,0,0,0,4.646Zm4.691,1.363V118.564h1.669v11.268Zm6.293-1.25a2.218,2.218,0,0,0,1.9-1.067l1.306.874a3.837,3.837,0,0,1-3.2,1.7,3.747,3.747,0,0,1-3.795-3.7c0-.046,0-.092,0-.138a3.65,3.65,0,0,1,3.634-3.828,3.546,3.546,0,0,1,3.271,2.431l.17.432-5.134,2.124a1.965,1.965,0,0,0,1.863,1.158Zm-.114-4.691a2.108,2.108,0,0,0-2.022,2.237l3.43-1.42a1.469,1.469,0,0,0-1.42-.807Z" transform="translate(166.017 521.786)" fill="#fff"/>
      <g id="Audible_Amazon" data-name="Audible Amazon" transform="translate(118.3 593.5)">
        <path id="shape" d="M36.168,66.095v-8.1h2.658v7.975a2.422,2.422,0,0,0,2.595,2.468c2.025,0,2.722-1.2,2.722-1.835V57.994H46.8V70.525H45.219l-1.013-1.392a4.67,4.67,0,0,1-3.734,1.709C37.941,70.842,36.168,69.133,36.168,66.095ZM66.675,53.563H69.27v5.7a4.31,4.31,0,0,1,3.481-1.519c2.468,0,4.494,1.456,4.494,4.62v3.924c0,3.165-2.025,4.62-4.367,4.62A4.534,4.534,0,0,1,69.206,69.2l-1.013,1.392H66.675Zm5.443,14.873a2.429,2.429,0,0,0,2.532-2.405V62.487a2.413,2.413,0,0,0-2.468-2.405c-1.772,0-2.848,1.013-2.848,2.405v3.418h0C69.27,67.677,70.472,68.437,72.118,68.437ZM56.611,53.563h2.595V70.589H57.687L56.738,69.2a4.534,4.534,0,0,1-3.671,1.709c-2.342,0-4.367-1.456-4.367-4.62V62.361c0-3.165,2.025-4.62,4.494-4.62a4.31,4.31,0,0,1,3.481,1.519v-5.7ZM51.295,66.032a2.429,2.429,0,0,0,2.532,2.405c1.646,0,2.848-.823,2.848-2.468h0V62.551c0-1.392-1.076-2.405-2.848-2.405a2.376,2.376,0,0,0-2.468,2.405v3.481ZM79.08,53.563h2.658V70.589H79.08Zm-17.405,4.43h2.658V70.525H61.675ZM63,56.538a1.519,1.519,0,1,1,1.519-1.519A1.54,1.54,0,0,1,63,56.538Zm26.139,11.9a3.48,3.48,0,0,0,3.038-1.456l1.962,1.2c-.759,1.709-2.532,2.658-5,2.658-3.291,0-5.443-1.709-5.443-4.62V62.361c0-2.848,2.152-4.684,5.443-4.684,3.165,0,5.253,1.709,5.253,4.62v2.848H86.422v1.013C86.422,67.487,87.308,68.437,89.143,68.437Zm-2.722-6.076v.823h5.253v-.823c0-1.329-.886-2.215-2.658-2.215C87.308,60.146,86.422,61.032,86.422,62.361ZM29.27,57.741c3.418,0,5.063,1.772,5.063,4.241v8.608H32.751L31.738,69.2a5.054,5.054,0,0,1-3.861,1.709c-2.278,0-4.177-1.2-4.177-3.671,0-3.481,4.051-4.051,5.7-4.051h2.278v-.949c0-1.2-.759-2.025-2.405-2.025a2.852,2.852,0,0,0-2.848,1.456L24.333,60.4C24.966,58.753,26.675,57.741,29.27,57.741Zm2.405,8.8V64.956H30.535c-1.519.063-3.987.38-3.987,1.9,0,1.076.949,1.582,2.215,1.582A3.5,3.5,0,0,0,31.422,67.3,2.624,2.624,0,0,0,31.675,66.538Z" transform="translate(0 -4.405)" fill="#f9f9f9" fill-rule="evenodd"/>
        <path id="shape_1_" d="M138.409,54.032l11.709-7.342v1.962l-11.709,7.342L126.7,48.652V46.69Zm0-9.177a7.527,7.527,0,0,1,6.329,3.418h0l-1.709,1.076A7.3,7.3,0,0,0,132.4,48.019c-.127.063-.19.19-.253.253h0A7.336,7.336,0,0,1,138.409,44.854Zm0,3.354a4.123,4.123,0,0,1,3.481,1.835h0l-1.646,1.076a3.918,3.918,0,0,0-3.165-1.772,3.6,3.6,0,0,0-2.089.7A4.079,4.079,0,0,1,138.409,48.209ZM130.5,45.3a11.373,11.373,0,0,0-1.266,1.2,10.922,10.922,0,0,1,18.354,0h0l-1.772,1.139v-.063A10.523,10.523,0,0,0,130.5,45.3Z" transform="translate(-37.81 0)" fill="#f7991c" fill-rule="evenodd"/>
      </g>
      <path id="Spotify-Logo.wine" d="M12.5,0A12.5,12.5,0,1,0,25,12.5,12.5,12.5,0,0,0,12.5,0Zm5.733,18.029a.779.779,0,0,1-1.072.258c-2.935-1.793-6.63-2.2-10.981-1.2a.779.779,0,1,1-.347-1.52c4.762-1.088,8.846-.619,12.141,1.394A.779.779,0,0,1,18.233,18.029Zm1.53-3.4a.975.975,0,0,1-1.34.321A16.407,16.407,0,0,0,5.966,13.489.974.974,0,1,1,5.4,11.624a18.237,18.237,0,0,1,14.042,1.661.974.974,0,0,1,.321,1.34Zm.131-3.544C15.865,8.688,9.218,8.468,5.372,9.635A1.169,1.169,0,1,1,4.693,7.4C9.109,6.057,16.449,6.316,21.087,9.07a1.169,1.169,0,1,1-1.193,2.011Zm14.115.459c-2.158-.515-2.542-.876-2.542-1.635,0-.717.675-1.2,1.679-1.2A4.906,4.906,0,0,1,36.1,9.826a.143.143,0,0,0,.2-.032L37.35,8.308a.142.142,0,0,0-.027-.192A6.377,6.377,0,0,0,33.178,6.68c-2.33,0-3.959,1.4-3.959,3.4,0,2.146,1.4,2.906,3.832,3.492,2.064.476,2.414.874,2.414,1.587,0,.79-.7,1.281-1.839,1.281a4.964,4.964,0,0,1-3.438-1.42.146.146,0,0,0-.1-.034.14.14,0,0,0-.1.049L28.805,16.44a.142.142,0,0,0,.013.2,7.044,7.044,0,0,0,4.759,1.824c2.511,0,4.133-1.372,4.133-3.5,0-1.792-1.069-2.785-3.7-3.424Zm9.383-2.129a3.39,3.39,0,0,0-2.718,1.307V9.729a.141.141,0,0,0-.14-.142H38.6a.141.141,0,0,0-.14.142V20.716a.141.141,0,0,0,.14.142h1.933a.141.141,0,0,0,.14-.142V17.248a3.477,3.477,0,0,0,2.718,1.23c2.023,0,4.071-1.557,4.071-4.533s-2.045-4.534-4.069-4.534Zm1.823,4.534a2.33,2.33,0,0,1-2.27,2.573,2.4,2.4,0,0,1-2.318-2.573,2.4,2.4,0,0,1,2.318-2.573,2.355,2.355,0,0,1,2.27,2.573Zm7.495-4.534a4.543,4.543,0,1,0,4.629,4.534,4.557,4.557,0,0,0-4.629-4.534Zm0,7.122a2.458,2.458,0,0,1-2.43-2.589,2.4,2.4,0,0,1,2.4-2.558,2.465,2.465,0,0,1,2.445,2.59A2.406,2.406,0,0,1,52.709,16.533ZM62.9,9.588H60.773V7.413a.141.141,0,0,0-.14-.142H58.7a.142.142,0,0,0-.142.142V9.588h-.928a.141.141,0,0,0-.14.142V11.39a.141.141,0,0,0,.14.142h.928v4.3a2.3,2.3,0,0,0,2.57,2.617A3.521,3.521,0,0,0,62.937,18a.138.138,0,0,0,.072-.122V16.291a.141.141,0,0,0-.067-.119.137.137,0,0,0-.137-.006,2.44,2.44,0,0,1-1.134.273c-.619,0-.9-.282-.9-.912V11.533H62.9a.141.141,0,0,0,.14-.142V9.73a.137.137,0,0,0-.139-.142Zm7.41.009V9.329c0-.786.3-1.136.976-1.136a3.266,3.266,0,0,1,1.09.2.141.141,0,0,0,.185-.135V6.631a.14.14,0,0,0-.1-.136,5.294,5.294,0,0,0-1.606-.231c-1.784,0-2.729,1.005-2.729,2.906v.409H67.2a.142.142,0,0,0-.142.142V11.39a.142.142,0,0,0,.142.142h.928V18.16a.142.142,0,0,0,.142.142H70.2a.141.141,0,0,0,.142-.142V11.532h1.8L74.91,18.16c-.313.7-.622.834-1.043.834a2.219,2.219,0,0,1-1.066-.3.154.154,0,0,0-.112-.01.141.141,0,0,0-.084.076l-.655,1.437a.141.141,0,0,0,.061.184,4.067,4.067,0,0,0,2.063.528c1.427,0,2.217-.666,2.911-2.454l3.353-8.663a.141.141,0,0,0-.13-.193H78.2a.141.141,0,0,0-.134.095L76,15.578l-2.257-5.89a.141.141,0,0,0-.131-.091h-3.3Zm-4.3-.009H64.081a.142.142,0,0,0-.142.142V18.16a.142.142,0,0,0,.142.142h1.933a.142.142,0,0,0,.142-.142V9.73a.141.141,0,0,0-.142-.142Zm-.955-3.839a1.386,1.386,0,1,0,1.385,1.385A1.386,1.386,0,0,0,65.058,5.748Zm16.93,6.55a1.364,1.364,0,1,1,1.367-1.368A1.355,1.355,0,0,1,81.988,12.3ZM82,9.706a1.228,1.228,0,1,0,1.217,1.224A1.216,1.216,0,0,0,82,9.706Zm.3,1.364.385.539h-.325l-.346-.494h-.3v.494h-.272V10.181h.636c.333,0,.551.17.551.455a.424.424,0,0,1-.33.434Zm-.23-.644h-.354v.452h.354c.176,0,.282-.086.282-.226S82.244,10.426,82.068,10.426Z" transform="translate(428 637)" fill="#1ed760"/>
    </g>
  </g>
</svg>
