<svg xmlns="http://www.w3.org/2000/svg" width="71.427" height="35" viewBox="0 0 71.427 35">
  <g id="audible" transform="translate(-17.213 -50.527)">
    <path id="Path_126905" data-name="Path 126905" d="M47.57,51.928a15.606,15.606,0,0,1,13.25.154,15.269,15.269,0,0,1,6.748,6.347c-.949.479-1.9.947-2.854,1.419a14.366,14.366,0,0,0-18.833-5.886,15.23,15.23,0,0,0-5.205,4.37A15.553,15.553,0,0,1,47.57,51.928Z" transform="translate(-13.265)" fill="#f0a749"/>
    <path id="Path_126906" data-name="Path 126906" d="M49.824,66.516a11.226,11.226,0,0,1,9.306-5.263,10.9,10.9,0,0,1,9.288,5.384c-.945.471-1.893.936-2.838,1.408a9.914,9.914,0,0,0-8.227-4.826A10.16,10.16,0,0,0,49.824,66.516Z" transform="translate(-18.436 -6.063)" fill="#e15436"/>
    <path id="Path_126907" data-name="Path 126907" d="M30.77,69.519q8.778,4.4,17.566,8.785,8.782-4.389,17.566-8.781Q65.9,70.76,65.9,72q-8.779,4.385-17.559,8.781Q39.563,76.385,30.775,72C30.772,71.17,30.772,70.344,30.77,69.519Z" transform="translate(-7.664 -10.737)" fill="#191918"/>
    <path id="Path_126908" data-name="Path 126908" d="M59.669,74.486a6.35,6.35,0,0,1,4.556-2.893,5.932,5.932,0,0,1,5.462,2.988c-.942.477-1.891.942-2.834,1.417a5.244,5.244,0,0,0-3.919-2.518A5.1,5.1,0,0,0,59.669,74.486Z" transform="translate(-24.002 -11.895)" fill="#84164d"/>
    <path id="Path_126909" data-name="Path 126909" d="M72.173,94.493q1.842,0,3.686,0,0,7.782,0,15.564H72.173Q72.176,102.275,72.173,94.493Zm-17.627,0c1.229,0,2.46,0,3.689,0q0,1.408,0,2.816-1.847,0-3.689,0Q54.546,95.9,54.546,94.5ZM29.395,98.747c1.229,0,2.458,0,3.69,0,0,2.232-.015,4.464.007,6.7a1.693,1.693,0,0,0,1.2,1.834,2.062,2.062,0,0,0,2.62-1.8c.135-2.237.022-4.484.06-6.725q1.844,0,3.692,0v11.31H37.079c0-.525.007-1.051.018-1.573a4.54,4.54,0,0,1-3.025,1.856,4.325,4.325,0,0,1-3.623-1.061,5.219,5.219,0,0,1-1.046-3.4C29.386,103.5,29.4,101.127,29.395,98.747Zm25.151,0q1.844,0,3.689,0,0,5.657,0,11.314-1.844,0-3.689,0Q54.548,104.4,54.546,98.747Zm34.092,6.545a7.376,7.376,0,0,0-1.518-5.022c-2.166-2.488-6.424-2.41-8.725-.148a6.242,6.242,0,0,0-.15,8.587,7.051,7.051,0,0,0,7.145,1.218,4.988,4.988,0,0,0,3.07-3.273c-1.143-.01-2.285,0-3.425,0a2.618,2.618,0,0,1-3.979.567,3.461,3.461,0,0,1-.8-1.909c2.795-.036,5.587-.005,8.384-.016Zm-8.373-2.075a4.1,4.1,0,0,1,.748-1.568,2.221,2.221,0,0,1,3.018-.271,3.1,3.1,0,0,1,.945,1.836C83.405,103.245,81.835,103.239,80.265,103.218ZM49.483,94.5c.009,1.827-.02,3.655.018,5.481a4.4,4.4,0,0,0-5.943-.731,5.816,5.816,0,0,0-2.1,4.445,7.42,7.42,0,0,0,1.419,5.075,4.627,4.627,0,0,0,4.93,1.393,4.437,4.437,0,0,0,1.874-1.437q-.015.668-.02,1.335c1.171,0,2.341,0,3.513,0q0-7.785,0-15.566c-1.231,0-2.461,0-3.69,0Zm-.273,11.981a2.035,2.035,0,0,1-3.22.518,4.214,4.214,0,0,1-.843-3.128,2.776,2.776,0,0,1,1.388-2.464,2.05,2.05,0,0,1,2.615.854A5.179,5.179,0,0,1,49.21,106.476Zm20.32-6.938a4.378,4.378,0,0,0-6.3.463c.028-1.836,0-3.672.015-5.506-1.231,0-2.461,0-3.687,0q0,7.782,0,15.566c1.169,0,2.339,0,3.511,0-.007-.444-.013-.889-.022-1.332a4.378,4.378,0,0,0,2.025,1.482,4.672,4.672,0,0,0,4.453-1.086,6.82,6.82,0,0,0,1.763-4.79A6.3,6.3,0,0,0,69.53,99.538Zm-1.976,5.494a3.335,3.335,0,0,1-.911,2.065,2.068,2.068,0,0,1-3.066-.488,5.329,5.329,0,0,1-.452-2.7,2.7,2.7,0,0,1,1.488-2.525,2.022,2.022,0,0,1,2.295.545A4.254,4.254,0,0,1,67.554,105.032Zm-39.3-.693c-.062-1.317.21-2.727-.386-3.958a3.976,3.976,0,0,0-3.282-1.869,8.512,8.512,0,0,0-5.422.841,3.75,3.75,0,0,0-1.571,2.858c1.136.009,2.271,0,3.407.007.247-.486.476-1.068,1.037-1.26a2.579,2.579,0,0,1,2.341.285.988.988,0,0,1-.291,1.708c-1.633.439-3.394.349-4.97,1.024a2.852,2.852,0,0,0-1.838,2.121,3.864,3.864,0,0,0,.572,3.006,4.185,4.185,0,0,0,3.628,1.261,5.312,5.312,0,0,0,3.283-1.344c.06.344.126.691.194,1.038,1.234.009,2.467-.007,3.7.011-.644-1.838-.328-3.82-.4-5.727Zm-3.994,2.967a2.333,2.333,0,0,1-2.672.646,1.278,1.278,0,0,1-.082-2.26,24.467,24.467,0,0,1,3.235-.887,5.256,5.256,0,0,1-.481,2.5Z" transform="translate(0 -24.856)" fill="#191918"/>
  </g>
</svg>
