<svg xmlns="http://www.w3.org/2000/svg" width="166.516" height="35" viewBox="0 0 166.516 35">
  <g id="pd_publishdrive_full_logo-211" transform="translate(-0.563 -0.748)">
    <g id="Group_54690" data-name="Group 54690" transform="translate(44.592 7.259)">
      <path id="Path_127084" data-name="Path 127084" d="M39.186,27.439a.423.423,0,0,1-.107-.313V11.952a.377.377,0,0,1,.421-.421h2.088a.377.377,0,0,1,.421.421v.278q0,.34.2.34a.488.488,0,0,0,.288-.134,4.285,4.285,0,0,1,1.368-.817,4.888,4.888,0,0,1,1.728-.293,5.051,5.051,0,0,1,2.659.735,5.361,5.361,0,0,1,1.939,2.031,6.214,6.214,0,0,1,.006,5.8,5.261,5.261,0,0,1-1.934,2.016,5.33,5.33,0,0,1-4.382.447,4.172,4.172,0,0,1-1.383-.8.508.508,0,0,0-.288-.144q-.2,0-.2.329v5.39a.377.377,0,0,1-.421.421H39.5a.419.419,0,0,1-.314-.106Zm7.242-7.653A2.977,2.977,0,0,0,47.56,18.65a3.494,3.494,0,0,0,0-3.307,2.989,2.989,0,0,0-1.132-1.132,3.314,3.314,0,0,0-3.178,0,2.989,2.989,0,0,0-1.132,1.132,3.5,3.5,0,0,0,0,3.312,2.989,2.989,0,0,0,1.132,1.132,3.314,3.314,0,0,0,3.178,0Zm8.3,2.335A3.833,3.833,0,0,1,53,20.66a4.161,4.161,0,0,1-.6-2.258v-6.45a.377.377,0,0,1,.421-.421H54.9a.377.377,0,0,1,.421.421v6.264a1.744,1.744,0,0,0,.576,1.424,2.29,2.29,0,0,0,1.512.478,2.326,2.326,0,0,0,1.527-.478,1.737,1.737,0,0,0,.581-1.424V11.953a.377.377,0,0,1,.421-.421h2.088a.377.377,0,0,1,.421.421V18.4a4.134,4.134,0,0,1-.6,2.258,3.861,3.861,0,0,1-1.733,1.461,6.558,6.558,0,0,1-2.706.509,6.485,6.485,0,0,1-2.686-.509Zm13.548-.572a.563.563,0,0,0-.309-.165q-.175,0-.175.278V22a.373.373,0,0,1-.422.422h-2.1A.373.373,0,0,1,64.847,22V7.046a.373.373,0,0,1,.422-.422h2.089a.377.377,0,0,1,.421.421l.01,5.143q0,.35.2.35a.508.508,0,0,0,.288-.144,4.294,4.294,0,0,1,1.383-.828,5.147,5.147,0,0,1,4.371.448,5.43,5.43,0,0,1,1.928,2.037,6.225,6.225,0,0,1,0,5.813,5.41,5.41,0,0,1-1.928,2.047,4.938,4.938,0,0,1-2.628.741,4.576,4.576,0,0,1-3.125-1.1Zm3.92-1.8a2.977,2.977,0,0,0,1.136-1.132,3.5,3.5,0,0,0,0-3.312,2.938,2.938,0,0,0-1.136-1.126,3.358,3.358,0,0,0-3.184,0A2.912,2.912,0,0,0,67.884,15.3a3.537,3.537,0,0,0,0,3.312,2.949,2.949,0,0,0,1.126,1.132,3.325,3.325,0,0,0,3.184,0ZM78.484,22V7.046a.373.373,0,0,1,.422-.422h2.089a.377.377,0,0,1,.421.421V22a.377.377,0,0,1-.421.421H78.906a.366.366,0,0,1-.422-.42Z" transform="translate(-39.079 -6.418)" fill="#1a1a1a"/>
      <path id="Path_127085" data-name="Path 127085" d="M79.116,9.592a1.7,1.7,0,0,1-.622-.617,1.646,1.646,0,0,1-.231-.854,1.592,1.592,0,0,1,.231-.844,1.73,1.73,0,0,1,.622-.607,1.674,1.674,0,0,1,.854-.226,1.623,1.623,0,0,1,.838.226,1.744,1.744,0,0,1,.617.607,1.592,1.592,0,0,1,.231.844,1.616,1.616,0,0,1-.231.848,1.772,1.772,0,0,1-.617.617,1.6,1.6,0,0,1-.838.231A1.662,1.662,0,0,1,79.116,9.592ZM78.5,22.028V11.978a.377.377,0,0,1,.421-.421h2.068a.377.377,0,0,1,.421.421v10.05a.373.373,0,0,1-.422.422H78.918a.372.372,0,0,1-.42-.422Z" transform="translate(-33.471 -6.444)" fill="#1a1a1a"/>
      <path id="Path_127086" data-name="Path 127086" d="M84.751,22.311a8.066,8.066,0,0,1-1.975-.854.4.4,0,0,1-.216-.319.532.532,0,0,1,.082-.257l.792-1.379a.358.358,0,0,1,.309-.216.438.438,0,0,1,.267.1,6.634,6.634,0,0,0,1.481.735,4.456,4.456,0,0,0,1.471.282,1.759,1.759,0,0,0,1.029-.267.875.875,0,0,0,.381-.761.823.823,0,0,0-.237-.6,1.84,1.84,0,0,0-.591-.4Q87.19,18.227,86.5,18l-.329-.1a12.067,12.067,0,0,1-1.651-.653,3.1,3.1,0,0,1-1.105-.951,2.688,2.688,0,0,1-.463-1.636,3.03,3.03,0,0,1,.55-1.842A3.3,3.3,0,0,1,84.989,11.7a5.575,5.575,0,0,1,2.068-.37,7.257,7.257,0,0,1,1.814.231,6.637,6.637,0,0,1,1.683.684.358.358,0,0,1,.226.309.491.491,0,0,1-.093.257l-.8,1.224a.388.388,0,0,1-.329.206.451.451,0,0,1-.247-.072,5.719,5.719,0,0,0-1.193-.5,4.041,4.041,0,0,0-1.132-.185,1.674,1.674,0,0,0-.936.231.738.738,0,0,0-.35.653.679.679,0,0,0,.237.529,2.019,2.019,0,0,0,.591.354q.355.144,1.033.35l.514.154a9.4,9.4,0,0,1,1.595.653,3.059,3.059,0,0,1,1.1,1.019,3.01,3.01,0,0,1,.442,1.7,3.326,3.326,0,0,1-.54,1.928,3.289,3.289,0,0,1-1.5,1.183,5.689,5.689,0,0,1-2.191.4,7.8,7.8,0,0,1-2.233-.314ZM93.017,22V7.046a.373.373,0,0,1,.422-.422h2.068a.377.377,0,0,1,.421.421v5.3q0,.329.175.329a.451.451,0,0,0,.288-.165,3.719,3.719,0,0,1,1.26-.879,4.368,4.368,0,0,1,3.585.175,3.153,3.153,0,0,1,1.3,1.414,5.215,5.215,0,0,1,.453,2.284V22a.373.373,0,0,1-.422.422H100.5a.373.373,0,0,1-.422-.422V16.025q0-2.243-1.934-2.243a2.127,2.127,0,0,0-1.62.622,2.569,2.569,0,0,0-.591,1.836V22a.377.377,0,0,1-.421.421H93.44A.369.369,0,0,1,93.017,22ZM107.2,21.91a5.41,5.41,0,0,1-1.928-2.047,6.225,6.225,0,0,1,0-5.813,5.43,5.43,0,0,1,1.928-2.037,5.147,5.147,0,0,1,4.371-.448,4.294,4.294,0,0,1,1.383.828.508.508,0,0,0,.288.144q.2,0,.2-.35l.01-5.143a.377.377,0,0,1,.421-.421h2.089a.373.373,0,0,1,.422.422V22a.373.373,0,0,1-.422.422h-2.1A.373.373,0,0,1,113.44,22v-.257q0-.381-.2-.381a.33.33,0,0,0-.185.093,4.23,4.23,0,0,1-1.414.879,5.03,5.03,0,0,1-1.815.313,4.913,4.913,0,0,1-2.627-.738Zm5.021-2.165a2.949,2.949,0,0,0,1.126-1.132,3.537,3.537,0,0,0,0-3.312,2.912,2.912,0,0,0-1.126-1.126,3.358,3.358,0,0,0-3.184,0A2.938,2.938,0,0,0,107.9,15.3a3.5,3.5,0,0,0,0,3.312,2.976,2.976,0,0,0,1.136,1.132,3.325,3.325,0,0,0,3.184,0ZM119.086,22V11.952a.377.377,0,0,1,.421-.421h1.955a.377.377,0,0,1,.421.421v.854q0,.34.185.34.123,0,.278-.185a4.657,4.657,0,0,1,1.224-.967,4.569,4.569,0,0,1,1.615-.525l.082-.01a.347.347,0,0,1,.272.107.419.419,0,0,1,.1.293V13.8a.428.428,0,0,1-.107.309.412.412,0,0,1-.313.113,3.842,3.842,0,0,0-2.391.792,2.782,2.782,0,0,0-.807,2.2V22a.377.377,0,0,1-.421.421h-2.089a.366.366,0,0,1-.422-.42Z" transform="translate(-32.856 -6.418)" fill="#1a1a1a"/>
      <path id="Path_127087" data-name="Path 127087" d="M79.116,9.592a1.7,1.7,0,0,1-.622-.617,1.646,1.646,0,0,1-.231-.854,1.592,1.592,0,0,1,.231-.844,1.73,1.73,0,0,1,.622-.607,1.674,1.674,0,0,1,.854-.226,1.623,1.623,0,0,1,.838.226,1.744,1.744,0,0,1,.617.607,1.592,1.592,0,0,1,.231.844,1.616,1.616,0,0,1-.231.848,1.772,1.772,0,0,1-.617.617,1.6,1.6,0,0,1-.838.231A1.662,1.662,0,0,1,79.116,9.592ZM78.5,22.028V11.978a.377.377,0,0,1,.421-.421h2.068a.377.377,0,0,1,.421.421v10.05a.373.373,0,0,1-.422.422H78.918a.372.372,0,0,1-.42-.422Z" transform="translate(16.459 -6.444)" fill="#1a1a1a"/>
      <path id="Path_127088" data-name="Path 127088" d="M130.607,21.509l-4.3-10.081a.56.56,0,0,1-.051-.206.245.245,0,0,1,.093-.206.428.428,0,0,1,.267-.072h2.233a.526.526,0,0,1,.3.087.457.457,0,0,1,.179.251l2.346,6.378q.113.288.278.288t.278-.288l2.377-6.388a.445.445,0,0,1,.473-.329h2.233a.45.45,0,0,1,.272.072.24.24,0,0,1,.1.206.561.561,0,0,1-.051.206l-4.34,10.092a.473.473,0,0,1-.484.319H131.1a.488.488,0,0,1-.494-.328Zm9.923-.216a5.417,5.417,0,0,1-2.083-2.042A5.6,5.6,0,0,1,137.7,16.4a5.659,5.659,0,0,1,.745-2.865,5.464,5.464,0,0,1,2.068-2.058,6.188,6.188,0,0,1,5.8-.066,5.153,5.153,0,0,1,2.011,1.939,5.656,5.656,0,0,1,.761,2.865l-.01.226a.484.484,0,0,1-.128.3.409.409,0,0,1-.3.107h-7.622a.457.457,0,0,0-.288.087.287.287,0,0,0-.113.241.563.563,0,0,0,.021.123,2.845,2.845,0,0,0,.54,1.276,2.778,2.778,0,0,0,1.039.838,3.132,3.132,0,0,0,1.352.293,3.258,3.258,0,0,0,1.4-.3,2.832,2.832,0,0,0,1.08-.879.469.469,0,0,1,.381-.226.476.476,0,0,1,.2.041l1.564.658q.278.123.278.329a.343.343,0,0,1-.051.185,4.932,4.932,0,0,1-1.97,1.862,6.016,6.016,0,0,1-2.865.669,6.122,6.122,0,0,1-3.057-.75Zm5.236-6.233a.452.452,0,0,0,.278-.077.259.259,0,0,0,.1-.221.554.554,0,0,0-.031-.175,2.531,2.531,0,0,0-.988-1.249,2.851,2.851,0,0,0-1.615-.457,3,3,0,0,0-1.636.447,2.672,2.672,0,0,0-1.049,1.239.386.386,0,0,0-.041.175.281.281,0,0,0,.107.231.434.434,0,0,0,.282.087Z" transform="translate(-26.602 -5.832)" fill="#1a1a1a"/>
    </g>
    <path id="Path_127089" data-name="Path 127089" d="M22.912,6.15a8.1,8.1,0,0,0-4.266-4.224A13.015,13.015,0,0,0,11.5.858,11.471,11.471,0,0,0,4.983,3.831a13.708,13.708,0,0,0-3.7,6.507,34.667,34.667,0,0,0-.665,9.441l0,.066L.92,24.6a38.341,38.341,0,0,0,.711,4.49l.63,2.579A1.812,1.812,0,0,0,4.019,33H9.674a1.44,1.44,0,0,0,1.1-.5,1.383,1.383,0,0,0,.312-1.157l-.031-.176a26.964,26.964,0,0,1-.207-8.389,20.1,20.1,0,0,1,.685-3.2l.892-.184a19.918,19.918,0,0,0,5.734-1.9,11.016,11.016,0,0,0,4.466-4.233,7.748,7.748,0,0,0,.286-7.1ZM7.57,23.337l-.112,1.488-.035,1.639.064,1.782.151,1.62H4.91l-.077-.243a11.66,11.66,0,0,1-.509-3.739A5.462,5.462,0,0,1,6.89,21.53a8.619,8.619,0,0,1,1.033-.621l-.189,1.11L7.57,23.337Zm12.278-11.63a6.5,6.5,0,0,1-.544.79c-1.523,1.883-4.04,3.152-7.693,3.873A18.287,18.287,0,0,0,7,17.873a12.292,12.292,0,0,0-3.182,2.2l-.015-.4a32.014,32.014,0,0,1,.576-8.594A10.706,10.706,0,0,1,7.222,6.062,7.806,7.806,0,0,1,12.2,3.91l.8-.031a12.06,12.06,0,0,1,2.529.279c2.963.637,4.056,2.274,4.443,3.193a4.651,4.651,0,0,1-.121,4.356ZM36.52,16.716l0-.064-.3-4.758A38.377,38.377,0,0,0,35.5,7.407l-.63-2.579A1.814,1.814,0,0,0,33.116,3.5H27.461a1.445,1.445,0,0,0-1.1.506,1.4,1.4,0,0,0-.312,1.157l.033.174a26.852,26.852,0,0,1,.206,8.389,19.835,19.835,0,0,1-.685,3.2l-.892.186a19.87,19.87,0,0,0-5.734,1.9,11.012,11.012,0,0,0-4.466,4.231A7.407,7.407,0,0,0,13.5,26.979a8.617,8.617,0,0,0,.72,3.367,8.108,8.108,0,0,0,4.268,4.224,12.722,12.722,0,0,0,5.423,1.179,13.831,13.831,0,0,0,1.723-.11,11.47,11.47,0,0,0,6.516-2.976,13.7,13.7,0,0,0,3.706-6.5,34.635,34.635,0,0,0,.666-9.442Zm-3.764,8.7a10.7,10.7,0,0,1-2.844,5.013,7.823,7.823,0,0,1-4.975,2.155,11.631,11.631,0,0,1-3.329-.248c-2.961-.637-4.056-2.274-4.443-3.193a4.645,4.645,0,0,1,.121-4.356A6.161,6.161,0,0,1,17.83,24c1.523-1.883,4.04-3.152,7.693-3.873a18.409,18.409,0,0,0,4.613-1.505,12.287,12.287,0,0,0,3.182-2.195l.015.4a32.01,32.01,0,0,1-.577,8.594ZM29.675,11.672l.035-1.642-.064-1.78L29.5,6.63h2.728l.077.243a11.66,11.66,0,0,1,.509,3.739,5.459,5.459,0,0,1-2.565,4.352,8.7,8.7,0,0,1-1.033.623l.189-1.11.165-1.319.112-1.487Z" transform="translate(0)" fill="#4252e5"/>
  </g>
</svg>
