<svg xmlns="http://www.w3.org/2000/svg" width="47.236" height="40" viewBox="0 0 47.236 40">
  <g id="naxos-audiobooks-vector-logo" transform="translate(-23.711 -70.311)">
    <path id="Line_346" data-name="Line 346" d="M-1.5,4.783l-.285,0,.072-4.806.285,0Z" transform="translate(29.413 94.666)" fill="#231815"/>
    <path id="Line_347" data-name="Line 347" d="M-1.5,4.957l-.285,0,.08-4.981.285,0Z" transform="translate(29.684 77.421)" fill="#231815"/>
    <path id="Line_348" data-name="Line 348" d="M45.3-1.5H-1.647a.143.143,0,0,1-.143-.143.143.143,0,0,1,.143-.143H45.3a.143.143,0,0,1,.143.143A.143.143,0,0,1,45.3-1.5Z" transform="translate(25.5 77.264)" fill="#231815"/>
    <path id="Line_349" data-name="Line 349" d="M45.3-1.5H-1.647a.143.143,0,0,1-.143-.143.143.143,0,0,1,.143-.143H45.3a.143.143,0,0,1,.143.143A.143.143,0,0,1,45.3-1.5Z" transform="translate(25.5 101.158)" fill="#231815"/>
    <path id="Path_126987" data-name="Path 126987" d="M285.59,137.181h-4.981a.5.5,0,0,1-.5-.5v-1.068a.208.208,0,0,0-.208-.216v-.285a.486.486,0,0,1,.352.148.5.5,0,0,1,.141.353v1.068a.214.214,0,0,0,.216.216h4.981a.214.214,0,0,0,.216-.216v-1.068a.5.5,0,0,1,.493-.5v.285a.212.212,0,0,0-.208.216v1.068a.5.5,0,0,1-.5.5Z" transform="translate(-235.772 -59.635)" fill="#231815"/>
    <path id="Line_350" data-name="Line 350" d="M4.264-1.5H0v-.285H4.264Z" transform="translate(45.197 80.285)" fill="#231815"/>
    <path id="Line_351" data-name="Line 351" d="M-1.5,4.955l-.285-.005L-1.7-.031l.285.005Z" transform="translate(46.755 77.424)" fill="#231815"/>
    <path id="Line_352" data-name="Line 352" d="M-1.5,4.773l-.285,0,.08-4.8.285,0Z" transform="translate(46.485 94.677)" fill="#231815"/>
    <path id="Line_353" data-name="Line 353" d="M-1.5,3.738h-.285V0H-1.5Z" transform="translate(48.971 78.638)" fill="#231815"/>
    <path id="Line_354" data-name="Line 354" d="M-1.5,4.8h-.285V0H-1.5Z" transform="translate(48.971 94.65)" fill="#231815"/>
    <path id="Line_355" data-name="Line 355" d="M-1.709,4.957l-.08-4.981.285,0,.08,4.981Z" transform="translate(51.107 77.421)" fill="#231815"/>
    <path id="Line_356" data-name="Line 356" d="M-1.717,4.775l-.072-4.8.285,0,.072,4.8Z" transform="translate(51.394 94.674)" fill="#231815"/>
    <path id="Line_357" data-name="Line 357" d="M-1.5,3.722l-.285,0,.04-3.738.285,0Z" transform="translate(47.871 78.656)" fill="#231815"/>
    <path id="Line_358" data-name="Line 358" d="M-1.5,4.783l-.285,0,.048-4.8.285,0Z" transform="translate(47.728 94.666)" fill="#231815"/>
    <path id="Line_359" data-name="Line 359" d="M-1.757,3.725-1.789-.013l.285,0,.032,3.738Z" transform="translate(50.039 78.652)" fill="#231815"/>
    <path id="Line_360" data-name="Line 360" d="M-1.749,4.785l-.04-4.8.285,0,.04,4.8Z" transform="translate(50.183 94.663)" fill="#231815"/>
    <path id="Path_126988" data-name="Path 126988" d="M306.172,173.687h-.285a.4.4,0,0,0-.4-.391.392.392,0,0,0-.391.391h-.285a.679.679,0,0,1,1.158-.479A.666.666,0,0,1,306.172,173.687Z" transform="translate(-258.697 -94.515)" fill="#231815"/>
    <path id="Path_126989" data-name="Path 126989" d="M319.564,173.687h-.285a.406.406,0,0,0-.4-.391.383.383,0,0,0-.383.391h-.285a.678.678,0,0,1,.193-.477.66.66,0,0,1,.475-.2.694.694,0,0,1,.478.2A.666.666,0,0,1,319.564,173.687Z" transform="translate(-271.029 -94.515)" fill="#231815"/>
    <path id="Path_126990" data-name="Path 126990" d="M292.488,173.687H292.2a.392.392,0,0,0-.392-.391.415.415,0,0,0-.416.391h-.285a.658.658,0,0,1,.213-.481.719.719,0,0,1,.488-.2A.677.677,0,0,1,292.488,173.687Z" transform="translate(-246.088 -94.515)" fill="#231815"/>
    <path id="Path_126991" data-name="Path 126991" d="M332.988,173.687H332.7a.42.42,0,0,0-.415-.391.392.392,0,0,0-.391.391h-.285a.677.677,0,0,1,.677-.677.72.72,0,0,1,.484.195A.657.657,0,0,1,332.988,173.687Z" transform="translate(-283.361 -94.515)" fill="#231815"/>
    <path id="Path_126992" data-name="Path 126992" d="M178.49,137.181h-4.981a.5.5,0,0,1-.5-.5v-1.068a.208.208,0,0,0-.208-.216v-.285a.486.486,0,0,1,.352.148.5.5,0,0,1,.141.353v1.068a.214.214,0,0,0,.216.216h4.981a.207.207,0,0,0,.208-.216v-1.068a.5.5,0,0,1,.5-.5v.285a.214.214,0,0,0-.216.216v1.068a.5.5,0,0,1-.141.353A.486.486,0,0,1,178.49,137.181Z" transform="translate(-137.207 -59.635)" fill="#231815"/>
    <path id="Line_361" data-name="Line 361" d="M4.264-1.5H0v-.285H4.264Z" transform="translate(36.661 80.285)" fill="#231815"/>
    <path id="Line_362" data-name="Line 362" d="M-1.5,4.955l-.285-.005L-1.7-.031l.285.005Z" transform="translate(38.22 77.424)" fill="#231815"/>
    <path id="Line_363" data-name="Line 363" d="M-1.5,4.78l-.285,0,.056-4.8.285,0Z" transform="translate(37.949 94.669)" fill="#231815"/>
    <path id="Line_364" data-name="Line 364" d="M-1.5,3.738h-.285V0H-1.5Z" transform="translate(40.436 78.638)" fill="#231815"/>
    <path id="Line_365" data-name="Line 365" d="M-1.5,4.8h-.285V0H-1.5Z" transform="translate(40.436 94.65)" fill="#231815"/>
    <path id="Line_366" data-name="Line 366" d="M-1.709,4.957l-.08-4.981.285,0,.08,4.981Z" transform="translate(42.571 77.421)" fill="#231815"/>
    <path id="Line_367" data-name="Line 367" d="M-1.709,4.773l-.08-4.8.285,0,.08,4.8Z" transform="translate(42.85 94.677)" fill="#231815"/>
    <path id="Line_368" data-name="Line 368" d="M-1.5,3.725l-.285,0,.032-3.738.285,0Z" transform="translate(39.336 78.652)" fill="#231815"/>
    <path id="Line_369" data-name="Line 369" d="M-1.5,4.783l-.285,0,.048-4.8.285,0Z" transform="translate(39.192 94.666)" fill="#231815"/>
    <path id="Line_370" data-name="Line 370" d="M-1.757,3.725-1.789-.013l.285,0,.032,3.738Z" transform="translate(41.504 78.652)" fill="#231815"/>
    <path id="Line_371" data-name="Line 371" d="M-1.749,4.785l-.04-4.8.285,0,.04,4.8Z" transform="translate(41.647 94.663)" fill="#231815"/>
    <path id="Path_126993" data-name="Path 126993" d="M199.072,173.687h-.285a.4.4,0,0,0-.4-.391.392.392,0,0,0-.391.391h-.285a.677.677,0,0,1,.677-.677.684.684,0,0,1,.481.2A.668.668,0,0,1,199.072,173.687Z" transform="translate(-160.132 -94.515)" fill="#231815"/>
    <path id="Path_126994" data-name="Path 126994" d="M212.464,173.687h-.285a.4.4,0,0,0-.4-.391.388.388,0,0,0-.383.391h-.285a.676.676,0,0,1,.2-.478.66.66,0,0,1,.472-.2.684.684,0,0,1,.481.2A.667.667,0,0,1,212.464,173.687Z" transform="translate(-172.464 -94.515)" fill="#231815"/>
    <path id="Path_126995" data-name="Path 126995" d="M185.388,173.687H185.1a.392.392,0,0,0-.391-.391.414.414,0,0,0-.415.391h-.285a.658.658,0,0,1,.213-.481.718.718,0,0,1,.487-.2A.677.677,0,0,1,185.388,173.687Z" transform="translate(-147.524 -94.515)" fill="#231815"/>
    <path id="Path_126996" data-name="Path 126996" d="M225.888,173.687H225.6a.419.419,0,0,0-.423-.391.388.388,0,0,0-.383.391h-.285a.676.676,0,0,1,.2-.478.661.661,0,0,1,.472-.2.732.732,0,0,1,.49.194A.654.654,0,0,1,225.888,173.687Z" transform="translate(-184.796 -94.515)" fill="#231815"/>
    <path id="Path_126997" data-name="Path 126997" d="M71.391,137.181H66.409a.5.5,0,0,1-.5-.5v-1.068a.208.208,0,0,0-.208-.216v-.285a.486.486,0,0,1,.352.148.5.5,0,0,1,.141.353v1.068a.214.214,0,0,0,.216.216h4.981a.207.207,0,0,0,.208-.216v-1.068a.5.5,0,0,1,.5-.5v.285a.214.214,0,0,0-.216.216v1.068a.5.5,0,0,1-.141.353A.486.486,0,0,1,71.391,137.181Z" transform="translate(-38.643 -59.635)" fill="#231815"/>
    <path id="Line_372" data-name="Line 372" d="M4.272-1.5H0v-.285H4.272Z" transform="translate(28.117 80.285)" fill="#231815"/>
    <path id="Line_373" data-name="Line 373" d="M-1.5,3.738h-.285V0H-1.5Z" transform="translate(31.9 78.638)" fill="#231815"/>
    <path id="Line_374" data-name="Line 374" d="M-1.5,4.8h-.285V0H-1.5Z" transform="translate(31.9 94.65)" fill="#231815"/>
    <path id="Line_375" data-name="Line 375" d="M-1.709,4.957l-.08-4.981.285,0,.08,4.981Z" transform="translate(34.036 77.421)" fill="#231815"/>
    <path id="Line_376" data-name="Line 376" d="M-1.709,4.773l-.08-4.8.285,0,.08,4.8Z" transform="translate(34.314 94.677)" fill="#231815"/>
    <path id="Line_377" data-name="Line 377" d="M-1.5,3.725l-.285,0,.032-3.738.285,0Z" transform="translate(30.8 78.652)" fill="#231815"/>
    <path id="Line_378" data-name="Line 378" d="M-1.5,4.785l-.285,0,.04-4.8.285,0Z" transform="translate(30.656 94.663)" fill="#231815"/>
    <path id="Line_379" data-name="Line 379" d="M-1.765,3.728-1.789-.01l.285,0,.024,3.738Z" transform="translate(32.968 78.649)" fill="#231815"/>
    <path id="Line_380" data-name="Line 380" d="M-1.733,4.78l-.056-4.8.285,0,.056,4.8Z" transform="translate(33.087 94.669)" fill="#231815"/>
    <path id="Path_126998" data-name="Path 126998" d="M91.972,173.687h-.285a.4.4,0,0,0-.4-.391.392.392,0,0,0-.391.391h-.285a.679.679,0,0,1,1.158-.479A.667.667,0,0,1,91.972,173.687Z" transform="translate(-61.568 -94.515)" fill="#231815"/>
    <path id="Path_126999" data-name="Path 126999" d="M105.364,173.687h-.285a.4.4,0,0,0-.4-.391.388.388,0,0,0-.383.391h-.285a.675.675,0,0,1,.2-.478.661.661,0,0,1,.472-.2.684.684,0,0,1,.481.2A.667.667,0,0,1,105.364,173.687Z" transform="translate(-73.9 -94.515)" fill="#231815"/>
    <path id="Path_127000" data-name="Path 127000" d="M78.188,173.687H77.9a.388.388,0,0,0-.383-.391.414.414,0,0,0-.423.391h-.285a.655.655,0,0,1,.215-.482.721.721,0,0,1,.494-.195.661.661,0,0,1,.472.2A.676.676,0,0,1,78.188,173.687Z" transform="translate(-48.868 -94.515)" fill="#231815"/>
    <path id="Path_127001" data-name="Path 127001" d="M118.788,173.687H118.5a.419.419,0,0,0-.423-.391.383.383,0,0,0-.383.391h-.285a.677.677,0,0,1,.193-.477.66.66,0,0,1,.475-.2.732.732,0,0,1,.49.194A.654.654,0,0,1,118.788,173.687Z" transform="translate(-86.232 -94.515)" fill="#231815"/>
    <path id="Path_127002" data-name="Path 127002" d="M392.69,137.181h-4.981a.5.5,0,0,1-.493-.5v-1.068A.214.214,0,0,0,387,135.4v-.285a.5.5,0,0,1,.5.5v1.068a.212.212,0,0,0,.208.216h4.981a.214.214,0,0,0,.216-.216v-1.068a.5.5,0,0,1,.493-.5v.285a.212.212,0,0,0-.208.216v1.068a.5.5,0,0,1-.5.5Z" transform="translate(-334.336 -59.635)" fill="#231815"/>
    <path id="Line_381" data-name="Line 381" d="M4.264-1.5H0v-.285H4.264Z" transform="translate(53.732 80.285)" fill="#231815"/>
    <path id="Line_382" data-name="Line 382" d="M-1.5,4.955l-.285-.005L-1.7-.031l.285.005Z" transform="translate(55.291 77.424)" fill="#231815"/>
    <path id="Line_383" data-name="Line 383" d="M-1.5,4.773l-.285,0,.08-4.8.285,0Z" transform="translate(55.02 94.677)" fill="#231815"/>
    <path id="Line_384" data-name="Line 384" d="M-1.5,3.738h-.285V0H-1.5Z" transform="translate(57.515 78.638)" fill="#231815"/>
    <path id="Line_385" data-name="Line 385" d="M-1.5,4.8h-.285V0H-1.5Z" transform="translate(57.515 94.65)" fill="#231815"/>
    <path id="Line_386" data-name="Line 386" d="M-1.709,4.957l-.08-4.981.285,0,.08,4.981Z" transform="translate(59.643 77.421)" fill="#231815"/>
    <path id="Line_387" data-name="Line 387" d="M-1.717,4.775l-.072-4.8.285,0,.072,4.8Z" transform="translate(59.93 94.674)" fill="#231815"/>
    <path id="Line_388" data-name="Line 388" d="M-1.5,3.722l-.285,0,.04-3.738.285,0Z" transform="translate(56.407 78.656)" fill="#231815"/>
    <path id="Line_389" data-name="Line 389" d="M-1.5,4.783l-.285,0,.048-4.8.285,0Z" transform="translate(56.264 94.666)" fill="#231815"/>
    <path id="Line_390" data-name="Line 390" d="M-1.773,3.731-1.789-.006H-1.5l.016,3.738Z" transform="translate(58.575 78.645)" fill="#231815"/>
    <path id="Line_391" data-name="Line 391" d="M-1.741,4.783l-.048-4.8.285,0,.048,4.8Z" transform="translate(58.71 94.666)" fill="#231815"/>
    <path id="Path_127003" data-name="Path 127003" d="M413.28,173.687h-.285a.4.4,0,0,0-.8,0h-.285a.668.668,0,0,1,.2-.479.686.686,0,0,1,.963,0A.668.668,0,0,1,413.28,173.687Z" transform="translate(-357.261 -94.515)" fill="#231815"/>
    <path id="Path_127004" data-name="Path 127004" d="M426.764,173.687h-.285a.4.4,0,0,0-.4-.391.383.383,0,0,0-.383.391h-.285a.678.678,0,0,1,.193-.477.661.661,0,0,1,.476-.2.684.684,0,0,1,.481.2A.668.668,0,0,1,426.764,173.687Z" transform="translate(-369.685 -94.515)" fill="#231815"/>
    <path id="Path_127005" data-name="Path 127005" d="M399.588,173.687H399.3a.392.392,0,0,0-.391-.391.415.415,0,0,0-.416.391h-.285a.657.657,0,0,1,.213-.481.717.717,0,0,1,.487-.2A.677.677,0,0,1,399.588,173.687Z" transform="translate(-344.653 -94.515)" fill="#231815"/>
    <path id="Path_127006" data-name="Path 127006" d="M440.088,173.687H439.8a.419.419,0,0,0-.423-.391.383.383,0,0,0-.383.391h-.285a.676.676,0,0,1,.193-.477.659.659,0,0,1,.475-.2.732.732,0,0,1,.49.194A.654.654,0,0,1,440.088,173.687Z" transform="translate(-381.925 -94.515)" fill="#231815"/>
    <path id="Path_127007" data-name="Path 127007" d="M499.791,137.181h-4.981a.5.5,0,0,1-.493-.5v-1.068a.214.214,0,0,0-.216-.216v-.285a.5.5,0,0,1,.5.5v1.068a.212.212,0,0,0,.208.216h4.981a.214.214,0,0,0,.216-.216v-1.068a.5.5,0,0,1,.493-.5v.285a.212.212,0,0,0-.208.216v1.068a.5.5,0,0,1-.5.5Z" transform="translate(-432.899 -59.635)" fill="#231815"/>
    <path id="Line_392" data-name="Line 392" d="M4.272-1.5H0v-.285H4.272Z" transform="translate(62.268 80.285)" fill="#231815"/>
    <path id="Line_393" data-name="Line 393" d="M-1.5,4.957l-.285,0,.08-4.981.285,0Z" transform="translate(63.835 77.421)" fill="#231815"/>
    <path id="Line_394" data-name="Line 394" d="M-1.5,4.773l-.285,0,.08-4.8.285,0Z" transform="translate(63.556 94.677)" fill="#231815"/>
    <path id="Line_395" data-name="Line 395" d="M-1.5,3.738h-.285V0H-1.5Z" transform="translate(66.051 78.638)" fill="#231815"/>
    <path id="Line_396" data-name="Line 396" d="M-1.5,4.8h-.285V0H-1.5Z" transform="translate(66.051 94.65)" fill="#231815"/>
    <path id="Line_397" data-name="Line 397" d="M-1.717,4.96-1.789-.022l.285,0,.072,4.981Z" transform="translate(68.187 77.419)" fill="#231815"/>
    <path id="Line_398" data-name="Line 398" d="M-1.717,4.775l-.072-4.8.285,0,.072,4.8Z" transform="translate(68.466 94.674)" fill="#231815"/>
    <path id="Line_399" data-name="Line 399" d="M-1.5,3.722l-.285,0,.04-3.738.285,0Z" transform="translate(64.943 78.656)" fill="#231815"/>
    <path id="Line_400" data-name="Line 400" d="M-1.5,4.785l-.285,0,.04-4.8.285,0Z" transform="translate(64.808 94.663)" fill="#231815"/>
    <path id="Line_401" data-name="Line 401" d="M-1.765,3.728-1.789-.01l.285,0,.024,3.738Z" transform="translate(67.119 78.649)" fill="#231815"/>
    <path id="Line_402" data-name="Line 402" d="M-1.749,4.785l-.04-4.8.285,0,.04,4.8Z" transform="translate(67.254 94.663)" fill="#231815"/>
    <path id="Path_127008" data-name="Path 127008" d="M520.38,173.687h-.285a.4.4,0,0,0-.4-.391.392.392,0,0,0-.4.391h-.285a.668.668,0,0,1,.2-.479.689.689,0,0,1,.966,0A.666.666,0,0,1,520.38,173.687Z" transform="translate(-455.825 -94.515)" fill="#231815"/>
    <path id="Path_127009" data-name="Path 127009" d="M533.864,173.687h-.285a.4.4,0,0,0-.4-.391.383.383,0,0,0-.383.391h-.286a.679.679,0,0,1,.194-.477.659.659,0,0,1,.475-.2.682.682,0,0,1,.481.2A.666.666,0,0,1,533.864,173.687Z" transform="translate(-468.249 -94.515)" fill="#231815"/>
    <path id="Path_127010" data-name="Path 127010" d="M506.688,173.687H506.4a.392.392,0,0,0-.391-.391.414.414,0,0,0-.416.391h-.285a.658.658,0,0,1,.213-.481.719.719,0,0,1,.488-.2A.677.677,0,0,1,506.688,173.687Z" transform="translate(-443.217 -94.515)" fill="#231815"/>
    <path id="Path_127011" data-name="Path 127011" d="M547.288,173.687H547a.419.419,0,0,0-.423-.391.383.383,0,0,0-.384.391h-.285a.682.682,0,0,1,.193-.477.662.662,0,0,1,.476-.2.732.732,0,0,1,.49.194A.654.654,0,0,1,547.288,173.687Z" transform="translate(-480.581 -94.515)" fill="#231815"/>
    <path id="Line_403" data-name="Line 403" d="M45.3-1.5H-1.647a.143.143,0,0,1-.143-.143.143.143,0,0,1,.143-.143H45.3a.143.143,0,0,1,.143.143A.143.143,0,0,1,45.3-1.5Z" transform="translate(25.5 76.021)" fill="#231815"/>
    <path id="Line_404" data-name="Line 404" d="M45.3-1.5H-1.647a.143.143,0,0,1-.143-.143.143.143,0,0,1,.143-.143H45.3a.143.143,0,0,1,.143.143A.143.143,0,0,1,45.3-1.5Z" transform="translate(25.5 75.304)" fill="#231815"/>
    <path id="Line_405" data-name="Line 405" d="M45.3-1.5H-1.647a.143.143,0,0,1-.143-.143.143.143,0,0,1,.143-.143H45.3a.143.143,0,0,1,.143.143A.143.143,0,0,1,45.3-1.5Z" transform="translate(25.5 72.817)" fill="#231815"/>
    <path id="Line_406" data-name="Line 406" d="M45.3-1.5H-1.647a.143.143,0,0,1-.143-.143.143.143,0,0,1,.143-.143H45.3a.143.143,0,0,1,.143.143A.143.143,0,0,1,45.3-1.5Z" transform="translate(25.5 72.1)" fill="#231815"/>
    <path id="Line_407" data-name="Line 407" d="M45.3-1.5H-1.647a.143.143,0,0,1-.143-.143.143.143,0,0,1,.143-.143H45.3a.143.143,0,0,1,.143.143A.143.143,0,0,1,45.3-1.5Z" transform="translate(25.5 101.868)" fill="#231815"/>
    <path id="Line_408" data-name="Line 408" d="M45.3-1.5H-1.647a.143.143,0,0,1-.143-.143.143.143,0,0,1,.143-.143H45.3a.143.143,0,0,1,.143.143A.143.143,0,0,1,45.3-1.5Z" transform="translate(25.5 103.669)" fill="#231815"/>
    <path id="Line_409" data-name="Line 409" d="M45.3-1.5H-1.647a.143.143,0,0,1-.143-.143.143.143,0,0,1,.143-.143H45.3a.143.143,0,0,1,.143.143A.143.143,0,0,1,45.3-1.5Z" transform="translate(25.5 102.752)" fill="#231815"/>
    <path id="Line_410" data-name="Line 410" d="M-1.5,2.511h-.285V0H-1.5Z" transform="translate(48.971 71.147)" fill="#231815"/>
    <path id="Line_411" data-name="Line 411" d="M-1.5,2.487h-.285V0H-1.5Z" transform="translate(48.262 71.171)" fill="#231815"/>
    <path id="Line_412" data-name="Line 412" d="M-1.5,2.487h-.285V0H-1.5Z" transform="translate(49.689 71.171)" fill="#231815"/>
    <path id="Line_413" data-name="Line 413" d="M-1.5,2.511h-.285V0H-1.5Z" transform="translate(53.243 71.147)" fill="#231815"/>
    <path id="Line_414" data-name="Line 414" d="M-1.5,2.487h-.285V0H-1.5Z" transform="translate(52.534 71.171)" fill="#231815"/>
    <path id="Line_415" data-name="Line 415" d="M-1.5,2.487h-.285V0H-1.5Z" transform="translate(53.953 71.171)" fill="#231815"/>
    <path id="Line_416" data-name="Line 416" d="M-1.5,2.511h-.285V0H-1.5Z" transform="translate(57.515 71.147)" fill="#231815"/>
    <path id="Line_417" data-name="Line 417" d="M-1.5,2.487h-.285V0H-1.5Z" transform="translate(56.798 71.171)" fill="#231815"/>
    <path id="Line_418" data-name="Line 418" d="M-1.5,2.487h-.285V0H-1.5Z" transform="translate(58.224 71.171)" fill="#231815"/>
    <path id="Line_419" data-name="Line 419" d="M-1.5,2.511h-.285V0H-1.5Z" transform="translate(61.779 71.147)" fill="#231815"/>
    <path id="Line_420" data-name="Line 420" d="M-1.5,2.487h-.285V0H-1.5Z" transform="translate(61.07 71.171)" fill="#231815"/>
    <path id="Line_421" data-name="Line 421" d="M-1.5,2.487h-.285V0H-1.5Z" transform="translate(62.488 71.171)" fill="#231815"/>
    <path id="Line_422" data-name="Line 422" d="M-1.5,2.511h-.285V0H-1.5Z" transform="translate(66.051 71.147)" fill="#231815"/>
    <path id="Line_423" data-name="Line 423" d="M-1.5,2.487h-.285V0H-1.5Z" transform="translate(65.334 71.171)" fill="#231815"/>
    <path id="Line_424" data-name="Line 424" d="M-1.5,2.487h-.285V0H-1.5Z" transform="translate(66.76 71.171)" fill="#231815"/>
    <path id="Line_425" data-name="Line 425" d="M-1.5,2.511h-.285V0H-1.5Z" transform="translate(44.707 71.147)" fill="#231815"/>
    <path id="Line_426" data-name="Line 426" d="M-1.5,2.487h-.285V0H-1.5Z" transform="translate(43.998 71.171)" fill="#231815"/>
    <path id="Line_427" data-name="Line 427" d="M-1.5,2.487h-.285V0H-1.5Z" transform="translate(45.417 71.171)" fill="#231815"/>
    <path id="Line_428" data-name="Line 428" d="M-1.5,2.511h-.285V0H-1.5Z" transform="translate(40.436 71.147)" fill="#231815"/>
    <path id="Line_429" data-name="Line 429" d="M-1.5,2.487h-.285V0H-1.5Z" transform="translate(39.726 71.171)" fill="#231815"/>
    <path id="Line_430" data-name="Line 430" d="M-1.5,2.487h-.285V0H-1.5Z" transform="translate(41.153 71.171)" fill="#231815"/>
    <path id="Line_431" data-name="Line 431" d="M-1.5,2.511h-.285V0H-1.5Z" transform="translate(36.172 71.147)" fill="#231815"/>
    <path id="Line_432" data-name="Line 432" d="M-1.5,2.487h-.285V0H-1.5Z" transform="translate(35.454 71.171)" fill="#231815"/>
    <path id="Line_433" data-name="Line 433" d="M-1.5,2.487h-.285V0H-1.5Z" transform="translate(36.881 71.171)" fill="#231815"/>
    <path id="Line_434" data-name="Line 434" d="M-1.5,2.511h-.285V0H-1.5Z" transform="translate(31.9 71.147)" fill="#231815"/>
    <path id="Line_435" data-name="Line 435" d="M-1.5,2.487h-.285V0H-1.5Z" transform="translate(31.191 71.171)" fill="#231815"/>
    <path id="Line_436" data-name="Line 436" d="M-1.5,2.487h-.285V0H-1.5Z" transform="translate(32.609 71.171)" fill="#231815"/>
    <path id="Path_127012" data-name="Path 127012" d="M60.667,241.42l-2.128-6.647c-.135-.406-.271-.765-.638-.765-.454,0-.94.151-1.355.151-.494,0-.98-.151-1.435-.151-.725,0-1.012.494-1.012,1.132,0,.446.207,1,.582,1,.175,0,.327-.1.5-.1.335,0,.279.924.279,1.211v3.913c0,.279.056,1.211-.279,1.211-.175,0-.335-.1-.5-.1-.375,0-.582.55-.582,1,0,.646.279,1.132.893,1.132.462,0,.94-.151,1.435-.151.414,0,.893.151,1.355.151.5,0,.789-.494.789-1.132,0-.446-.2-1-.582-1-.175,0-.327.1-.5.1-.335,0-.279-.925-.279-1.211v-4.288l2.2,6.408a4.35,4.35,0,0,0,.359.853.558.558,0,0,0,.5.191h1.546a.569.569,0,0,0,.518-.406,1.914,1.914,0,0,0,.08-.773v-5.906c0-.279-.056-1.211.279-1.211.183,0,.335.1.5.1.383,0,.582-.55.582-1,0-.646-.279-1.132-.781-1.132-.454,0-.94.151-1.355.151-.494,0-.98-.151-1.435-.151-.622,0-.893.494-.893,1.132,0,.446.2,1,.582,1,.167,0,.327-.1.5-.1.335,0,.279.925.279,1.211v4.176" transform="translate(-27.967 -150.643)" fill="#231815"/>
    <path id="Path_127013" data-name="Path 127013" d="M170.158,235.822l.47,2.766a2.38,2.38,0,0,1,.056.406c0,.279-.526.191-.614.191s-.606.088-.606-.175a.413.413,0,0,1,.032-.167l.056-.239.606-2.781m.375,5.316h.247c.12,0,.279-.016.343.151a2.912,2.912,0,0,1,.128.55,1.4,1.4,0,0,1,.032.263c0,.207-.1.319-.255.319-.088,0-.175-.032-.207-.016-.43,0-.55.582-.55,1.02,0,.55.311.972.749.972.478,0,.964-.151,1.45-.151.375,0,.853.151,1.331.151.446,0,.765-.446.765-1.044,0-.462-.128-1.092-.55-1.092-.1-.032-.215.032-.335.032-.263,0-.367-.686-.43-.957l-1.371-6.1c-.088-.43-.151-.861-.478-1.076a2.62,2.62,0,0,0-1.211-.167c-1.219,0-1.355.1-1.761,1.626l-1.538,5.619c-.088.343-.215,1.06-.558,1.06a3.193,3.193,0,0,0-.383-.032c-.43,0-.55.63-.55,1.092,0,.6.311,1.044.749,1.044.478,0,.964-.151,1.451-.151.375,0,.853.151,1.331.151.438,0,.749-.415.749-.972,0-.43-.127-1.02-.55-1.02-.008-.048-.1-.016-.183-.016-.151,0-.223-.1-.223-.287a3.216,3.216,0,0,1,.151-.789c.112-.223.438-.2.622-.2Z" transform="translate(-130.397 -150.633)" fill="#231815"/>
    <path id="Path_127014" data-name="Path 127014" d="M289.721,239.468l-1.076,2.032-.223.391c-.135.223-.3.629-.534.629-.135,0-.271-.063-.406-.063-.383,0-.582.55-.582,1,0,.646.279,1.132.693,1.132.447,0,.908-.152,1.371-.152.327,0,.789.152,1.235.152.478,0,.693-.415.693-1.012a.829.829,0,0,0-.366-.8c-.1-.072-.191-.12-.191-.3a2.937,2.937,0,0,1,.3-.757l.6-1.211.725,1.674a.636.636,0,0,1,.064.255c0,.43-.6.191-.6,1.147,0,.5.223,1.012.629,1.012.446,0,.909-.152,1.363-.152.327,0,.789.152,1.235.152.5-.016.789-.51.789-1.148,0-.446-.207-1-.59-1-.127,0-.239.056-.383.056-.255,0-.415-.446-.55-.7l-1.227-2.551,1.076-1.969.207-.375c.143-.223.311-.6.558-.6.127,0,.247.064.327.032.382,0,.59-.55.59-1,0-.646-.279-1.132-.789-1.132-.446,0-.908.151-1.235.151-.454,0-.916-.151-1.363-.151-.271,0-.478.566-.478,1.148,0,.749.5.685.5.972a2.436,2.436,0,0,1-.255.686l-.59,1.243-.5-1.227a2.3,2.3,0,0,1-.215-.733c0-.183.159-.271.247-.343.223-.167.263-.343.263-.677,0-.6-.263-1.076-.741-1.076-.446,0-.908.151-1.227.151-.454,0-.917-.151-1.371-.151-.5,0-.781.494-.781,1.132,0,.447.2,1,.582,1,.127.064.255-.032.391-.032.3,0,.613.677.765.972l1.068,2.192" transform="translate(-242.213 -150.828)" fill="#231815"/>
    <path id="Path_127015" data-name="Path 127015" d="M404.458,233.652c1.371,0,1.466,1.953,1.466,3.332s-.143,3.164-1.49,3.164c-1.379,0-1.49-1.881-1.49-3.26.008-1.411.151-3.236,1.514-3.236m-.088-2.152a3.214,3.214,0,0,0-2.79,1.658,9.193,9.193,0,0,0,.1,7.643,3.117,3.117,0,0,0,2.789,1.49,3.192,3.192,0,0,0,2.813-1.674,8.113,8.113,0,0,0,.8-3.746,7.634,7.634,0,0,0-.94-3.9A3.077,3.077,0,0,0,404.371,231.5Z" transform="translate(-347.036 -148.343)" fill="#231815"/>
    <path id="Path_127016" data-name="Path 127016" d="M508.833,231.5c-1.426,0-2.566,1.179-2.566,3.164a2.977,2.977,0,0,0,.829,2.255,3.491,3.491,0,0,0,1.682.853,5.4,5.4,0,0,1,1.1.447.908.908,0,0,1,.382.837,1.018,1.018,0,0,1-1.084,1.116,1.418,1.418,0,0,1-1.028-.415,1.241,1.241,0,0,1-.271-.749,2.139,2.139,0,0,0-.2-.869.8.8,0,0,0-.669-.358.862.862,0,0,0-.909.908c0,.359.04.7.04,1.06,0,.494-.04.972-.04,1.442,0,.63.255.956.717.956.407,0,.686-.3.686-.853a2.588,2.588,0,0,0,1.977.988c1.578,0,2.837-1.371,2.837-3.554s-1.4-2.869-2.766-3.228c-.494-.12-1.22-.183-1.22-1.044a.848.848,0,0,1,.853-.925,1.674,1.674,0,0,1,1,.343.993.993,0,0,1,.287.654,1.417,1.417,0,0,0,.247.8.786.786,0,0,0,.6.271.769.769,0,0,0,.6-.287,1.378,1.378,0,0,0,.2-.94c-.016-.159-.04-.343-.063-.518,0-.462.063-.909.063-1.371,0-.6-.287-.853-.717-.853-.5,0-.685.287-.669.932a2.144,2.144,0,0,0-1.889-1.068" transform="translate(-443.943 -148.343)" fill="#231815"/>
    <path id="Path_127017" data-name="Path 127017" d="M28.969,505.692h-.016l-.685,2.072H29.6l-.63-2.072M28.1,504.6H29.83l2.04,5.292H30.324l-.4-1.131H27.949l-.422,1.131H26.1Z" transform="translate(-2.199 -399.677)" fill="#231815"/>
    <path id="Path_127018" data-name="Path 127018" d="M108.716,525.354h-1.243v-.734h-.016a1.505,1.505,0,0,1-1.443.821,1.436,1.436,0,0,1-1.514-1.578V521.4h1.371v1.913c0,.741.255,1,.63,1,.558,0,.845-.391.845-1.235v-1.666h1.363v3.945" transform="translate(-74.35 -415.139)" fill="#231815"/>
    <path id="Path_127019" data-name="Path 127019" d="M167.84,504.426a.925.925,0,0,0,.837-1c0-.605-.335-1.036-.837-1.036a.875.875,0,0,0-.829.98c0,.63.319,1.06.829,1.06m2.2.957H168.78v-.709h-.016a1.461,1.461,0,0,1-1.355.8,1.894,1.894,0,0,1-1.809-2.136,1.83,1.83,0,0,1,1.69-1.993,1.544,1.544,0,0,1,1.355.606h.016V499.7h1.371v5.683Z" transform="translate(-130.581 -395.168)" fill="#231815"/>
    <path id="Path_127020" data-name="Path 127020" d="M233.6,502.442h1.363v3.953H233.6v-3.953m1.363-.646H233.6v-1h1.363Z" transform="translate(-193.161 -396.18)" fill="#231815"/>
    <path id="Path_127021" data-name="Path 127021" d="M264.18,522.372c0-.6-.255-1.116-.885-1.116s-.885.518-.885,1.116c0,.582.255,1.108.885,1.108s.885-.526.885-1.108m-3.18,0a2.308,2.308,0,1,1,2.3,2.064A2.072,2.072,0,0,1,261,522.372Z" transform="translate(-218.378 -414.126)" fill="#231815"/>
    <path id="Path_127022" data-name="Path 127022" d="M328.711,508.9h.414c.518,0,1.052-.08,1.052-.614,0-.574-.55-.629-1.036-.629h-.43V508.9m0-2.2h.391c.462,0,.94-.111.94-.558,0-.486-.454-.534-.924-.534h-.406Zm-1.411-2.1h2.431c.988,0,1.722.431,1.722,1.339a1.193,1.193,0,0,1-.933,1.235v.016a1.132,1.132,0,0,1,1.068,1.172c0,1.267-1.116,1.53-2.064,1.53H327.3Z" transform="translate(-279.394 -399.677)" fill="#231815"/>
    <path id="Path_127023" data-name="Path 127023" d="M391.088,522.372c0-.6-.255-1.116-.884-1.116s-.885.518-.885,1.116c0,.582.255,1.108.885,1.108s.884-.526.884-1.108m-3.188,0a2.308,2.308,0,1,1,2.3,2.064A2.072,2.072,0,0,1,387.9,522.372Z" transform="translate(-335.164 -414.126)" fill="#231815"/>
    <path id="Path_127024" data-name="Path 127024" d="M454.68,522.372c0-.6-.255-1.116-.885-1.116s-.885.518-.885,1.116c0,.582.255,1.108.885,1.108s.885-.526.885-1.108m-3.18,0a2.308,2.308,0,1,1,2.295,2.064A2.067,2.067,0,0,1,451.5,522.372Z" transform="translate(-393.695 -414.126)" fill="#231815"/>
    <path id="Path_127025" data-name="Path 127025" d="M517.4,499.7h1.363v3.4h.016l1.14-1.666h1.491l-1.371,1.817,1.482,2.136h-1.649l-1.092-1.96h-.016v1.96H517.4V499.7" transform="translate(-454.343 -395.168)" fill="#231815"/>
    <path id="Path_127026" data-name="Path 127026" d="M573.4,523.157a3.408,3.408,0,0,0,1.283.271c.279,0,.55-.048.55-.319,0-.669-1.937-.2-1.937-1.626,0-.908.893-1.283,1.682-1.283a3.724,3.724,0,0,1,1.387.231l-.1.949a2.216,2.216,0,0,0-1.06-.263c-.294,0-.63.056-.63.271,0,.613,2.033.127,2.033,1.634,0,1.052-.949,1.315-1.841,1.315a4.5,4.5,0,0,1-1.435-.191l.072-.988" transform="translate(-505.788 -414.034)" fill="#231815"/>
  </g>
</svg>
