<svg id="harpercollins-logo" xmlns="http://www.w3.org/2000/svg" width="213.214" height="35" viewBox="0 0 213.214 35">
  <path id="Path_126910" data-name="Path 126910" d="M11.961.028V0c1.462.331,2.787,2.3,2.787,4.525,0,2.883-3.021,5.215-2.939,7.726h.028c.717-3.449,6.029-5.477,4.911-9.229,1.5.993,2.221,3.725,2.428,5.808.662-2.152,3.6-3.5,4.084-5.146h.028V14.5H.028L0,8.967C0,5.642,5.725,5.725,5.284,2.649l.028-.028c1.669,2.759-.966,5.132-.455,6.9h.028c1.352-5.27,6.443-3.863,7.588-7.215a2.21,2.21,0,0,0-.51-2.276" fill="#ce3829"/>
  <path id="Path_126911" data-name="Path 126911" d="M4.215,113c-1.352,1.352-2.759,1.973-4.015,1.462v9.919H23.446V113.9c-1.973,2.373-4.373,1.352-4.139-.593v-.028c-3.628,4.222-5.7,1.862-5.118.152V113.4c-3.3,3.987-5.367,1.655-4.373-.331l-.028-.028c-4.166,5.008-6.8,3.173-5.574,0Z" transform="translate(-0.172 -97.411)" fill="#377bbf"/>
  <path id="Path_126912" data-name="Path 126912" d="M205.321,44.777c0-1.421-.221-2.442-2.87-2.469l-.152-.248v-.524c0-.207.276-.235.51-.235.911,0,2.69.152,4.015.152,1.2,0,2.414-.152,3.752-.152.635,0,.786,0,.786.331v.483c0,.152-.359.179-.855.179-1.242,0-2.469.083-2.469,1.573v6.8h12.954V45.011c0-2.083,0-2.538-2.442-2.718-.331-.028-.386-.124-.386-.483v-.359l.152-.152c.993.055,2.911.152,4.773.152a29.362,29.362,0,0,0,3.6-.152l.124.179v.566c0,.248-.276.248-.731.248-1.573,0-2.359.276-2.359,2.028V59.276c0,2.18,1.186,2.359,2.911,2.359.124,0,.124.455.124.786,0,.124-.124.221-.938.221-1.2,0-2.414-.152-3.628-.152-1.117,0-2.994.152-3.352.152-.786,0-.938-.055-.938-.179v-.676l.152-.152c2.911,0,2.966-.607,2.966-2.718V51.84H208.053v7.643c0,1.724.455,2.138,2.69,2.138.331,0,.428.055.428.331v.455c0,.179-.3.221-.966.221-1.242,0-2.483-.152-3.711-.152-1.145,0-2.331.152-3.477.152a.808.808,0,0,1-.635-.179v-.676l.221-.152c1.421,0,2.745-.124,2.745-1.656Zm31,9.216c0-1.656-.207-2.925-2.414-2.925-.814,0-2.332.235-2.332,1.117a1.727,1.727,0,0,0,.152.69l-1.9,1.09a2.548,2.548,0,0,1-.179-.911c0-.966.966-1.724,1.6-2.083l2.718-1.573c.359-.207.51-.3.635-.3,2.511,0,3.808,1.214,3.808,3.683v6.4c0,.635,0,1.9.966,1.9.579,0,.69-.248,1.09-.883l.566.221c-.359,1.449-1.117,2.621-2.414,2.621a2.29,2.29,0,0,1-2.235-2.663c-1.145,1.173-2.663,2.663-4.442,2.663-1.752,0-2.663-2.263-2.663-3.628,0-.51.566-1.476,3.076-2.442l3.959-1.545Zm-.028,2.29L233.3,57.634c-.428.179-1.518.759-1.518,1.545,0,.828.4,2.359,1.393,2.359,1.062,0,2.083-1.062,2.842-1.78l.276-.276Zm10.54,3.145c0,1.2,0,2.359,2.29,2.359.179,0,.207.152.207.428s0,.428-.235.428c-1.062,0-2.111-.152-3.173-.152-1.145,0-2.359.152-3.5.152-.124,0-.124-.055-.124-.235v-.276c0-.3.055-.331.662-.359,1.324-.083,1.573-.538,1.573-2.18v-6.7a1.077,1.077,0,0,0-.911-1.117c-.124-.028-.911-.248-.911-.662,0-.179.1-.276.428-.428l2.235-1.021a9.5,9.5,0,0,1,1.269-.538c.179,0,.234.179.234.276l-.055,3.118.055.055c.966-1.228,2.359-3.435,4.208-3.435,1.09,0,1.725.51,1.725,1.628a1.252,1.252,0,0,1-1.242,1.173c-.814,0-1.117-.538-2.028-.538-.731,0-1.669,1.021-2.263,1.78l-.455.566ZM255.9,53.62c0-1.324-.055-1.6-.69-1.876l-1.09-.483c-.055,0-.055-.055-.055-.207,0-.248.028-.248.235-.359l3.683-1.78c.179.055.179.276.179.428A10.656,10.656,0,0,0,258.2,51.1c.993-.51,3.5-1.987,4.525-1.987,3.3,0,5.642,3.3,5.642,6.346,0,5.808-5.891,7.615-8.222,7.615a19.114,19.114,0,0,1-1.959-.276v4.677c0,2.056.51,2.166,2.69,2.29a.19.19,0,0,1,.207.179v.3c0,.179-.055.359-.152.359-1.3,0-2.566-.152-3.959-.152-1.324,0-2.538.152-3.325.152-.276,0-.3-.124-.3-.428V70c0-.1.028-.248.1-.248,2.3-.207,2.442-.235,2.442-2.69V53.62Zm2.3,5.987c0,1.573,1.545,2.083,2.994,2.083,3.076,0,4.677-2.138,4.677-5.229,0-2.663-1.573-5.408-4.47-5.408a5.1,5.1,0,0,0-3.2.966Zm15.52-5.049a9.765,9.765,0,0,0-.055,1.269c0,2.621,2.028,5.256,4.773,5.256,1.117,0,1.9-.414,3.408-1.78l.538.386a6.3,6.3,0,0,1-5.436,3.352c-3.076,0-5.587-2.952-5.587-6.3,0-3.573,2.414-7.643,6.374-7.643a4.47,4.47,0,0,1,4.594,4.539v.938h-8.609Zm5.256-.842c.4,0,.842-.579.842-1.09a2.494,2.494,0,0,0-2.594-2.538c-1.821,0-3.049,2.083-3.352,3.78Zm9.823,5.711c0,1.2,0,2.359,2.29,2.359.179,0,.207.152.207.428s0,.428-.235.428c-1.062,0-2.111-.152-3.173-.152-1.145,0-2.359.152-3.5.152-.124,0-.124-.055-.124-.235v-.276c0-.3.055-.331.662-.359,1.324-.083,1.573-.538,1.573-2.18v-6.7a1.077,1.077,0,0,0-.911-1.117c-.124-.028-.911-.248-.911-.662,0-.179.083-.276.414-.428l2.235-1.021a9.5,9.5,0,0,1,1.269-.538.268.268,0,0,1,.248.276l-.069,3.118.069.055c.966-1.228,2.359-3.435,4.194-3.435,1.09,0,1.724.51,1.724,1.628a1.252,1.252,0,0,1-1.242,1.173c-.814,0-1.117-.538-2.028-.538-.731,0-1.669,1.021-2.263,1.78l-.455.566Z" transform="translate(-174.391 -35.602)" fill="#ce3829"/>
  <path id="Path_126913" data-name="Path 126913" d="M906.487,47.018a16.358,16.358,0,0,1-7.215,1.628c-5.918,0-12.471-4.194-12.471-11.147,0-6.622,6.125-11.037,12.32-11.037a17.34,17.34,0,0,1,7.257,1.752l.4,3.5c.028.235.1.566.1.717,0,.207-.483.207-.607.207s-.4-.483-.814-1.476c-.869-2.083-3.532-3.532-6.194-3.532-5.767,0-9.064,4.746-9.064,10.181,0,4.953,3.987,9.643,9.064,9.643a9.494,9.494,0,0,0,5.284-1.6,6.765,6.765,0,0,0,1.7-3.228c.028-.055.207-.055.359-.055.234,0,.69.028.607.455ZM917.413,34.7a6.9,6.9,0,0,1,6.732,6.76,7.261,7.261,0,0,1-7.546,7.188,6.67,6.67,0,0,1-6.553-6.774,7.264,7.264,0,0,1,7.367-7.174m-.69.993c-3.049,0-3.959,2.87-3.959,5.767,0,2.663,1.421,6.194,4.539,6.194,2.952,0,4.139-2.635,4.139-5.229,0-3.021-1.035-6.732-4.718-6.732m14.2,10.25c0,.662,0,1.449,2.083,1.449.069,0,.069.179.069.414,0,.276-.028.428-.1.428-1.173,0-2.511-.152-3.145-.152-1.09,0-2.166.152-3.27.152-.207,0-.276-.1-.276-.207v-.276c0-.359.1-.359.524-.359,1.324,0,1.807-.179,1.807-1.6V29.47c0-1.9,0-2.028-1.173-2.511-.455-.179-.883-.331-.883-.566s.3-.331,1.545-.814l2.207-.828a2.939,2.939,0,0,1,.455-.152c.221,0,.221.3.221.483,0,1.449-.069,2.925-.069,4.373Zm8.4,0c0,.662,0,1.449,2.083,1.449.069,0,.069.179.069.414,0,.276-.041.428-.1.428-1.173,0-2.511-.152-3.146-.152-1.09,0-2.166.152-3.27.152-.207,0-.276-.1-.276-.207v-.276c0-.359.1-.359.51-.359,1.338,0,1.821-.179,1.821-1.6V29.47c0-1.9,0-2.028-1.173-2.511-.455-.179-.883-.331-.883-.566s.3-.331,1.545-.814l2.207-.828a2.932,2.932,0,0,1,.455-.152c.221,0,.221.3.221.483,0,1.449-.069,2.925-.069,4.373Zm8.4,0c0,.662,0,1.449,2.083,1.449.069,0,.069.179.069.414,0,.276-.028.428-.1.428-1.173,0-2.511-.152-3.146-.152-1.09,0-2.18.152-3.27.152-.207,0-.276-.1-.276-.207v-.276c0-.359.1-.359.524-.359,1.324,0,1.807-.179,1.807-1.6V39.568c0-1.9,0-2.028-1.173-2.511-.455-.179-.883-.331-.883-.566s.3-.331,1.545-.828l2.207-.814a1.963,1.963,0,0,1,.455-.152c.221,0,.221.3.221.483,0,1.449-.069,2.939-.069,4.387Zm-1.242-20.211a1.69,1.69,0,1,1-1.683,1.7,1.693,1.693,0,0,1,1.683-1.7m7.339,12.375c0-.579-.276-.938-.566-.993l-.993-.235c-.083-.028-.179-.124-.179-.331,0-.1.028-.3.179-.331a38.021,38.021,0,0,0,3.752-1.5c.124,0,.124.235.124.359v2.083c1.421-1.117,3.021-2.442,4.953-2.442,2.621,0,3.753,1.476,3.753,4.015v7.367c0,1.3.993,1.3,2,1.3.055,0,.124.055.124.207v.552c0,.055-.055.083-.152.083-1.2,0-1.987-.152-2.994-.152-1.09,0-2.152.152-3.228.152-.207,0-.207-.538-.207-.662,0-.083.124-.179.3-.179.483,0,1.876,0,1.876-.911v-7.1c0-1.876-.566-2.939-2.69-2.939a5.9,5.9,0,0,0-3.711,1.628v7.85c0,.676,0,1.449,2.083,1.449.055,0,.055.179.055.428,0,.276-.028.428-.083.428-1.173,0-2.511-.152-3.145-.152-1.09,0-2.166.152-3.27.152-.207,0-.276-.083-.276-.221v-.276c0-.359.1-.359.51-.359,1.324,0,1.807-.179,1.807-1.6Zm23.411.331h-.759c-.359-1.324-1.062-2.745-2.663-2.745-1.393,0-2.483.662-2.483,2.083,0,1.173,1.6,1.9,3.173,2.773,1.6.911,3.173,1.973,3.173,3.835,0,2.621-2.414,4.263-4.856,4.263-1.959,0-3.863-.883-3.9-1.366l-.152-2.745.869-.1a1.444,1.444,0,0,1,.207.579,3.654,3.654,0,0,0,3.021,2.621,2.32,2.32,0,0,0,2.511-2.511c0-.993-1.393-2.056-2.152-2.442-1.752-.911-3.987-1.931-3.987-4.235,0-2.511,2.3-3.78,4.594-3.78a7.624,7.624,0,0,1,3.559.938Z" transform="translate(-764.459 -21.206)" fill="#377bbf"/>
</svg>
