<svg id="Logo-_-Bolinda-Colour" data-name="Logo-/-Bolinda-Colour" xmlns="http://www.w3.org/2000/svg" xmlns:xlink="http://www.w3.org/1999/xlink" width="77.397" height="35" viewBox="0 0 77.397 35">
  <defs>
    <clipPath id="clip-path">
      <path id="Path_127063" data-name="Path 127063" d="M0,0H21.6V21.592H0Z"/>
    </clipPath>
    <clipPath id="clip-path-2">
      <path id="Path_127064" data-name="Path 127064" d="M0,0H69.051V17.769H0Z"/>
    </clipPath>
  </defs>
  <g id="Logo-Copy-2">
    <g id="Group-8" transform="translate(55.801)">
      <path id="Clip-7" d="M0,0H21.6V21.592H0Z" transform="translate(0)" fill="none" fill-rule="evenodd"/>
      <g id="Group_54688" data-name="Group 54688" transform="translate(0)" clip-path="url(#clip-path)">
        <path id="Fill-6" d="M18.163,13.447a3.754,3.754,0,0,1-2.476-.434v.006a4.173,4.173,0,0,0-4.887,0v0h0v0a4.174,4.174,0,0,0-4.888,0v-.006a3.753,3.753,0,0,1-2.476.434V3.933a4.007,4.007,0,0,0,2.708-.576v0a4.175,4.175,0,0,1,4.657.154,4.174,4.174,0,0,1,4.656-.154v0a4.007,4.007,0,0,0,2.708.576ZM17.388,0H4.207A4.2,4.2,0,0,0,0,4.19v8.249A4.2,4.2,0,0,0,3.645,16.59l-.115,5L9.4,16.628h7.987a4.2,4.2,0,0,0,4.208-4.19V4.19A4.2,4.2,0,0,0,17.388,0Z" transform="translate(0 0)" fill="#7fc31b" fill-rule="evenodd"/>
      </g>
    </g>
    <g id="Group-11" transform="translate(0 17.231)">
      <path id="Clip-10" d="M0,0H69.051V17.769H0Z" transform="translate(0 0)" fill="none" fill-rule="evenodd"/>
      <g id="Group_54689" data-name="Group 54689" transform="translate(0 0)" clip-path="url(#clip-path-2)">
        <path id="Fill-9" d="M63.09,15.8c-.712,0-2.367-.176-2.367-1.81,0-1.569,1.251-2.008,2.475-2.229.369-.066.756-.116,1.131-.165a6.561,6.561,0,0,0,2.537-.647v2.032c0,1.09-1.024,2.82-3.775,2.82Zm3.773,1.63h2.189V7.88c0-2.394-1.561-3.559-4.772-3.559-1.947,0-5.234.561-5.378,4.32l0,.065h2.185l0-.059c.083-1.607,1.06-2.355,3.071-2.355,1.173,0,2.732.213,2.732,2.056,0,1.187-1.165,1.355-2.776,1.585-.449.065-.912.132-1.4.227-2.175.426-4.3,1.084-4.3,3.976,0,2.309,1.536,3.633,4.214,3.633a5.58,5.58,0,0,0,4.234-1.744ZM28.25,0H25.955V17.458H28.25V16.336l0-.057,0-.058ZM44.408,9.148A7.883,7.883,0,0,0,44.2,7.276a3.631,3.631,0,0,0-.728-1.488,3.465,3.465,0,0,0-1.357-.977,5.409,5.409,0,0,0-2.07-.348,4.369,4.369,0,0,0-3.876,1.976V4.751H33.993V17.458h2.293v-1.09l.006-.089-.006-.1v-5.87a4.914,4.914,0,0,1,.219-1.5,3.352,3.352,0,0,1,.647-1.183,2.858,2.858,0,0,1,1.073-.776,3.932,3.932,0,0,1,1.544-.277,2.325,2.325,0,0,1,1.723.629,2.348,2.348,0,0,1,.621,1.716v8.541h2.293V16.376s.006-.1.006-.1l-.006-.1ZM30.029,2.8h2.294V0H30.029Zm24.73,9.984h0a4.323,4.323,0,0,1-.627,1.448,3.346,3.346,0,0,1-1.109,1.019,3.292,3.292,0,0,1-1.654.388,3.422,3.422,0,0,1-1.62-.365,3.225,3.225,0,0,1-1.131-.985,4.461,4.461,0,0,1-.663-1.426,6.278,6.278,0,0,1-.218-1.649,8.074,8.074,0,0,1,.186-1.739,4.575,4.575,0,0,1,.593-1.485A3.1,3.1,0,0,1,49.6,6.961a3.279,3.279,0,0,1,1.652-.388,3.57,3.57,0,0,1,1.7.378,3.317,3.317,0,0,1,1.144,1,4.225,4.225,0,0,1,.65,1.444,7.181,7.181,0,0,1,.011,3.389ZM54.883,0V6.159a3.438,3.438,0,0,0-.619-.646A4.86,4.86,0,0,0,53.2,4.895a5.271,5.271,0,0,0-1.119-.333,6.01,6.01,0,0,0-1.045-.1,5.706,5.706,0,0,0-2.517.529,5.217,5.217,0,0,0-1.8,1.431,6.07,6.07,0,0,0-1.071,2.1,9.035,9.035,0,0,0-.349,2.535,8.752,8.752,0,0,0,.362,2.538,6.377,6.377,0,0,0,1.079,2.112,5.3,5.3,0,0,0,1.8,1.456,5.664,5.664,0,0,0,2.54.542,6.091,6.091,0,0,0,2.4-.468A3.116,3.116,0,0,0,54.877,16.1c0,.491.007,1.347.007,1.347h2.295V0ZM30.028,16.24h0l0,.04,0,.038v1.142h2.293V4.744H30.028ZM8.983,14.467h0a3.083,3.083,0,0,1-2.23.773H2.517V2.218h3.1A10.764,10.764,0,0,1,6.979,2.3a2.916,2.916,0,0,1,1.093.356,1.9,1.9,0,0,1,.724.764A2.965,2.965,0,0,1,9.063,4.8a2.353,2.353,0,0,1-.786,1.948A8.11,8.11,0,0,1,4.65,7.4H4.069L3.254,9.62H5.293A20.5,20.5,0,0,1,7.6,9.75a3.3,3.3,0,0,1,1.122.434,2.284,2.284,0,0,1,.766.823,2.694,2.694,0,0,1,.288,1.316,2.858,2.858,0,0,1-.8,2.144ZM9.32,8.211a3.929,3.929,0,0,0,1.613-1.388,4.425,4.425,0,0,0,.674-2.458A4.1,4.1,0,0,0,11,2.091,4.606,4.606,0,0,0,9.549.647,3.069,3.069,0,0,0,8.594.269,9.5,9.5,0,0,0,7.428.085C7,.044,6.582.019,6.174.013L5,0H0V17.458H7.039a5.615,5.615,0,0,0,2.271-.431,5.1,5.1,0,0,0,1.658-1.136,4.772,4.772,0,0,0,1.013-1.621,5.339,5.339,0,0,0,.341-1.874,4.512,4.512,0,0,0-.859-2.776A3.931,3.931,0,0,0,9.32,8.211Zm12.873,4.86a4.071,4.071,0,0,1-.782,1.409,3.433,3.433,0,0,1-5.155,0,4.073,4.073,0,0,1-.782-1.409,6.128,6.128,0,0,1-.287-1.952,6.119,6.119,0,0,1,.287-1.951,4.181,4.181,0,0,1,.784-1.423,3.365,3.365,0,0,1,1.163-.873,3.5,3.5,0,0,1,2.828,0,3.367,3.367,0,0,1,1.163.873,4.207,4.207,0,0,1,.783,1.423,6.13,6.13,0,0,1,.287,1.951,6.139,6.139,0,0,1-.287,1.952ZM23.367,6.4h0A5.488,5.488,0,0,0,21.46,4.98a6.279,6.279,0,0,0-2.626-.517,6.293,6.293,0,0,0-2.615.517A5.5,5.5,0,0,0,14.3,6.4a5.965,5.965,0,0,0-1.164,2.115,8.568,8.568,0,0,0-.385,2.6,8.459,8.459,0,0,0,.385,2.589A6.011,6.011,0,0,0,14.3,15.8a5.406,5.406,0,0,0,1.921,1.4,6.442,6.442,0,0,0,2.614.5,6.42,6.42,0,0,0,2.625-.5,5.408,5.408,0,0,0,1.908-1.4,6.017,6.017,0,0,0,1.165-2.1,8.44,8.44,0,0,0,.385-2.589,8.554,8.554,0,0,0-.385-2.6A5.983,5.983,0,0,0,23.367,6.4Z" fill-rule="evenodd"/>
      </g>
    </g>
  </g>
</svg>
