<svg xmlns="http://www.w3.org/2000/svg" xmlns:xlink="http://www.w3.org/1999/xlink" width="124.385" height="35" viewBox="0 0 124.385 35">
  <defs>
    <clipPath id="clip-path">
      <rect id="Rectangle_14428" data-name="Rectangle 14428" width="124.385" height="35" fill="#fff"/>
    </clipPath>
  </defs>
  <g id="_65180596cfbdd097db1d725b_findaway-voices__logo__negative__color" data-name="65180596cfbdd097db1d725b_findaway-voices__logo__negative__color" clip-path="url(#clip-path)">
    <g id="Group_54686" data-name="Group 54686" transform="translate(0 0.036)">
      <path id="Path_127027" data-name="Path 127027" d="M12.107,1.981A10.129,10.129,0,0,1,22.32,12.023,10.121,10.121,0,0,1,12.107,22.057,10.127,10.127,0,0,1,1.894,12.023,10.134,10.134,0,0,1,12.107,1.981Zm0-1.867A12.029,12.029,0,0,0,0,12.023,12.029,12.029,0,0,0,12.107,23.933,12.029,12.029,0,0,0,24.214,12.023,12.023,12.023,0,0,0,12.107.114Z" transform="translate(0 -0.114)" fill="#e81d2b"/>
      <path id="Path_127028" data-name="Path 127028" d="M28.958,20.481a8.218,8.218,0,1,0-8.221,8.08A8.148,8.148,0,0,0,28.958,20.481Z" transform="translate(-8.63 -8.581)" fill="#e81d2b"/>
    </g>
    <path id="Path_127029" data-name="Path 127029" d="M105.1,40.175h-4.855L93.766,24.489H99l3.648,9.753,3.366-9.753h5.076l-6,15.686Z" transform="translate(-64.608 -16.874)" fill="#131313"/>
    <path id="Path_127030" data-name="Path 127030" d="M169.438,31.267a8.38,8.38,0,0,1-16.76,0,8.38,8.38,0,0,1,16.76,0Zm-4.829,0c0-2.655-1.718-3.882-3.56-3.882s-3.56,1.236-3.56,3.882,1.745,3.917,3.56,3.917S164.609,33.922,164.609,31.267Z" transform="translate(-105.201 -15.826)" fill="#131313"/>
    <path id="Path_127031" data-name="Path 127031" d="M218.236,0a2.83,2.83,0,0,1,2.855,2.813,2.83,2.83,0,0,1-2.855,2.813,2.777,2.777,0,0,1-2.793-2.813A2.817,2.817,0,0,1,218.236,0Zm-2.379,23.3V7.606h4.829V23.292h-4.829Z" transform="translate(-148.448)" fill="#131313"/>
    <path id="Path_127032" data-name="Path 127032" d="M247.3,31.255a3.6,3.6,0,0,0,3.683,3.882,3.253,3.253,0,0,0,3.269-2.34l4.256,1.3a7.467,7.467,0,0,1-7.525,5.459,8.321,8.321,0,1,1-.159-16.641c4.353,0,6.891,2.655,7.587,5.459l-4.318,1.3a3.106,3.106,0,0,0-3.172-2.34,3.568,3.568,0,0,0-3.621,3.917Z" transform="translate(-167.095 -15.787)" fill="#131313"/>
    <path id="Path_127033" data-name="Path 127033" d="M315.859,34.593c-.767,2.717-3.269,4.986-7.27,4.986a8.01,8.01,0,0,1-8.221-8.369c0-5.275,3.78-8.272,7.869-8.272,4.891,0,7.9,3,7.9,8.053a9.245,9.245,0,0,1-.1,1.481H305.065a3.411,3.411,0,0,0,3.586,3.032,3.046,3.046,0,0,0,3.172-2.051Zm-4.379-5.205c-.062-1.2-.89-2.655-3.172-2.655a3,3,0,0,0-3.146,2.655Z" transform="translate(-206.965 -15.806)" fill="#131313"/>
    <path id="Path_127034" data-name="Path 127034" d="M362.463,33.927a2.243,2.243,0,0,0,2.476,2.112c1.234,0,1.842-.666,1.842-1.358,0-.57-.379-1.043-1.551-1.3l-1.806-.412c-3.366-.727-4.7-2.62-4.7-4.828,0-2.874,2.538-5.205,6.063-5.205,4.573,0,6.159,2.839,6.318,4.671l-4,.727a2.068,2.068,0,0,0-2.256-1.928,1.54,1.54,0,0,0-1.718,1.358c0,.666.538,1.043,1.243,1.165l2.1.412c3.269.666,4.855,2.62,4.855,4.925,0,2.682-2.062,5.3-6.283,5.3-4.952,0-6.538-3.19-6.67-4.925l4.1-.727Z" transform="translate(-246.933 -15.806)" fill="#131313"/>
    <path id="Path_127035" data-name="Path 127035" d="M293.794,94.794V89.08h.74v2.454a1.391,1.391,0,0,1,1.26-.648,1.768,1.768,0,0,1,1.754,1.989,1.819,1.819,0,0,1-1.78,2.016,1.355,1.355,0,0,1-1.234-.657v.552h-.74Zm1.868-3.251a1.175,1.175,0,0,0-1.137,1.332c0,.824.476,1.358,1.137,1.358s1.128-.535,1.128-1.358S296.349,91.543,295.662,91.543Z" transform="translate(-202.435 -61.38)" fill="#131313"/>
    <path id="Path_127036" data-name="Path 127036" d="M306.723,100.633l.951-2.007-1.639-3.374h.854l1.19,2.62,1.146-2.62h.8l-2.485,5.381Z" transform="translate(-210.87 -65.632)" fill="#131313"/>
    <path id="Path_127037" data-name="Path 127037" d="M327.192,90.719a1.138,1.138,0,0,0-1.19-.955.991.991,0,0,0-1.084.929.816.816,0,0,0,.723.815l.837.184a1.619,1.619,0,0,1,1.463,1.568,1.774,1.774,0,0,1-1.948,1.656,1.953,1.953,0,0,1-2.106-1.665l.749-.237a1.277,1.277,0,0,0,1.348,1.2c.775,0,1.154-.4,1.154-.894a.913.913,0,0,0-.846-.868l-.8-.175a1.552,1.552,0,0,1-1.375-1.534,1.816,1.816,0,0,1,1.859-1.665,1.767,1.767,0,0,1,1.9,1.385l-.7.245Z" transform="translate(-223.171 -61.38)" fill="#131313"/>
    <path id="Path_127038" data-name="Path 127038" d="M338.85,100.35V95.057h.722v.587a1.409,1.409,0,0,1,1.278-.675A1.765,1.765,0,0,1,342.6,96.95a1.822,1.822,0,0,1-1.78,2.007,1.418,1.418,0,0,1-1.234-.614v2.007Zm1.868-4.723a1.35,1.35,0,1,0,1.128,1.323C341.846,96.17,341.414,95.627,340.718,95.627Z" transform="translate(-233.481 -65.438)" fill="#131313"/>
    <path id="Path_127039" data-name="Path 127039" d="M356.063,96.872a1.949,1.949,0,1,1-1.948-2.016A1.919,1.919,0,0,1,356.063,96.872Zm-.758,0a1.2,1.2,0,1,0-1.19,1.358A1.213,1.213,0,0,0,355.3,96.872Z" transform="translate(-242.657 -65.36)" fill="#131313"/>
    <path id="Path_127040" data-name="Path 127040" d="M366.578,92.572h.828v.666h-.828v1.972c0,.35.141.517.529.517a1.329,1.329,0,0,0,.291-.035v.631a1.586,1.586,0,0,1-.511.07.988.988,0,0,1-1.066-1.078V93.229h-.731v-.666h.2a.536.536,0,0,0,.591-.587v-.613h.679v1.2Z" transform="translate(-251.56 -62.952)" fill="#131313"/>
    <path id="Path_127041" data-name="Path 127041" d="M374.374,88.911a.533.533,0,0,1,.538.535.533.533,0,0,1-1.066,0A.536.536,0,0,1,374.374,88.911Zm-.361,5.766V90.883h.74v3.794Z" transform="translate(-257.594 -61.263)" fill="#131313"/>
    <path id="Path_127042" data-name="Path 127042" d="M381.565,96.321l.952-2.007L381.2,91.607h-1.41v3.129h-.767V91.607h-.7v-.666h.7V90.3A1.211,1.211,0,0,1,380.279,89a.886.886,0,0,1,.441.079v.666a1.135,1.135,0,0,0-.326-.044.566.566,0,0,0-.6.648v.6h1.947l1.19,2.62,1.145-2.62h.8l-2.485,5.38h-.828Z" transform="translate(-260.679 -61.321)" fill="#131313"/>
    <path id="Path_127043" data-name="Path 127043" d="M92.321,5.37V1.015h2.723v.692H93.061V2.925h1.78v.684h-1.78V5.361h-.74Z" transform="translate(-63.613 -0.699)" fill="#131313"/>
    <path id="Path_127044" data-name="Path 127044" d="M105.242,5.37V1.015h.749V5.37Z" transform="translate(-72.516 -0.699)" fill="#131313"/>
    <path id="Path_127045" data-name="Path 127045" d="M115.679,5.37,113.52,2.075V5.37h-.74V1.015h.943L115.706,4.1V1.015h.74V5.37h-.767Z" transform="translate(-77.71 -0.699)" fill="#131313"/>
    <path id="Path_127046" data-name="Path 127046" d="M129.7,5.37V1.015h1.551A2.041,2.041,0,0,1,133.38,3.2a2.031,2.031,0,0,1-2.132,2.164h-1.542Zm1.516-.675a1.344,1.344,0,0,0,1.392-1.49A1.353,1.353,0,0,0,131.221,1.7h-.784v3Z" transform="translate(-89.366 -0.699)" fill="#131313"/>
    <path id="Path_127047" data-name="Path 127047" d="M146.82,4.275h-1.851l-.405,1.1h-.784l1.7-4.355h.855l1.7,4.355h-.811l-.414-1.1Zm-1.595-.684h1.331l-.67-1.779-.669,1.779Z" transform="translate(-99.07 -0.699)" fill="#131313"/>
    <path id="Path_127048" data-name="Path 127048" d="M164.062,1.015h.767L163.6,5.37h-.767L161.78,2.084,160.713,5.37h-.758l-1.243-4.355h.776l.872,3.181,1.022-3.181h.776l1.04,3.207.855-3.207Z" transform="translate(-109.359 -0.699)" fill="#131313"/>
    <path id="Path_127049" data-name="Path 127049" d="M182.694,4.275h-1.85l-.405,1.1h-.784l1.7-4.355h.855l1.7,4.355H183.1l-.414-1.1ZM181.1,3.591h1.33l-.669-1.779-.67,1.779Z" transform="translate(-123.788 -0.699)" fill="#131313"/>
    <path id="Path_127050" data-name="Path 127050" d="M194.021,1.015h.872l1.049,1.823L197,1.015h.837l-1.542,2.506v1.84h-.74V3.521Z" transform="translate(-133.688 -0.699)" fill="#131313"/>
  </g>
</svg>
