<svg xmlns="http://www.w3.org/2000/svg" width="157.457" height="35" viewBox="0 0 157.457 35">
  <g id="download_2_" data-name="download (2)" transform="translate(0 0.003)">
    <path id="Path_127090" data-name="Path 127090" d="M181.631,17.377c0-1.829-1.437-3.007-4.051-3.007H172v6.308h5.411C179.906,20.671,181.631,19.543,181.631,17.377Z" transform="translate(-51.44 -4.299)" fill="none"/>
    <path id="Path_127091" data-name="Path 127091" d="M135.925,18.081c0-2.271-1.724-3.631-4.682-3.631H125.6v7.395h5.607c2.755,0,4.717-1.4,4.717-3.764Z" transform="translate(-37.563 -4.323)" fill="none"/>
    <path id="Path_127092" data-name="Path 127092" d="M177.79,26H172v6.456h6.14c2.8,0,4.493-1.227,4.493-3.294S180.979,26,177.79,26Z" transform="translate(-51.44 -7.777)" fill="none"/>
    <path id="Path_127093" data-name="Path 127093" d="M208.94,14.44h-4.29V28.921h4.29c4.626,0,7.577-3.14,7.577-7.213s-2.951-7.269-7.577-7.269Z" transform="translate(-61.205 -4.32)" fill="none"/>
    <path id="Path_127094" data-name="Path 127094" d="M3.686,17.249a5.818,5.818,0,0,0,4.682,2.1,5.012,5.012,0,0,0,3.82-1.472,4.907,4.907,0,0,0,1.4-3.5,4.206,4.206,0,0,0-1.353-3.3,4.283,4.283,0,0,0-2.881-1.2,6.491,6.491,0,0,0-1.255.161,5.264,5.264,0,0,1-1,.189q-1.114,0-1.114-1.346A4.719,4.719,0,0,1,8.242,4.99,10.647,10.647,0,0,1,9.6,4.162a11.271,11.271,0,0,1,4.661-.925,16.121,16.121,0,0,1,9.112,2.65l-1.991,2.86,2.762,1.822,3.743-5.341-1.206-.946A19.325,19.325,0,0,0,14.235,0C6.946,0,1.85,4.471,1.85,10.877v.456a8.976,8.976,0,0,0,1.836,5.916Z" transform="translate(-0.553 0)" fill="#1e7b85"/>
    <path id="Path_127095" data-name="Path 127095" d="M21.974,22.217a5.012,5.012,0,0,0-3.82,1.472,4.907,4.907,0,0,0-1.4,3.5,4.206,4.206,0,0,0,1.36,3.28A4.283,4.283,0,0,0,21.028,31.7a6.463,6.463,0,0,0,1.255-.161,5.257,5.257,0,0,1,1-.189q1.114,0,1.114,1.346a4.205,4.205,0,0,1-.105.939C23.061,36.663,19.885,38.4,15.3,38.4A17.783,17.783,0,0,1,4.633,34.9l2.5-2.916L4.493,29.948,0,35.268l1.143,1.023A21.119,21.119,0,0,0,15.266,41.64a12.442,12.442,0,0,0,1.71-.077,13.318,13.318,0,0,0,8.187-3.189,10.417,10.417,0,0,0,3.273-8.152,8.878,8.878,0,0,0-1.78-5.888,5.818,5.818,0,0,0-4.682-2.117Z" transform="translate(0 -6.643)" fill="#1e7b85"/>
    <g id="Group_54691" data-name="Group 54691" transform="translate(44.159 7.901)">
      <path id="Path_127096" data-name="Path 127096" d="M155.2,11.72h2.068V30.014H155.2Z" transform="translate(-90.574 -11.407)" fill="#00293f"/>
      <path id="Path_127097" data-name="Path 127097" d="M179.95,20.559a4.43,4.43,0,0,0,2.9-4.262c0-2.8-2.355-4.577-5.958-4.577H169.1V30.014h8.131c4,0,6.638-1.857,6.638-5.019,0-2.565-1.752-3.785-3.918-4.437Zm-8.818-6.981h5.607c2.614,0,4.051,1.178,4.051,3.007,0,2.173-1.724,3.294-4.206,3.294h-5.453V13.57Zm6.14,14.586h-6.14V21.729h5.776c3.189,0,4.864,1.15,4.864,3.161s-1.717,3.273-4.486,3.273Z" transform="translate(-94.731 -11.407)" fill="#00293f"/>
      <path id="Path_127098" data-name="Path 127098" d="M99.638,28.29c-4.023,0-7.086-3.322-7.086-7.577s3.035-7.528,7.086-7.528a7.956,7.956,0,0,1,5.748,2.509l1.4-1.514a9.526,9.526,0,0,0-7.135-2.9A9.21,9.21,0,0,0,90.4,20.769,9.178,9.178,0,0,0,99.589,30.2a9.526,9.526,0,0,0,7.353-3.21l-1.4-1.332a7.934,7.934,0,0,1-5.9,2.635Z" transform="translate(-71.195 -11.274)" fill="#00293f"/>
      <path id="Path_127099" data-name="Path 127099" d="M70.766,19.767c-4.03-.862-4.963-1.829-4.963-3.582s1.507-2.979,3.89-2.979a8.04,8.04,0,0,1,5.278,1.984L76.177,13.6a9.547,9.547,0,0,0-6.428-2.25c-3.5,0-6.014,2.1-6.014,5.019s1.935,4.395,6.14,5.306c3.841.813,4.759,1.78,4.759,3.5,0,1.857-1.619,3.14-4.079,3.14a8.713,8.713,0,0,1-6.308-2.586L63,27.224a10.7,10.7,0,0,0,7.479,2.944c3.631,0,6.245-2.04,6.245-5.2,0-2.825-1.886-4.311-5.958-5.2Z" transform="translate(-63 -11.295)" fill="#00293f"/>
      <path id="Path_127100" data-name="Path 127100" d="M137.131,17.19c0-3.294-2.586-5.46-6.617-5.46H122.65V30.024h2.068V22.91h5.229l5.306,7.107h2.537l-5.607-7.479c2.86-.512,4.949-2.292,4.949-5.348Zm-12.413,3.841v-7.4h5.649c2.951,0,4.682,1.36,4.682,3.631s-1.97,3.771-4.717,3.771h-5.607Z" transform="translate(-80.84 -11.41)" fill="#00293f"/>
      <path id="Path_127101" data-name="Path 127101" d="M208.06,11.72h-6.35V30.014h6.35c5.748,0,9.722-4,9.722-9.175s-3.953-9.119-9.722-9.119Zm0,16.388h-4.29V13.627h4.29c4.626,0,7.577,3.189,7.577,7.269S212.687,28.108,208.06,28.108Z" transform="translate(-104.484 -11.407)" fill="#00293f"/>
    </g>
  </g>
</svg>
