<svg xmlns="http://www.w3.org/2000/svg" width="133.768" height="35" viewBox="0 0 133.768 35">
  <g id="hachette-book-group-logo" transform="translate(-20.799 -241.188)">
    <path id="Path_127065" data-name="Path 127065" d="M20.8,286.712V273.268c0-.468,0-.468.49-.468h9.676c.357,0,.446.089.446.446-.022,2.542,0,5.083,0,7.6,0,.6,0,.6.6.6h7.58c.446,0,.446,0,.446.468v1.115c0,.268-.111.357-.357.357H29.94c-.535,0-.535,0-.535-.513V275.23c0-.446-.022-.491-.468-.491H23.229c-.446,0-.49.045-.49.491v23.008c0,.49.022.513.513.513h7.692c.357,0,.468.111.446.446a10.446,10.446,0,0,0,0,1.182c0,.223-.067.334-.312.334H21.133c-.357,0-.334-.223-.334-.468V286.712Z" transform="translate(0 -24.564)" fill="#3c97ba"/>
    <path id="Path_127066" data-name="Path 127066" d="M78.906,286.556V300c0,.49,0,.49-.468.49h-9.7c-.312,0-.424-.089-.424-.424.022-2.542,0-5.105,0-7.647,0-.6,0-.6-.6-.6h-7.6c-.446,0-.424,0-.424-.446,0-.379.022-.758,0-1.137-.022-.245.067-.334.312-.312.334.022.647,0,.981,0h8.762c.513,0,.513,0,.513.535v7.536c0,.535.022.557.535.557h5.663c.49,0,.513-.022.513-.513V275.052c0-.513-.022-.535-.557-.535H68.762c-.334,0-.446-.089-.424-.424a10.443,10.443,0,0,0,0-1.182c0-.223.067-.312.312-.312h9.765c.513,0,.513,0,.513.513C78.906,277.616,78.906,282.075,78.906,286.556Z" transform="translate(-30.217 -24.409)" fill="#3c97ba"/>
    <path id="Path_127067" data-name="Path 127067" d="M183.762,249.729c.089-.067.2-.134.29-.2a5.409,5.409,0,0,1,3.857-1.561,5.817,5.817,0,0,1,3.433.914,4.875,4.875,0,0,1,2.073,3.433,6.858,6.858,0,0,1,.089,1.182v9.275c0,.468,0,.468-.468.468-.334,0-.647-.022-.981,0-.357.022-.424-.111-.424-.446.022-1.672,0-3.366,0-5.039v-3.924a4.646,4.646,0,0,0-.691-2.653,3.643,3.643,0,0,0-3.366-1.538,3.728,3.728,0,0,0-3.879,4.1c-.022,2.987,0,5.975,0,8.962,0,.513,0,.513-.513.513h-1.115c-.2,0-.268-.067-.268-.268V241.681c0-.468,0-.49.468-.49.334,0,.669.022,1,0,.312-.022.424.089.424.424-.022,2.542,0,5.083,0,7.6v.446Z" transform="translate(-125.107)" fill="#3c97ba"/>
    <path id="Path_127068" data-name="Path 127068" d="M374.7,249.8a3.4,3.4,0,0,0,.357-.245A5.343,5.343,0,0,1,378.867,248a5.925,5.925,0,0,1,3.255.78,4.668,4.668,0,0,1,2.229,3.367,12.008,12.008,0,0,1,.134,1.784c.022,2.965,0,5.908,0,8.873,0,.446,0,.446-.468.446-.357,0-.691-.022-1.048,0-.312.022-.4-.089-.379-.4,0-2.72.022-5.418,0-8.138a14.7,14.7,0,0,0-.156-2.207,3.475,3.475,0,0,0-3.3-2.854,4.789,4.789,0,0,0-2.5.424,3.506,3.506,0,0,0-1.94,3.166c-.089,2.207-.067,4.414-.067,6.644v2.987c0,.29-.089.379-.379.379a9.68,9.68,0,0,0-1.137,0c-.245,0-.357-.067-.334-.312V241.911a1.355,1.355,0,0,1,.022-.424c.022-.111.156-.245.245-.245.446-.022.914-.022,1.36,0,.089,0,.223.156.245.245.022.312.022.647.022.981v6.889A1.626,1.626,0,0,0,374.7,249.8Z" transform="translate(-273.504 -0.029)" fill="#3c97ba"/>
    <path id="Path_127069" data-name="Path 127069" d="M257.616,281.186V286.4c0,.312-.089.424-.4.4a8.564,8.564,0,0,0-1.07,0c-.29.022-.379-.111-.357-.379a3.35,3.35,0,0,0,0-.669,1.256,1.256,0,0,0-.089-.268,1.2,1.2,0,0,0-.245.111,7.266,7.266,0,0,1-1.382.892,7.85,7.85,0,0,1-2.051.468,9.5,9.5,0,0,1-2.965-.178,3.822,3.822,0,0,1-3.032-2.765,4.569,4.569,0,0,1,.2-3.344,3.89,3.89,0,0,1,3.166-2.207,35.086,35.086,0,0,1,4.058-.156c.067,0,.156.134.245.223v.067c.067,1.137.067,1.137-1.07,1.137a11.539,11.539,0,0,0-3.032.245,2.512,2.512,0,0,0-1.9,2.475,2.457,2.457,0,0,0,1.494,2.608,3.547,3.547,0,0,0,1.159.29,7.628,7.628,0,0,0,3.1-.178,2.862,2.862,0,0,0,2.274-2.921c.067-1.873.067-3.745.067-5.618a3.457,3.457,0,0,0-.624-2.163,3.235,3.235,0,0,0-2.207-1.2,7.918,7.918,0,0,0-2.987.089,3.553,3.553,0,0,0-2.007,1.293c-.2.268-.334.29-.557.045a5.766,5.766,0,0,0-.78-.691c-.2-.156-.2-.268-.022-.468a5.169,5.169,0,0,1,3.589-1.9,9.847,9.847,0,0,1,4.414.334,4.054,4.054,0,0,1,2.943,3.589,6.929,6.929,0,0,1,.067.959C257.616,278.065,257.616,279.625,257.616,281.186Z" transform="translate(-174.838 -23.587)" fill="#3c97ba"/>
    <path id="Path_127070" data-name="Path 127070" d="M577.83,284.736a6.424,6.424,0,0,1-2.43,1.761,7.8,7.8,0,0,1-6.086-.089,5.424,5.424,0,0,1-3.01-3.768,12.413,12.413,0,0,1-.29-5.128,7.874,7.874,0,0,1,1.248-3.523,5.361,5.361,0,0,1,4.5-2.408,6.025,6.025,0,0,1,3.545.892,5.872,5.872,0,0,1,2.43,3.478,12.16,12.16,0,0,1,.379,3.478c0,.312-.111.4-.424.4h-7.469c-.312,0-.468-.067-.4-.4a3.355,3.355,0,0,0,0-.669c-.045-.357.112-.424.446-.424,1.739.022,3.478,0,5.217,0h.446c.223,0,.312-.089.312-.312a5.515,5.515,0,0,0-.959-3.166,3.914,3.914,0,0,0-3.812-1.583,4.03,4.03,0,0,0-3.545,3.589,12.262,12.262,0,0,0,.268,5.618,4.008,4.008,0,0,0,3.545,2.9,5.2,5.2,0,0,0,4.57-1.494c.156-.156.268-.2.468-.022C577.094,284.134,577.473,284.424,577.83,284.736Z" transform="translate(-423.553 -23.614)" fill="#3c97ba"/>
    <path id="Path_127071" data-name="Path 127071" d="M449.984,284.664a6.825,6.825,0,0,1-4.236,2.229,8.427,8.427,0,0,1-3.5-.245,5.35,5.35,0,0,1-3.567-3.411A11.941,11.941,0,0,1,438.1,278a8.7,8.7,0,0,1,.936-3.5,5.389,5.389,0,0,1,4.949-3.01,5.745,5.745,0,0,1,3.991,1.293,6.432,6.432,0,0,1,1.984,3.366,12.791,12.791,0,0,1,.312,3.188c0,.268-.067.357-.357.357h-7.58c-.29,0-.4-.089-.357-.379a4.052,4.052,0,0,0,0-.736c-.022-.29.111-.379.379-.379h5.083c.959,0,1,0,.892-.936a4.289,4.289,0,0,0-2.475-3.812,4.049,4.049,0,0,0-5.707,2.9,11.378,11.378,0,0,0,.156,5.863,3.9,3.9,0,0,0,2.452,2.742,5.8,5.8,0,0,0,2.831.268,5.091,5.091,0,0,0,2.854-1.449c.2-.2.334-.2.535,0C449.271,284.084,449.628,284.352,449.984,284.664Z" transform="translate(-324.222 -23.542)" fill="#3c97ba"/>
    <path id="Path_127072" data-name="Path 127072" d="M314.137,279.279a8.651,8.651,0,0,0,.535,3.277,4.613,4.613,0,0,0,7.647,1.315c.2-.223.357-.245.557-.022.245.268.535.513.8.758.156.134.134.245,0,.379a5.983,5.983,0,0,1-4.325,2.029,6.751,6.751,0,0,1-4.236-1.115,6.431,6.431,0,0,1-2.452-3.679,10.982,10.982,0,0,1-.268-4.5,6.954,6.954,0,0,1,2.7-5.016,6.185,6.185,0,0,1,3.411-1.137,6.832,6.832,0,0,1,3.255.535,7.539,7.539,0,0,1,1.917,1.427c.2.178.156.312-.022.49-.268.245-.535.49-.78.736-.178.2-.312.178-.513-.022a4.156,4.156,0,0,0-2.475-1.449,4.578,4.578,0,0,0-5.529,3.835C314.227,277.829,314.2,278.565,314.137,279.279Z" transform="translate(-226.499 -23.597)" fill="#3c97ba"/>
    <path id="Path_127073" data-name="Path 127073" d="M499.1,262.47v-4.66c0-.334-.045-.513-.446-.49-.424.022-.825-.022-1.249-.022-.223,0-.334-.067-.312-.29,0-.268.022-.535,0-.8,0-.245.111-.312.312-.29.424,0,.825-.022,1.249,0,.334.022.446-.111.446-.446v-3.924c0-.334.089-.446.424-.446a9.674,9.674,0,0,0,1.137,0c.223,0,.29.067.29.312-.022,1.315,0,2.653-.022,3.968,0,.468.067.535.535.535h1.984c.268,0,.379.067.357.357-.022.245,0,.49,0,.736s-.089.312-.334.312c-.691-.022-1.382,0-2.1-.022-.334,0-.468.111-.468.468,0,3.01,0,6,.022,9.007a3.687,3.687,0,0,0,.29,1.471,1.982,1.982,0,0,0,1.962,1.07h.669c.223-.022.334.067.312.29,0,.357.022.691,0,1.048,0,.089-.134.245-.2.245a6.79,6.79,0,0,1-2.675-.223,3.192,3.192,0,0,1-2.118-2.809c-.134-1.471-.067-2.965-.089-4.437C499.1,263.117,499.1,262.782,499.1,262.47Z" transform="translate(-370.102 -7.702)" fill="#3c97ba"/>
    <path id="Path_127074" data-name="Path 127074" d="M533.885,262.672v-4.838c0-.29-.067-.446-.4-.446-.424.022-.847-.022-1.293-.022-.223,0-.312-.045-.312-.29-.022-1.092-.045-1.092,1.07-1.092.981,0,.936.111.936-.936V251.7c0-.513,0-.513.513-.513.334,0,.647.022.981,0,.29-.022.379.089.379.379v3.857c0,.535.022.557.58.557.647,0,1.271.022,1.917,0,.29,0,.379.111.379.379-.022.245,0,.49,0,.736,0,.223-.089.29-.312.29-.691-.022-1.36-.022-2.051-.022-.446,0-.49.067-.49.513v9.074a2.228,2.228,0,0,0,.936,2.1,2.793,2.793,0,0,0,1.583.334c.8,0,.691-.045.691.691,0,.914,0,.892-.914.914a4.325,4.325,0,0,1-2.363-.446,3.156,3.156,0,0,1-1.672-2.475c-.134-1.338-.089-2.7-.112-4.058a13.2,13.2,0,0,1-.045-1.338Z" transform="translate(-397.131 -7.77)" fill="#3c97ba"/>
    <path id="Path_127075" data-name="Path 127075" d="M183.64,370.639h-1.605c-.245,0-.334-.089-.334-.334v-7.112c0-.245.089-.312.334-.312,1,0,1.984-.022,2.987.022a2.014,2.014,0,0,1,2.007,2.542,1.774,1.774,0,0,1-.669,1.026c-.2.156-.245.245,0,.4a1.965,1.965,0,0,1,.736,2.363,1.9,1.9,0,0,1-1.85,1.4c-.535,0-1.07-.022-1.605,0Zm-.8-2.229c0,.29.022.6,0,.914-.022.245.089.379.334.379a16.278,16.278,0,0,0,1.806-.045,1.146,1.146,0,0,0,1.115-1.182,1.113,1.113,0,0,0-1.026-1.226,11.542,11.542,0,0,0-1.962-.045c-.089,0-.245.178-.245.29a6.1,6.1,0,0,0-.022.914Zm1.226-4.526h-.914c-.245,0-.334.089-.334.334v1.672c0,.268.134.357.357.357.468,0,.959.022,1.427,0a3.231,3.231,0,0,0,.669-.134,1.1,1.1,0,0,0,.647-1.293,1.116,1.116,0,0,0-1.048-.914,4.762,4.762,0,0,0-.8-.022Z" transform="translate(-125.029 -94.558)" fill="#3c97ba"/>
    <path id="Path_127076" data-name="Path 127076" d="M360.993,370.581a9.659,9.659,0,0,1-1.159-.022c-.089,0-.2-.134-.268-.245l-1.338-2.675a.549.549,0,0,0-.58-.379,4.307,4.307,0,0,1-.758,0c-.29-.022-.379.089-.379.379.022.847,0,1.694,0,2.542,0,.29-.089.4-.379.379-.892-.022-.758.089-.758-.713v-6.6c0-.446,0-.446.468-.446H358.5a2.133,2.133,0,0,1,2.3,1.984,2.067,2.067,0,0,1-1.092,2.14c-.446.223-.446.223-.223.691C359.968,368.574,360.458,369.533,360.993,370.581Zm-4.481-5.507v.981c0,.2.089.312.29.312.624,0,1.271,0,1.9-.045a1.249,1.249,0,0,0,1-1.315,1.229,1.229,0,0,0-1.159-1.159H356.8c-.2,0-.29.067-.29.29v.936Z" transform="translate(-259.978 -94.499)" fill="#3c97ba"/>
    <path id="Path_127077" data-name="Path 127077" d="M284.72,370.727a10.147,10.147,0,0,1-1.182-.022c-.089,0-.2-.156-.245-.245-.6-1.07-1.226-2.118-1.828-3.188-.223-.379-.268-.379-.557-.045-.022.022-.045.067-.067.089a3.047,3.047,0,0,0-1.026,2.876c.067.557,0,.557-.557.557h-.245c-.223.022-.312-.089-.312-.312v-7.157c0-.2.067-.29.29-.29,1.026,0,.825-.089.847.78s0,1.739,0,2.608v.49a3.613,3.613,0,0,0,.357-.268c.914-1.092,1.806-2.207,2.7-3.322a.622.622,0,0,1,.557-.268c.312.022.624,0,1.026,0-.178.223-.312.4-.446.557-.6.713-1.182,1.449-1.806,2.163a.481.481,0,0,0-.067.647c.78,1.315,1.561,2.631,2.319,3.946A2.222,2.222,0,0,1,284.72,370.727Z" transform="translate(-200.403 -94.646)" fill="#3c97ba"/>
    <path id="Path_127078" data-name="Path 127078" d="M327.338,364.827a6.8,6.8,0,0,1-.959-.022c-.089-.022-.2-.178-.245-.29a1.676,1.676,0,0,0-2.542-.758,1.411,1.411,0,0,0-.647,1.137,23.614,23.614,0,0,0,0,3.077,1.533,1.533,0,0,0,1.65,1.449,1.652,1.652,0,0,0,1.65-1.605c.022-.847.045-.713-.691-.713h-.669c-.245.022-.334-.089-.334-.334a1.671,1.671,0,0,1,0-.334c.045-.089.156-.245.245-.245.758-.022,1.538-.022,2.3,0,.089,0,.223.111.223.178a6.375,6.375,0,0,1-.178,2.341,2.48,2.48,0,0,1-2.007,1.628,2.833,2.833,0,0,1-2.921-1.026,2.25,2.25,0,0,1-.468-1.382q-.033-1.371,0-2.742a2.6,2.6,0,0,1,2.631-2.7,2.682,2.682,0,0,1,2.876,2.051A.54.54,0,0,1,327.338,364.827Z" transform="translate(-233.836 -94.252)" fill="#3c97ba"/>
    <path id="Path_127079" data-name="Path 127079" d="M386.5,366.54a14.263,14.263,0,0,1,.156-1.962,2.6,2.6,0,0,1,2.765-1.984,2.539,2.539,0,0,1,2.564,1.984,4.905,4.905,0,0,1,.111,1.271c0,.825-.022,1.65-.067,2.452a2.542,2.542,0,0,1-2.051,2.14,2.743,2.743,0,0,1-3.166-1.4,6.375,6.375,0,0,1-.29-1.628,5.66,5.66,0,0,1,0-.869Zm1.137,0c.022.557.045,1.092.111,1.628a1.548,1.548,0,0,0,1.583,1.36,1.631,1.631,0,0,0,1.605-1.427,12.361,12.361,0,0,0,0-3.144,1.613,1.613,0,0,0-3.188-.067,13.367,13.367,0,0,0-.112,1.65Z" transform="translate(-284.169 -94.337)" fill="#3c97ba"/>
    <path id="Path_127080" data-name="Path 127080" d="M250.841,366.412c0,.557.022,1.137,0,1.694a2.531,2.531,0,0,1-2.073,2.185,2.794,2.794,0,0,1-2.943-1.092,2.742,2.742,0,0,1-.4-1.026,12.747,12.747,0,0,1-.022-3.567,2.771,2.771,0,0,1,5.484.535v1.249h-.045Zm-4.437-.022c.022.468.067.959.089,1.427a1.617,1.617,0,0,0,3.233,0,24.373,24.373,0,0,0,0-2.854,1.6,1.6,0,0,0-1.628-1.583,1.545,1.545,0,0,0-1.605,1.427C246.449,365.341,246.427,365.854,246.4,366.389Z" transform="translate(-174.439 -94.187)" fill="#3c97ba"/>
    <path id="Path_127081" data-name="Path 127081" d="M219.189,366.546c0,.557.045,1.137,0,1.694a2.527,2.527,0,0,1-2.051,2.207,2.8,2.8,0,0,1-3.121-1.315,2.232,2.232,0,0,1-.268-.981c-.022-1.092-.022-2.207.022-3.3a2.585,2.585,0,0,1,2.675-2.252,2.662,2.662,0,0,1,2.787,2.72c-.045.379-.022.8-.045,1.226Zm-1.048,0-.067-1.4a1.623,1.623,0,0,0-1.605-1.583,1.59,1.59,0,0,0-1.628,1.538c-.045.959-.045,1.94,0,2.921a1.539,1.539,0,0,0,1.605,1.538,1.606,1.606,0,0,0,1.628-1.449c.022-.535.045-1.048.067-1.561Z" transform="translate(-149.921 -94.344)" fill="#3c97ba"/>
    <path id="Path_127082" data-name="Path 127082" d="M420.459,365.722v2.43a1.665,1.665,0,0,0,3.188.624,3.761,3.761,0,0,0,.178-1.115q.033-2.174,0-4.347c0-.334.089-.446.424-.424.736.022.647-.067.647.647v4.526a2.467,2.467,0,0,1-1.672,2.475,2.813,2.813,0,0,1-3.589-1.2,3.789,3.789,0,0,1-.312-1.4c-.045-1.561,0-3.1-.022-4.66,0-.29.089-.4.379-.379.892.022.736-.111.758.758C420.459,364.34,420.459,365.031,420.459,365.722Z" transform="translate(-309.657 -94.567)" fill="#3c97ba"/>
    <path id="Path_127083" data-name="Path 127083" d="M453.6,366.749v-3.478c0-.268.067-.4.379-.379.959.022,1.9,0,2.854.022a2.255,2.255,0,0,1,2.1,1.605,2.308,2.308,0,0,1-.959,2.675,3.645,3.645,0,0,1-1.382.379,10.161,10.161,0,0,1-1.427.022c-.424,0-.468.045-.468.446v2.252c0,.268-.089.379-.357.379-.869,0-.713.045-.736-.713Zm1.092-1.538v1c0,.2.067.357.29.357.647-.022,1.293,0,1.94-.067a1.261,1.261,0,0,0,.981-1.36,1.282,1.282,0,0,0-1.182-1.249c-.557-.022-1.137,0-1.694,0-.268,0-.334.111-.334.357v.959Z" transform="translate(-336.31 -94.569)" fill="#3c97ba"/>
  </g>
</svg>
