<svg xmlns="http://www.w3.org/2000/svg" width="122.017" height="36.131" viewBox="0 0 122.017 36.131">
  <g id="harlequin-enterprises-ulc-logo-vector" transform="translate(-21.8 -234.6)">
    <path id="Path_127051" data-name="Path 127051" d="M127.352,293.365H123.3v-4.922H120v12.8h3.3v-4.962h4.051v4.962h3.322v-12.8h-3.322Zm8.2-4.922-4.152,12.8h3.18l.871-2.734h3.869l.871,2.734h3.5l-4.436-12.8Zm.446,7.636,1.337-4.557h.081l1.3,4.557Zm17.176,1.884c-.527-1.2-.425-2.127-1.134-2.613v-.02h0a3.644,3.644,0,0,0,1.965-3.241c0-2.734-1.985-3.646-4.942-3.646h-4.578v12.8h3.322v-4.8h.79c.911,0,1.053.871,1.337,1.458l.628,1.56a2.967,2.967,0,0,0,3.362,1.985l1.357-2.815a1.717,1.717,0,0,1-.344.081,1.577,1.577,0,0,1-1.762-.749m-4.152-4.051h-1.256v-2.9h.992c1.2,0,1.823.263,1.823,1.337a1.392,1.392,0,0,1-1.56,1.56m10.532-5.469h-3.322v12.8h7.028l1.4-2.917h-5.1Zm9.479,7.717h2.957l1.4-2.876h-4.355v-1.944H174.1v-2.9h-8.365v12.8h8.507v-2.9h-5.205Zm17.8,6.056a11.035,11.035,0,0,1-3.5-1.276c2.005-.871,3.241-2.9,3.241-6.076,0-4.881-2.593-6.664-5.57-6.664-2.8,0-5.955,1.742-5.955,6.664,0,3.889,1.661,6.076,4.537,6.5l-.932,1.924a1.758,1.758,0,0,1,.689-.3,4.5,4.5,0,0,1,1.256-.061c2.228.061,3.464,1.762,6.2,1.863a8.436,8.436,0,0,0,1.013,0l1.357-2.815a4.323,4.323,0,0,1-.992.3,2.65,2.65,0,0,1-1.337-.061m-5.955-3.322c-2.025,0-2.41-2.309-2.41-4.071,0-1.884.608-3.808,2.329-3.808,1.924,0,2.35,2.329,2.35,3.929,0,1.924-.506,3.95-2.269,3.95m14.057-1.985a1.6,1.6,0,0,1-1.7,1.8c-1.053,0-1.8-.446-1.8-1.9v-8.365h-3.3v8.568c0,3.119,1.722,4.456,5.043,4.456,3.018,0,5.1-1.58,5.1-4.172v-8.851h-3.342Zm18.533-8.466v6.968h-.041l-4.213-6.968h-3.058v12.8h3.281v-7.109h.061l4.355,7.109h2.917v-12.8Zm-12.943,12.8h3.322v-12.8h-3.322Z" transform="translate(-78.31 -42.744)" fill="#535355"/>
    <path id="Path_127052" data-name="Path 127052" d="M28.18,250.621h4.051V245.7h3.322l-5.327-11.1-5.347,11.1h3.3Zm7.373-4.9V258.5H32.231v-4.962H28.18V258.5h-3.3V245.72L21.8,252.1l8.406,17.5,8.406-17.5C38.632,252.1,35.553,245.72,35.553,245.72Z" transform="translate(0 0)" fill="#c6161d"/>
    <path id="Path_127053" data-name="Path 127053" d="M606.082,284.246A1.728,1.728,0,0,1,604.3,282.4a1.773,1.773,0,1,1,1.782,1.843m0-3.484a1.558,1.558,0,0,0-1.6,1.661,1.575,1.575,0,0,0,1.6,1.681,1.673,1.673,0,0,0,0-3.342m.547,2.613-.608-.851h-.243v.83h-.243v-2.025h.506c.425,0,.689.223.689.587a.589.589,0,0,1-.446.567l.608.83Zm-.608-1.8h-.243v.749h.243c.284,0,.466-.142.466-.385s-.162-.365-.466-.365" transform="translate(-464.517 -36.683)" fill="none" stroke="#535355" stroke-width="0.978"/>
    <path id="Path_127054" data-name="Path 127054" d="M76.091,397.1v1.9h-.223v-1.9H75.2v-.2h1.519l.041.2Zm2.9,1.9-.122-1.742-.689,1.762H78l-.689-1.742-.142,1.742h-.223l.162-2.106h.263l.709,1.863.709-1.863h.263l.162,2.106C79.21,399.007,78.988,399.007,78.988,399.007Z" transform="translate(-42.584 -129.427)" fill="#535355" stroke="#535355" stroke-width="0.978"/>
  </g>
</svg>
