<svg xmlns="http://www.w3.org/2000/svg" width="106.849" height="35" viewBox="0 0 106.849 35">
  <g id="Group_54687" data-name="Group 54687" transform="translate(-832 -6280)">
    <g id="Penguin_Books" data-name="Penguin Books" transform="translate(787.25 6237.686)">
      <path id="Path_127055" data-name="Path 127055" d="M57.15,42.314c-11.906.03-12.4,14.868-12.4,17.6.015,8.271,3.4,17.41,12.474,17.4s12.415-9.229,12.4-17.5c-.015-2.737-.568-17.515-12.474-17.5" transform="translate(0 0)"/>
      <path id="Path_127056" data-name="Path 127056" d="M68.648,79.878c-8.63.015-10.949-9.154-10.964-17.021,0-2.588-.434-17.051,10.874-17.081S79.552,60.284,79.552,62.887c0,7.868-2.273,16.962-10.9,16.991" transform="translate(-11.423 -3.058)" fill="#f60"/>
      <path id="Path_127057" data-name="Path 127057" d="M98.466,81.434c-1.017-1.615-2.438-3.515-2.588-5.474-.1-1.226-.03-2.6-.853-3.62a3.133,3.133,0,0,0-.912-.748,2.906,2.906,0,0,0-1.226-.3,4.1,4.1,0,0,0-1.137.165,10.076,10.076,0,0,1-1.316.359,3.734,3.734,0,0,1-1.466-.075c-.3-.075-.389-.09-.688-.165-.165-.03-.628-.165-.763-.03-.344.344.389.763.6.912.479.344.673.464,1.137.853a3.741,3.741,0,0,1,1.286,1.959,2.811,2.811,0,0,1,.075.7c.045,3.44-5.7,6.821-5.609,12.908.03,2.154,1.182,2.513,1.167,1.316a12.079,12.079,0,0,1,1-4.263c.12-.3.509-.389.419.135a21.983,21.983,0,0,0-.449,4.637,16.327,16.327,0,0,0,.12,1.705,8.327,8.327,0,0,0,.3,1.346A5.461,5.461,0,0,0,88,94.82a4.385,4.385,0,0,0,.509.748,5.8,5.8,0,0,0,.628.583.919.919,0,0,1,.344.374c.09.254-.224.344-.389.419s-.344.179-.524.254c-.254.12-.494.254-.733.389-.15.09-.314.135-.464.239s-.209.239,0,.284a2.208,2.208,0,0,0,.314-.015,1.524,1.524,0,0,1,.524.03c.224.09.209.3.224.509s.165.3.374.239a1.539,1.539,0,0,0,.583-.389,2.232,2.232,0,0,1,.434-.3,2.118,2.118,0,0,1,1.017-.09c.179.015.449.09.6-.06s.045-.419-.03-.583-.15-.314-.224-.479c-.03-.075-.09-.135-.12-.209-.135-.3.912-.524,1.062-.568a9.213,9.213,0,0,1,1.556-.3,3.231,3.231,0,0,1,1.511.15,1.244,1.244,0,0,1,.494.389c.075.09.254.374.09.494-.239.179-.479.329-.718.509a4.978,4.978,0,0,0-.419.374c-.09.1-.12.3.075.284.254-.015.509-.03.763-.03A.915.915,0,0,1,96,98.2c.254.165.3.538.583.673a.3.3,0,0,0,.254.015c.179-.06.269-.239.359-.389a.909.909,0,0,1,.329-.344.681.681,0,0,1,.3-.075,3.433,3.433,0,0,1,.553.03c.15.015.344.09.479-.015.239-.194-.4-.613-.523-.688-.3-.179-.718-.374-.808-.748a2.124,2.124,0,0,1,.3-1.3,13.4,13.4,0,0,0,.613-1.226,6.833,6.833,0,0,0,.3-1.241,16.454,16.454,0,0,0-.882-6.955c-.075-.269-.179-.523-.254-.793-.12-.419.284-.509.494-.1a22.8,22.8,0,0,1,1.87,4.712c.239,1.167,1.122,1.212,1.092-.868a13.886,13.886,0,0,0-2.588-7.449" transform="translate(-35.558 -25.598)"/>
      <path id="Path_127058" data-name="Path 127058" d="M124.37,97.166c.15,1.526.329,4.143-1.526,4.233a16.55,16.55,0,0,0-2-.254c-1.541.1-2,.688-3.276.464a2,2,0,0,1-1.556-1.241,7.785,7.785,0,0,1-.434-2.558,23,23,0,0,1,0-2.872c.045-.688.12-1.376.209-2.064a32.881,32.881,0,0,1,.658-3.38,14.164,14.164,0,0,1,.9-2.9,3.409,3.409,0,0,1,1.466-1.675,3.023,3.023,0,0,1,2.543-.03c1.675.853,1.63,2.857,1.675,4.472a26.453,26.453,0,0,0,.419,3.754c.224,1.376.778,2.677.927,4.053m-2.707-16.707a2.806,2.806,0,0,1-.239,2.632,2.273,2.273,0,0,1-1.316.434c-.494.075-.957.179-1.436.3-.449.1-.419-.374.015-.718.658-.509,2.288-.748,2.677-2.647.03-.075.1-.224.3,0m-2.363.434a1.068,1.068,0,0,0,1.451-.434,1.085,1.085,0,0,0-.209-1.511,1.068,1.068,0,0,0-1.451.434,1.084,1.084,0,0,0,.209,1.511" transform="translate(-62.523 -32.237)" fill="#fff"/>
      <path id="Path_127059" data-name="Path 127059" d="M150.587,85.648a.452.452,0,1,1,.06.7.508.508,0,0,1-.06-.7" transform="translate(-93.392 -38.039)"/>
    </g>
    <g id="prh-logo" transform="translate(867 6280.01)">
      <path id="Path_127060" data-name="Path 127060" d="M269.1,224.175a2.524,2.524,0,0,0,2.667-1.734l-.419-.149a2.134,2.134,0,0,1-2.168,1.338c-1.706,0-2.707-1.178-2.707-3.019v-.136h5.377c.013-.094.013-.312.013-.432a2.838,2.838,0,0,0-2.885-3.021c-1.912,0-3.168,1.463-3.168,3.576A3.247,3.247,0,0,0,269.1,224.175Zm-.136-6.608a2.214,2.214,0,0,1,2.249,2.382h-4.7a2.477,2.477,0,0,1,2.451-2.382Zm30.008-1.912a.582.582,0,1,0-.582-.582A.582.582,0,0,0,298.974,215.654ZM267.2,235.129c0,1.015.786,1.692,2.019,1.692a3.671,3.671,0,0,0,2.558-1.1,1.055,1.055,0,0,0,1.124.893,1.132,1.132,0,0,0,1.191-1.042l-.312-.136c-.107.419-.31.65-.677.65-.474,0-.69-.245-.69-1.111v-2.939a2.072,2.072,0,0,0-2.356-2.356,2.912,2.912,0,0,0-2.086.69,1.244,1.244,0,0,0-.474.839.382.382,0,0,0,.407.394c.325,0,.365-.312.555-.663.231-.407.583-.719,1.545-.719a1.564,1.564,0,0,1,1.732,1.748v.765C268.844,232.752,267.2,233.586,267.2,235.129Zm4.537.054a3.442,3.442,0,0,1-2.411,1.1c-.8,0-1.461-.382-1.461-1.147,0-.956.826-1.855,3.872-1.912Zm9.627-10.019c0,1.042.989,1.912,2.992,1.912,2.1,0,3.2-.88,3.2-2.044,0-1.287-1.5-1.627-2.979-1.748-1.1-.094-2.1-.136-2.1-.677,0-.272.272-.528,1.476-.528h.43a2.543,2.543,0,0,0,2-4.252c.094-1.231,1.178-.623,1.178-1.258a.382.382,0,0,0-.434-.407,1.358,1.358,0,0,0-1.178,1.3,2.637,2.637,0,0,0-1.489-.434,2.524,2.524,0,0,0-2.721,2.507A2.423,2.423,0,0,0,283,221.727c-.73.067-1.124.447-1.124.956,0,.365.231.717.841.92A1.7,1.7,0,0,0,281.369,225.163Zm1-5.6a2.033,2.033,0,0,1,4.063.027,1.942,1.942,0,0,1-2.044,1.977,2,2,0,0,1-2.019-2Zm1.111,4.206,1.354.122c1.585.141,2.073.6,2.073,1.191,0,.826-.839,1.463-2.533,1.463-1.516,0-2.382-.61-2.382-1.423C281.993,224.513,282.507,223.93,283.482,223.765Zm2.723,5.927c-1.9,0-3.17,1.476-3.17,3.616,0,2.1,1.124,3.52,3.008,3.52a2.575,2.575,0,0,0,2.342-1.3l.013,1.164.04.029,2.14-.2v-.365h-1.53V226.4l-.365-.109a2.6,2.6,0,0,1-2.153,1.147v.3a2.509,2.509,0,0,0,1.841-.31v3.3A2.6,2.6,0,0,0,286.2,229.693Zm2.166,5.078a2.254,2.254,0,0,1-2.222,1.516c-1.53,0-2.436-1.164-2.436-3.006,0-1.8,1.015-3.048,2.572-3.048a2.294,2.294,0,0,1,2.086,1.22ZM274.125,218.02v5.354l-1.61.136v.392h3.824v-.382l-1.535-.136v-4.138a3.152,3.152,0,0,1,2.6-1.639,1.593,1.593,0,0,1,1.665,1.788v3.989l-1.57.136v.382h3.7v-.392l-1.447-.136v-4.048a2.052,2.052,0,0,0-2.208-2.294,3.329,3.329,0,0,0-2.748,1.545v-1.463l-.382-.109a2.736,2.736,0,0,1-2.166.881v.3a3.092,3.092,0,0,0,1.883-.17Zm15.14.042v3.824a2.055,2.055,0,0,0,2.222,2.294,3.319,3.319,0,0,0,2.721-1.5l.013,1.367.04.027,2.1-.2V223.5h-1.489v-6.392l-.382-.109a2.841,2.841,0,0,1-2.18.881v.3a3,3,0,0,0,1.868-.163v4.015a3.221,3.221,0,0,1-2.6,1.57,1.585,1.585,0,0,1-1.652-1.774v-4.717l-.365-.109a2.453,2.453,0,0,1-1.99.881v.3a2.713,2.713,0,0,0,1.692-.12Zm-7.623,24.359-.382-.109a2.843,2.843,0,0,1-2.182.881v.3a3.033,3.033,0,0,0,1.87-.163v4.015a3.224,3.224,0,0,1-2.6,1.57,1.585,1.585,0,0,1-1.652-1.772v-4.728l-.361-.1a2.453,2.453,0,0,1-1.99.881v.3a2.727,2.727,0,0,0,1.679-.122v3.824a2.05,2.05,0,0,0,2.22,2.294,3.323,3.323,0,0,0,2.723-1.5l.013,1.367.04.027,2.113-.2v-.363h-1.49Zm12.132-12.729a3.221,3.221,0,0,0-3.272,3.554c0,2.126,1.285,3.574,3.262,3.574a3.576,3.576,0,0,0,.01-7.128Zm0,6.595c-1.583,0-2.6-1.218-2.6-3.033s1.015-3.021,2.6-3.021,2.614,1.206,2.614,3.021-1.015,3.025-2.614,3.025Zm-.488,6.054c-1.912,0-3.168,1.461-3.168,3.574a3.245,3.245,0,0,0,3.291,3.576,2.522,2.522,0,0,0,2.667-1.734l-.419-.147a2.136,2.136,0,0,1-2.166,1.338c-1.707,0-2.709-1.18-2.709-3.021v-.134h5.377c.013-.1.013-.312.013-.434a2.839,2.839,0,0,0-2.885-3.025Zm-2.463,2.916a2.475,2.475,0,0,1,2.449-2.382,2.214,2.214,0,0,1,2.249,2.382Zm6.228-21.746v.392h3.86v-.392l-1.572-.136v-6.256l-.382-.122a2.841,2.841,0,0,1-2.18.881v.3a3.042,3.042,0,0,0,1.881-.176v5.384Zm11.663,8.413c0-1.233-.514-2.235-1.95-2.235a2.939,2.939,0,0,0-2.532,1.476,1.753,1.753,0,0,0-1.857-1.476,3.132,3.132,0,0,0-2.486,1.489v-1.409l-.382-.107a2.816,2.816,0,0,1-2.166.88v.285a3.059,3.059,0,0,0,1.883-.176v5.371l-1.612.136v.394h3.533v-.382l-1.245-.136v-4.207a2.817,2.817,0,0,1,2.294-1.556c1.082,0,1.434.73,1.434,1.841v3.925l-1.327.136v.382h3.344v-.382l-1.338-.136v-4.015a1.913,1.913,0,0,0-.013-.27,2.666,2.666,0,0,1,2.275-1.489c1.1,0,1.449.744,1.449,1.828v3.939l-1.233.136v.382H310.2v-.382l-1.476-.149Zm-22.239,13.618c-.88-.216-1.99-.514-1.99-1.476,0-.637.461-1.2,1.625-1.2a2.164,2.164,0,0,1,2.073,1.314l.432.765.338-.067-.432-2.56h-.367l-.013,1.124a2.368,2.368,0,0,0-2.126-1.1c-1.354,0-2.166.765-2.166,1.746,0,1.367,1.558,1.788,2.486,2.033,1.273.323,2.14.635,2.14,1.556,0,.813-.69,1.3-1.732,1.3a2.706,2.706,0,0,1-2.424-1.625l-.419-.69-.352.067L284,249.36h.382l-.04-1.271a2.725,2.725,0,0,0,2.486,1.394c1.382,0,2.294-.732,2.294-1.868C289.115,246.3,287.964,245.92,286.474,245.542Zm22.262-22.159v-4.057a2.052,2.052,0,0,0-2.207-2.294,3.329,3.329,0,0,0-2.736,1.545v-1.463l-.382-.109a2.738,2.738,0,0,1-2.166.881v.3a3.033,3.033,0,0,0,1.881-.163v5.354l-1.612.136v.392h3.834v-.382l-1.545-.136v-4.138a3.152,3.152,0,0,1,2.587-1.639,1.6,1.6,0,0,1,1.665,1.788v3.989l-1.572.136v.382H310.2v-.392Zm-46.893,12.748-2.1-.136v-3.48h2.79l1.977,4.036h2.486v-.421l-2.017-.2-1.679-3.413a2.544,2.544,0,0,0,2.518-2.694,2.509,2.509,0,0,0-2.677-2.6h-6.08v.421l1.977.149V236l-1.977.136v.421h4.793Zm-2.1-8.369H262.9a2.1,2.1,0,1,1,.029,4.2h-3.18Zm14.532,8.4v.394h3.834v-.382l-1.545-.136v-4.141a3.143,3.143,0,0,1,2.6-1.623,1.581,1.581,0,0,1,1.665,1.772v3.994l-1.57.136v.382h3.7v-.394l-1.438-.138v-4.048a2.05,2.05,0,0,0-2.207-2.294,3.352,3.352,0,0,0-2.765,1.543v-1.449l-.382-.107a2.781,2.781,0,0,1-2.166.88v.285a3.033,3.033,0,0,0,1.881-.163v5.354Zm-12.428-12.675-2.1-.134v-3.317h3.21a2.568,2.568,0,0,0,2.654-2.79,2.525,2.525,0,0,0-2.723-2.677H257.05v.421l1.964.149v8.222l-1.964.134v.421h4.794Zm-2.1-8.38h3.008a1.994,1.994,0,0,1,2.14,2.126,2.02,2.02,0,0,1-2.033,2.26h-3.111Zm6.013,25.335,1.99-.149v-.419h-4.709v.419l2,.136v3.656h-5.281v-3.656l2.006-.136v-.419H257.05v.419l1.977.149v8.222l-1.977.136v.419h4.713v-.419l-2.006-.136V244.62h5.281v4.036l-2,.136v.419h4.713v-.419l-1.99-.136Zm5.2,1.9c-1.99,0-3.277,1.447-3.277,3.574s1.287,3.576,3.264,3.576a3.588,3.588,0,0,0,.017-7.149Zm0,6.608c-1.583,0-2.6-1.22-2.6-3.034s1.015-3.033,2.6-3.033,2.614,1.218,2.614,3.033-1.011,3.034-2.61,3.034Z" transform="translate(-247.692 -214.5)"/>
      <path id="Path_127061" data-name="Path 127061" d="M0,34.913H.717V.24H0V34.913Z" transform="translate(0 -0.202)" fill="#ff8136"/>
      <path id="Path_127062" data-name="Path 127062" d="M372.02,34.913h.717V.24h-.717V34.913Z" transform="translate(-300.888 -0.202)" fill="#ff8136"/>
    </g>
  </g>
</svg>
