<svg xmlns="http://www.w3.org/2000/svg" width="64.486" height="35" viewBox="0 0 64.486 35">
  <g id="Kobo_Inc._Logo_Vector" data-name="Kobo Inc. Logo Vector" transform="translate(-25 -127.879)">
    <g id="Group_54685" data-name="Group 54685" transform="translate(25 127.879)">
      <path id="Path_126980" data-name="Path 126980" d="M25,316.866c1.145-.659,2.168-1.25,3.193-1.838.892-.511,1.79-1.011,2.675-1.534a1.5,1.5,0,0,1,.8-.215c5.657.012,11.315-.016,16.971.042a18.127,18.127,0,0,1,6.628,1.032,8.043,8.043,0,0,1,2.931,1.879,4.476,4.476,0,0,1,1.062,1.757c.041.13.069.282.255.3a.283.283,0,0,0,.312-.227c.826-2.331,2.726-3.387,4.9-4.1a13.912,13.912,0,0,1,3.5-.567c2.921-.181,5.848-.1,8.772-.133.438,0,.585.11.568.56-.034.9-.036,1.81,0,2.713.018.461-.146.567-.575.552-3.154-.11-6.309-.1-9.464-.077a13.234,13.234,0,0,0-3.572.453,5.269,5.269,0,0,0-3.751,3.854c-.151.52-.494.328-.791.369s-.486-.028-.569-.376a5.157,5.157,0,0,0-4.4-4,28.461,28.461,0,0,0-6.2-.314c-4.2.032-8.4.085-12.6.132-1.754.019-3.508.049-5.262.063-1.577.012-3.15-.093-4.722-.211C25.5,316.968,25.325,316.923,25,316.866Z" transform="translate(-25 -286.696)" fill="#63c9e2" fill-rule="evenodd"/>
      <path id="Path_126981" data-name="Path 126981" d="M274.235,136.119c1.557-1.944,3.463-2.524,5.486-1.752a4.427,4.427,0,0,1,2.656,3.06,13.462,13.462,0,0,1,.193,7.4c-.772,3.034-2.873,4.431-6.265,4.269a5.328,5.328,0,0,1-5.374-5.236c-.041-.512-.06-1.026-.06-1.539,0-4.575.009-9.15-.017-13.725,0-.559.158-.69.682-.657a20.406,20.406,0,0,0,2.18,0c.408-.018.535.092.53.518-.022,2.394-.01,4.788-.01,7.182C274.235,135.761,274.235,135.881,274.235,136.119Zm5.1,5.342c0-.461.03-.924-.006-1.381a6.051,6.051,0,0,0-.737-2.905,1.883,1.883,0,0,0-2.054-.887,2.345,2.345,0,0,0-1.675,1.63,8.166,8.166,0,0,0-.578,2.743,12.15,12.15,0,0,0,.4,4.577,2.051,2.051,0,0,0,1.984,1.494,2.029,2.029,0,0,0,2.082-1.26,4.969,4.969,0,0,0,.388-1.156A11.032,11.032,0,0,0,279.331,141.461Z" transform="translate(-235.622 -127.926)" fill="#5f6162" fill-rule="evenodd"/>
      <path id="Path_126982" data-name="Path 126982" d="M97.368,148.72c-1.361,0-2.615,0-3.869,0-.25,0-.32-.192-.428-.345q-2.138-3.049-4.272-6.1c-.152-.216-.3-.432-.485-.688a.843.843,0,0,0-.089.57c0,2.022-.014,4.045.005,6.067,0,.391-.087.521-.5.5-.815-.036-1.632-.02-2.448-.005-.3.006-.439-.036-.438-.395q.017-10.033,0-20.065c0-.322.12-.385.4-.38.816.014,1.633.028,2.448,0,.423-.017.534.111.532.532-.017,3.53-.011,7.061-.008,10.591a1.4,1.4,0,0,0,.082.7c.7-.822,1.367-1.609,2.036-2.4.745-.879,1.5-1.754,2.229-2.644a.771.771,0,0,1,.675-.318c1.166.017,2.333.007,3.545.007a1.369,1.369,0,0,1-.39.589c-1.5,1.755-2.987,3.513-4.5,5.251a.531.531,0,0,0-.037.8C93.685,143.527,95.486,146.074,97.368,148.72Z" transform="translate(-76.272 -127.879)" fill="#5f6162" fill-rule="evenodd"/>
      <path id="Path_126983" data-name="Path 126983" d="M182.333,178.125a10.384,10.384,0,0,1-.793,4.258,5.433,5.433,0,0,1-4.728,3.285,7.776,7.776,0,0,1-2.59-.143,5.412,5.412,0,0,1-4.077-3.873,11.244,11.244,0,0,1,0-6.907A5.485,5.485,0,0,1,175.2,170.7a7.238,7.238,0,0,1,2.844.242c2.488.758,3.626,2.618,4.093,5.023A14.651,14.651,0,0,1,182.333,178.125Zm-3.592.075c0-.195.008-.39,0-.585a8.856,8.856,0,0,0-.492-3.024,2.432,2.432,0,0,0-4.544.036,5.223,5.223,0,0,0-.278.968,15.536,15.536,0,0,0-.171,3.812,7.529,7.529,0,0,0,.4,2.241,2.355,2.355,0,0,0,2.637,1.673,2.4,2.4,0,0,0,2.11-1.963A10.914,10.914,0,0,0,178.741,178.2Z" transform="translate(-148.879 -164.526)" fill="#5f6162" fill-rule="evenodd"/>
      <path id="Path_126984" data-name="Path 126984" d="M373.2,185.756a5.74,5.74,0,0,1-6.064-4.978,12.589,12.589,0,0,1-.006-5.017c.762-3.75,3.469-5.391,7.089-4.975a5.493,5.493,0,0,1,4.95,4.318,11.584,11.584,0,0,1,.059,6.1C378.464,184.2,376.363,185.759,373.2,185.756ZM376,178.221c-.031-.565-.054-1.132-.094-1.7a6.04,6.04,0,0,0-.334-1.661,2.334,2.334,0,0,0-1.8-1.7,2.4,2.4,0,0,0-2.937,1.8,8.851,8.851,0,0,0-.359,2.516,11.543,11.543,0,0,0,.4,4.153,2.408,2.408,0,0,0,3.208,1.621,2.656,2.656,0,0,0,1.639-2.132A12.962,12.962,0,0,0,376,178.221Z" transform="translate(-317.886 -164.584)" fill="#5f6162" fill-rule="evenodd"/>
      <path id="Path_126985" data-name="Path 126985" d="M411.134,315.18c0,.495-.009.99,0,1.485.006.255-.048.391-.346.387-1.043-.013-2.086-.009-3.13,0-.243,0-.349-.073-.346-.333q.016-1.564,0-3.129c0-.283.1-.363.373-.361,1.025.011,2.051.016,3.076,0,.325-.005.38.14.373.416C411.125,314.154,411.134,314.668,411.134,315.18Z" transform="translate(-352.53 -286.666)" fill="#63c9e2" fill-rule="evenodd"/>
      <path id="Path_126986" data-name="Path 126986" d="M450.271,317.064c-.479,0-.959-.012-1.437,0-.3.011-.451-.062-.445-.409.019-1.011.014-2.022,0-3.033,0-.274.087-.373.367-.37,1.029.013,2.058.009,3.087,0,.235,0,.357.052.355.322-.011,1.046-.013,2.094,0,3.14,0,.3-.134.353-.388.347C451.3,317.056,450.785,317.064,450.271,317.064Z" transform="translate(-387.716 -286.692)" fill="#63c9e2" fill-rule="evenodd"/>
    </g>
  </g>
</svg>
